%TF.GenerationSoftware,KiCad,Pcbnew,8.0.3+1*%
%TF.CreationDate,2024-06-22T01:26:53+02:00*%
%TF.ProjectId,EDID_spoofer,45444944-5f73-4706-9f6f-6665722e6b69,rev?*%
%TF.SameCoordinates,Original*%
%TF.FileFunction,Copper,L1,Top*%
%TF.FilePolarity,Positive*%
%FSLAX46Y46*%
G04 Gerber Fmt 4.6, Leading zero omitted, Abs format (unit mm)*
G04 Created by KiCad (PCBNEW 8.0.3+1) date 2024-06-22 01:26:53*
%MOMM*%
%LPD*%
G01*
G04 APERTURE LIST*
G04 Aperture macros list*
%AMRoundRect*
0 Rectangle with rounded corners*
0 $1 Rounding radius*
0 $2 $3 $4 $5 $6 $7 $8 $9 X,Y pos of 4 corners*
0 Add a 4 corners polygon primitive as box body*
4,1,4,$2,$3,$4,$5,$6,$7,$8,$9,$2,$3,0*
0 Add four circle primitives for the rounded corners*
1,1,$1+$1,$2,$3*
1,1,$1+$1,$4,$5*
1,1,$1+$1,$6,$7*
1,1,$1+$1,$8,$9*
0 Add four rect primitives between the rounded corners*
20,1,$1+$1,$2,$3,$4,$5,0*
20,1,$1+$1,$4,$5,$6,$7,0*
20,1,$1+$1,$6,$7,$8,$9,0*
20,1,$1+$1,$8,$9,$2,$3,0*%
%AMFreePoly0*
4,1,19,0.000000,0.744911,0.071157,0.744911,0.207708,0.704816,0.327430,0.627875,0.420627,0.520320,0.479746,0.390866,0.500000,0.250000,0.500000,-0.250000,0.479746,-0.390866,0.420627,-0.520320,0.327430,-0.627875,0.207708,-0.704816,0.071157,-0.744911,0.000000,-0.744911,0.000000,-0.750000,-0.500000,-0.750000,-0.500000,0.750000,0.000000,0.750000,0.000000,0.744911,0.000000,0.744911,
$1*%
%AMFreePoly1*
4,1,19,0.500000,-0.750000,0.000000,-0.750000,0.000000,-0.744911,-0.071157,-0.744911,-0.207708,-0.704816,-0.327430,-0.627875,-0.420627,-0.520320,-0.479746,-0.390866,-0.500000,-0.250000,-0.500000,0.250000,-0.479746,0.390866,-0.420627,0.520320,-0.327430,0.627875,-0.207708,0.704816,-0.071157,0.744911,0.000000,0.744911,0.000000,0.750000,0.500000,0.750000,0.500000,-0.750000,0.500000,-0.750000,
$1*%
%AMFreePoly2*
4,1,19,0.550000,-0.750000,0.000000,-0.750000,0.000000,-0.744911,-0.071157,-0.744911,-0.207708,-0.704816,-0.327430,-0.627875,-0.420627,-0.520320,-0.479746,-0.390866,-0.500000,-0.250000,-0.500000,0.250000,-0.479746,0.390866,-0.420627,0.520320,-0.327430,0.627875,-0.207708,0.704816,-0.071157,0.744911,0.000000,0.744911,0.000000,0.750000,0.550000,0.750000,0.550000,-0.750000,0.550000,-0.750000,
$1*%
%AMFreePoly3*
4,1,19,0.000000,0.744911,0.071157,0.744911,0.207708,0.704816,0.327430,0.627875,0.420627,0.520320,0.479746,0.390866,0.500000,0.250000,0.500000,-0.250000,0.479746,-0.390866,0.420627,-0.520320,0.327430,-0.627875,0.207708,-0.704816,0.071157,-0.744911,0.000000,-0.744911,0.000000,-0.750000,-0.550000,-0.750000,-0.550000,0.750000,0.000000,0.750000,0.000000,0.744911,0.000000,0.744911,
$1*%
G04 Aperture macros list end*
%TA.AperFunction,EtchedComponent*%
%ADD10C,0.000000*%
%TD*%
%TA.AperFunction,SMDPad,CuDef*%
%ADD11FreePoly0,0.000000*%
%TD*%
%TA.AperFunction,SMDPad,CuDef*%
%ADD12FreePoly1,0.000000*%
%TD*%
%TA.AperFunction,ComponentPad*%
%ADD13C,4.000000*%
%TD*%
%TA.AperFunction,ComponentPad*%
%ADD14R,1.600000X1.600000*%
%TD*%
%TA.AperFunction,ComponentPad*%
%ADD15C,1.600000*%
%TD*%
%TA.AperFunction,SMDPad,CuDef*%
%ADD16RoundRect,0.250000X-0.262500X-0.450000X0.262500X-0.450000X0.262500X0.450000X-0.262500X0.450000X0*%
%TD*%
%TA.AperFunction,SMDPad,CuDef*%
%ADD17RoundRect,0.250000X-0.475000X0.250000X-0.475000X-0.250000X0.475000X-0.250000X0.475000X0.250000X0*%
%TD*%
%TA.AperFunction,SMDPad,CuDef*%
%ADD18RoundRect,0.150000X0.150000X-0.725000X0.150000X0.725000X-0.150000X0.725000X-0.150000X-0.725000X0*%
%TD*%
%TA.AperFunction,ComponentPad*%
%ADD19R,1.700000X1.700000*%
%TD*%
%TA.AperFunction,ComponentPad*%
%ADD20O,1.700000X1.700000*%
%TD*%
%TA.AperFunction,SMDPad,CuDef*%
%ADD21FreePoly2,90.000000*%
%TD*%
%TA.AperFunction,SMDPad,CuDef*%
%ADD22R,1.500000X1.000000*%
%TD*%
%TA.AperFunction,SMDPad,CuDef*%
%ADD23FreePoly3,90.000000*%
%TD*%
%TA.AperFunction,ViaPad*%
%ADD24C,0.600000*%
%TD*%
%TA.AperFunction,Conductor*%
%ADD25C,0.200000*%
%TD*%
G04 APERTURE END LIST*
D10*
%TA.AperFunction,EtchedComponent*%
%TO.C,JP3*%
G36*
X25650000Y-51100000D02*
G01*
X25150000Y-51100000D01*
X25150000Y-50500000D01*
X25650000Y-50500000D01*
X25650000Y-51100000D01*
G37*
%TD.AperFunction*%
%TA.AperFunction,EtchedComponent*%
%TO.C,JP2*%
G36*
X25650000Y-38400000D02*
G01*
X25150000Y-38400000D01*
X25150000Y-37800000D01*
X25650000Y-37800000D01*
X25650000Y-38400000D01*
G37*
%TD.AperFunction*%
%TA.AperFunction,EtchedComponent*%
%TO.C,JP1*%
G36*
X49195000Y-51065000D02*
G01*
X48595000Y-51065000D01*
X48595000Y-50565000D01*
X49195000Y-50565000D01*
X49195000Y-51065000D01*
G37*
%TD.AperFunction*%
%TD*%
D11*
%TO.P,JP5,2,B*%
%TO.N,SCL*%
X26050000Y-46736000D03*
D12*
%TO.P,JP5,1,A*%
%TO.N,GND*%
X24750000Y-46736000D03*
%TD*%
%TO.P,JP4,1,A*%
%TO.N,GND*%
X24750000Y-42672000D03*
D11*
%TO.P,JP4,2,B*%
%TO.N,SDA*%
X26050000Y-42672000D03*
%TD*%
D12*
%TO.P,JP3,1,A*%
%TO.N,GND*%
X24750000Y-50800000D03*
D11*
%TO.P,JP3,2,B*%
%TO.N,/ID2*%
X26050000Y-50800000D03*
%TD*%
%TO.P,JP2,2,B*%
%TO.N,/ID0*%
X26050000Y-38100000D03*
D12*
%TO.P,JP2,1,A*%
%TO.N,GND*%
X24750000Y-38100000D03*
%TD*%
D13*
%TO.P,J2,0*%
%TO.N,GND*%
X21990000Y-57150000D03*
X46990000Y-57150000D03*
D14*
%TO.P,J2,1*%
%TO.N,/R*%
X38805000Y-55730000D03*
D15*
%TO.P,J2,2*%
%TO.N,/G*%
X36515000Y-55730000D03*
%TO.P,J2,3*%
%TO.N,/B*%
X34225000Y-55730000D03*
%TO.P,J2,4*%
%TO.N,unconnected-(J2-Pad4)*%
X31935000Y-55730000D03*
%TO.P,J2,5*%
%TO.N,GND*%
X29645000Y-55730000D03*
%TO.P,J2,6*%
%TO.N,/RRTN*%
X39950000Y-57710000D03*
%TO.P,J2,7*%
%TO.N,/GRTN*%
X37660000Y-57710000D03*
%TO.P,J2,8*%
%TO.N,/BRTN*%
X35370000Y-57710000D03*
%TO.P,J2,9*%
%TO.N,unconnected-(J2-Pad9)*%
X33080000Y-57710000D03*
%TO.P,J2,10*%
%TO.N,/SRTN*%
X30790000Y-57710000D03*
%TO.P,J2,11*%
%TO.N,unconnected-(J2-Pad11)*%
X38805000Y-59690000D03*
%TO.P,J2,12*%
%TO.N,unconnected-(J2-Pad12)*%
X36515000Y-59690000D03*
%TO.P,J2,13*%
%TO.N,HSYNC*%
X34225000Y-59690000D03*
%TO.P,J2,14*%
%TO.N,VSYNC*%
X31935000Y-59690000D03*
%TO.P,J2,15*%
%TO.N,unconnected-(J2-Pad15)*%
X29645000Y-59690000D03*
%TD*%
D16*
%TO.P,R1,1*%
%TO.N,+5V*%
X40720000Y-38100000D03*
%TO.P,R1,2*%
%TO.N,SDA*%
X42545000Y-38100000D03*
%TD*%
%TO.P,R2,1*%
%TO.N,+5V*%
X40720000Y-40640000D03*
%TO.P,R2,2*%
%TO.N,SCL*%
X42545000Y-40640000D03*
%TD*%
%TO.P,R3,1*%
%TO.N,+5V*%
X40720000Y-43180000D03*
%TO.P,R3,2*%
%TO.N,VSYNC*%
X42545000Y-43180000D03*
%TD*%
D17*
%TO.P,C1,1*%
%TO.N,+5V*%
X39116000Y-46802000D03*
%TO.P,C1,2*%
%TO.N,GND*%
X39116000Y-48702000D03*
%TD*%
D18*
%TO.P,U1,1,N/C*%
%TO.N,GND*%
X40997500Y-52070000D03*
%TO.P,U1,2,N/C*%
X42267500Y-52070000D03*
%TO.P,U1,3,WP*%
%TO.N,/WP*%
X43537500Y-52070000D03*
%TO.P,U1,4,GND*%
%TO.N,GND*%
X44807500Y-52070000D03*
%TO.P,U1,5,SDA*%
%TO.N,SDA*%
X44807500Y-46920000D03*
%TO.P,U1,6,SCL*%
%TO.N,SCL*%
X43537500Y-46920000D03*
%TO.P,U1,7,VCLK*%
%TO.N,VSYNC*%
X42267500Y-46920000D03*
%TO.P,U1,8,VCC*%
%TO.N,+5V*%
X40997500Y-46920000D03*
%TD*%
D13*
%TO.P,J1,0*%
%TO.N,GND*%
X46990000Y-31750000D03*
X21990000Y-31750000D03*
D14*
%TO.P,J1,1*%
%TO.N,/R*%
X38805000Y-33170000D03*
D15*
%TO.P,J1,2*%
%TO.N,/G*%
X36515000Y-33170000D03*
%TO.P,J1,3*%
%TO.N,/B*%
X34225000Y-33170000D03*
%TO.P,J1,4*%
%TO.N,/ID2*%
X31935000Y-33170000D03*
%TO.P,J1,5*%
%TO.N,GND*%
X29645000Y-33170000D03*
%TO.P,J1,6*%
%TO.N,/RRTN*%
X39950000Y-31190000D03*
%TO.P,J1,7*%
%TO.N,/GRTN*%
X37660000Y-31190000D03*
%TO.P,J1,8*%
%TO.N,/BRTN*%
X35370000Y-31190000D03*
%TO.P,J1,9*%
%TO.N,+5V*%
X33080000Y-31190000D03*
%TO.P,J1,10*%
%TO.N,/SRTN*%
X30790000Y-31190000D03*
%TO.P,J1,11*%
%TO.N,/ID0*%
X38805000Y-29210000D03*
%TO.P,J1,12*%
%TO.N,SDA*%
X36515000Y-29210000D03*
%TO.P,J1,13*%
%TO.N,HSYNC*%
X34225000Y-29210000D03*
%TO.P,J1,14*%
%TO.N,VSYNC*%
X31935000Y-29210000D03*
%TO.P,J1,15*%
%TO.N,SCL*%
X29645000Y-29210000D03*
%TD*%
D19*
%TO.P,J3,1,Pin_1*%
%TO.N,+5V*%
X48895000Y-38110000D03*
D20*
%TO.P,J3,2,Pin_2*%
%TO.N,SDA*%
X48895000Y-40650000D03*
%TO.P,J3,3,Pin_3*%
%TO.N,SCL*%
X48895000Y-43190000D03*
%TO.P,J3,4,Pin_4*%
%TO.N,GND*%
X48895000Y-45730000D03*
%TD*%
D21*
%TO.P,JP1,1,A*%
%TO.N,GND*%
X48895000Y-51465000D03*
D22*
%TO.P,JP1,2,C*%
%TO.N,/WP*%
X48895000Y-50165000D03*
D23*
%TO.P,JP1,3,B*%
%TO.N,+5V*%
X48895000Y-48865000D03*
%TD*%
D24*
%TO.N,SCL*%
X45085000Y-40640000D03*
%TO.N,SDA*%
X43815000Y-38100000D03*
%TO.N,GND*%
X25400000Y-22860000D03*
X25400000Y-66040000D03*
X20320000Y-53340000D03*
X48260000Y-53340000D03*
X20320000Y-48260000D03*
X41910000Y-35560000D03*
X48260000Y-22860000D03*
X43180000Y-22860000D03*
X48260000Y-35560000D03*
X29845000Y-40640000D03*
X20320000Y-22860000D03*
X20320000Y-50800000D03*
X27940000Y-66040000D03*
X29845000Y-38100000D03*
X35560000Y-22860000D03*
X48260000Y-60960000D03*
X29845000Y-35560000D03*
X40640000Y-22860000D03*
X29845000Y-48260000D03*
X44450000Y-54610000D03*
X20320000Y-35560000D03*
X45720000Y-53340000D03*
X30480000Y-22860000D03*
X20320000Y-66040000D03*
X29845000Y-45720000D03*
X27940000Y-22860000D03*
X22860000Y-22860000D03*
X38100000Y-66040000D03*
X45720000Y-66040000D03*
X22860000Y-66040000D03*
X41910000Y-49530000D03*
X38100000Y-22860000D03*
X33020000Y-66040000D03*
X20320000Y-38100000D03*
X40640000Y-66040000D03*
X33020000Y-22860000D03*
X29845000Y-50800000D03*
X45720000Y-22860000D03*
X29845000Y-43180000D03*
X20320000Y-63500000D03*
X35560000Y-66040000D03*
X41910000Y-54610000D03*
X48260000Y-25400000D03*
X48260000Y-66040000D03*
X20320000Y-60960000D03*
X30480000Y-66040000D03*
X48260000Y-27940000D03*
X48260000Y-63500000D03*
X43180000Y-66040000D03*
X20320000Y-27940000D03*
X20320000Y-43180000D03*
X20320000Y-40640000D03*
X20320000Y-45720000D03*
X20320000Y-25400000D03*
X29845000Y-53340000D03*
%TO.N,VSYNC*%
X43815000Y-43180000D03*
%TD*%
D25*
%TO.N,+5V*%
X40720000Y-36830000D02*
X40720000Y-34878000D01*
X40720000Y-34878000D02*
X40640000Y-34798000D01*
X40640000Y-34798000D02*
X33528000Y-34798000D01*
X33528000Y-34798000D02*
X33080000Y-34350000D01*
X33080000Y-34350000D02*
X33080000Y-31190000D01*
X40997500Y-46920000D02*
X40316000Y-46920000D01*
X40198000Y-46802000D02*
X39116000Y-46802000D01*
X40316000Y-46920000D02*
X40198000Y-46802000D01*
%TO.N,/ID2*%
X31935000Y-33170000D02*
X30561000Y-34544000D01*
X30561000Y-34544000D02*
X29591000Y-34544000D01*
X29591000Y-34544000D02*
X28956000Y-35179000D01*
X28956000Y-35179000D02*
X28956000Y-49276000D01*
X28956000Y-49276000D02*
X27432000Y-50800000D01*
X27432000Y-50800000D02*
X26050000Y-50800000D01*
%TO.N,SDA*%
X26050000Y-42672000D02*
X27432000Y-42672000D01*
X27432000Y-42672000D02*
X27940000Y-42164000D01*
X27940000Y-42164000D02*
X27940000Y-28575000D01*
X27940000Y-28575000D02*
X29210000Y-27305000D01*
X29210000Y-27305000D02*
X34610000Y-27305000D01*
X34610000Y-27305000D02*
X36515000Y-29210000D01*
%TO.N,SCL*%
X26050000Y-46736000D02*
X27432000Y-46736000D01*
X27432000Y-46736000D02*
X28448000Y-45720000D01*
X28448000Y-45720000D02*
X28448000Y-30407000D01*
X28448000Y-30407000D02*
X29645000Y-29210000D01*
%TO.N,/ID0*%
X26050000Y-38100000D02*
X27432000Y-38100000D01*
X36265000Y-26670000D02*
X38805000Y-29210000D01*
X27432000Y-38100000D02*
X27432000Y-27813000D01*
X27432000Y-27813000D02*
X28575000Y-26670000D01*
X28575000Y-26670000D02*
X36265000Y-26670000D01*
%TO.N,+5V*%
X40997500Y-45085000D02*
X40997500Y-46920000D01*
X47000000Y-38110000D02*
X48895000Y-38110000D01*
X40997500Y-47794999D02*
X40997500Y-46920000D01*
X40720000Y-44807500D02*
X40997500Y-45085000D01*
X45720000Y-36830000D02*
X40720000Y-36830000D01*
X40720000Y-43180000D02*
X40720000Y-44807500D01*
X45720000Y-36830000D02*
X47000000Y-38110000D01*
X40720000Y-43180000D02*
X40720000Y-40640000D01*
X42067501Y-48865000D02*
X40997500Y-47794999D01*
X40720000Y-40640000D02*
X40720000Y-38100000D01*
X42067501Y-48865000D02*
X48895000Y-48865000D01*
X40720000Y-38100000D02*
X40720000Y-36830000D01*
%TO.N,SCL*%
X44002501Y-48260000D02*
X43537500Y-47794999D01*
X43537500Y-44727500D02*
X45085000Y-43180000D01*
X45085000Y-43180000D02*
X45085000Y-40640000D01*
X46990000Y-46990000D02*
X45720000Y-48260000D01*
X43537500Y-47794999D02*
X43537500Y-46920000D01*
X45720000Y-48260000D02*
X44002501Y-48260000D01*
X48895000Y-43190000D02*
X47000000Y-43190000D01*
X47000000Y-43190000D02*
X46990000Y-43180000D01*
X42545000Y-40640000D02*
X45085000Y-40640000D01*
X46990000Y-43180000D02*
X46990000Y-46990000D01*
X43537500Y-46920000D02*
X43537500Y-44727500D01*
%TO.N,SDA*%
X45685000Y-39970000D02*
X43815000Y-38100000D01*
X44807500Y-44871250D02*
X45685000Y-43993750D01*
X45695000Y-40650000D02*
X45685000Y-40640000D01*
X44807500Y-46920000D02*
X44807500Y-44871250D01*
X42545000Y-38100000D02*
X43815000Y-38100000D01*
X48895000Y-40650000D02*
X45695000Y-40650000D01*
X45685000Y-43993750D02*
X45685000Y-40640000D01*
X45685000Y-40640000D02*
X45685000Y-39970000D01*
%TO.N,VSYNC*%
X42545000Y-43180000D02*
X42545000Y-44807500D01*
X42545000Y-44807500D02*
X42267500Y-45085000D01*
X42267500Y-45085000D02*
X42267500Y-46920000D01*
X42545000Y-43180000D02*
X43815000Y-43180000D01*
%TO.N,/WP*%
X43537500Y-51195001D02*
X43537500Y-52070000D01*
X44508751Y-50223751D02*
X43537500Y-51195001D01*
X44508751Y-50223751D02*
X44567502Y-50165000D01*
X44567502Y-50165000D02*
X48895000Y-50165000D01*
%TD*%
%TA.AperFunction,Conductor*%
%TO.N,GND*%
G36*
X50242539Y-20840185D02*
G01*
X50288294Y-20892989D01*
X50299500Y-20944500D01*
X50299500Y-36802171D01*
X50279815Y-36869210D01*
X50227011Y-36914965D01*
X50157853Y-36924909D01*
X50101189Y-36901438D01*
X50053123Y-36865456D01*
X49987331Y-36816204D01*
X49987329Y-36816203D01*
X49987328Y-36816202D01*
X49852482Y-36765908D01*
X49852483Y-36765908D01*
X49792883Y-36759501D01*
X49792881Y-36759500D01*
X49792873Y-36759500D01*
X49792864Y-36759500D01*
X47997129Y-36759500D01*
X47997123Y-36759501D01*
X47937516Y-36765908D01*
X47802671Y-36816202D01*
X47802664Y-36816206D01*
X47687455Y-36902452D01*
X47687452Y-36902455D01*
X47601206Y-37017664D01*
X47601202Y-37017671D01*
X47550908Y-37152517D01*
X47544501Y-37212116D01*
X47544500Y-37212135D01*
X47544500Y-37385500D01*
X47524815Y-37452539D01*
X47472011Y-37498294D01*
X47420500Y-37509500D01*
X47300097Y-37509500D01*
X47233058Y-37489815D01*
X47212416Y-37473181D01*
X46207590Y-36468355D01*
X46207588Y-36468352D01*
X46088717Y-36349481D01*
X46088716Y-36349480D01*
X46001904Y-36299360D01*
X46001904Y-36299359D01*
X46001900Y-36299358D01*
X45951785Y-36270423D01*
X45799057Y-36229499D01*
X45640943Y-36229499D01*
X45633347Y-36229499D01*
X45633331Y-36229500D01*
X41444500Y-36229500D01*
X41377461Y-36209815D01*
X41331706Y-36157011D01*
X41320500Y-36105500D01*
X41320500Y-34798945D01*
X41320500Y-34798943D01*
X41279577Y-34646216D01*
X41279577Y-34646215D01*
X41242378Y-34581785D01*
X41200520Y-34509284D01*
X41088716Y-34397480D01*
X41008716Y-34317480D01*
X40921904Y-34267360D01*
X40921904Y-34267359D01*
X40921900Y-34267358D01*
X40871785Y-34238423D01*
X40719057Y-34197499D01*
X40560943Y-34197499D01*
X40553347Y-34197499D01*
X40553331Y-34197500D01*
X40224234Y-34197500D01*
X40157195Y-34177815D01*
X40111440Y-34125011D01*
X40100944Y-34060246D01*
X40105500Y-34017873D01*
X40105499Y-32589858D01*
X40125184Y-32522820D01*
X40177987Y-32477065D01*
X40197398Y-32470086D01*
X40396496Y-32416739D01*
X40602734Y-32320568D01*
X40789139Y-32190047D01*
X40950047Y-32029139D01*
X41080568Y-31842734D01*
X41123814Y-31749994D01*
X44485057Y-31749994D01*
X44485057Y-31750005D01*
X44504807Y-32063942D01*
X44504808Y-32063949D01*
X44563755Y-32372958D01*
X44660963Y-32672132D01*
X44660965Y-32672137D01*
X44794900Y-32956761D01*
X44794903Y-32956767D01*
X44963457Y-33222367D01*
X44963460Y-33222371D01*
X45054286Y-33332160D01*
X45695748Y-32690698D01*
X45769588Y-32792330D01*
X45947670Y-32970412D01*
X46049300Y-33044250D01*
X45404971Y-33688579D01*
X45404972Y-33688581D01*
X45647772Y-33864985D01*
X45647790Y-33864996D01*
X45923447Y-34016540D01*
X45923455Y-34016544D01*
X46215926Y-34132340D01*
X46520620Y-34210573D01*
X46520629Y-34210575D01*
X46832701Y-34249999D01*
X46832715Y-34250000D01*
X47147285Y-34250000D01*
X47147298Y-34249999D01*
X47459370Y-34210575D01*
X47459379Y-34210573D01*
X47764073Y-34132340D01*
X48056544Y-34016544D01*
X48056552Y-34016540D01*
X48332209Y-33864996D01*
X48332219Y-33864990D01*
X48575026Y-33688579D01*
X48575027Y-33688579D01*
X47930698Y-33044251D01*
X48032330Y-32970412D01*
X48210412Y-32792330D01*
X48284251Y-32690699D01*
X48925712Y-33332160D01*
X49016544Y-33222364D01*
X49185096Y-32956767D01*
X49185099Y-32956761D01*
X49319034Y-32672137D01*
X49319036Y-32672132D01*
X49416244Y-32372958D01*
X49475191Y-32063949D01*
X49475192Y-32063942D01*
X49494943Y-31750005D01*
X49494943Y-31749994D01*
X49475192Y-31436057D01*
X49475191Y-31436050D01*
X49416244Y-31127041D01*
X49319036Y-30827867D01*
X49319034Y-30827862D01*
X49185099Y-30543238D01*
X49185096Y-30543232D01*
X49016542Y-30277632D01*
X49016539Y-30277628D01*
X48925712Y-30167838D01*
X48284250Y-30809300D01*
X48210412Y-30707670D01*
X48032330Y-30529588D01*
X47930698Y-30455748D01*
X48575027Y-29811419D01*
X48575026Y-29811417D01*
X48332227Y-29635014D01*
X48332209Y-29635003D01*
X48056552Y-29483459D01*
X48056544Y-29483455D01*
X47764073Y-29367659D01*
X47459379Y-29289426D01*
X47459370Y-29289424D01*
X47147298Y-29250000D01*
X46832701Y-29250000D01*
X46520629Y-29289424D01*
X46520620Y-29289426D01*
X46215926Y-29367659D01*
X45923455Y-29483455D01*
X45923447Y-29483459D01*
X45647787Y-29635004D01*
X45647782Y-29635007D01*
X45404972Y-29811418D01*
X45404971Y-29811419D01*
X46049301Y-30455748D01*
X45947670Y-30529588D01*
X45769588Y-30707670D01*
X45695748Y-30809300D01*
X45054286Y-30167838D01*
X45054285Y-30167838D01*
X44963459Y-30277629D01*
X44963457Y-30277632D01*
X44794903Y-30543232D01*
X44794900Y-30543238D01*
X44660965Y-30827862D01*
X44660963Y-30827867D01*
X44563755Y-31127041D01*
X44504808Y-31436050D01*
X44504807Y-31436057D01*
X44485057Y-31749994D01*
X41123814Y-31749994D01*
X41176739Y-31636496D01*
X41235635Y-31416692D01*
X41255468Y-31190000D01*
X41235635Y-30963308D01*
X41176739Y-30743504D01*
X41080568Y-30537266D01*
X40950047Y-30350861D01*
X40950045Y-30350858D01*
X40789141Y-30189954D01*
X40602734Y-30059432D01*
X40602732Y-30059431D01*
X40396497Y-29963261D01*
X40396488Y-29963258D01*
X40176697Y-29904366D01*
X40176687Y-29904364D01*
X40102782Y-29897898D01*
X40037714Y-29872445D01*
X39996736Y-29815853D01*
X39992859Y-29746091D01*
X40001208Y-29721968D01*
X40031739Y-29656496D01*
X40090635Y-29436692D01*
X40110468Y-29210000D01*
X40090635Y-28983308D01*
X40031739Y-28763504D01*
X39935568Y-28557266D01*
X39805047Y-28370861D01*
X39805045Y-28370858D01*
X39644141Y-28209954D01*
X39457734Y-28079432D01*
X39457732Y-28079431D01*
X39251497Y-27983261D01*
X39251488Y-27983258D01*
X39031697Y-27924366D01*
X39031693Y-27924365D01*
X39031692Y-27924365D01*
X39031691Y-27924364D01*
X39031686Y-27924364D01*
X38805002Y-27904532D01*
X38804998Y-27904532D01*
X38578313Y-27924364D01*
X38578302Y-27924366D01*
X38482067Y-27950152D01*
X38412217Y-27948489D01*
X38362293Y-27918058D01*
X36752590Y-26308355D01*
X36752588Y-26308352D01*
X36633717Y-26189481D01*
X36633716Y-26189480D01*
X36546904Y-26139360D01*
X36546904Y-26139359D01*
X36546900Y-26139358D01*
X36496785Y-26110423D01*
X36344057Y-26069499D01*
X36185943Y-26069499D01*
X36178347Y-26069499D01*
X36178331Y-26069500D01*
X28654057Y-26069500D01*
X28495943Y-26069500D01*
X28343215Y-26110423D01*
X28343214Y-26110423D01*
X28343212Y-26110424D01*
X28343209Y-26110425D01*
X28293096Y-26139359D01*
X28293095Y-26139360D01*
X28249689Y-26164420D01*
X28206285Y-26189479D01*
X28206282Y-26189481D01*
X26951481Y-27444282D01*
X26951479Y-27444285D01*
X26901361Y-27531094D01*
X26901359Y-27531096D01*
X26872425Y-27581209D01*
X26872424Y-27581210D01*
X26872423Y-27581215D01*
X26831499Y-27733943D01*
X26831499Y-27733945D01*
X26831499Y-27902046D01*
X26831500Y-27902059D01*
X26831500Y-36929909D01*
X26811815Y-36996948D01*
X26759011Y-37042703D01*
X26689853Y-37052647D01*
X26640461Y-37034225D01*
X26533138Y-36965253D01*
X26533136Y-36965252D01*
X26444796Y-36924909D01*
X26402259Y-36905483D01*
X26265939Y-36865456D01*
X26264308Y-36864977D01*
X26264296Y-36864974D01*
X26121889Y-36844500D01*
X25550000Y-36844500D01*
X25549997Y-36844500D01*
X25478061Y-36849644D01*
X25478056Y-36849645D01*
X25439591Y-36860939D01*
X25387014Y-36864699D01*
X25250000Y-36845000D01*
X24678111Y-36845000D01*
X24535838Y-36865455D01*
X24535834Y-36865456D01*
X24397891Y-36905959D01*
X24397889Y-36905960D01*
X24267138Y-36965670D01*
X24267132Y-36965673D01*
X24146182Y-37043402D01*
X24144438Y-37044808D01*
X24142835Y-37046301D01*
X24093020Y-37089465D01*
X24093019Y-37089467D01*
X24750000Y-37746447D01*
X25008181Y-38004628D01*
X25041666Y-38065951D01*
X25044500Y-38092309D01*
X25044500Y-38107690D01*
X25024815Y-38174729D01*
X25008181Y-38195371D01*
X24093020Y-39110531D01*
X24146177Y-39156593D01*
X24267132Y-39234326D01*
X24267138Y-39234329D01*
X24397889Y-39294039D01*
X24397891Y-39294040D01*
X24535834Y-39334543D01*
X24535838Y-39334544D01*
X24678111Y-39354999D01*
X24678112Y-39355000D01*
X25250000Y-39355000D01*
X25250002Y-39354999D01*
X25321870Y-39349860D01*
X25358076Y-39339228D01*
X25410659Y-39335466D01*
X25550000Y-39355500D01*
X25550003Y-39355500D01*
X26121886Y-39355500D01*
X26121889Y-39355500D01*
X26264304Y-39335024D01*
X26402259Y-39294517D01*
X26533137Y-39234747D01*
X26533788Y-39234329D01*
X26598214Y-39192924D01*
X26648477Y-39160622D01*
X26649915Y-39159804D01*
X26654098Y-39157011D01*
X26707738Y-39110531D01*
X26762832Y-39062791D01*
X26856986Y-38954130D01*
X26934770Y-38833094D01*
X26934775Y-38833081D01*
X26934779Y-38833076D01*
X26962220Y-38772989D01*
X27007975Y-38720185D01*
X27075014Y-38700500D01*
X27215500Y-38700500D01*
X27282539Y-38720185D01*
X27328294Y-38772989D01*
X27339500Y-38824500D01*
X27339500Y-41863903D01*
X27319815Y-41930942D01*
X27303181Y-41951584D01*
X27219584Y-42035181D01*
X27158261Y-42068666D01*
X27131903Y-42071500D01*
X27075014Y-42071500D01*
X27007975Y-42051815D01*
X26962220Y-41999011D01*
X26934779Y-41938923D01*
X26934774Y-41938914D01*
X26934770Y-41938906D01*
X26856986Y-41817870D01*
X26856985Y-41817869D01*
X26856984Y-41817867D01*
X26856981Y-41817863D01*
X26762847Y-41709226D01*
X26762830Y-41709207D01*
X26762829Y-41709206D01*
X26654091Y-41614985D01*
X26613734Y-41589049D01*
X26533142Y-41537255D01*
X26533136Y-41537252D01*
X26403303Y-41477960D01*
X26402259Y-41477483D01*
X26265939Y-41437456D01*
X26264308Y-41436977D01*
X26264296Y-41436974D01*
X26121889Y-41416500D01*
X25550000Y-41416500D01*
X25549997Y-41416500D01*
X25478061Y-41421644D01*
X25478056Y-41421645D01*
X25439591Y-41432939D01*
X25387014Y-41436699D01*
X25250000Y-41417000D01*
X24678111Y-41417000D01*
X24535838Y-41437455D01*
X24535834Y-41437456D01*
X24397891Y-41477959D01*
X24397889Y-41477960D01*
X24267138Y-41537670D01*
X24267132Y-41537673D01*
X24146182Y-41615402D01*
X24144438Y-41616808D01*
X24142835Y-41618301D01*
X24093020Y-41661465D01*
X24093019Y-41661467D01*
X24750000Y-42318447D01*
X25008181Y-42576628D01*
X25041666Y-42637951D01*
X25044500Y-42664309D01*
X25044500Y-42679690D01*
X25024815Y-42746729D01*
X25008181Y-42767371D01*
X24093020Y-43682531D01*
X24146177Y-43728593D01*
X24267132Y-43806326D01*
X24267138Y-43806329D01*
X24397889Y-43866039D01*
X24397891Y-43866040D01*
X24535834Y-43906543D01*
X24535838Y-43906544D01*
X24678111Y-43926999D01*
X24678112Y-43927000D01*
X25250000Y-43927000D01*
X25250002Y-43926999D01*
X25321870Y-43921860D01*
X25358076Y-43911228D01*
X25410659Y-43907466D01*
X25550000Y-43927500D01*
X25550003Y-43927500D01*
X26121886Y-43927500D01*
X26121889Y-43927500D01*
X26264304Y-43907024D01*
X26402259Y-43866517D01*
X26533137Y-43806747D01*
X26533788Y-43806329D01*
X26648475Y-43732624D01*
X26649915Y-43731804D01*
X26654098Y-43729011D01*
X26707738Y-43682531D01*
X26762832Y-43634791D01*
X26856986Y-43526130D01*
X26934770Y-43405094D01*
X26934775Y-43405081D01*
X26934779Y-43405076D01*
X26962220Y-43344989D01*
X27007975Y-43292185D01*
X27075014Y-43272500D01*
X27345331Y-43272500D01*
X27345347Y-43272501D01*
X27352943Y-43272501D01*
X27511054Y-43272501D01*
X27511057Y-43272501D01*
X27663785Y-43231577D01*
X27663787Y-43231575D01*
X27663789Y-43231575D01*
X27671299Y-43228465D01*
X27672073Y-43230334D01*
X27729383Y-43216423D01*
X27795413Y-43239266D01*
X27838611Y-43294181D01*
X27847500Y-43340283D01*
X27847500Y-45419903D01*
X27827815Y-45486942D01*
X27811181Y-45507584D01*
X27219584Y-46099181D01*
X27158261Y-46132666D01*
X27131903Y-46135500D01*
X27075014Y-46135500D01*
X27007975Y-46115815D01*
X26962220Y-46063011D01*
X26934779Y-46002923D01*
X26934774Y-46002914D01*
X26934770Y-46002906D01*
X26856986Y-45881870D01*
X26856985Y-45881869D01*
X26856984Y-45881867D01*
X26856981Y-45881863D01*
X26762847Y-45773226D01*
X26762830Y-45773207D01*
X26762829Y-45773206D01*
X26654091Y-45678985D01*
X26618858Y-45656342D01*
X26533142Y-45601255D01*
X26533136Y-45601252D01*
X26462028Y-45568778D01*
X26402259Y-45541483D01*
X26265939Y-45501456D01*
X26264308Y-45500977D01*
X26264296Y-45500974D01*
X26121889Y-45480500D01*
X25550000Y-45480500D01*
X25549997Y-45480500D01*
X25478061Y-45485644D01*
X25478056Y-45485645D01*
X25439591Y-45496939D01*
X25387014Y-45500699D01*
X25250000Y-45481000D01*
X24678111Y-45481000D01*
X24535838Y-45501455D01*
X24535834Y-45501456D01*
X24397891Y-45541959D01*
X24397889Y-45541960D01*
X24267138Y-45601670D01*
X24267132Y-45601673D01*
X24146182Y-45679402D01*
X24144438Y-45680808D01*
X24142835Y-45682301D01*
X24093020Y-45725465D01*
X24093019Y-45725467D01*
X24750000Y-46382447D01*
X25008181Y-46640628D01*
X25041666Y-46701951D01*
X25044500Y-46728309D01*
X25044500Y-46743690D01*
X25024815Y-46810729D01*
X25008181Y-46831371D01*
X24093020Y-47746531D01*
X24146177Y-47792593D01*
X24267132Y-47870326D01*
X24267138Y-47870329D01*
X24397889Y-47930039D01*
X24397891Y-47930040D01*
X24535834Y-47970543D01*
X24535838Y-47970544D01*
X24678111Y-47990999D01*
X24678112Y-47991000D01*
X25250000Y-47991000D01*
X25250002Y-47990999D01*
X25321870Y-47985860D01*
X25358076Y-47975228D01*
X25410659Y-47971466D01*
X25550000Y-47991500D01*
X25550003Y-47991500D01*
X26121886Y-47991500D01*
X26121889Y-47991500D01*
X26264304Y-47971024D01*
X26402259Y-47930517D01*
X26533137Y-47870747D01*
X26533788Y-47870329D01*
X26639332Y-47802500D01*
X26648477Y-47796622D01*
X26649915Y-47795804D01*
X26654098Y-47793011D01*
X26707738Y-47746531D01*
X26762832Y-47698791D01*
X26856986Y-47590130D01*
X26934770Y-47469094D01*
X26934775Y-47469081D01*
X26934779Y-47469076D01*
X26962220Y-47408989D01*
X27007975Y-47356185D01*
X27075014Y-47336500D01*
X27345331Y-47336500D01*
X27345347Y-47336501D01*
X27352943Y-47336501D01*
X27511054Y-47336501D01*
X27511057Y-47336501D01*
X27663785Y-47295577D01*
X27713904Y-47266639D01*
X27800716Y-47216520D01*
X27912520Y-47104716D01*
X27912520Y-47104714D01*
X27922728Y-47094507D01*
X27922729Y-47094504D01*
X28143820Y-46873414D01*
X28205142Y-46839930D01*
X28274834Y-46844914D01*
X28330767Y-46886786D01*
X28355184Y-46952250D01*
X28355500Y-46961096D01*
X28355500Y-48975903D01*
X28335815Y-49042942D01*
X28319181Y-49063584D01*
X27219584Y-50163181D01*
X27158261Y-50196666D01*
X27131903Y-50199500D01*
X27075014Y-50199500D01*
X27007975Y-50179815D01*
X26962220Y-50127011D01*
X26934779Y-50066923D01*
X26934774Y-50066914D01*
X26934770Y-50066906D01*
X26856986Y-49945870D01*
X26856985Y-49945869D01*
X26856984Y-49945867D01*
X26856981Y-49945863D01*
X26762847Y-49837226D01*
X26762830Y-49837207D01*
X26762829Y-49837206D01*
X26654091Y-49742985D01*
X26618858Y-49720342D01*
X26533142Y-49665255D01*
X26533136Y-49665252D01*
X26462028Y-49632778D01*
X26402259Y-49605483D01*
X26315730Y-49580076D01*
X26264308Y-49564977D01*
X26264296Y-49564974D01*
X26121889Y-49544500D01*
X25550000Y-49544500D01*
X25549997Y-49544500D01*
X25478061Y-49549644D01*
X25478056Y-49549645D01*
X25439591Y-49560939D01*
X25387014Y-49564699D01*
X25250000Y-49545000D01*
X24678111Y-49545000D01*
X24535838Y-49565455D01*
X24535834Y-49565456D01*
X24397891Y-49605959D01*
X24397889Y-49605960D01*
X24267138Y-49665670D01*
X24267132Y-49665673D01*
X24146182Y-49743402D01*
X24144438Y-49744808D01*
X24142835Y-49746301D01*
X24093020Y-49789465D01*
X24093019Y-49789467D01*
X24750000Y-50446447D01*
X25008181Y-50704628D01*
X25041666Y-50765951D01*
X25044500Y-50792309D01*
X25044500Y-50807690D01*
X25024815Y-50874729D01*
X25008181Y-50895371D01*
X24093020Y-51810531D01*
X24146177Y-51856593D01*
X24267132Y-51934326D01*
X24267138Y-51934329D01*
X24397889Y-51994039D01*
X24397891Y-51994040D01*
X24535834Y-52034543D01*
X24535838Y-52034544D01*
X24678111Y-52054999D01*
X24678112Y-52055000D01*
X25250000Y-52055000D01*
X25250002Y-52054999D01*
X25321870Y-52049860D01*
X25358076Y-52039228D01*
X25410659Y-52035466D01*
X25550000Y-52055500D01*
X25550003Y-52055500D01*
X26121886Y-52055500D01*
X26121889Y-52055500D01*
X26264304Y-52035024D01*
X26402259Y-51994517D01*
X26533137Y-51934747D01*
X26533788Y-51934329D01*
X26623054Y-51876961D01*
X26648477Y-51860622D01*
X26649915Y-51859804D01*
X26654098Y-51857011D01*
X26707738Y-51810531D01*
X26762832Y-51762791D01*
X26856986Y-51654130D01*
X26934770Y-51533094D01*
X26934775Y-51533081D01*
X26934779Y-51533076D01*
X26962220Y-51472989D01*
X27007975Y-51420185D01*
X27075014Y-51400500D01*
X27345331Y-51400500D01*
X27345347Y-51400501D01*
X27352943Y-51400501D01*
X27511054Y-51400501D01*
X27511057Y-51400501D01*
X27663785Y-51359577D01*
X27713904Y-51330639D01*
X27800716Y-51280520D01*
X27801886Y-51279350D01*
X40197500Y-51279350D01*
X40197500Y-51820000D01*
X40747500Y-51820000D01*
X40747500Y-50697703D01*
X41247500Y-50697703D01*
X41247500Y-51820000D01*
X42017500Y-51820000D01*
X42017500Y-50697703D01*
X42015003Y-50697900D01*
X41857306Y-50743716D01*
X41857303Y-50743717D01*
X41715947Y-50827314D01*
X41709778Y-50832100D01*
X41707957Y-50829753D01*
X41658858Y-50856564D01*
X41589166Y-50851580D01*
X41556430Y-50830541D01*
X41555222Y-50832100D01*
X41549052Y-50827314D01*
X41407696Y-50743717D01*
X41407693Y-50743716D01*
X41249994Y-50697900D01*
X41249997Y-50697900D01*
X41247500Y-50697703D01*
X40747500Y-50697703D01*
X40745003Y-50697900D01*
X40587306Y-50743716D01*
X40587303Y-50743717D01*
X40445947Y-50827314D01*
X40445938Y-50827321D01*
X40329821Y-50943438D01*
X40329814Y-50943447D01*
X40246217Y-51084803D01*
X40246216Y-51084806D01*
X40200400Y-51242504D01*
X40200399Y-51242510D01*
X40197500Y-51279350D01*
X27801886Y-51279350D01*
X27912520Y-51168716D01*
X27912520Y-51168714D01*
X27922728Y-51158507D01*
X27922730Y-51158504D01*
X29314506Y-49766728D01*
X29314511Y-49766724D01*
X29324714Y-49756520D01*
X29324716Y-49756520D01*
X29436520Y-49644716D01*
X29515577Y-49507784D01*
X29556500Y-49355057D01*
X29556500Y-49001986D01*
X37891001Y-49001986D01*
X37901494Y-49104697D01*
X37956641Y-49271119D01*
X37956643Y-49271124D01*
X38048684Y-49420345D01*
X38172654Y-49544315D01*
X38321875Y-49636356D01*
X38321880Y-49636358D01*
X38488302Y-49691505D01*
X38488309Y-49691506D01*
X38591019Y-49701999D01*
X38865999Y-49701999D01*
X39366000Y-49701999D01*
X39640972Y-49701999D01*
X39640986Y-49701998D01*
X39743697Y-49691505D01*
X39910119Y-49636358D01*
X39910124Y-49636356D01*
X40059345Y-49544315D01*
X40183315Y-49420345D01*
X40275356Y-49271124D01*
X40275358Y-49271119D01*
X40330505Y-49104697D01*
X40330506Y-49104690D01*
X40340999Y-49001986D01*
X40341000Y-49001973D01*
X40341000Y-48952000D01*
X39366000Y-48952000D01*
X39366000Y-49701999D01*
X38865999Y-49701999D01*
X38866000Y-49701998D01*
X38866000Y-48952000D01*
X37891001Y-48952000D01*
X37891001Y-49001986D01*
X29556500Y-49001986D01*
X29556500Y-35479097D01*
X29576185Y-35412058D01*
X29592819Y-35391416D01*
X29803417Y-35180819D01*
X29864740Y-35147334D01*
X29891098Y-35144500D01*
X30474331Y-35144500D01*
X30474347Y-35144501D01*
X30481943Y-35144501D01*
X30640054Y-35144501D01*
X30640057Y-35144501D01*
X30792785Y-35103577D01*
X30842904Y-35074639D01*
X30929716Y-35024520D01*
X31041520Y-34912716D01*
X31041520Y-34912714D01*
X31051728Y-34902507D01*
X31051730Y-34902504D01*
X31492294Y-34461939D01*
X31553615Y-34428456D01*
X31612066Y-34429847D01*
X31631604Y-34435082D01*
X31708308Y-34455635D01*
X31870230Y-34469801D01*
X31934998Y-34475468D01*
X31935000Y-34475468D01*
X31935002Y-34475468D01*
X31991673Y-34470509D01*
X32161692Y-34455635D01*
X32345081Y-34406496D01*
X32414929Y-34408159D01*
X32472792Y-34447321D01*
X32496948Y-34494176D01*
X32520423Y-34581786D01*
X32542152Y-34619419D01*
X32542153Y-34619423D01*
X32542154Y-34619423D01*
X32599480Y-34718716D01*
X32711284Y-34830520D01*
X32711285Y-34830521D01*
X33159284Y-35278520D01*
X33159286Y-35278521D01*
X33159290Y-35278524D01*
X33296209Y-35357573D01*
X33296216Y-35357577D01*
X33448943Y-35398501D01*
X33448945Y-35398501D01*
X33614654Y-35398501D01*
X33614670Y-35398500D01*
X39995500Y-35398500D01*
X40062539Y-35418185D01*
X40108294Y-35470989D01*
X40119500Y-35522500D01*
X40119500Y-36907491D01*
X40099815Y-36974530D01*
X40060598Y-37013029D01*
X39988844Y-37057287D01*
X39864789Y-37181342D01*
X39772687Y-37330663D01*
X39772686Y-37330666D01*
X39717501Y-37497203D01*
X39717501Y-37497204D01*
X39717500Y-37497204D01*
X39707000Y-37599983D01*
X39707000Y-38600001D01*
X39707001Y-38600019D01*
X39717500Y-38702796D01*
X39717501Y-38702799D01*
X39772685Y-38869331D01*
X39772687Y-38869336D01*
X39805133Y-38921940D01*
X39864788Y-39018656D01*
X39988844Y-39142712D01*
X40060596Y-39186968D01*
X40107321Y-39238915D01*
X40119500Y-39292507D01*
X40119500Y-39447491D01*
X40099815Y-39514530D01*
X40060598Y-39553029D01*
X39988844Y-39597287D01*
X39864789Y-39721342D01*
X39772687Y-39870663D01*
X39772685Y-39870668D01*
X39756966Y-39918106D01*
X39717501Y-40037203D01*
X39717501Y-40037204D01*
X39717500Y-40037204D01*
X39707000Y-40139983D01*
X39707000Y-41140001D01*
X39707001Y-41140019D01*
X39717500Y-41242796D01*
X39717501Y-41242799D01*
X39772685Y-41409331D01*
X39772687Y-41409336D01*
X39789565Y-41436699D01*
X39864788Y-41558656D01*
X39988844Y-41682712D01*
X40060596Y-41726968D01*
X40107321Y-41778915D01*
X40119500Y-41832507D01*
X40119500Y-41987491D01*
X40099815Y-42054530D01*
X40060598Y-42093029D01*
X39988844Y-42137287D01*
X39864789Y-42261342D01*
X39772687Y-42410663D01*
X39772685Y-42410668D01*
X39757079Y-42457764D01*
X39717501Y-42577203D01*
X39717501Y-42577204D01*
X39717500Y-42577204D01*
X39707000Y-42679983D01*
X39707000Y-43680001D01*
X39707001Y-43680019D01*
X39717500Y-43782796D01*
X39717501Y-43782799D01*
X39765451Y-43927500D01*
X39772686Y-43949334D01*
X39864788Y-44098656D01*
X39988844Y-44222712D01*
X40060596Y-44266968D01*
X40107321Y-44318915D01*
X40119500Y-44372507D01*
X40119500Y-44720830D01*
X40119499Y-44720848D01*
X40119499Y-44886554D01*
X40119498Y-44886554D01*
X40147104Y-44989578D01*
X40160423Y-45039285D01*
X40186046Y-45083665D01*
X40189358Y-45089400D01*
X40189359Y-45089404D01*
X40189360Y-45089404D01*
X40236668Y-45171346D01*
X40239479Y-45176214D01*
X40239481Y-45176217D01*
X40358349Y-45295085D01*
X40358355Y-45295090D01*
X40360681Y-45297416D01*
X40394166Y-45358739D01*
X40397000Y-45385097D01*
X40397000Y-45674191D01*
X40377315Y-45741230D01*
X40360681Y-45761872D01*
X40329423Y-45793129D01*
X40329416Y-45793138D01*
X40248784Y-45929480D01*
X40197715Y-45977164D01*
X40128973Y-45989667D01*
X40065142Y-45963626D01*
X40059658Y-45959289D01*
X39910336Y-45867187D01*
X39910331Y-45867185D01*
X39908862Y-45866698D01*
X39743797Y-45812001D01*
X39743795Y-45812000D01*
X39641010Y-45801500D01*
X38590998Y-45801500D01*
X38590980Y-45801501D01*
X38488203Y-45812000D01*
X38488200Y-45812001D01*
X38321668Y-45867185D01*
X38321663Y-45867187D01*
X38172342Y-45959289D01*
X38048289Y-46083342D01*
X37956187Y-46232663D01*
X37956186Y-46232666D01*
X37901001Y-46399203D01*
X37901001Y-46399204D01*
X37901000Y-46399204D01*
X37890500Y-46501983D01*
X37890500Y-47102001D01*
X37890501Y-47102019D01*
X37901000Y-47204796D01*
X37901001Y-47204799D01*
X37945665Y-47339585D01*
X37956186Y-47371334D01*
X38048288Y-47520656D01*
X38172344Y-47644712D01*
X38175628Y-47646737D01*
X38175653Y-47646753D01*
X38177445Y-47648746D01*
X38178011Y-47649193D01*
X38177934Y-47649289D01*
X38222379Y-47698699D01*
X38233603Y-47767661D01*
X38205761Y-47831744D01*
X38175665Y-47857826D01*
X38172660Y-47859679D01*
X38172655Y-47859683D01*
X38048684Y-47983654D01*
X37956643Y-48132875D01*
X37956641Y-48132880D01*
X37901494Y-48299302D01*
X37901493Y-48299309D01*
X37891000Y-48402013D01*
X37891000Y-48452000D01*
X40340999Y-48452000D01*
X40340999Y-48402028D01*
X40340998Y-48402013D01*
X40333257Y-48326238D01*
X40346026Y-48257545D01*
X40393907Y-48206661D01*
X40461697Y-48189740D01*
X40519734Y-48206903D01*
X40587102Y-48246744D01*
X40587107Y-48246745D01*
X40588132Y-48247189D01*
X40589996Y-48248455D01*
X40593818Y-48250716D01*
X40593675Y-48250956D01*
X40626581Y-48273316D01*
X40635849Y-48282584D01*
X40635855Y-48282589D01*
X41582640Y-49229374D01*
X41582650Y-49229385D01*
X41586980Y-49233715D01*
X41586981Y-49233716D01*
X41698785Y-49345520D01*
X41785596Y-49395639D01*
X41785598Y-49395641D01*
X41819129Y-49415000D01*
X41835716Y-49424577D01*
X41988444Y-49465501D01*
X41988447Y-49465501D01*
X42154154Y-49465501D01*
X42154170Y-49465500D01*
X44118874Y-49465500D01*
X44185913Y-49485185D01*
X44231668Y-49537989D01*
X44241612Y-49607147D01*
X44212587Y-49670703D01*
X44204306Y-49678506D01*
X44204533Y-49678733D01*
X44086980Y-49796286D01*
X43168786Y-50714479D01*
X43168766Y-50714499D01*
X43166562Y-50716702D01*
X43133676Y-50739048D01*
X43133816Y-50739285D01*
X43130051Y-50741511D01*
X43128158Y-50742798D01*
X43127105Y-50743253D01*
X42985640Y-50826915D01*
X42979474Y-50831699D01*
X42977674Y-50829379D01*
X42928413Y-50856230D01*
X42858725Y-50851193D01*
X42826492Y-50830461D01*
X42825222Y-50832100D01*
X42819052Y-50827314D01*
X42677696Y-50743717D01*
X42677693Y-50743716D01*
X42519994Y-50697900D01*
X42519997Y-50697900D01*
X42517500Y-50697703D01*
X42517500Y-53442295D01*
X42517501Y-53442295D01*
X42519986Y-53442100D01*
X42677698Y-53396281D01*
X42819050Y-53312686D01*
X42825217Y-53307903D01*
X42827130Y-53310369D01*
X42875722Y-53283802D01*
X42945417Y-53288749D01*
X42978262Y-53309853D01*
X42979469Y-53308298D01*
X42985632Y-53313078D01*
X42985635Y-53313081D01*
X43127102Y-53396744D01*
X43168724Y-53408836D01*
X43284926Y-53442597D01*
X43284929Y-53442597D01*
X43284931Y-53442598D01*
X43321806Y-53445500D01*
X43321814Y-53445500D01*
X43753186Y-53445500D01*
X43753194Y-53445500D01*
X43790069Y-53442598D01*
X43790071Y-53442597D01*
X43790073Y-53442597D01*
X43831691Y-53430505D01*
X43947898Y-53396744D01*
X44089365Y-53313081D01*
X44089368Y-53313077D01*
X44095526Y-53308301D01*
X44097339Y-53310638D01*
X44146449Y-53283798D01*
X44216143Y-53288756D01*
X44248496Y-53309551D01*
X44249778Y-53307900D01*
X44255947Y-53312685D01*
X44397301Y-53396281D01*
X44555014Y-53442100D01*
X44555011Y-53442100D01*
X44557498Y-53442295D01*
X44557500Y-53442295D01*
X45057500Y-53442295D01*
X45057501Y-53442295D01*
X45059986Y-53442100D01*
X45217698Y-53396281D01*
X45359052Y-53312685D01*
X45359061Y-53312678D01*
X45475178Y-53196561D01*
X45475185Y-53196552D01*
X45558782Y-53055196D01*
X45558783Y-53055193D01*
X45604599Y-52897495D01*
X45604600Y-52897489D01*
X45607499Y-52860649D01*
X45607500Y-52860634D01*
X45607500Y-52411678D01*
X48301873Y-52411678D01*
X48430813Y-52449539D01*
X48430819Y-52449541D01*
X48573130Y-52470001D01*
X48573131Y-52470002D01*
X48721241Y-52470002D01*
X48721297Y-52470000D01*
X49068703Y-52470000D01*
X49068759Y-52470002D01*
X49216869Y-52470002D01*
X49216869Y-52470001D01*
X49350408Y-52450802D01*
X49350410Y-52450802D01*
X49359184Y-52449540D01*
X49488126Y-52411678D01*
X48895000Y-51818553D01*
X48301873Y-52411678D01*
X45607500Y-52411678D01*
X45607500Y-52320000D01*
X45057500Y-52320000D01*
X45057500Y-53442295D01*
X44557500Y-53442295D01*
X44557500Y-51944000D01*
X44577185Y-51876961D01*
X44629989Y-51831206D01*
X44681500Y-51820000D01*
X45607500Y-51820000D01*
X45607500Y-51279365D01*
X45607499Y-51279350D01*
X45604600Y-51242510D01*
X45604599Y-51242504D01*
X45558783Y-51084806D01*
X45558782Y-51084803D01*
X45480610Y-50952621D01*
X45463427Y-50884897D01*
X45485587Y-50818635D01*
X45540053Y-50774871D01*
X45587342Y-50765500D01*
X47518391Y-50765500D01*
X47585430Y-50785185D01*
X47631185Y-50837989D01*
X47641129Y-50907143D01*
X47640000Y-50914991D01*
X47640000Y-51536888D01*
X47660455Y-51679161D01*
X47660456Y-51679165D01*
X47700959Y-51817108D01*
X47700960Y-51817110D01*
X47760670Y-51947861D01*
X47760673Y-51947867D01*
X47838402Y-52068817D01*
X47839800Y-52070550D01*
X47841303Y-52072165D01*
X47884467Y-52121978D01*
X48804628Y-51201818D01*
X48865951Y-51168333D01*
X48892304Y-51165499D01*
X48897691Y-51165499D01*
X48964729Y-51185184D01*
X48985371Y-51201818D01*
X49905531Y-52121978D01*
X49951594Y-52068821D01*
X50029326Y-51947867D01*
X50029329Y-51947861D01*
X50062705Y-51874777D01*
X50108459Y-51821972D01*
X50175499Y-51802287D01*
X50242538Y-51821971D01*
X50288294Y-51874774D01*
X50299500Y-51926287D01*
X50299500Y-67320500D01*
X50279815Y-67387539D01*
X50227011Y-67433294D01*
X50175500Y-67444500D01*
X18404500Y-67444500D01*
X18337461Y-67424815D01*
X18291706Y-67372011D01*
X18280500Y-67320500D01*
X18280500Y-59689998D01*
X28339532Y-59689998D01*
X28339532Y-59690001D01*
X28359364Y-59916686D01*
X28359366Y-59916697D01*
X28418258Y-60136488D01*
X28418261Y-60136497D01*
X28514431Y-60342732D01*
X28514432Y-60342734D01*
X28644954Y-60529141D01*
X28805858Y-60690045D01*
X28805861Y-60690047D01*
X28992266Y-60820568D01*
X29198504Y-60916739D01*
X29418308Y-60975635D01*
X29580230Y-60989801D01*
X29644998Y-60995468D01*
X29645000Y-60995468D01*
X29645002Y-60995468D01*
X29701673Y-60990509D01*
X29871692Y-60975635D01*
X30091496Y-60916739D01*
X30297734Y-60820568D01*
X30484139Y-60690047D01*
X30645047Y-60529139D01*
X30688425Y-60467188D01*
X30743001Y-60423563D01*
X30812499Y-60416369D01*
X30874854Y-60447891D01*
X30891576Y-60467189D01*
X30934955Y-60529142D01*
X31095858Y-60690045D01*
X31095861Y-60690047D01*
X31282266Y-60820568D01*
X31488504Y-60916739D01*
X31708308Y-60975635D01*
X31870230Y-60989801D01*
X31934998Y-60995468D01*
X31935000Y-60995468D01*
X31935002Y-60995468D01*
X31991673Y-60990509D01*
X32161692Y-60975635D01*
X32381496Y-60916739D01*
X32587734Y-60820568D01*
X32774139Y-60690047D01*
X32935047Y-60529139D01*
X32978425Y-60467188D01*
X33033001Y-60423563D01*
X33102499Y-60416369D01*
X33164854Y-60447891D01*
X33181576Y-60467189D01*
X33224955Y-60529142D01*
X33385858Y-60690045D01*
X33385861Y-60690047D01*
X33572266Y-60820568D01*
X33778504Y-60916739D01*
X33998308Y-60975635D01*
X34160230Y-60989801D01*
X34224998Y-60995468D01*
X34225000Y-60995468D01*
X34225002Y-60995468D01*
X34281673Y-60990509D01*
X34451692Y-60975635D01*
X34671496Y-60916739D01*
X34877734Y-60820568D01*
X35064139Y-60690047D01*
X35225047Y-60529139D01*
X35268425Y-60467188D01*
X35323001Y-60423563D01*
X35392499Y-60416369D01*
X35454854Y-60447891D01*
X35471576Y-60467189D01*
X35514955Y-60529142D01*
X35675858Y-60690045D01*
X35675861Y-60690047D01*
X35862266Y-60820568D01*
X36068504Y-60916739D01*
X36288308Y-60975635D01*
X36450230Y-60989801D01*
X36514998Y-60995468D01*
X36515000Y-60995468D01*
X36515002Y-60995468D01*
X36571673Y-60990509D01*
X36741692Y-60975635D01*
X36961496Y-60916739D01*
X37167734Y-60820568D01*
X37354139Y-60690047D01*
X37515047Y-60529139D01*
X37558425Y-60467188D01*
X37613001Y-60423563D01*
X37682499Y-60416369D01*
X37744854Y-60447891D01*
X37761576Y-60467189D01*
X37804955Y-60529142D01*
X37965858Y-60690045D01*
X37965861Y-60690047D01*
X38152266Y-60820568D01*
X38358504Y-60916739D01*
X38578308Y-60975635D01*
X38740230Y-60989801D01*
X38804998Y-60995468D01*
X38805000Y-60995468D01*
X38805002Y-60995468D01*
X38861673Y-60990509D01*
X39031692Y-60975635D01*
X39251496Y-60916739D01*
X39457734Y-60820568D01*
X39644139Y-60690047D01*
X39805047Y-60529139D01*
X39935568Y-60342734D01*
X40031739Y-60136496D01*
X40090635Y-59916692D01*
X40110468Y-59690000D01*
X40106968Y-59650000D01*
X40103519Y-59610573D01*
X40090635Y-59463308D01*
X40031739Y-59243504D01*
X40001208Y-59178031D01*
X39990717Y-59108957D01*
X40019236Y-59045173D01*
X40077712Y-59006933D01*
X40102782Y-59002101D01*
X40176692Y-58995635D01*
X40396496Y-58936739D01*
X40602734Y-58840568D01*
X40789139Y-58710047D01*
X40950047Y-58549139D01*
X41080568Y-58362734D01*
X41176739Y-58156496D01*
X41235635Y-57936692D01*
X41255468Y-57710000D01*
X41235635Y-57483308D01*
X41176739Y-57263504D01*
X41123808Y-57149994D01*
X44485057Y-57149994D01*
X44485057Y-57150005D01*
X44504807Y-57463942D01*
X44504808Y-57463949D01*
X44563755Y-57772958D01*
X44660963Y-58072132D01*
X44660965Y-58072137D01*
X44794900Y-58356761D01*
X44794903Y-58356767D01*
X44963457Y-58622367D01*
X44963460Y-58622371D01*
X45054286Y-58732160D01*
X45695748Y-58090698D01*
X45769588Y-58192330D01*
X45947670Y-58370412D01*
X46049300Y-58444250D01*
X45404971Y-59088579D01*
X45404972Y-59088581D01*
X45647772Y-59264985D01*
X45647790Y-59264996D01*
X45923447Y-59416540D01*
X45923455Y-59416544D01*
X46215926Y-59532340D01*
X46520620Y-59610573D01*
X46520629Y-59610575D01*
X46832701Y-59649999D01*
X46832715Y-59650000D01*
X47147285Y-59650000D01*
X47147298Y-59649999D01*
X47459370Y-59610575D01*
X47459379Y-59610573D01*
X47764073Y-59532340D01*
X48056544Y-59416544D01*
X48056552Y-59416540D01*
X48332209Y-59264996D01*
X48332219Y-59264990D01*
X48575026Y-59088579D01*
X48575027Y-59088579D01*
X47930698Y-58444251D01*
X48032330Y-58370412D01*
X48210412Y-58192330D01*
X48284251Y-58090699D01*
X48925712Y-58732160D01*
X49016544Y-58622364D01*
X49185096Y-58356767D01*
X49185099Y-58356761D01*
X49319034Y-58072137D01*
X49319036Y-58072132D01*
X49416244Y-57772958D01*
X49475191Y-57463949D01*
X49475192Y-57463942D01*
X49494943Y-57150005D01*
X49494943Y-57149994D01*
X49475192Y-56836057D01*
X49475191Y-56836050D01*
X49416244Y-56527041D01*
X49319036Y-56227867D01*
X49319034Y-56227862D01*
X49185099Y-55943238D01*
X49185096Y-55943232D01*
X49016542Y-55677632D01*
X49016539Y-55677628D01*
X48925712Y-55567838D01*
X48284250Y-56209300D01*
X48210412Y-56107670D01*
X48032330Y-55929588D01*
X47930698Y-55855748D01*
X48575027Y-55211419D01*
X48575026Y-55211417D01*
X48332227Y-55035014D01*
X48332209Y-55035003D01*
X48056552Y-54883459D01*
X48056544Y-54883455D01*
X47764073Y-54767659D01*
X47459379Y-54689426D01*
X47459370Y-54689424D01*
X47147298Y-54650000D01*
X46832701Y-54650000D01*
X46520629Y-54689424D01*
X46520620Y-54689426D01*
X46215926Y-54767659D01*
X45923455Y-54883455D01*
X45923447Y-54883459D01*
X45647787Y-55035004D01*
X45647782Y-55035007D01*
X45404972Y-55211418D01*
X45404971Y-55211419D01*
X46049301Y-55855748D01*
X45947670Y-55929588D01*
X45769588Y-56107670D01*
X45695748Y-56209300D01*
X45054286Y-55567838D01*
X45054285Y-55567838D01*
X44963459Y-55677629D01*
X44963457Y-55677632D01*
X44794903Y-55943232D01*
X44794900Y-55943238D01*
X44660965Y-56227862D01*
X44660963Y-56227867D01*
X44563755Y-56527041D01*
X44504808Y-56836050D01*
X44504807Y-56836057D01*
X44485057Y-57149994D01*
X41123808Y-57149994D01*
X41080568Y-57057266D01*
X40950047Y-56870861D01*
X40950045Y-56870858D01*
X40789141Y-56709954D01*
X40602734Y-56579432D01*
X40602732Y-56579431D01*
X40396497Y-56483261D01*
X40396488Y-56483258D01*
X40197406Y-56429915D01*
X40137745Y-56393550D01*
X40107216Y-56330703D01*
X40105499Y-56310140D01*
X40105499Y-54882129D01*
X40105498Y-54882123D01*
X40105322Y-54880490D01*
X40099091Y-54822517D01*
X40078630Y-54767659D01*
X40048797Y-54687671D01*
X40048793Y-54687664D01*
X39962547Y-54572455D01*
X39962544Y-54572452D01*
X39847335Y-54486206D01*
X39847328Y-54486202D01*
X39712482Y-54435908D01*
X39712483Y-54435908D01*
X39652883Y-54429501D01*
X39652881Y-54429500D01*
X39652873Y-54429500D01*
X39652864Y-54429500D01*
X37957129Y-54429500D01*
X37957123Y-54429501D01*
X37897516Y-54435908D01*
X37762671Y-54486202D01*
X37762664Y-54486206D01*
X37647455Y-54572452D01*
X37647452Y-54572455D01*
X37561206Y-54687664D01*
X37561198Y-54687678D01*
X37560889Y-54688509D01*
X37560358Y-54689217D01*
X37556953Y-54695454D01*
X37556055Y-54694964D01*
X37519012Y-54744438D01*
X37453545Y-54768848D01*
X37385274Y-54753989D01*
X37357031Y-54732844D01*
X37354141Y-54729954D01*
X37167734Y-54599432D01*
X37167732Y-54599431D01*
X36961497Y-54503261D01*
X36961488Y-54503258D01*
X36741697Y-54444366D01*
X36741693Y-54444365D01*
X36741692Y-54444365D01*
X36741691Y-54444364D01*
X36741686Y-54444364D01*
X36515002Y-54424532D01*
X36514998Y-54424532D01*
X36288313Y-54444364D01*
X36288302Y-54444366D01*
X36068511Y-54503258D01*
X36068502Y-54503261D01*
X35862267Y-54599431D01*
X35862265Y-54599432D01*
X35675858Y-54729954D01*
X35514953Y-54890859D01*
X35471575Y-54952811D01*
X35416998Y-54996436D01*
X35347500Y-55003630D01*
X35285145Y-54972107D01*
X35268425Y-54952811D01*
X35225046Y-54890859D01*
X35064141Y-54729954D01*
X34877734Y-54599432D01*
X34877732Y-54599431D01*
X34671497Y-54503261D01*
X34671488Y-54503258D01*
X34451697Y-54444366D01*
X34451693Y-54444365D01*
X34451692Y-54444365D01*
X34451691Y-54444364D01*
X34451686Y-54444364D01*
X34225002Y-54424532D01*
X34224998Y-54424532D01*
X33998313Y-54444364D01*
X33998302Y-54444366D01*
X33778511Y-54503258D01*
X33778502Y-54503261D01*
X33572267Y-54599431D01*
X33572265Y-54599432D01*
X33385858Y-54729954D01*
X33224953Y-54890859D01*
X33181575Y-54952811D01*
X33126998Y-54996436D01*
X33057500Y-55003630D01*
X32995145Y-54972107D01*
X32978425Y-54952811D01*
X32935046Y-54890859D01*
X32774141Y-54729954D01*
X32587734Y-54599432D01*
X32587732Y-54599431D01*
X32381497Y-54503261D01*
X32381488Y-54503258D01*
X32161697Y-54444366D01*
X32161693Y-54444365D01*
X32161692Y-54444365D01*
X32161691Y-54444364D01*
X32161686Y-54444364D01*
X31935002Y-54424532D01*
X31934998Y-54424532D01*
X31708313Y-54444364D01*
X31708302Y-54444366D01*
X31488511Y-54503258D01*
X31488502Y-54503261D01*
X31282267Y-54599431D01*
X31282265Y-54599432D01*
X31095858Y-54729954D01*
X30934956Y-54890856D01*
X30888845Y-54956710D01*
X30834268Y-55000335D01*
X30776464Y-55009114D01*
X30724025Y-55004526D01*
X30127962Y-55600589D01*
X30110925Y-55537007D01*
X30045099Y-55422993D01*
X29952007Y-55329901D01*
X29837993Y-55264075D01*
X29774410Y-55247037D01*
X30370472Y-54650974D01*
X30297478Y-54599863D01*
X30091331Y-54503735D01*
X30091317Y-54503730D01*
X29871610Y-54444860D01*
X29871599Y-54444858D01*
X29645002Y-54425034D01*
X29644998Y-54425034D01*
X29418400Y-54444858D01*
X29418389Y-54444860D01*
X29198682Y-54503730D01*
X29198673Y-54503734D01*
X28992516Y-54599866D01*
X28992512Y-54599868D01*
X28919526Y-54650973D01*
X28919526Y-54650974D01*
X29515590Y-55247037D01*
X29452007Y-55264075D01*
X29337993Y-55329901D01*
X29244901Y-55422993D01*
X29179075Y-55537007D01*
X29162037Y-55600589D01*
X28565974Y-55004526D01*
X28565973Y-55004526D01*
X28514868Y-55077512D01*
X28514866Y-55077516D01*
X28418734Y-55283673D01*
X28418730Y-55283682D01*
X28359860Y-55503389D01*
X28359858Y-55503400D01*
X28340034Y-55729997D01*
X28340034Y-55730002D01*
X28359858Y-55956599D01*
X28359860Y-55956610D01*
X28418730Y-56176317D01*
X28418735Y-56176331D01*
X28514863Y-56382478D01*
X28565974Y-56455472D01*
X29162037Y-55859409D01*
X29179075Y-55922993D01*
X29244901Y-56037007D01*
X29337993Y-56130099D01*
X29452007Y-56195925D01*
X29515590Y-56212962D01*
X28919526Y-56809025D01*
X28992513Y-56860132D01*
X28992521Y-56860136D01*
X29198668Y-56956264D01*
X29198682Y-56956269D01*
X29418389Y-57015139D01*
X29418400Y-57015141D01*
X29492439Y-57021618D01*
X29557508Y-57047069D01*
X29598487Y-57103660D01*
X29602366Y-57173422D01*
X29594016Y-57197550D01*
X29563260Y-57263506D01*
X29563258Y-57263511D01*
X29504366Y-57483302D01*
X29504364Y-57483313D01*
X29484532Y-57709998D01*
X29484532Y-57710001D01*
X29504364Y-57936686D01*
X29504366Y-57936697D01*
X29563258Y-58156488D01*
X29563260Y-58156492D01*
X29563261Y-58156496D01*
X29579971Y-58192330D01*
X29593790Y-58221965D01*
X29604282Y-58291043D01*
X29575762Y-58354827D01*
X29517286Y-58393066D01*
X29492217Y-58397898D01*
X29418312Y-58404364D01*
X29418302Y-58404366D01*
X29198511Y-58463258D01*
X29198502Y-58463261D01*
X28992267Y-58559431D01*
X28992265Y-58559432D01*
X28805858Y-58689954D01*
X28644954Y-58850858D01*
X28514432Y-59037265D01*
X28514431Y-59037267D01*
X28418261Y-59243502D01*
X28418258Y-59243511D01*
X28359366Y-59463302D01*
X28359364Y-59463313D01*
X28339532Y-59689998D01*
X18280500Y-59689998D01*
X18280500Y-57149994D01*
X19485057Y-57149994D01*
X19485057Y-57150005D01*
X19504807Y-57463942D01*
X19504808Y-57463949D01*
X19563755Y-57772958D01*
X19660963Y-58072132D01*
X19660965Y-58072137D01*
X19794900Y-58356761D01*
X19794903Y-58356767D01*
X19963457Y-58622367D01*
X19963460Y-58622371D01*
X20054286Y-58732160D01*
X20695748Y-58090698D01*
X20769588Y-58192330D01*
X20947670Y-58370412D01*
X21049300Y-58444250D01*
X20404971Y-59088579D01*
X20404972Y-59088581D01*
X20647772Y-59264985D01*
X20647790Y-59264996D01*
X20923447Y-59416540D01*
X20923455Y-59416544D01*
X21215926Y-59532340D01*
X21520620Y-59610573D01*
X21520629Y-59610575D01*
X21832701Y-59649999D01*
X21832715Y-59650000D01*
X22147285Y-59650000D01*
X22147298Y-59649999D01*
X22459370Y-59610575D01*
X22459379Y-59610573D01*
X22764073Y-59532340D01*
X23056544Y-59416544D01*
X23056552Y-59416540D01*
X23332209Y-59264996D01*
X23332219Y-59264990D01*
X23575026Y-59088579D01*
X23575027Y-59088579D01*
X22930698Y-58444251D01*
X23032330Y-58370412D01*
X23210412Y-58192330D01*
X23284251Y-58090698D01*
X23925712Y-58732160D01*
X24016544Y-58622364D01*
X24185096Y-58356767D01*
X24185099Y-58356761D01*
X24319034Y-58072137D01*
X24319036Y-58072132D01*
X24416244Y-57772958D01*
X24475191Y-57463949D01*
X24475192Y-57463942D01*
X24494943Y-57150005D01*
X24494943Y-57149994D01*
X24475192Y-56836057D01*
X24475191Y-56836050D01*
X24416244Y-56527041D01*
X24319036Y-56227867D01*
X24319034Y-56227862D01*
X24185099Y-55943238D01*
X24185096Y-55943232D01*
X24016542Y-55677632D01*
X24016539Y-55677628D01*
X23925712Y-55567838D01*
X23284250Y-56209300D01*
X23210412Y-56107670D01*
X23032330Y-55929588D01*
X22930698Y-55855748D01*
X23575027Y-55211419D01*
X23575026Y-55211417D01*
X23332227Y-55035014D01*
X23332209Y-55035003D01*
X23056552Y-54883459D01*
X23056544Y-54883455D01*
X22764073Y-54767659D01*
X22459379Y-54689426D01*
X22459370Y-54689424D01*
X22147298Y-54650000D01*
X21832701Y-54650000D01*
X21520629Y-54689424D01*
X21520620Y-54689426D01*
X21215926Y-54767659D01*
X20923455Y-54883455D01*
X20923447Y-54883459D01*
X20647787Y-55035004D01*
X20647782Y-55035007D01*
X20404972Y-55211418D01*
X20404971Y-55211419D01*
X21049301Y-55855748D01*
X20947670Y-55929588D01*
X20769588Y-56107670D01*
X20695748Y-56209300D01*
X20054286Y-55567838D01*
X20054285Y-55567838D01*
X19963459Y-55677629D01*
X19963457Y-55677632D01*
X19794903Y-55943232D01*
X19794900Y-55943238D01*
X19660965Y-56227862D01*
X19660963Y-56227867D01*
X19563755Y-56527041D01*
X19504808Y-56836050D01*
X19504807Y-56836057D01*
X19485057Y-57149994D01*
X18280500Y-57149994D01*
X18280500Y-52860649D01*
X40197500Y-52860649D01*
X40200399Y-52897489D01*
X40200400Y-52897495D01*
X40246216Y-53055193D01*
X40246217Y-53055196D01*
X40329814Y-53196552D01*
X40329821Y-53196561D01*
X40445938Y-53312678D01*
X40445947Y-53312685D01*
X40587301Y-53396281D01*
X40745014Y-53442100D01*
X40745011Y-53442100D01*
X40747498Y-53442295D01*
X40747500Y-53442295D01*
X41247500Y-53442295D01*
X41247501Y-53442295D01*
X41249986Y-53442100D01*
X41407698Y-53396281D01*
X41549052Y-53312685D01*
X41555222Y-53307900D01*
X41557046Y-53310252D01*
X41606095Y-53283445D01*
X41675788Y-53288402D01*
X41708563Y-53309465D01*
X41709778Y-53307900D01*
X41715947Y-53312685D01*
X41857301Y-53396281D01*
X42015014Y-53442100D01*
X42015011Y-53442100D01*
X42017498Y-53442295D01*
X42017500Y-53442295D01*
X42017500Y-52320000D01*
X41247500Y-52320000D01*
X41247500Y-53442295D01*
X40747500Y-53442295D01*
X40747500Y-52320000D01*
X40197500Y-52320000D01*
X40197500Y-52860649D01*
X18280500Y-52860649D01*
X18280500Y-50478130D01*
X23744998Y-50478130D01*
X23744998Y-50626575D01*
X23745000Y-50626628D01*
X23745000Y-50973702D01*
X23744998Y-50973760D01*
X23744998Y-51121868D01*
X23764198Y-51255407D01*
X23764198Y-51255409D01*
X23765459Y-51264186D01*
X23803319Y-51393126D01*
X23803320Y-51393126D01*
X24396447Y-50800000D01*
X24396447Y-50799999D01*
X23803320Y-50206873D01*
X23803319Y-50206873D01*
X23765460Y-50335812D01*
X23765459Y-50335816D01*
X23744998Y-50478130D01*
X18280500Y-50478130D01*
X18280500Y-46414130D01*
X23744998Y-46414130D01*
X23744998Y-46562575D01*
X23745000Y-46562628D01*
X23745000Y-46909702D01*
X23744998Y-46909760D01*
X23744998Y-47057868D01*
X23764198Y-47191407D01*
X23764198Y-47191409D01*
X23765459Y-47200186D01*
X23803319Y-47329126D01*
X23803320Y-47329126D01*
X24396447Y-46736000D01*
X24396447Y-46735999D01*
X23803320Y-46142873D01*
X23803319Y-46142873D01*
X23765460Y-46271812D01*
X23765459Y-46271816D01*
X23744998Y-46414130D01*
X18280500Y-46414130D01*
X18280500Y-42350130D01*
X23744998Y-42350130D01*
X23744998Y-42498575D01*
X23745000Y-42498628D01*
X23745000Y-42845702D01*
X23744998Y-42845760D01*
X23744998Y-42993868D01*
X23764198Y-43127407D01*
X23764198Y-43127409D01*
X23765459Y-43136186D01*
X23803319Y-43265126D01*
X23803320Y-43265126D01*
X24396447Y-42672000D01*
X24396447Y-42671999D01*
X23803320Y-42078873D01*
X23803319Y-42078873D01*
X23765460Y-42207812D01*
X23765459Y-42207816D01*
X23744998Y-42350130D01*
X18280500Y-42350130D01*
X18280500Y-37778130D01*
X23744998Y-37778130D01*
X23744998Y-37926575D01*
X23745000Y-37926628D01*
X23745000Y-38273702D01*
X23744998Y-38273760D01*
X23744998Y-38421868D01*
X23764198Y-38555407D01*
X23764198Y-38555409D01*
X23765459Y-38564186D01*
X23803319Y-38693126D01*
X23803320Y-38693126D01*
X24396447Y-38100000D01*
X24396447Y-38099999D01*
X23803320Y-37506873D01*
X23803319Y-37506873D01*
X23765460Y-37635812D01*
X23765459Y-37635816D01*
X23744998Y-37778130D01*
X18280500Y-37778130D01*
X18280500Y-31749994D01*
X19485057Y-31749994D01*
X19485057Y-31750005D01*
X19504807Y-32063942D01*
X19504808Y-32063949D01*
X19563755Y-32372958D01*
X19660963Y-32672132D01*
X19660965Y-32672137D01*
X19794900Y-32956761D01*
X19794903Y-32956767D01*
X19963457Y-33222367D01*
X19963460Y-33222371D01*
X20054286Y-33332160D01*
X20695748Y-32690698D01*
X20769588Y-32792330D01*
X20947670Y-32970412D01*
X21049300Y-33044250D01*
X20404971Y-33688579D01*
X20404972Y-33688581D01*
X20647772Y-33864985D01*
X20647790Y-33864996D01*
X20923447Y-34016540D01*
X20923455Y-34016544D01*
X21215926Y-34132340D01*
X21520620Y-34210573D01*
X21520629Y-34210575D01*
X21832701Y-34249999D01*
X21832715Y-34250000D01*
X22147285Y-34250000D01*
X22147298Y-34249999D01*
X22459370Y-34210575D01*
X22459379Y-34210573D01*
X22764073Y-34132340D01*
X23056544Y-34016544D01*
X23056552Y-34016540D01*
X23332209Y-33864996D01*
X23332219Y-33864990D01*
X23575026Y-33688579D01*
X23575027Y-33688579D01*
X22930698Y-33044251D01*
X23032330Y-32970412D01*
X23210412Y-32792330D01*
X23284251Y-32690698D01*
X23925712Y-33332160D01*
X24016544Y-33222364D01*
X24185096Y-32956767D01*
X24185099Y-32956761D01*
X24319034Y-32672137D01*
X24319036Y-32672132D01*
X24416244Y-32372958D01*
X24475191Y-32063949D01*
X24475192Y-32063942D01*
X24494943Y-31750005D01*
X24494943Y-31749994D01*
X24475192Y-31436057D01*
X24475191Y-31436050D01*
X24416244Y-31127041D01*
X24319036Y-30827867D01*
X24319034Y-30827862D01*
X24185099Y-30543238D01*
X24185096Y-30543232D01*
X24016542Y-30277632D01*
X24016539Y-30277628D01*
X23925712Y-30167838D01*
X23284250Y-30809300D01*
X23210412Y-30707670D01*
X23032330Y-30529588D01*
X22930698Y-30455748D01*
X23575027Y-29811419D01*
X23575026Y-29811417D01*
X23332227Y-29635014D01*
X23332209Y-29635003D01*
X23056552Y-29483459D01*
X23056544Y-29483455D01*
X22764073Y-29367659D01*
X22459379Y-29289426D01*
X22459370Y-29289424D01*
X22147298Y-29250000D01*
X21832701Y-29250000D01*
X21520629Y-29289424D01*
X21520620Y-29289426D01*
X21215926Y-29367659D01*
X20923455Y-29483455D01*
X20923447Y-29483459D01*
X20647787Y-29635004D01*
X20647782Y-29635007D01*
X20404972Y-29811418D01*
X20404971Y-29811419D01*
X21049301Y-30455748D01*
X20947670Y-30529588D01*
X20769588Y-30707670D01*
X20695748Y-30809300D01*
X20054286Y-30167838D01*
X20054285Y-30167838D01*
X19963459Y-30277629D01*
X19963457Y-30277632D01*
X19794903Y-30543232D01*
X19794900Y-30543238D01*
X19660965Y-30827862D01*
X19660963Y-30827867D01*
X19563755Y-31127041D01*
X19504808Y-31436050D01*
X19504807Y-31436057D01*
X19485057Y-31749994D01*
X18280500Y-31749994D01*
X18280500Y-20944500D01*
X18300185Y-20877461D01*
X18352989Y-20831706D01*
X18404500Y-20820500D01*
X50175500Y-20820500D01*
X50242539Y-20840185D01*
G37*
%TD.AperFunction*%
%TA.AperFunction,Conductor*%
G36*
X49145000Y-47060633D02*
G01*
X49358483Y-47003433D01*
X49358492Y-47003429D01*
X49572578Y-46903600D01*
X49766082Y-46768105D01*
X49933105Y-46601082D01*
X50071705Y-46403144D01*
X50072827Y-46403930D01*
X50118669Y-46360212D01*
X50187275Y-46346982D01*
X50252142Y-46372944D01*
X50292676Y-46429854D01*
X50299500Y-46470422D01*
X50299500Y-48402520D01*
X50279815Y-48469559D01*
X50227011Y-48515314D01*
X50157853Y-48525258D01*
X50094297Y-48496233D01*
X50062706Y-48454031D01*
X50029753Y-48381874D01*
X50029746Y-48381861D01*
X49955623Y-48266523D01*
X49954802Y-48265081D01*
X49952011Y-48260901D01*
X49857792Y-48152169D01*
X49857789Y-48152166D01*
X49749135Y-48058018D01*
X49749132Y-48058015D01*
X49722264Y-48040749D01*
X49628094Y-47980230D01*
X49628087Y-47980227D01*
X49628081Y-47980223D01*
X49503356Y-47923263D01*
X49499057Y-47921014D01*
X49359261Y-47879966D01*
X49359251Y-47879963D01*
X49231300Y-47861567D01*
X49216941Y-47859503D01*
X49216940Y-47859503D01*
X49160601Y-47859503D01*
X49160591Y-47859500D01*
X49109236Y-47859500D01*
X48680764Y-47859500D01*
X48629427Y-47859500D01*
X48629399Y-47859503D01*
X48573059Y-47859503D01*
X48439521Y-47878703D01*
X48439519Y-47878703D01*
X48430744Y-47879964D01*
X48292686Y-47920503D01*
X48161918Y-47980223D01*
X48161908Y-47980228D01*
X48161906Y-47980230D01*
X48128253Y-48001857D01*
X48040867Y-48058015D01*
X48040863Y-48058018D01*
X47932226Y-48152152D01*
X47932207Y-48152169D01*
X47932190Y-48152188D01*
X47871957Y-48221702D01*
X47813179Y-48259477D01*
X47778244Y-48264500D01*
X46864097Y-48264500D01*
X46797058Y-48244815D01*
X46751303Y-48192011D01*
X46741359Y-48122853D01*
X46770384Y-48059297D01*
X46776416Y-48052819D01*
X46917981Y-47911254D01*
X47358713Y-47470521D01*
X47358716Y-47470520D01*
X47470520Y-47358716D01*
X47520639Y-47271904D01*
X47549577Y-47221785D01*
X47590500Y-47069058D01*
X47590500Y-46910943D01*
X47590500Y-46613910D01*
X47610185Y-46546871D01*
X47662989Y-46501116D01*
X47732147Y-46491172D01*
X47795703Y-46520197D01*
X47816075Y-46542787D01*
X47856891Y-46601079D01*
X48023917Y-46768105D01*
X48217421Y-46903600D01*
X48431507Y-47003429D01*
X48431516Y-47003433D01*
X48645000Y-47060634D01*
X48645000Y-46163012D01*
X48702007Y-46195925D01*
X48829174Y-46230000D01*
X48960826Y-46230000D01*
X49087993Y-46195925D01*
X49145000Y-46163012D01*
X49145000Y-47060633D01*
G37*
%TD.AperFunction*%
%TD*%
M02*
