M48
; DRILL file {KiCad 8.0.3+1} date 2024-06-22T01:26:50+0200
; FORMAT={-:-/ absolute / metric / decimal}
; #@! TF.CreationDate,2024-06-22T01:26:50+02:00
; #@! TF.GenerationSoftware,Kicad,Pcbnew,8.0.3+1
; #@! TF.FileFunction,Plated,1,2,PTH
FMAT,2
METRIC
; #@! TA.AperFunction,Plated,PTH,ViaDrill
T1C0.300
; #@! TA.AperFunction,Plated,PTH,ComponentDrill
T2C1.000
; #@! TA.AperFunction,Plated,PTH,ComponentDrill
T3C3.200
%
G90
G05
T1
X20.32Y-22.86
X20.32Y-25.4
X20.32Y-27.94
X20.32Y-35.56
X20.32Y-38.1
X20.32Y-40.64
X20.32Y-43.18
X20.32Y-45.72
X20.32Y-48.26
X20.32Y-50.8
X20.32Y-53.34
X20.32Y-60.96
X20.32Y-63.5
X20.32Y-66.04
X22.86Y-22.86
X22.86Y-66.04
X25.4Y-22.86
X25.4Y-66.04
X27.94Y-22.86
X27.94Y-66.04
X29.845Y-35.56
X29.845Y-38.1
X29.845Y-40.64
X29.845Y-43.18
X29.845Y-45.72
X29.845Y-48.26
X29.845Y-50.8
X29.845Y-53.34
X30.48Y-22.86
X30.48Y-66.04
X33.02Y-22.86
X33.02Y-66.04
X35.56Y-22.86
X35.56Y-66.04
X38.1Y-22.86
X38.1Y-66.04
X40.64Y-22.86
X40.64Y-66.04
X41.91Y-35.56
X41.91Y-49.53
X41.91Y-54.61
X43.18Y-22.86
X43.18Y-66.04
X43.815Y-38.1
X43.815Y-43.18
X44.45Y-54.61
X45.085Y-40.64
X45.72Y-22.86
X45.72Y-53.34
X45.72Y-66.04
X48.26Y-22.86
X48.26Y-25.4
X48.26Y-27.94
X48.26Y-35.56
X48.26Y-53.34
X48.26Y-60.96
X48.26Y-63.5
X48.26Y-66.04
T2
X29.645Y-29.21
X29.645Y-33.17
X29.645Y-55.73
X29.645Y-59.69
X30.79Y-31.19
X30.79Y-57.71
X31.935Y-29.21
X31.935Y-33.17
X31.935Y-55.73
X31.935Y-59.69
X33.08Y-31.19
X33.08Y-57.71
X34.225Y-29.21
X34.225Y-33.17
X34.225Y-55.73
X34.225Y-59.69
X35.37Y-31.19
X35.37Y-57.71
X36.515Y-29.21
X36.515Y-33.17
X36.515Y-55.73
X36.515Y-59.69
X37.66Y-31.19
X37.66Y-57.71
X38.805Y-29.21
X38.805Y-33.17
X38.805Y-55.73
X38.805Y-59.69
X39.95Y-31.19
X39.95Y-57.71
X48.895Y-38.11
X48.895Y-40.65
X48.895Y-43.19
X48.895Y-45.73
T3
X21.99Y-31.75
X21.99Y-57.15
X46.99Y-31.75
X46.99Y-57.15
M30
