%TF.GenerationSoftware,KiCad,Pcbnew,8.0.3+1*%
%TF.CreationDate,2024-06-22T01:26:53+02:00*%
%TF.ProjectId,EDID_spoofer,45444944-5f73-4706-9f6f-6665722e6b69,rev?*%
%TF.SameCoordinates,Original*%
%TF.FileFunction,Legend,Top*%
%TF.FilePolarity,Positive*%
%FSLAX46Y46*%
G04 Gerber Fmt 4.6, Leading zero omitted, Abs format (unit mm)*
G04 Created by KiCad (PCBNEW 8.0.3+1) date 2024-06-22 01:26:53*
%MOMM*%
%LPD*%
G01*
G04 APERTURE LIST*
%ADD10C,0.200000*%
%ADD11C,0.300000*%
%ADD12C,0.150000*%
%ADD13C,0.120000*%
G04 APERTURE END LIST*
D10*
X27293673Y-51175219D02*
X27293673Y-50175219D01*
X27769863Y-51175219D02*
X27769863Y-50175219D01*
X27769863Y-50175219D02*
X28007958Y-50175219D01*
X28007958Y-50175219D02*
X28150815Y-50222838D01*
X28150815Y-50222838D02*
X28246053Y-50318076D01*
X28246053Y-50318076D02*
X28293672Y-50413314D01*
X28293672Y-50413314D02*
X28341291Y-50603790D01*
X28341291Y-50603790D02*
X28341291Y-50746647D01*
X28341291Y-50746647D02*
X28293672Y-50937123D01*
X28293672Y-50937123D02*
X28246053Y-51032361D01*
X28246053Y-51032361D02*
X28150815Y-51127600D01*
X28150815Y-51127600D02*
X28007958Y-51175219D01*
X28007958Y-51175219D02*
X27769863Y-51175219D01*
X28722244Y-50270457D02*
X28769863Y-50222838D01*
X28769863Y-50222838D02*
X28865101Y-50175219D01*
X28865101Y-50175219D02*
X29103196Y-50175219D01*
X29103196Y-50175219D02*
X29198434Y-50222838D01*
X29198434Y-50222838D02*
X29246053Y-50270457D01*
X29246053Y-50270457D02*
X29293672Y-50365695D01*
X29293672Y-50365695D02*
X29293672Y-50460933D01*
X29293672Y-50460933D02*
X29246053Y-50603790D01*
X29246053Y-50603790D02*
X28674625Y-51175219D01*
X28674625Y-51175219D02*
X29293672Y-51175219D01*
X27293673Y-47111219D02*
X27293673Y-46111219D01*
X27769863Y-47111219D02*
X27769863Y-46111219D01*
X27769863Y-46111219D02*
X28007958Y-46111219D01*
X28007958Y-46111219D02*
X28150815Y-46158838D01*
X28150815Y-46158838D02*
X28246053Y-46254076D01*
X28246053Y-46254076D02*
X28293672Y-46349314D01*
X28293672Y-46349314D02*
X28341291Y-46539790D01*
X28341291Y-46539790D02*
X28341291Y-46682647D01*
X28341291Y-46682647D02*
X28293672Y-46873123D01*
X28293672Y-46873123D02*
X28246053Y-46968361D01*
X28246053Y-46968361D02*
X28150815Y-47063600D01*
X28150815Y-47063600D02*
X28007958Y-47111219D01*
X28007958Y-47111219D02*
X27769863Y-47111219D01*
X28674625Y-46111219D02*
X29293672Y-46111219D01*
X29293672Y-46111219D02*
X28960339Y-46492171D01*
X28960339Y-46492171D02*
X29103196Y-46492171D01*
X29103196Y-46492171D02*
X29198434Y-46539790D01*
X29198434Y-46539790D02*
X29246053Y-46587409D01*
X29246053Y-46587409D02*
X29293672Y-46682647D01*
X29293672Y-46682647D02*
X29293672Y-46920742D01*
X29293672Y-46920742D02*
X29246053Y-47015980D01*
X29246053Y-47015980D02*
X29198434Y-47063600D01*
X29198434Y-47063600D02*
X29103196Y-47111219D01*
X29103196Y-47111219D02*
X28817482Y-47111219D01*
X28817482Y-47111219D02*
X28722244Y-47063600D01*
X28722244Y-47063600D02*
X28674625Y-47015980D01*
X27293673Y-43047219D02*
X27293673Y-42047219D01*
X27769863Y-43047219D02*
X27769863Y-42047219D01*
X27769863Y-42047219D02*
X28007958Y-42047219D01*
X28007958Y-42047219D02*
X28150815Y-42094838D01*
X28150815Y-42094838D02*
X28246053Y-42190076D01*
X28246053Y-42190076D02*
X28293672Y-42285314D01*
X28293672Y-42285314D02*
X28341291Y-42475790D01*
X28341291Y-42475790D02*
X28341291Y-42618647D01*
X28341291Y-42618647D02*
X28293672Y-42809123D01*
X28293672Y-42809123D02*
X28246053Y-42904361D01*
X28246053Y-42904361D02*
X28150815Y-42999600D01*
X28150815Y-42999600D02*
X28007958Y-43047219D01*
X28007958Y-43047219D02*
X27769863Y-43047219D01*
X29293672Y-43047219D02*
X28722244Y-43047219D01*
X29007958Y-43047219D02*
X29007958Y-42047219D01*
X29007958Y-42047219D02*
X28912720Y-42190076D01*
X28912720Y-42190076D02*
X28817482Y-42285314D01*
X28817482Y-42285314D02*
X28722244Y-42332933D01*
X27293673Y-38475219D02*
X27293673Y-37475219D01*
X27769863Y-38475219D02*
X27769863Y-37475219D01*
X27769863Y-37475219D02*
X28007958Y-37475219D01*
X28007958Y-37475219D02*
X28150815Y-37522838D01*
X28150815Y-37522838D02*
X28246053Y-37618076D01*
X28246053Y-37618076D02*
X28293672Y-37713314D01*
X28293672Y-37713314D02*
X28341291Y-37903790D01*
X28341291Y-37903790D02*
X28341291Y-38046647D01*
X28341291Y-38046647D02*
X28293672Y-38237123D01*
X28293672Y-38237123D02*
X28246053Y-38332361D01*
X28246053Y-38332361D02*
X28150815Y-38427600D01*
X28150815Y-38427600D02*
X28007958Y-38475219D01*
X28007958Y-38475219D02*
X27769863Y-38475219D01*
X28960339Y-37475219D02*
X29055577Y-37475219D01*
X29055577Y-37475219D02*
X29150815Y-37522838D01*
X29150815Y-37522838D02*
X29198434Y-37570457D01*
X29198434Y-37570457D02*
X29246053Y-37665695D01*
X29246053Y-37665695D02*
X29293672Y-37856171D01*
X29293672Y-37856171D02*
X29293672Y-38094266D01*
X29293672Y-38094266D02*
X29246053Y-38284742D01*
X29246053Y-38284742D02*
X29198434Y-38379980D01*
X29198434Y-38379980D02*
X29150815Y-38427600D01*
X29150815Y-38427600D02*
X29055577Y-38475219D01*
X29055577Y-38475219D02*
X28960339Y-38475219D01*
X28960339Y-38475219D02*
X28865101Y-38427600D01*
X28865101Y-38427600D02*
X28817482Y-38379980D01*
X28817482Y-38379980D02*
X28769863Y-38284742D01*
X28769863Y-38284742D02*
X28722244Y-38094266D01*
X28722244Y-38094266D02*
X28722244Y-37856171D01*
X28722244Y-37856171D02*
X28769863Y-37665695D01*
X28769863Y-37665695D02*
X28817482Y-37570457D01*
X28817482Y-37570457D02*
X28865101Y-37522838D01*
X28865101Y-37522838D02*
X28960339Y-37475219D01*
D11*
X36346917Y-52340600D02*
X36132632Y-52269171D01*
X36132632Y-52269171D02*
X35775489Y-52269171D01*
X35775489Y-52269171D02*
X35632632Y-52340600D01*
X35632632Y-52340600D02*
X35561203Y-52412028D01*
X35561203Y-52412028D02*
X35489774Y-52554885D01*
X35489774Y-52554885D02*
X35489774Y-52697742D01*
X35489774Y-52697742D02*
X35561203Y-52840600D01*
X35561203Y-52840600D02*
X35632632Y-52912028D01*
X35632632Y-52912028D02*
X35775489Y-52983457D01*
X35775489Y-52983457D02*
X36061203Y-53054885D01*
X36061203Y-53054885D02*
X36204060Y-53126314D01*
X36204060Y-53126314D02*
X36275489Y-53197742D01*
X36275489Y-53197742D02*
X36346917Y-53340600D01*
X36346917Y-53340600D02*
X36346917Y-53483457D01*
X36346917Y-53483457D02*
X36275489Y-53626314D01*
X36275489Y-53626314D02*
X36204060Y-53697742D01*
X36204060Y-53697742D02*
X36061203Y-53769171D01*
X36061203Y-53769171D02*
X35704060Y-53769171D01*
X35704060Y-53769171D02*
X35489774Y-53697742D01*
X34846918Y-52269171D02*
X34846918Y-53269171D01*
X34846918Y-53769171D02*
X34918346Y-53697742D01*
X34918346Y-53697742D02*
X34846918Y-53626314D01*
X34846918Y-53626314D02*
X34775489Y-53697742D01*
X34775489Y-53697742D02*
X34846918Y-53769171D01*
X34846918Y-53769171D02*
X34846918Y-53626314D01*
X34132632Y-53269171D02*
X34132632Y-52269171D01*
X34132632Y-53126314D02*
X34061203Y-53197742D01*
X34061203Y-53197742D02*
X33918346Y-53269171D01*
X33918346Y-53269171D02*
X33704060Y-53269171D01*
X33704060Y-53269171D02*
X33561203Y-53197742D01*
X33561203Y-53197742D02*
X33489775Y-53054885D01*
X33489775Y-53054885D02*
X33489775Y-52269171D01*
X32775489Y-52269171D02*
X32775489Y-53769171D01*
X32632632Y-52840600D02*
X32204060Y-52269171D01*
X32204060Y-53269171D02*
X32775489Y-52697742D01*
D10*
X19142331Y-53113183D02*
X20142331Y-52779850D01*
X20142331Y-52779850D02*
X19142331Y-52446517D01*
X19189950Y-51589374D02*
X19142331Y-51684612D01*
X19142331Y-51684612D02*
X19142331Y-51827469D01*
X19142331Y-51827469D02*
X19189950Y-51970326D01*
X19189950Y-51970326D02*
X19285188Y-52065564D01*
X19285188Y-52065564D02*
X19380426Y-52113183D01*
X19380426Y-52113183D02*
X19570902Y-52160802D01*
X19570902Y-52160802D02*
X19713759Y-52160802D01*
X19713759Y-52160802D02*
X19904235Y-52113183D01*
X19904235Y-52113183D02*
X19999473Y-52065564D01*
X19999473Y-52065564D02*
X20094712Y-51970326D01*
X20094712Y-51970326D02*
X20142331Y-51827469D01*
X20142331Y-51827469D02*
X20142331Y-51732231D01*
X20142331Y-51732231D02*
X20094712Y-51589374D01*
X20094712Y-51589374D02*
X20047092Y-51541755D01*
X20047092Y-51541755D02*
X19713759Y-51541755D01*
X19713759Y-51541755D02*
X19713759Y-51732231D01*
X19856616Y-51160802D02*
X19856616Y-50684612D01*
X20142331Y-51256040D02*
X19142331Y-50922707D01*
X19142331Y-50922707D02*
X20142331Y-50589374D01*
X19618521Y-49494135D02*
X19618521Y-49160802D01*
X20142331Y-49017945D02*
X20142331Y-49494135D01*
X20142331Y-49494135D02*
X19142331Y-49494135D01*
X19142331Y-49494135D02*
X19142331Y-49017945D01*
X20142331Y-48589373D02*
X19142331Y-48589373D01*
X19142331Y-48589373D02*
X19142331Y-48351278D01*
X19142331Y-48351278D02*
X19189950Y-48208421D01*
X19189950Y-48208421D02*
X19285188Y-48113183D01*
X19285188Y-48113183D02*
X19380426Y-48065564D01*
X19380426Y-48065564D02*
X19570902Y-48017945D01*
X19570902Y-48017945D02*
X19713759Y-48017945D01*
X19713759Y-48017945D02*
X19904235Y-48065564D01*
X19904235Y-48065564D02*
X19999473Y-48113183D01*
X19999473Y-48113183D02*
X20094712Y-48208421D01*
X20094712Y-48208421D02*
X20142331Y-48351278D01*
X20142331Y-48351278D02*
X20142331Y-48589373D01*
X20142331Y-47589373D02*
X19142331Y-47589373D01*
X20142331Y-47113183D02*
X19142331Y-47113183D01*
X19142331Y-47113183D02*
X19142331Y-46875088D01*
X19142331Y-46875088D02*
X19189950Y-46732231D01*
X19189950Y-46732231D02*
X19285188Y-46636993D01*
X19285188Y-46636993D02*
X19380426Y-46589374D01*
X19380426Y-46589374D02*
X19570902Y-46541755D01*
X19570902Y-46541755D02*
X19713759Y-46541755D01*
X19713759Y-46541755D02*
X19904235Y-46589374D01*
X19904235Y-46589374D02*
X19999473Y-46636993D01*
X19999473Y-46636993D02*
X20094712Y-46732231D01*
X20094712Y-46732231D02*
X20142331Y-46875088D01*
X20142331Y-46875088D02*
X20142331Y-47113183D01*
X20094712Y-45398897D02*
X20142331Y-45303659D01*
X20142331Y-45303659D02*
X20142331Y-45113183D01*
X20142331Y-45113183D02*
X20094712Y-45017945D01*
X20094712Y-45017945D02*
X19999473Y-44970326D01*
X19999473Y-44970326D02*
X19951854Y-44970326D01*
X19951854Y-44970326D02*
X19856616Y-45017945D01*
X19856616Y-45017945D02*
X19808997Y-45113183D01*
X19808997Y-45113183D02*
X19808997Y-45256040D01*
X19808997Y-45256040D02*
X19761378Y-45351278D01*
X19761378Y-45351278D02*
X19666140Y-45398897D01*
X19666140Y-45398897D02*
X19618521Y-45398897D01*
X19618521Y-45398897D02*
X19523283Y-45351278D01*
X19523283Y-45351278D02*
X19475664Y-45256040D01*
X19475664Y-45256040D02*
X19475664Y-45113183D01*
X19475664Y-45113183D02*
X19523283Y-45017945D01*
X19475664Y-44541754D02*
X20475664Y-44541754D01*
X19523283Y-44541754D02*
X19475664Y-44446516D01*
X19475664Y-44446516D02*
X19475664Y-44256040D01*
X19475664Y-44256040D02*
X19523283Y-44160802D01*
X19523283Y-44160802D02*
X19570902Y-44113183D01*
X19570902Y-44113183D02*
X19666140Y-44065564D01*
X19666140Y-44065564D02*
X19951854Y-44065564D01*
X19951854Y-44065564D02*
X20047092Y-44113183D01*
X20047092Y-44113183D02*
X20094712Y-44160802D01*
X20094712Y-44160802D02*
X20142331Y-44256040D01*
X20142331Y-44256040D02*
X20142331Y-44446516D01*
X20142331Y-44446516D02*
X20094712Y-44541754D01*
X20142331Y-43494135D02*
X20094712Y-43589373D01*
X20094712Y-43589373D02*
X20047092Y-43636992D01*
X20047092Y-43636992D02*
X19951854Y-43684611D01*
X19951854Y-43684611D02*
X19666140Y-43684611D01*
X19666140Y-43684611D02*
X19570902Y-43636992D01*
X19570902Y-43636992D02*
X19523283Y-43589373D01*
X19523283Y-43589373D02*
X19475664Y-43494135D01*
X19475664Y-43494135D02*
X19475664Y-43351278D01*
X19475664Y-43351278D02*
X19523283Y-43256040D01*
X19523283Y-43256040D02*
X19570902Y-43208421D01*
X19570902Y-43208421D02*
X19666140Y-43160802D01*
X19666140Y-43160802D02*
X19951854Y-43160802D01*
X19951854Y-43160802D02*
X20047092Y-43208421D01*
X20047092Y-43208421D02*
X20094712Y-43256040D01*
X20094712Y-43256040D02*
X20142331Y-43351278D01*
X20142331Y-43351278D02*
X20142331Y-43494135D01*
X20142331Y-42589373D02*
X20094712Y-42684611D01*
X20094712Y-42684611D02*
X20047092Y-42732230D01*
X20047092Y-42732230D02*
X19951854Y-42779849D01*
X19951854Y-42779849D02*
X19666140Y-42779849D01*
X19666140Y-42779849D02*
X19570902Y-42732230D01*
X19570902Y-42732230D02*
X19523283Y-42684611D01*
X19523283Y-42684611D02*
X19475664Y-42589373D01*
X19475664Y-42589373D02*
X19475664Y-42446516D01*
X19475664Y-42446516D02*
X19523283Y-42351278D01*
X19523283Y-42351278D02*
X19570902Y-42303659D01*
X19570902Y-42303659D02*
X19666140Y-42256040D01*
X19666140Y-42256040D02*
X19951854Y-42256040D01*
X19951854Y-42256040D02*
X20047092Y-42303659D01*
X20047092Y-42303659D02*
X20094712Y-42351278D01*
X20094712Y-42351278D02*
X20142331Y-42446516D01*
X20142331Y-42446516D02*
X20142331Y-42589373D01*
X19475664Y-41970325D02*
X19475664Y-41589373D01*
X20142331Y-41827468D02*
X19285188Y-41827468D01*
X19285188Y-41827468D02*
X19189950Y-41779849D01*
X19189950Y-41779849D02*
X19142331Y-41684611D01*
X19142331Y-41684611D02*
X19142331Y-41589373D01*
X20094712Y-40875087D02*
X20142331Y-40970325D01*
X20142331Y-40970325D02*
X20142331Y-41160801D01*
X20142331Y-41160801D02*
X20094712Y-41256039D01*
X20094712Y-41256039D02*
X19999473Y-41303658D01*
X19999473Y-41303658D02*
X19618521Y-41303658D01*
X19618521Y-41303658D02*
X19523283Y-41256039D01*
X19523283Y-41256039D02*
X19475664Y-41160801D01*
X19475664Y-41160801D02*
X19475664Y-40970325D01*
X19475664Y-40970325D02*
X19523283Y-40875087D01*
X19523283Y-40875087D02*
X19618521Y-40827468D01*
X19618521Y-40827468D02*
X19713759Y-40827468D01*
X19713759Y-40827468D02*
X19808997Y-41303658D01*
X20142331Y-40398896D02*
X19475664Y-40398896D01*
X19666140Y-40398896D02*
X19570902Y-40351277D01*
X19570902Y-40351277D02*
X19523283Y-40303658D01*
X19523283Y-40303658D02*
X19475664Y-40208420D01*
X19475664Y-40208420D02*
X19475664Y-40113182D01*
X21752275Y-52970326D02*
X20752275Y-52970326D01*
X20752275Y-52970326D02*
X20752275Y-52589374D01*
X20752275Y-52589374D02*
X20799894Y-52494136D01*
X20799894Y-52494136D02*
X20847513Y-52446517D01*
X20847513Y-52446517D02*
X20942751Y-52398898D01*
X20942751Y-52398898D02*
X21085608Y-52398898D01*
X21085608Y-52398898D02*
X21180846Y-52446517D01*
X21180846Y-52446517D02*
X21228465Y-52494136D01*
X21228465Y-52494136D02*
X21276084Y-52589374D01*
X21276084Y-52589374D02*
X21276084Y-52970326D01*
X21085608Y-51541755D02*
X21752275Y-51541755D01*
X21085608Y-51970326D02*
X21609417Y-51970326D01*
X21609417Y-51970326D02*
X21704656Y-51922707D01*
X21704656Y-51922707D02*
X21752275Y-51827469D01*
X21752275Y-51827469D02*
X21752275Y-51684612D01*
X21752275Y-51684612D02*
X21704656Y-51589374D01*
X21704656Y-51589374D02*
X21657036Y-51541755D01*
X21752275Y-51065564D02*
X20752275Y-51065564D01*
X21133227Y-51065564D02*
X21085608Y-50970326D01*
X21085608Y-50970326D02*
X21085608Y-50779850D01*
X21085608Y-50779850D02*
X21133227Y-50684612D01*
X21133227Y-50684612D02*
X21180846Y-50636993D01*
X21180846Y-50636993D02*
X21276084Y-50589374D01*
X21276084Y-50589374D02*
X21561798Y-50589374D01*
X21561798Y-50589374D02*
X21657036Y-50636993D01*
X21657036Y-50636993D02*
X21704656Y-50684612D01*
X21704656Y-50684612D02*
X21752275Y-50779850D01*
X21752275Y-50779850D02*
X21752275Y-50970326D01*
X21752275Y-50970326D02*
X21704656Y-51065564D01*
X21752275Y-50017945D02*
X21704656Y-50113183D01*
X21704656Y-50113183D02*
X21609417Y-50160802D01*
X21609417Y-50160802D02*
X20752275Y-50160802D01*
X21752275Y-49636992D02*
X21085608Y-49636992D01*
X20752275Y-49636992D02*
X20799894Y-49684611D01*
X20799894Y-49684611D02*
X20847513Y-49636992D01*
X20847513Y-49636992D02*
X20799894Y-49589373D01*
X20799894Y-49589373D02*
X20752275Y-49636992D01*
X20752275Y-49636992D02*
X20847513Y-49636992D01*
X21704656Y-48732231D02*
X21752275Y-48827469D01*
X21752275Y-48827469D02*
X21752275Y-49017945D01*
X21752275Y-49017945D02*
X21704656Y-49113183D01*
X21704656Y-49113183D02*
X21657036Y-49160802D01*
X21657036Y-49160802D02*
X21561798Y-49208421D01*
X21561798Y-49208421D02*
X21276084Y-49208421D01*
X21276084Y-49208421D02*
X21180846Y-49160802D01*
X21180846Y-49160802D02*
X21133227Y-49113183D01*
X21133227Y-49113183D02*
X21085608Y-49017945D01*
X21085608Y-49017945D02*
X21085608Y-48827469D01*
X21085608Y-48827469D02*
X21133227Y-48732231D01*
X21752275Y-47113183D02*
X20752275Y-47113183D01*
X21704656Y-47113183D02*
X21752275Y-47208421D01*
X21752275Y-47208421D02*
X21752275Y-47398897D01*
X21752275Y-47398897D02*
X21704656Y-47494135D01*
X21704656Y-47494135D02*
X21657036Y-47541754D01*
X21657036Y-47541754D02*
X21561798Y-47589373D01*
X21561798Y-47589373D02*
X21276084Y-47589373D01*
X21276084Y-47589373D02*
X21180846Y-47541754D01*
X21180846Y-47541754D02*
X21133227Y-47494135D01*
X21133227Y-47494135D02*
X21085608Y-47398897D01*
X21085608Y-47398897D02*
X21085608Y-47208421D01*
X21085608Y-47208421D02*
X21133227Y-47113183D01*
X21752275Y-46494135D02*
X21704656Y-46589373D01*
X21704656Y-46589373D02*
X21657036Y-46636992D01*
X21657036Y-46636992D02*
X21561798Y-46684611D01*
X21561798Y-46684611D02*
X21276084Y-46684611D01*
X21276084Y-46684611D02*
X21180846Y-46636992D01*
X21180846Y-46636992D02*
X21133227Y-46589373D01*
X21133227Y-46589373D02*
X21085608Y-46494135D01*
X21085608Y-46494135D02*
X21085608Y-46351278D01*
X21085608Y-46351278D02*
X21133227Y-46256040D01*
X21133227Y-46256040D02*
X21180846Y-46208421D01*
X21180846Y-46208421D02*
X21276084Y-46160802D01*
X21276084Y-46160802D02*
X21561798Y-46160802D01*
X21561798Y-46160802D02*
X21657036Y-46208421D01*
X21657036Y-46208421D02*
X21704656Y-46256040D01*
X21704656Y-46256040D02*
X21752275Y-46351278D01*
X21752275Y-46351278D02*
X21752275Y-46494135D01*
X21752275Y-45732230D02*
X21085608Y-45732230D01*
X21180846Y-45732230D02*
X21133227Y-45684611D01*
X21133227Y-45684611D02*
X21085608Y-45589373D01*
X21085608Y-45589373D02*
X21085608Y-45446516D01*
X21085608Y-45446516D02*
X21133227Y-45351278D01*
X21133227Y-45351278D02*
X21228465Y-45303659D01*
X21228465Y-45303659D02*
X21752275Y-45303659D01*
X21228465Y-45303659D02*
X21133227Y-45256040D01*
X21133227Y-45256040D02*
X21085608Y-45160802D01*
X21085608Y-45160802D02*
X21085608Y-45017945D01*
X21085608Y-45017945D02*
X21133227Y-44922706D01*
X21133227Y-44922706D02*
X21228465Y-44875087D01*
X21228465Y-44875087D02*
X21752275Y-44875087D01*
X21752275Y-43970326D02*
X21228465Y-43970326D01*
X21228465Y-43970326D02*
X21133227Y-44017945D01*
X21133227Y-44017945D02*
X21085608Y-44113183D01*
X21085608Y-44113183D02*
X21085608Y-44303659D01*
X21085608Y-44303659D02*
X21133227Y-44398897D01*
X21704656Y-43970326D02*
X21752275Y-44065564D01*
X21752275Y-44065564D02*
X21752275Y-44303659D01*
X21752275Y-44303659D02*
X21704656Y-44398897D01*
X21704656Y-44398897D02*
X21609417Y-44446516D01*
X21609417Y-44446516D02*
X21514179Y-44446516D01*
X21514179Y-44446516D02*
X21418941Y-44398897D01*
X21418941Y-44398897D02*
X21371322Y-44303659D01*
X21371322Y-44303659D02*
X21371322Y-44065564D01*
X21371322Y-44065564D02*
X21323703Y-43970326D01*
X21752275Y-43494135D02*
X21085608Y-43494135D01*
X20752275Y-43494135D02*
X20799894Y-43541754D01*
X20799894Y-43541754D02*
X20847513Y-43494135D01*
X20847513Y-43494135D02*
X20799894Y-43446516D01*
X20799894Y-43446516D02*
X20752275Y-43494135D01*
X20752275Y-43494135D02*
X20847513Y-43494135D01*
X21085608Y-43017945D02*
X21752275Y-43017945D01*
X21180846Y-43017945D02*
X21133227Y-42970326D01*
X21133227Y-42970326D02*
X21085608Y-42875088D01*
X21085608Y-42875088D02*
X21085608Y-42732231D01*
X21085608Y-42732231D02*
X21133227Y-42636993D01*
X21133227Y-42636993D02*
X21228465Y-42589374D01*
X21228465Y-42589374D02*
X21752275Y-42589374D01*
X22600314Y-52160802D02*
X22552695Y-52256041D01*
X22552695Y-52256041D02*
X22552695Y-52446517D01*
X22552695Y-52446517D02*
X22600314Y-52541755D01*
X22600314Y-52541755D02*
X22695552Y-52636993D01*
X22695552Y-52636993D02*
X22790790Y-52684612D01*
X22790790Y-52684612D02*
X22981266Y-52684612D01*
X22981266Y-52684612D02*
X23076504Y-52636993D01*
X23076504Y-52636993D02*
X23171742Y-52541755D01*
X23171742Y-52541755D02*
X23219361Y-52446517D01*
X23219361Y-52446517D02*
X23219361Y-52256041D01*
X23219361Y-52256041D02*
X23171742Y-52160802D01*
X22219361Y-52351279D02*
X22266980Y-52589374D01*
X22266980Y-52589374D02*
X22409838Y-52827469D01*
X22409838Y-52827469D02*
X22647933Y-52970326D01*
X22647933Y-52970326D02*
X22886028Y-53017945D01*
X22886028Y-53017945D02*
X23124123Y-52970326D01*
X23124123Y-52970326D02*
X23362219Y-52827469D01*
X23362219Y-52827469D02*
X23505076Y-52589374D01*
X23505076Y-52589374D02*
X23552695Y-52351279D01*
X23552695Y-52351279D02*
X23505076Y-52113183D01*
X23505076Y-52113183D02*
X23362219Y-51875088D01*
X23362219Y-51875088D02*
X23124123Y-51732231D01*
X23124123Y-51732231D02*
X22886028Y-51684612D01*
X22886028Y-51684612D02*
X22647933Y-51732231D01*
X22647933Y-51732231D02*
X22409838Y-51875088D01*
X22409838Y-51875088D02*
X22266980Y-52113183D01*
X22266980Y-52113183D02*
X22219361Y-52351279D01*
X22457457Y-50541754D02*
X22409838Y-50494135D01*
X22409838Y-50494135D02*
X22362219Y-50398897D01*
X22362219Y-50398897D02*
X22362219Y-50160802D01*
X22362219Y-50160802D02*
X22409838Y-50065564D01*
X22409838Y-50065564D02*
X22457457Y-50017945D01*
X22457457Y-50017945D02*
X22552695Y-49970326D01*
X22552695Y-49970326D02*
X22647933Y-49970326D01*
X22647933Y-49970326D02*
X22790790Y-50017945D01*
X22790790Y-50017945D02*
X23362219Y-50589373D01*
X23362219Y-50589373D02*
X23362219Y-49970326D01*
X22362219Y-49351278D02*
X22362219Y-49256040D01*
X22362219Y-49256040D02*
X22409838Y-49160802D01*
X22409838Y-49160802D02*
X22457457Y-49113183D01*
X22457457Y-49113183D02*
X22552695Y-49065564D01*
X22552695Y-49065564D02*
X22743171Y-49017945D01*
X22743171Y-49017945D02*
X22981266Y-49017945D01*
X22981266Y-49017945D02*
X23171742Y-49065564D01*
X23171742Y-49065564D02*
X23266980Y-49113183D01*
X23266980Y-49113183D02*
X23314600Y-49160802D01*
X23314600Y-49160802D02*
X23362219Y-49256040D01*
X23362219Y-49256040D02*
X23362219Y-49351278D01*
X23362219Y-49351278D02*
X23314600Y-49446516D01*
X23314600Y-49446516D02*
X23266980Y-49494135D01*
X23266980Y-49494135D02*
X23171742Y-49541754D01*
X23171742Y-49541754D02*
X22981266Y-49589373D01*
X22981266Y-49589373D02*
X22743171Y-49589373D01*
X22743171Y-49589373D02*
X22552695Y-49541754D01*
X22552695Y-49541754D02*
X22457457Y-49494135D01*
X22457457Y-49494135D02*
X22409838Y-49446516D01*
X22409838Y-49446516D02*
X22362219Y-49351278D01*
X22457457Y-48636992D02*
X22409838Y-48589373D01*
X22409838Y-48589373D02*
X22362219Y-48494135D01*
X22362219Y-48494135D02*
X22362219Y-48256040D01*
X22362219Y-48256040D02*
X22409838Y-48160802D01*
X22409838Y-48160802D02*
X22457457Y-48113183D01*
X22457457Y-48113183D02*
X22552695Y-48065564D01*
X22552695Y-48065564D02*
X22647933Y-48065564D01*
X22647933Y-48065564D02*
X22790790Y-48113183D01*
X22790790Y-48113183D02*
X23362219Y-48684611D01*
X23362219Y-48684611D02*
X23362219Y-48065564D01*
X22695552Y-47208421D02*
X23362219Y-47208421D01*
X22314600Y-47446516D02*
X23028885Y-47684611D01*
X23028885Y-47684611D02*
X23028885Y-47065564D01*
X23362219Y-45446516D02*
X23362219Y-45922706D01*
X23362219Y-45922706D02*
X22362219Y-45922706D01*
X23314600Y-44732230D02*
X23362219Y-44827468D01*
X23362219Y-44827468D02*
X23362219Y-45017944D01*
X23362219Y-45017944D02*
X23314600Y-45113182D01*
X23314600Y-45113182D02*
X23219361Y-45160801D01*
X23219361Y-45160801D02*
X22838409Y-45160801D01*
X22838409Y-45160801D02*
X22743171Y-45113182D01*
X22743171Y-45113182D02*
X22695552Y-45017944D01*
X22695552Y-45017944D02*
X22695552Y-44827468D01*
X22695552Y-44827468D02*
X22743171Y-44732230D01*
X22743171Y-44732230D02*
X22838409Y-44684611D01*
X22838409Y-44684611D02*
X22933647Y-44684611D01*
X22933647Y-44684611D02*
X23028885Y-45160801D01*
X23314600Y-43827468D02*
X23362219Y-43922706D01*
X23362219Y-43922706D02*
X23362219Y-44113182D01*
X23362219Y-44113182D02*
X23314600Y-44208420D01*
X23314600Y-44208420D02*
X23266980Y-44256039D01*
X23266980Y-44256039D02*
X23171742Y-44303658D01*
X23171742Y-44303658D02*
X22886028Y-44303658D01*
X22886028Y-44303658D02*
X22790790Y-44256039D01*
X22790790Y-44256039D02*
X22743171Y-44208420D01*
X22743171Y-44208420D02*
X22695552Y-44113182D01*
X22695552Y-44113182D02*
X22695552Y-43922706D01*
X22695552Y-43922706D02*
X22743171Y-43827468D01*
X23362219Y-43398896D02*
X22362219Y-43398896D01*
X23362219Y-42970325D02*
X22838409Y-42970325D01*
X22838409Y-42970325D02*
X22743171Y-43017944D01*
X22743171Y-43017944D02*
X22695552Y-43113182D01*
X22695552Y-43113182D02*
X22695552Y-43256039D01*
X22695552Y-43256039D02*
X22743171Y-43351277D01*
X22743171Y-43351277D02*
X22790790Y-43398896D01*
X22695552Y-42065563D02*
X23362219Y-42065563D01*
X22695552Y-42494134D02*
X23219361Y-42494134D01*
X23219361Y-42494134D02*
X23314600Y-42446515D01*
X23314600Y-42446515D02*
X23362219Y-42351277D01*
X23362219Y-42351277D02*
X23362219Y-42208420D01*
X23362219Y-42208420D02*
X23314600Y-42113182D01*
X23314600Y-42113182D02*
X23266980Y-42065563D01*
X22314600Y-40875087D02*
X23600314Y-41732229D01*
X23362219Y-40541753D02*
X22362219Y-40541753D01*
X22838409Y-40541753D02*
X22838409Y-39970325D01*
X23362219Y-39970325D02*
X22362219Y-39970325D01*
X23314600Y-39541753D02*
X23362219Y-39398896D01*
X23362219Y-39398896D02*
X23362219Y-39160801D01*
X23362219Y-39160801D02*
X23314600Y-39065563D01*
X23314600Y-39065563D02*
X23266980Y-39017944D01*
X23266980Y-39017944D02*
X23171742Y-38970325D01*
X23171742Y-38970325D02*
X23076504Y-38970325D01*
X23076504Y-38970325D02*
X22981266Y-39017944D01*
X22981266Y-39017944D02*
X22933647Y-39065563D01*
X22933647Y-39065563D02*
X22886028Y-39160801D01*
X22886028Y-39160801D02*
X22838409Y-39351277D01*
X22838409Y-39351277D02*
X22790790Y-39446515D01*
X22790790Y-39446515D02*
X22743171Y-39494134D01*
X22743171Y-39494134D02*
X22647933Y-39541753D01*
X22647933Y-39541753D02*
X22552695Y-39541753D01*
X22552695Y-39541753D02*
X22457457Y-39494134D01*
X22457457Y-39494134D02*
X22409838Y-39446515D01*
X22409838Y-39446515D02*
X22362219Y-39351277D01*
X22362219Y-39351277D02*
X22362219Y-39113182D01*
X22362219Y-39113182D02*
X22409838Y-38970325D01*
X23266980Y-38541753D02*
X23314600Y-38494134D01*
X23314600Y-38494134D02*
X23362219Y-38541753D01*
X23362219Y-38541753D02*
X23314600Y-38589372D01*
X23314600Y-38589372D02*
X23266980Y-38541753D01*
X23266980Y-38541753D02*
X23362219Y-38541753D01*
X22743171Y-38541753D02*
X22790790Y-38494134D01*
X22790790Y-38494134D02*
X22838409Y-38541753D01*
X22838409Y-38541753D02*
X22790790Y-38589372D01*
X22790790Y-38589372D02*
X22743171Y-38541753D01*
X22743171Y-38541753D02*
X22838409Y-38541753D01*
X22362219Y-38160801D02*
X23362219Y-37922706D01*
X23362219Y-37922706D02*
X22647933Y-37732230D01*
X22647933Y-37732230D02*
X23362219Y-37541754D01*
X23362219Y-37541754D02*
X22362219Y-37303659D01*
X23362219Y-36922706D02*
X22695552Y-36922706D01*
X22886028Y-36922706D02*
X22790790Y-36875087D01*
X22790790Y-36875087D02*
X22743171Y-36827468D01*
X22743171Y-36827468D02*
X22695552Y-36732230D01*
X22695552Y-36732230D02*
X22695552Y-36636992D01*
X23362219Y-36160801D02*
X23314600Y-36256039D01*
X23314600Y-36256039D02*
X23266980Y-36303658D01*
X23266980Y-36303658D02*
X23171742Y-36351277D01*
X23171742Y-36351277D02*
X22886028Y-36351277D01*
X22886028Y-36351277D02*
X22790790Y-36303658D01*
X22790790Y-36303658D02*
X22743171Y-36256039D01*
X22743171Y-36256039D02*
X22695552Y-36160801D01*
X22695552Y-36160801D02*
X22695552Y-36017944D01*
X22695552Y-36017944D02*
X22743171Y-35922706D01*
X22743171Y-35922706D02*
X22790790Y-35875087D01*
X22790790Y-35875087D02*
X22886028Y-35827468D01*
X22886028Y-35827468D02*
X23171742Y-35827468D01*
X23171742Y-35827468D02*
X23266980Y-35875087D01*
X23266980Y-35875087D02*
X23314600Y-35922706D01*
X23314600Y-35922706D02*
X23362219Y-36017944D01*
X23362219Y-36017944D02*
X23362219Y-36160801D01*
D11*
X30328082Y-36559400D02*
X30542368Y-36630828D01*
X30542368Y-36630828D02*
X30899510Y-36630828D01*
X30899510Y-36630828D02*
X31042368Y-36559400D01*
X31042368Y-36559400D02*
X31113796Y-36487971D01*
X31113796Y-36487971D02*
X31185225Y-36345114D01*
X31185225Y-36345114D02*
X31185225Y-36202257D01*
X31185225Y-36202257D02*
X31113796Y-36059400D01*
X31113796Y-36059400D02*
X31042368Y-35987971D01*
X31042368Y-35987971D02*
X30899510Y-35916542D01*
X30899510Y-35916542D02*
X30613796Y-35845114D01*
X30613796Y-35845114D02*
X30470939Y-35773685D01*
X30470939Y-35773685D02*
X30399510Y-35702257D01*
X30399510Y-35702257D02*
X30328082Y-35559400D01*
X30328082Y-35559400D02*
X30328082Y-35416542D01*
X30328082Y-35416542D02*
X30399510Y-35273685D01*
X30399510Y-35273685D02*
X30470939Y-35202257D01*
X30470939Y-35202257D02*
X30613796Y-35130828D01*
X30613796Y-35130828D02*
X30970939Y-35130828D01*
X30970939Y-35130828D02*
X31185225Y-35202257D01*
X32042367Y-36630828D02*
X31899510Y-36559400D01*
X31899510Y-36559400D02*
X31828081Y-36487971D01*
X31828081Y-36487971D02*
X31756653Y-36345114D01*
X31756653Y-36345114D02*
X31756653Y-35916542D01*
X31756653Y-35916542D02*
X31828081Y-35773685D01*
X31828081Y-35773685D02*
X31899510Y-35702257D01*
X31899510Y-35702257D02*
X32042367Y-35630828D01*
X32042367Y-35630828D02*
X32256653Y-35630828D01*
X32256653Y-35630828D02*
X32399510Y-35702257D01*
X32399510Y-35702257D02*
X32470939Y-35773685D01*
X32470939Y-35773685D02*
X32542367Y-35916542D01*
X32542367Y-35916542D02*
X32542367Y-36345114D01*
X32542367Y-36345114D02*
X32470939Y-36487971D01*
X32470939Y-36487971D02*
X32399510Y-36559400D01*
X32399510Y-36559400D02*
X32256653Y-36630828D01*
X32256653Y-36630828D02*
X32042367Y-36630828D01*
X33828082Y-35630828D02*
X33828082Y-36630828D01*
X33185224Y-35630828D02*
X33185224Y-36416542D01*
X33185224Y-36416542D02*
X33256653Y-36559400D01*
X33256653Y-36559400D02*
X33399510Y-36630828D01*
X33399510Y-36630828D02*
X33613796Y-36630828D01*
X33613796Y-36630828D02*
X33756653Y-36559400D01*
X33756653Y-36559400D02*
X33828082Y-36487971D01*
X34542367Y-36630828D02*
X34542367Y-35630828D01*
X34542367Y-35916542D02*
X34613796Y-35773685D01*
X34613796Y-35773685D02*
X34685225Y-35702257D01*
X34685225Y-35702257D02*
X34828082Y-35630828D01*
X34828082Y-35630828D02*
X34970939Y-35630828D01*
X36113796Y-36559400D02*
X35970938Y-36630828D01*
X35970938Y-36630828D02*
X35685224Y-36630828D01*
X35685224Y-36630828D02*
X35542367Y-36559400D01*
X35542367Y-36559400D02*
X35470938Y-36487971D01*
X35470938Y-36487971D02*
X35399510Y-36345114D01*
X35399510Y-36345114D02*
X35399510Y-35916542D01*
X35399510Y-35916542D02*
X35470938Y-35773685D01*
X35470938Y-35773685D02*
X35542367Y-35702257D01*
X35542367Y-35702257D02*
X35685224Y-35630828D01*
X35685224Y-35630828D02*
X35970938Y-35630828D01*
X35970938Y-35630828D02*
X36113796Y-35702257D01*
X37328081Y-36559400D02*
X37185224Y-36630828D01*
X37185224Y-36630828D02*
X36899510Y-36630828D01*
X36899510Y-36630828D02*
X36756652Y-36559400D01*
X36756652Y-36559400D02*
X36685224Y-36416542D01*
X36685224Y-36416542D02*
X36685224Y-35845114D01*
X36685224Y-35845114D02*
X36756652Y-35702257D01*
X36756652Y-35702257D02*
X36899510Y-35630828D01*
X36899510Y-35630828D02*
X37185224Y-35630828D01*
X37185224Y-35630828D02*
X37328081Y-35702257D01*
X37328081Y-35702257D02*
X37399510Y-35845114D01*
X37399510Y-35845114D02*
X37399510Y-35987971D01*
X37399510Y-35987971D02*
X36685224Y-36130828D01*
D12*
X24566666Y-44390819D02*
X24566666Y-45105104D01*
X24566666Y-45105104D02*
X24519047Y-45247961D01*
X24519047Y-45247961D02*
X24423809Y-45343200D01*
X24423809Y-45343200D02*
X24280952Y-45390819D01*
X24280952Y-45390819D02*
X24185714Y-45390819D01*
X25042857Y-45390819D02*
X25042857Y-44390819D01*
X25042857Y-44390819D02*
X25423809Y-44390819D01*
X25423809Y-44390819D02*
X25519047Y-44438438D01*
X25519047Y-44438438D02*
X25566666Y-44486057D01*
X25566666Y-44486057D02*
X25614285Y-44581295D01*
X25614285Y-44581295D02*
X25614285Y-44724152D01*
X25614285Y-44724152D02*
X25566666Y-44819390D01*
X25566666Y-44819390D02*
X25519047Y-44867009D01*
X25519047Y-44867009D02*
X25423809Y-44914628D01*
X25423809Y-44914628D02*
X25042857Y-44914628D01*
X26519047Y-44390819D02*
X26042857Y-44390819D01*
X26042857Y-44390819D02*
X25995238Y-44867009D01*
X25995238Y-44867009D02*
X26042857Y-44819390D01*
X26042857Y-44819390D02*
X26138095Y-44771771D01*
X26138095Y-44771771D02*
X26376190Y-44771771D01*
X26376190Y-44771771D02*
X26471428Y-44819390D01*
X26471428Y-44819390D02*
X26519047Y-44867009D01*
X26519047Y-44867009D02*
X26566666Y-44962247D01*
X26566666Y-44962247D02*
X26566666Y-45200342D01*
X26566666Y-45200342D02*
X26519047Y-45295580D01*
X26519047Y-45295580D02*
X26471428Y-45343200D01*
X26471428Y-45343200D02*
X26376190Y-45390819D01*
X26376190Y-45390819D02*
X26138095Y-45390819D01*
X26138095Y-45390819D02*
X26042857Y-45343200D01*
X26042857Y-45343200D02*
X25995238Y-45295580D01*
X24566666Y-40326819D02*
X24566666Y-41041104D01*
X24566666Y-41041104D02*
X24519047Y-41183961D01*
X24519047Y-41183961D02*
X24423809Y-41279200D01*
X24423809Y-41279200D02*
X24280952Y-41326819D01*
X24280952Y-41326819D02*
X24185714Y-41326819D01*
X25042857Y-41326819D02*
X25042857Y-40326819D01*
X25042857Y-40326819D02*
X25423809Y-40326819D01*
X25423809Y-40326819D02*
X25519047Y-40374438D01*
X25519047Y-40374438D02*
X25566666Y-40422057D01*
X25566666Y-40422057D02*
X25614285Y-40517295D01*
X25614285Y-40517295D02*
X25614285Y-40660152D01*
X25614285Y-40660152D02*
X25566666Y-40755390D01*
X25566666Y-40755390D02*
X25519047Y-40803009D01*
X25519047Y-40803009D02*
X25423809Y-40850628D01*
X25423809Y-40850628D02*
X25042857Y-40850628D01*
X26471428Y-40660152D02*
X26471428Y-41326819D01*
X26233333Y-40279200D02*
X25995238Y-40993485D01*
X25995238Y-40993485D02*
X26614285Y-40993485D01*
X24566666Y-48454819D02*
X24566666Y-49169104D01*
X24566666Y-49169104D02*
X24519047Y-49311961D01*
X24519047Y-49311961D02*
X24423809Y-49407200D01*
X24423809Y-49407200D02*
X24280952Y-49454819D01*
X24280952Y-49454819D02*
X24185714Y-49454819D01*
X25042857Y-49454819D02*
X25042857Y-48454819D01*
X25042857Y-48454819D02*
X25423809Y-48454819D01*
X25423809Y-48454819D02*
X25519047Y-48502438D01*
X25519047Y-48502438D02*
X25566666Y-48550057D01*
X25566666Y-48550057D02*
X25614285Y-48645295D01*
X25614285Y-48645295D02*
X25614285Y-48788152D01*
X25614285Y-48788152D02*
X25566666Y-48883390D01*
X25566666Y-48883390D02*
X25519047Y-48931009D01*
X25519047Y-48931009D02*
X25423809Y-48978628D01*
X25423809Y-48978628D02*
X25042857Y-48978628D01*
X25947619Y-48454819D02*
X26566666Y-48454819D01*
X26566666Y-48454819D02*
X26233333Y-48835771D01*
X26233333Y-48835771D02*
X26376190Y-48835771D01*
X26376190Y-48835771D02*
X26471428Y-48883390D01*
X26471428Y-48883390D02*
X26519047Y-48931009D01*
X26519047Y-48931009D02*
X26566666Y-49026247D01*
X26566666Y-49026247D02*
X26566666Y-49264342D01*
X26566666Y-49264342D02*
X26519047Y-49359580D01*
X26519047Y-49359580D02*
X26471428Y-49407200D01*
X26471428Y-49407200D02*
X26376190Y-49454819D01*
X26376190Y-49454819D02*
X26090476Y-49454819D01*
X26090476Y-49454819D02*
X25995238Y-49407200D01*
X25995238Y-49407200D02*
X25947619Y-49359580D01*
X24566666Y-35754819D02*
X24566666Y-36469104D01*
X24566666Y-36469104D02*
X24519047Y-36611961D01*
X24519047Y-36611961D02*
X24423809Y-36707200D01*
X24423809Y-36707200D02*
X24280952Y-36754819D01*
X24280952Y-36754819D02*
X24185714Y-36754819D01*
X25042857Y-36754819D02*
X25042857Y-35754819D01*
X25042857Y-35754819D02*
X25423809Y-35754819D01*
X25423809Y-35754819D02*
X25519047Y-35802438D01*
X25519047Y-35802438D02*
X25566666Y-35850057D01*
X25566666Y-35850057D02*
X25614285Y-35945295D01*
X25614285Y-35945295D02*
X25614285Y-36088152D01*
X25614285Y-36088152D02*
X25566666Y-36183390D01*
X25566666Y-36183390D02*
X25519047Y-36231009D01*
X25519047Y-36231009D02*
X25423809Y-36278628D01*
X25423809Y-36278628D02*
X25042857Y-36278628D01*
X25995238Y-35850057D02*
X26042857Y-35802438D01*
X26042857Y-35802438D02*
X26138095Y-35754819D01*
X26138095Y-35754819D02*
X26376190Y-35754819D01*
X26376190Y-35754819D02*
X26471428Y-35802438D01*
X26471428Y-35802438D02*
X26519047Y-35850057D01*
X26519047Y-35850057D02*
X26566666Y-35945295D01*
X26566666Y-35945295D02*
X26566666Y-36040533D01*
X26566666Y-36040533D02*
X26519047Y-36183390D01*
X26519047Y-36183390D02*
X25947619Y-36754819D01*
X25947619Y-36754819D02*
X26566666Y-36754819D01*
X33956666Y-62954819D02*
X33956666Y-63669104D01*
X33956666Y-63669104D02*
X33909047Y-63811961D01*
X33909047Y-63811961D02*
X33813809Y-63907200D01*
X33813809Y-63907200D02*
X33670952Y-63954819D01*
X33670952Y-63954819D02*
X33575714Y-63954819D01*
X34385238Y-63050057D02*
X34432857Y-63002438D01*
X34432857Y-63002438D02*
X34528095Y-62954819D01*
X34528095Y-62954819D02*
X34766190Y-62954819D01*
X34766190Y-62954819D02*
X34861428Y-63002438D01*
X34861428Y-63002438D02*
X34909047Y-63050057D01*
X34909047Y-63050057D02*
X34956666Y-63145295D01*
X34956666Y-63145295D02*
X34956666Y-63240533D01*
X34956666Y-63240533D02*
X34909047Y-63383390D01*
X34909047Y-63383390D02*
X34337619Y-63954819D01*
X34337619Y-63954819D02*
X34956666Y-63954819D01*
X38568333Y-38554819D02*
X38235000Y-38078628D01*
X37996905Y-38554819D02*
X37996905Y-37554819D01*
X37996905Y-37554819D02*
X38377857Y-37554819D01*
X38377857Y-37554819D02*
X38473095Y-37602438D01*
X38473095Y-37602438D02*
X38520714Y-37650057D01*
X38520714Y-37650057D02*
X38568333Y-37745295D01*
X38568333Y-37745295D02*
X38568333Y-37888152D01*
X38568333Y-37888152D02*
X38520714Y-37983390D01*
X38520714Y-37983390D02*
X38473095Y-38031009D01*
X38473095Y-38031009D02*
X38377857Y-38078628D01*
X38377857Y-38078628D02*
X37996905Y-38078628D01*
X39520714Y-38554819D02*
X38949286Y-38554819D01*
X39235000Y-38554819D02*
X39235000Y-37554819D01*
X39235000Y-37554819D02*
X39139762Y-37697676D01*
X39139762Y-37697676D02*
X39044524Y-37792914D01*
X39044524Y-37792914D02*
X38949286Y-37840533D01*
X38568333Y-41094819D02*
X38235000Y-40618628D01*
X37996905Y-41094819D02*
X37996905Y-40094819D01*
X37996905Y-40094819D02*
X38377857Y-40094819D01*
X38377857Y-40094819D02*
X38473095Y-40142438D01*
X38473095Y-40142438D02*
X38520714Y-40190057D01*
X38520714Y-40190057D02*
X38568333Y-40285295D01*
X38568333Y-40285295D02*
X38568333Y-40428152D01*
X38568333Y-40428152D02*
X38520714Y-40523390D01*
X38520714Y-40523390D02*
X38473095Y-40571009D01*
X38473095Y-40571009D02*
X38377857Y-40618628D01*
X38377857Y-40618628D02*
X37996905Y-40618628D01*
X38949286Y-40190057D02*
X38996905Y-40142438D01*
X38996905Y-40142438D02*
X39092143Y-40094819D01*
X39092143Y-40094819D02*
X39330238Y-40094819D01*
X39330238Y-40094819D02*
X39425476Y-40142438D01*
X39425476Y-40142438D02*
X39473095Y-40190057D01*
X39473095Y-40190057D02*
X39520714Y-40285295D01*
X39520714Y-40285295D02*
X39520714Y-40380533D01*
X39520714Y-40380533D02*
X39473095Y-40523390D01*
X39473095Y-40523390D02*
X38901667Y-41094819D01*
X38901667Y-41094819D02*
X39520714Y-41094819D01*
X38568333Y-43634819D02*
X38235000Y-43158628D01*
X37996905Y-43634819D02*
X37996905Y-42634819D01*
X37996905Y-42634819D02*
X38377857Y-42634819D01*
X38377857Y-42634819D02*
X38473095Y-42682438D01*
X38473095Y-42682438D02*
X38520714Y-42730057D01*
X38520714Y-42730057D02*
X38568333Y-42825295D01*
X38568333Y-42825295D02*
X38568333Y-42968152D01*
X38568333Y-42968152D02*
X38520714Y-43063390D01*
X38520714Y-43063390D02*
X38473095Y-43111009D01*
X38473095Y-43111009D02*
X38377857Y-43158628D01*
X38377857Y-43158628D02*
X37996905Y-43158628D01*
X38901667Y-42634819D02*
X39520714Y-42634819D01*
X39520714Y-42634819D02*
X39187381Y-43015771D01*
X39187381Y-43015771D02*
X39330238Y-43015771D01*
X39330238Y-43015771D02*
X39425476Y-43063390D01*
X39425476Y-43063390D02*
X39473095Y-43111009D01*
X39473095Y-43111009D02*
X39520714Y-43206247D01*
X39520714Y-43206247D02*
X39520714Y-43444342D01*
X39520714Y-43444342D02*
X39473095Y-43539580D01*
X39473095Y-43539580D02*
X39425476Y-43587200D01*
X39425476Y-43587200D02*
X39330238Y-43634819D01*
X39330238Y-43634819D02*
X39044524Y-43634819D01*
X39044524Y-43634819D02*
X38949286Y-43587200D01*
X38949286Y-43587200D02*
X38901667Y-43539580D01*
X37528080Y-47918666D02*
X37575700Y-47966285D01*
X37575700Y-47966285D02*
X37623319Y-48109142D01*
X37623319Y-48109142D02*
X37623319Y-48204380D01*
X37623319Y-48204380D02*
X37575700Y-48347237D01*
X37575700Y-48347237D02*
X37480461Y-48442475D01*
X37480461Y-48442475D02*
X37385223Y-48490094D01*
X37385223Y-48490094D02*
X37194747Y-48537713D01*
X37194747Y-48537713D02*
X37051890Y-48537713D01*
X37051890Y-48537713D02*
X36861414Y-48490094D01*
X36861414Y-48490094D02*
X36766176Y-48442475D01*
X36766176Y-48442475D02*
X36670938Y-48347237D01*
X36670938Y-48347237D02*
X36623319Y-48204380D01*
X36623319Y-48204380D02*
X36623319Y-48109142D01*
X36623319Y-48109142D02*
X36670938Y-47966285D01*
X36670938Y-47966285D02*
X36718557Y-47918666D01*
X37623319Y-46966285D02*
X37623319Y-47537713D01*
X37623319Y-47251999D02*
X36623319Y-47251999D01*
X36623319Y-47251999D02*
X36766176Y-47347237D01*
X36766176Y-47347237D02*
X36861414Y-47442475D01*
X36861414Y-47442475D02*
X36909033Y-47537713D01*
X42357319Y-50256904D02*
X43166842Y-50256904D01*
X43166842Y-50256904D02*
X43262080Y-50209285D01*
X43262080Y-50209285D02*
X43309700Y-50161666D01*
X43309700Y-50161666D02*
X43357319Y-50066428D01*
X43357319Y-50066428D02*
X43357319Y-49875952D01*
X43357319Y-49875952D02*
X43309700Y-49780714D01*
X43309700Y-49780714D02*
X43262080Y-49733095D01*
X43262080Y-49733095D02*
X43166842Y-49685476D01*
X43166842Y-49685476D02*
X42357319Y-49685476D01*
X43357319Y-48685476D02*
X43357319Y-49256904D01*
X43357319Y-48971190D02*
X42357319Y-48971190D01*
X42357319Y-48971190D02*
X42500176Y-49066428D01*
X42500176Y-49066428D02*
X42595414Y-49161666D01*
X42595414Y-49161666D02*
X42643033Y-49256904D01*
X33956666Y-25489819D02*
X33956666Y-26204104D01*
X33956666Y-26204104D02*
X33909047Y-26346961D01*
X33909047Y-26346961D02*
X33813809Y-26442200D01*
X33813809Y-26442200D02*
X33670952Y-26489819D01*
X33670952Y-26489819D02*
X33575714Y-26489819D01*
X34956666Y-26489819D02*
X34385238Y-26489819D01*
X34670952Y-26489819D02*
X34670952Y-25489819D01*
X34670952Y-25489819D02*
X34575714Y-25632676D01*
X34575714Y-25632676D02*
X34480476Y-25727914D01*
X34480476Y-25727914D02*
X34385238Y-25775533D01*
X48561666Y-35234819D02*
X48561666Y-35949104D01*
X48561666Y-35949104D02*
X48514047Y-36091961D01*
X48514047Y-36091961D02*
X48418809Y-36187200D01*
X48418809Y-36187200D02*
X48275952Y-36234819D01*
X48275952Y-36234819D02*
X48180714Y-36234819D01*
X48942619Y-35234819D02*
X49561666Y-35234819D01*
X49561666Y-35234819D02*
X49228333Y-35615771D01*
X49228333Y-35615771D02*
X49371190Y-35615771D01*
X49371190Y-35615771D02*
X49466428Y-35663390D01*
X49466428Y-35663390D02*
X49514047Y-35711009D01*
X49514047Y-35711009D02*
X49561666Y-35806247D01*
X49561666Y-35806247D02*
X49561666Y-36044342D01*
X49561666Y-36044342D02*
X49514047Y-36139580D01*
X49514047Y-36139580D02*
X49466428Y-36187200D01*
X49466428Y-36187200D02*
X49371190Y-36234819D01*
X49371190Y-36234819D02*
X49085476Y-36234819D01*
X49085476Y-36234819D02*
X48990238Y-36187200D01*
X48990238Y-36187200D02*
X48942619Y-36139580D01*
X46549819Y-50998333D02*
X47264104Y-50998333D01*
X47264104Y-50998333D02*
X47406961Y-51045952D01*
X47406961Y-51045952D02*
X47502200Y-51141190D01*
X47502200Y-51141190D02*
X47549819Y-51284047D01*
X47549819Y-51284047D02*
X47549819Y-51379285D01*
X47549819Y-50522142D02*
X46549819Y-50522142D01*
X46549819Y-50522142D02*
X46549819Y-50141190D01*
X46549819Y-50141190D02*
X46597438Y-50045952D01*
X46597438Y-50045952D02*
X46645057Y-49998333D01*
X46645057Y-49998333D02*
X46740295Y-49950714D01*
X46740295Y-49950714D02*
X46883152Y-49950714D01*
X46883152Y-49950714D02*
X46978390Y-49998333D01*
X46978390Y-49998333D02*
X47026009Y-50045952D01*
X47026009Y-50045952D02*
X47073628Y-50141190D01*
X47073628Y-50141190D02*
X47073628Y-50522142D01*
X47549819Y-48998333D02*
X47549819Y-49569761D01*
X47549819Y-49284047D02*
X46549819Y-49284047D01*
X46549819Y-49284047D02*
X46692676Y-49379285D01*
X46692676Y-49379285D02*
X46787914Y-49474523D01*
X46787914Y-49474523D02*
X46835533Y-49569761D01*
X49349819Y-52479285D02*
X49349819Y-53050713D01*
X49349819Y-52764999D02*
X48349819Y-52764999D01*
X48349819Y-52764999D02*
X48492676Y-52860237D01*
X48492676Y-52860237D02*
X48587914Y-52955475D01*
X48587914Y-52955475D02*
X48635533Y-53050713D01*
X48349819Y-47898332D02*
X48349819Y-47279285D01*
X48349819Y-47279285D02*
X48730771Y-47612618D01*
X48730771Y-47612618D02*
X48730771Y-47469761D01*
X48730771Y-47469761D02*
X48778390Y-47374523D01*
X48778390Y-47374523D02*
X48826009Y-47326904D01*
X48826009Y-47326904D02*
X48921247Y-47279285D01*
X48921247Y-47279285D02*
X49159342Y-47279285D01*
X49159342Y-47279285D02*
X49254580Y-47326904D01*
X49254580Y-47326904D02*
X49302200Y-47374523D01*
X49302200Y-47374523D02*
X49349819Y-47469761D01*
X49349819Y-47469761D02*
X49349819Y-47755475D01*
X49349819Y-47755475D02*
X49302200Y-47850713D01*
X49302200Y-47850713D02*
X49254580Y-47898332D01*
D13*
%TO.C,JP5*%
X26800000Y-47036000D02*
G75*
G02*
X26100000Y-47736000I-700000J0D01*
G01*
X26100000Y-45736000D02*
G75*
G02*
X26800000Y-46436000I0J-700000D01*
G01*
X24700000Y-47736000D02*
G75*
G02*
X24000000Y-47036000I-1J699999D01*
G01*
X24000000Y-46436000D02*
G75*
G02*
X24700000Y-45736000I699999J1D01*
G01*
X26800000Y-46436000D02*
X26800000Y-47036000D01*
X26100000Y-47736000D02*
X24700000Y-47736000D01*
X24700000Y-45736000D02*
X26100000Y-45736000D01*
X24000000Y-47036000D02*
X24000000Y-46436000D01*
%TO.C,JP4*%
X24000000Y-42972000D02*
X24000000Y-42372000D01*
X24700000Y-41672000D02*
X26100000Y-41672000D01*
X26100000Y-43672000D02*
X24700000Y-43672000D01*
X26800000Y-42372000D02*
X26800000Y-42972000D01*
X24000000Y-42372000D02*
G75*
G02*
X24700000Y-41672000I699999J1D01*
G01*
X24700000Y-43672000D02*
G75*
G02*
X24000000Y-42972000I-1J699999D01*
G01*
X26100000Y-41672000D02*
G75*
G02*
X26800000Y-42372000I0J-700000D01*
G01*
X26800000Y-42972000D02*
G75*
G02*
X26100000Y-43672000I-700000J0D01*
G01*
%TO.C,JP3*%
X24000000Y-51100000D02*
X24000000Y-50500000D01*
X24700000Y-49800000D02*
X26100000Y-49800000D01*
X26100000Y-51800000D02*
X24700000Y-51800000D01*
X26800000Y-50500000D02*
X26800000Y-51100000D01*
X24000000Y-50500000D02*
G75*
G02*
X24700000Y-49800000I699999J1D01*
G01*
X24700000Y-51800000D02*
G75*
G02*
X24000000Y-51100000I-1J699999D01*
G01*
X26100000Y-49800000D02*
G75*
G02*
X26800000Y-50500000I0J-700000D01*
G01*
X26800000Y-51100000D02*
G75*
G02*
X26100000Y-51800000I-700000J0D01*
G01*
%TO.C,JP2*%
X26800000Y-38400000D02*
G75*
G02*
X26100000Y-39100000I-700000J0D01*
G01*
X26100000Y-37100000D02*
G75*
G02*
X26800000Y-37800000I0J-700000D01*
G01*
X24700000Y-39100000D02*
G75*
G02*
X24000000Y-38400000I-1J699999D01*
G01*
X24000000Y-37800000D02*
G75*
G02*
X24700000Y-37100000I699999J1D01*
G01*
X26800000Y-37800000D02*
X26800000Y-38400000D01*
X26100000Y-39100000D02*
X24700000Y-39100000D01*
X24700000Y-37100000D02*
X26100000Y-37100000D01*
X24000000Y-38400000D02*
X24000000Y-37800000D01*
%TO.C,J2*%
X19005000Y-54090000D02*
X49975000Y-54090000D01*
X19005000Y-67980000D02*
X19005000Y-54090000D01*
X38555000Y-53195662D02*
X39055000Y-53195662D01*
X38805000Y-53628675D02*
X38555000Y-53195662D01*
X39055000Y-53195662D02*
X38805000Y-53628675D01*
X49975000Y-54090000D02*
X49975000Y-67980000D01*
%TO.C,R1*%
X41405436Y-37365000D02*
X41859564Y-37365000D01*
X41405436Y-38835000D02*
X41859564Y-38835000D01*
%TO.C,R2*%
X41405436Y-39905000D02*
X41859564Y-39905000D01*
X41405436Y-41375000D02*
X41859564Y-41375000D01*
%TO.C,R3*%
X41405436Y-42445000D02*
X41859564Y-42445000D01*
X41405436Y-43915000D02*
X41859564Y-43915000D01*
%TO.C,C1*%
X38381000Y-47490748D02*
X38381000Y-48013252D01*
X39851000Y-47490748D02*
X39851000Y-48013252D01*
%TO.C,U1*%
X40342500Y-49495000D02*
X40342500Y-47545000D01*
X40342500Y-49495000D02*
X40342500Y-51445000D01*
X45462500Y-49495000D02*
X45462500Y-47545000D01*
X45462500Y-49495000D02*
X45462500Y-51445000D01*
X40437500Y-52195000D02*
X40107500Y-52435000D01*
X40107500Y-51955000D01*
X40437500Y-52195000D01*
G36*
X40437500Y-52195000D02*
G01*
X40107500Y-52435000D01*
X40107500Y-51955000D01*
X40437500Y-52195000D01*
G37*
%TO.C,J1*%
X19005000Y-34810000D02*
X19005000Y-20920000D01*
X38555000Y-35704338D02*
X38805000Y-35271325D01*
X38805000Y-35271325D02*
X39055000Y-35704338D01*
X39055000Y-35704338D02*
X38555000Y-35704338D01*
X49975000Y-20920000D02*
X49975000Y-34810000D01*
X49975000Y-34810000D02*
X19005000Y-34810000D01*
%TO.C,J3*%
X47565000Y-36780000D02*
X48895000Y-36780000D01*
X47565000Y-38110000D02*
X47565000Y-36780000D01*
X47565000Y-39380000D02*
X47565000Y-47060000D01*
X47565000Y-39380000D02*
X50225000Y-39380000D01*
X47565000Y-47060000D02*
X50225000Y-47060000D01*
X50225000Y-39380000D02*
X50225000Y-47060000D01*
%TO.C,JP1*%
X47895000Y-51565000D02*
X47895000Y-48765000D01*
X48595000Y-48115000D02*
X49195000Y-48115000D01*
X49195000Y-52215000D02*
X48595000Y-52215000D01*
X49895000Y-48765000D02*
X49895000Y-51565000D01*
X47895000Y-48815000D02*
G75*
G02*
X48595000Y-48115000I700000J0D01*
G01*
X48595000Y-52215000D02*
G75*
G02*
X47895000Y-51515000I-1J699999D01*
G01*
X49195000Y-48115000D02*
G75*
G02*
X49895000Y-48815000I0J-700000D01*
G01*
X49895000Y-51515000D02*
G75*
G02*
X49195000Y-52215000I-699999J-1D01*
G01*
%TD*%
M02*
