%TF.GenerationSoftware,KiCad,Pcbnew,8.0.3+1*%
%TF.CreationDate,2024-06-22T01:26:54+02:00*%
%TF.ProjectId,EDID_spoofer,45444944-5f73-4706-9f6f-6665722e6b69,rev?*%
%TF.SameCoordinates,Original*%
%TF.FileFunction,Soldermask,Top*%
%TF.FilePolarity,Negative*%
%FSLAX46Y46*%
G04 Gerber Fmt 4.6, Leading zero omitted, Abs format (unit mm)*
G04 Created by KiCad (PCBNEW 8.0.3+1) date 2024-06-22 01:26:54*
%MOMM*%
%LPD*%
G01*
G04 APERTURE LIST*
G04 Aperture macros list*
%AMRoundRect*
0 Rectangle with rounded corners*
0 $1 Rounding radius*
0 $2 $3 $4 $5 $6 $7 $8 $9 X,Y pos of 4 corners*
0 Add a 4 corners polygon primitive as box body*
4,1,4,$2,$3,$4,$5,$6,$7,$8,$9,$2,$3,0*
0 Add four circle primitives for the rounded corners*
1,1,$1+$1,$2,$3*
1,1,$1+$1,$4,$5*
1,1,$1+$1,$6,$7*
1,1,$1+$1,$8,$9*
0 Add four rect primitives between the rounded corners*
20,1,$1+$1,$2,$3,$4,$5,0*
20,1,$1+$1,$4,$5,$6,$7,0*
20,1,$1+$1,$6,$7,$8,$9,0*
20,1,$1+$1,$8,$9,$2,$3,0*%
%AMFreePoly0*
4,1,19,0.000000,0.744911,0.071157,0.744911,0.207708,0.704816,0.327430,0.627875,0.420627,0.520320,0.479746,0.390866,0.500000,0.250000,0.500000,-0.250000,0.479746,-0.390866,0.420627,-0.520320,0.327430,-0.627875,0.207708,-0.704816,0.071157,-0.744911,0.000000,-0.744911,0.000000,-0.750000,-0.500000,-0.750000,-0.500000,0.750000,0.000000,0.750000,0.000000,0.744911,0.000000,0.744911,
$1*%
%AMFreePoly1*
4,1,19,0.500000,-0.750000,0.000000,-0.750000,0.000000,-0.744911,-0.071157,-0.744911,-0.207708,-0.704816,-0.327430,-0.627875,-0.420627,-0.520320,-0.479746,-0.390866,-0.500000,-0.250000,-0.500000,0.250000,-0.479746,0.390866,-0.420627,0.520320,-0.327430,0.627875,-0.207708,0.704816,-0.071157,0.744911,0.000000,0.744911,0.000000,0.750000,0.500000,0.750000,0.500000,-0.750000,0.500000,-0.750000,
$1*%
%AMFreePoly2*
4,1,19,0.550000,-0.750000,0.000000,-0.750000,0.000000,-0.744911,-0.071157,-0.744911,-0.207708,-0.704816,-0.327430,-0.627875,-0.420627,-0.520320,-0.479746,-0.390866,-0.500000,-0.250000,-0.500000,0.250000,-0.479746,0.390866,-0.420627,0.520320,-0.327430,0.627875,-0.207708,0.704816,-0.071157,0.744911,0.000000,0.744911,0.000000,0.750000,0.550000,0.750000,0.550000,-0.750000,0.550000,-0.750000,
$1*%
%AMFreePoly3*
4,1,19,0.000000,0.744911,0.071157,0.744911,0.207708,0.704816,0.327430,0.627875,0.420627,0.520320,0.479746,0.390866,0.500000,0.250000,0.500000,-0.250000,0.479746,-0.390866,0.420627,-0.520320,0.327430,-0.627875,0.207708,-0.704816,0.071157,-0.744911,0.000000,-0.744911,0.000000,-0.750000,-0.550000,-0.750000,-0.550000,0.750000,0.000000,0.750000,0.000000,0.744911,0.000000,0.744911,
$1*%
G04 Aperture macros list end*
%ADD10FreePoly0,0.000000*%
%ADD11FreePoly1,0.000000*%
%ADD12C,4.000000*%
%ADD13R,1.600000X1.600000*%
%ADD14C,1.600000*%
%ADD15RoundRect,0.250000X-0.262500X-0.450000X0.262500X-0.450000X0.262500X0.450000X-0.262500X0.450000X0*%
%ADD16RoundRect,0.250000X-0.475000X0.250000X-0.475000X-0.250000X0.475000X-0.250000X0.475000X0.250000X0*%
%ADD17RoundRect,0.150000X0.150000X-0.725000X0.150000X0.725000X-0.150000X0.725000X-0.150000X-0.725000X0*%
%ADD18R,1.700000X1.700000*%
%ADD19O,1.700000X1.700000*%
%ADD20FreePoly2,90.000000*%
%ADD21R,1.500000X1.000000*%
%ADD22FreePoly3,90.000000*%
G04 APERTURE END LIST*
D10*
%TO.C,JP5*%
X26050000Y-46736000D03*
D11*
X24750000Y-46736000D03*
%TD*%
%TO.C,JP4*%
X24750000Y-42672000D03*
D10*
X26050000Y-42672000D03*
%TD*%
D11*
%TO.C,JP3*%
X24750000Y-50800000D03*
D10*
X26050000Y-50800000D03*
%TD*%
%TO.C,JP2*%
X26050000Y-38100000D03*
D11*
X24750000Y-38100000D03*
%TD*%
D12*
%TO.C,J2*%
X21990000Y-57150000D03*
X46990000Y-57150000D03*
D13*
X38805000Y-55730000D03*
D14*
X36515000Y-55730000D03*
X34225000Y-55730000D03*
X31935000Y-55730000D03*
X29645000Y-55730000D03*
X39950000Y-57710000D03*
X37660000Y-57710000D03*
X35370000Y-57710000D03*
X33080000Y-57710000D03*
X30790000Y-57710000D03*
X38805000Y-59690000D03*
X36515000Y-59690000D03*
X34225000Y-59690000D03*
X31935000Y-59690000D03*
X29645000Y-59690000D03*
%TD*%
D15*
%TO.C,R1*%
X40720000Y-38100000D03*
X42545000Y-38100000D03*
%TD*%
%TO.C,R2*%
X40720000Y-40640000D03*
X42545000Y-40640000D03*
%TD*%
%TO.C,R3*%
X40720000Y-43180000D03*
X42545000Y-43180000D03*
%TD*%
D16*
%TO.C,C1*%
X39116000Y-46802000D03*
X39116000Y-48702000D03*
%TD*%
D17*
%TO.C,U1*%
X40997500Y-52070000D03*
X42267500Y-52070000D03*
X43537500Y-52070000D03*
X44807500Y-52070000D03*
X44807500Y-46920000D03*
X43537500Y-46920000D03*
X42267500Y-46920000D03*
X40997500Y-46920000D03*
%TD*%
D12*
%TO.C,J1*%
X46990000Y-31750000D03*
X21990000Y-31750000D03*
D13*
X38805000Y-33170000D03*
D14*
X36515000Y-33170000D03*
X34225000Y-33170000D03*
X31935000Y-33170000D03*
X29645000Y-33170000D03*
X39950000Y-31190000D03*
X37660000Y-31190000D03*
X35370000Y-31190000D03*
X33080000Y-31190000D03*
X30790000Y-31190000D03*
X38805000Y-29210000D03*
X36515000Y-29210000D03*
X34225000Y-29210000D03*
X31935000Y-29210000D03*
X29645000Y-29210000D03*
%TD*%
D18*
%TO.C,J3*%
X48895000Y-38110000D03*
D19*
X48895000Y-40650000D03*
X48895000Y-43190000D03*
X48895000Y-45730000D03*
%TD*%
D20*
%TO.C,JP1*%
X48895000Y-51465000D03*
D21*
X48895000Y-50165000D03*
D22*
X48895000Y-48865000D03*
%TD*%
M02*
