%TF.GenerationSoftware,KiCad,Pcbnew,8.0.3+1*%
%TF.CreationDate,2024-06-18T17:54:10+02:00*%
%TF.ProjectId,EDID_spoofer,45444944-5f73-4706-9f6f-6665722e6b69,rev?*%
%TF.SameCoordinates,Original*%
%TF.FileFunction,Copper,L2,Bot*%
%TF.FilePolarity,Positive*%
%FSLAX46Y46*%
G04 Gerber Fmt 4.6, Leading zero omitted, Abs format (unit mm)*
G04 Created by KiCad (PCBNEW 8.0.3+1) date 2024-06-18 17:54:10*
%MOMM*%
%LPD*%
G01*
G04 APERTURE LIST*
%TA.AperFunction,ComponentPad*%
%ADD10C,4.000000*%
%TD*%
%TA.AperFunction,ComponentPad*%
%ADD11R,1.600000X1.600000*%
%TD*%
%TA.AperFunction,ComponentPad*%
%ADD12C,1.600000*%
%TD*%
%TA.AperFunction,ComponentPad*%
%ADD13R,1.700000X1.700000*%
%TD*%
%TA.AperFunction,ComponentPad*%
%ADD14O,1.700000X1.700000*%
%TD*%
%TA.AperFunction,ViaPad*%
%ADD15C,0.600000*%
%TD*%
%TA.AperFunction,Conductor*%
%ADD16C,0.200000*%
%TD*%
G04 APERTURE END LIST*
D10*
%TO.P,J2,0*%
%TO.N,GND*%
X21990000Y-57150000D03*
X46990000Y-57150000D03*
D11*
%TO.P,J2,1*%
%TO.N,/R*%
X38805000Y-55730000D03*
D12*
%TO.P,J2,2*%
%TO.N,/G*%
X36515000Y-55730000D03*
%TO.P,J2,3*%
%TO.N,/B*%
X34225000Y-55730000D03*
%TO.P,J2,4*%
%TO.N,unconnected-(J2-Pad4)*%
X31935000Y-55730000D03*
%TO.P,J2,5*%
%TO.N,GND*%
X29645000Y-55730000D03*
%TO.P,J2,6*%
%TO.N,/RRTN*%
X39950000Y-57710000D03*
%TO.P,J2,7*%
%TO.N,/GRTN*%
X37660000Y-57710000D03*
%TO.P,J2,8*%
%TO.N,/BRTN*%
X35370000Y-57710000D03*
%TO.P,J2,9*%
%TO.N,unconnected-(J2-Pad9)*%
X33080000Y-57710000D03*
%TO.P,J2,10*%
%TO.N,/SRTN*%
X30790000Y-57710000D03*
%TO.P,J2,11*%
%TO.N,unconnected-(J2-Pad11)*%
X38805000Y-59690000D03*
%TO.P,J2,12*%
%TO.N,unconnected-(J2-Pad12)*%
X36515000Y-59690000D03*
%TO.P,J2,13*%
%TO.N,HSYNC*%
X34225000Y-59690000D03*
%TO.P,J2,14*%
%TO.N,VSYNC*%
X31935000Y-59690000D03*
%TO.P,J2,15*%
%TO.N,unconnected-(J2-Pad15)*%
X29645000Y-59690000D03*
%TD*%
D10*
%TO.P,J1,0*%
%TO.N,GND*%
X46990000Y-31750000D03*
X21990000Y-31750000D03*
D11*
%TO.P,J1,1*%
%TO.N,/R*%
X38805000Y-33170000D03*
D12*
%TO.P,J1,2*%
%TO.N,/G*%
X36515000Y-33170000D03*
%TO.P,J1,3*%
%TO.N,/B*%
X34225000Y-33170000D03*
%TO.P,J1,4*%
%TO.N,GND*%
X31935000Y-33170000D03*
%TO.P,J1,5*%
X29645000Y-33170000D03*
%TO.P,J1,6*%
%TO.N,/RRTN*%
X39950000Y-31190000D03*
%TO.P,J1,7*%
%TO.N,/GRTN*%
X37660000Y-31190000D03*
%TO.P,J1,8*%
%TO.N,/BRTN*%
X35370000Y-31190000D03*
%TO.P,J1,9*%
%TO.N,+5V*%
X33080000Y-31190000D03*
%TO.P,J1,10*%
%TO.N,/SRTN*%
X30790000Y-31190000D03*
%TO.P,J1,11*%
%TO.N,GND*%
X38805000Y-29210000D03*
%TO.P,J1,12*%
%TO.N,SDA*%
X36515000Y-29210000D03*
%TO.P,J1,13*%
%TO.N,HSYNC*%
X34225000Y-29210000D03*
%TO.P,J1,14*%
%TO.N,VSYNC*%
X31935000Y-29210000D03*
%TO.P,J1,15*%
%TO.N,SCL*%
X29645000Y-29210000D03*
%TD*%
D13*
%TO.P,J3,1,Pin_1*%
%TO.N,+5V*%
X48895000Y-38110000D03*
D14*
%TO.P,J3,2,Pin_2*%
%TO.N,SDA*%
X48895000Y-40650000D03*
%TO.P,J3,3,Pin_3*%
%TO.N,SCL*%
X48895000Y-43190000D03*
%TO.P,J3,4,Pin_4*%
%TO.N,GND*%
X48895000Y-45730000D03*
%TD*%
D15*
%TO.N,SCL*%
X45085000Y-40640000D03*
%TO.N,SDA*%
X43815000Y-38100000D03*
%TO.N,GND*%
X25400000Y-22860000D03*
X25400000Y-66040000D03*
X20320000Y-53340000D03*
X48260000Y-53340000D03*
X20320000Y-48260000D03*
X41910000Y-35560000D03*
X48260000Y-22860000D03*
X43180000Y-22860000D03*
X48260000Y-35560000D03*
X29210000Y-40640000D03*
X20320000Y-22860000D03*
X20320000Y-50800000D03*
X27940000Y-66040000D03*
X29210000Y-38100000D03*
X35560000Y-22860000D03*
X48260000Y-60960000D03*
X29210000Y-35560000D03*
X40640000Y-22860000D03*
X29210000Y-48260000D03*
X44450000Y-54610000D03*
X20320000Y-35560000D03*
X45720000Y-53340000D03*
X30480000Y-22860000D03*
X20320000Y-66040000D03*
X29210000Y-45720000D03*
X27940000Y-22860000D03*
X22860000Y-22860000D03*
X38100000Y-66040000D03*
X45720000Y-66040000D03*
X22860000Y-66040000D03*
X41910000Y-49530000D03*
X38100000Y-22860000D03*
X33020000Y-66040000D03*
X20320000Y-38100000D03*
X40640000Y-66040000D03*
X33020000Y-22860000D03*
X29210000Y-50800000D03*
X45720000Y-22860000D03*
X29210000Y-43180000D03*
X20320000Y-63500000D03*
X35560000Y-66040000D03*
X41910000Y-54610000D03*
X48260000Y-25400000D03*
X48260000Y-66040000D03*
X20320000Y-60960000D03*
X30480000Y-66040000D03*
X48260000Y-27940000D03*
X48260000Y-63500000D03*
X43180000Y-66040000D03*
X20320000Y-27940000D03*
X20320000Y-43180000D03*
X20320000Y-40640000D03*
X20320000Y-45720000D03*
X20320000Y-25400000D03*
X29210000Y-53340000D03*
%TO.N,VSYNC*%
X43815000Y-43180000D03*
%TD*%
D16*
%TO.N,SCL*%
X32185000Y-26670000D02*
X40640000Y-26670000D01*
X40640000Y-26670000D02*
X43180000Y-29210000D01*
X45085000Y-34925000D02*
X45085000Y-40640000D01*
X29645000Y-29210000D02*
X32185000Y-26670000D01*
X43180000Y-29210000D02*
X43180000Y-33020000D01*
X43180000Y-33020000D02*
X45085000Y-34925000D01*
%TO.N,SDA*%
X41910000Y-34290000D02*
X43815000Y-36195000D01*
X36515000Y-29210000D02*
X37785000Y-27940000D01*
X43815000Y-36195000D02*
X43815000Y-38100000D01*
X39756814Y-27940000D02*
X41910000Y-30093186D01*
X41910000Y-30093186D02*
X41910000Y-34290000D01*
X37785000Y-27940000D02*
X39756814Y-27940000D01*
%TO.N,VSYNC*%
X44450000Y-35560000D02*
X44450000Y-42545000D01*
X42545000Y-33655000D02*
X44450000Y-35560000D01*
X30835000Y-32714365D02*
X31935000Y-31614365D01*
X40163750Y-27305000D02*
X42545000Y-29686250D01*
X30835000Y-56199364D02*
X30835000Y-32714365D01*
X31935000Y-31614365D02*
X31935000Y-29210000D01*
X31935000Y-29210000D02*
X33840000Y-27305000D01*
X44450000Y-42545000D02*
X43815000Y-43180000D01*
X42545000Y-29686250D02*
X42545000Y-33655000D01*
X33840000Y-27305000D02*
X40163750Y-27305000D01*
X31935000Y-57299365D02*
X31935000Y-59690000D01*
X30835000Y-56199364D02*
X31935000Y-57299365D01*
%TO.N,HSYNC*%
X34225000Y-57299365D02*
X34225000Y-59690000D01*
X34225000Y-31600635D02*
X34225000Y-29210000D01*
X33125000Y-56199365D02*
X33125000Y-32700635D01*
X33125000Y-56199365D02*
X34225000Y-57299365D01*
X33125000Y-32700635D02*
X34225000Y-31600635D01*
%TO.N,/R*%
X38805000Y-33170000D02*
X38805000Y-55730000D01*
%TO.N,/B*%
X34225000Y-55730000D02*
X34225000Y-33170000D01*
%TO.N,/G*%
X36515000Y-55730000D02*
X36515000Y-33170000D01*
%TO.N,/SRTN*%
X27940000Y-55991370D02*
X27940000Y-32908630D01*
X29658630Y-57710000D02*
X27940000Y-55991370D01*
X30790000Y-31190000D02*
X29658630Y-31190000D01*
X29658630Y-31190000D02*
X27940000Y-32908630D01*
X30790000Y-57710000D02*
X29658630Y-57710000D01*
%TO.N,/RRTN*%
X39950000Y-57710000D02*
X39950000Y-31190000D01*
%TO.N,/GRTN*%
X37660000Y-57710000D02*
X37660000Y-31190000D01*
%TO.N,/BRTN*%
X35370000Y-31190000D02*
X35370000Y-57710000D01*
%TD*%
%TA.AperFunction,Conductor*%
%TO.N,GND*%
G36*
X29179075Y-33362993D02*
G01*
X29244901Y-33477007D01*
X29337993Y-33570099D01*
X29452007Y-33635925D01*
X29515588Y-33652962D01*
X28919526Y-34249025D01*
X28992513Y-34300132D01*
X28992521Y-34300136D01*
X29198668Y-34396264D01*
X29198682Y-34396269D01*
X29418389Y-34455139D01*
X29418400Y-34455141D01*
X29644998Y-34474966D01*
X29645002Y-34474966D01*
X29871599Y-34455141D01*
X29871606Y-34455140D01*
X30078406Y-34399728D01*
X30148256Y-34401391D01*
X30206119Y-34440553D01*
X30233623Y-34504782D01*
X30234500Y-34519503D01*
X30234500Y-54380496D01*
X30214815Y-54447535D01*
X30162011Y-54493290D01*
X30092853Y-54503234D01*
X30078407Y-54500271D01*
X29871610Y-54444860D01*
X29871599Y-54444858D01*
X29645002Y-54425034D01*
X29644998Y-54425034D01*
X29418400Y-54444858D01*
X29418389Y-54444860D01*
X29198682Y-54503730D01*
X29198673Y-54503734D01*
X28992516Y-54599866D01*
X28992512Y-54599868D01*
X28919526Y-54650973D01*
X28919526Y-54650974D01*
X29515589Y-55247037D01*
X29452007Y-55264075D01*
X29337993Y-55329901D01*
X29244901Y-55422993D01*
X29179075Y-55537007D01*
X29162037Y-55600590D01*
X28576819Y-55015372D01*
X28543334Y-54954049D01*
X28540500Y-54927691D01*
X28540500Y-33972308D01*
X28560185Y-33905269D01*
X28576819Y-33884627D01*
X29162037Y-33299408D01*
X29179075Y-33362993D01*
G37*
%TD.AperFunction*%
%TA.AperFunction,Conductor*%
G36*
X50242539Y-20840185D02*
G01*
X50288294Y-20892989D01*
X50299500Y-20944500D01*
X50299500Y-36802171D01*
X50279815Y-36869210D01*
X50227011Y-36914965D01*
X50157853Y-36924909D01*
X50101189Y-36901438D01*
X50058138Y-36869210D01*
X49987331Y-36816204D01*
X49987329Y-36816203D01*
X49987328Y-36816202D01*
X49852482Y-36765908D01*
X49852483Y-36765908D01*
X49792883Y-36759501D01*
X49792881Y-36759500D01*
X49792873Y-36759500D01*
X49792864Y-36759500D01*
X47997129Y-36759500D01*
X47997123Y-36759501D01*
X47937516Y-36765908D01*
X47802671Y-36816202D01*
X47802664Y-36816206D01*
X47687455Y-36902452D01*
X47687452Y-36902455D01*
X47601206Y-37017664D01*
X47601202Y-37017671D01*
X47550908Y-37152517D01*
X47544501Y-37212116D01*
X47544500Y-37212135D01*
X47544500Y-39007870D01*
X47544501Y-39007876D01*
X47550908Y-39067483D01*
X47601202Y-39202328D01*
X47601206Y-39202335D01*
X47687452Y-39317544D01*
X47687455Y-39317547D01*
X47802664Y-39403793D01*
X47802671Y-39403797D01*
X47934081Y-39452810D01*
X47990015Y-39494681D01*
X48014432Y-39560145D01*
X47999580Y-39628418D01*
X47978430Y-39656673D01*
X47856503Y-39778600D01*
X47720965Y-39972169D01*
X47720964Y-39972171D01*
X47621098Y-40186335D01*
X47621094Y-40186344D01*
X47559938Y-40414586D01*
X47559936Y-40414596D01*
X47539341Y-40649999D01*
X47539341Y-40650000D01*
X47559936Y-40885403D01*
X47559938Y-40885413D01*
X47621094Y-41113655D01*
X47621096Y-41113659D01*
X47621097Y-41113663D01*
X47634433Y-41142262D01*
X47720965Y-41327830D01*
X47720967Y-41327834D01*
X47856501Y-41521395D01*
X47856506Y-41521402D01*
X48023597Y-41688493D01*
X48023603Y-41688498D01*
X48209158Y-41818425D01*
X48252783Y-41873002D01*
X48259977Y-41942500D01*
X48228454Y-42004855D01*
X48209158Y-42021575D01*
X48023597Y-42151505D01*
X47856505Y-42318597D01*
X47720965Y-42512169D01*
X47720964Y-42512171D01*
X47621098Y-42726335D01*
X47621094Y-42726344D01*
X47559938Y-42954586D01*
X47559936Y-42954596D01*
X47539341Y-43189999D01*
X47539341Y-43190000D01*
X47559936Y-43425403D01*
X47559938Y-43425413D01*
X47621094Y-43653655D01*
X47621096Y-43653659D01*
X47621097Y-43653663D01*
X47634433Y-43682262D01*
X47720965Y-43867830D01*
X47720967Y-43867834D01*
X47856501Y-44061395D01*
X47856506Y-44061402D01*
X48023597Y-44228493D01*
X48023603Y-44228498D01*
X48209594Y-44358730D01*
X48253219Y-44413307D01*
X48260413Y-44482805D01*
X48228890Y-44545160D01*
X48209595Y-44561880D01*
X48023922Y-44691890D01*
X48023920Y-44691891D01*
X47856891Y-44858920D01*
X47856886Y-44858926D01*
X47721400Y-45052420D01*
X47721399Y-45052422D01*
X47621570Y-45266507D01*
X47621567Y-45266513D01*
X47564364Y-45479999D01*
X47564364Y-45480000D01*
X48461988Y-45480000D01*
X48429075Y-45537007D01*
X48395000Y-45664174D01*
X48395000Y-45795826D01*
X48429075Y-45922993D01*
X48461988Y-45980000D01*
X47564364Y-45980000D01*
X47621567Y-46193486D01*
X47621570Y-46193492D01*
X47721399Y-46407578D01*
X47856894Y-46601082D01*
X48023917Y-46768105D01*
X48217421Y-46903600D01*
X48431507Y-47003429D01*
X48431516Y-47003433D01*
X48645000Y-47060634D01*
X48645000Y-46163012D01*
X48702007Y-46195925D01*
X48829174Y-46230000D01*
X48960826Y-46230000D01*
X49087993Y-46195925D01*
X49145000Y-46163012D01*
X49145000Y-47060633D01*
X49358483Y-47003433D01*
X49358492Y-47003429D01*
X49572578Y-46903600D01*
X49766082Y-46768105D01*
X49933105Y-46601082D01*
X50071705Y-46403144D01*
X50072827Y-46403930D01*
X50118669Y-46360212D01*
X50187275Y-46346982D01*
X50252142Y-46372944D01*
X50292676Y-46429854D01*
X50299500Y-46470422D01*
X50299500Y-67320500D01*
X50279815Y-67387539D01*
X50227011Y-67433294D01*
X50175500Y-67444500D01*
X18404500Y-67444500D01*
X18337461Y-67424815D01*
X18291706Y-67372011D01*
X18280500Y-67320500D01*
X18280500Y-57149994D01*
X19485057Y-57149994D01*
X19485057Y-57150005D01*
X19504807Y-57463942D01*
X19504808Y-57463949D01*
X19563755Y-57772958D01*
X19660963Y-58072132D01*
X19660965Y-58072137D01*
X19794900Y-58356761D01*
X19794903Y-58356767D01*
X19963457Y-58622367D01*
X19963460Y-58622371D01*
X20054286Y-58732160D01*
X20695748Y-58090698D01*
X20769588Y-58192330D01*
X20947670Y-58370412D01*
X21049300Y-58444250D01*
X20404971Y-59088579D01*
X20404972Y-59088581D01*
X20647772Y-59264985D01*
X20647790Y-59264996D01*
X20923447Y-59416540D01*
X20923455Y-59416544D01*
X21215926Y-59532340D01*
X21520620Y-59610573D01*
X21520629Y-59610575D01*
X21832701Y-59649999D01*
X21832715Y-59650000D01*
X22147285Y-59650000D01*
X22147298Y-59649999D01*
X22459370Y-59610575D01*
X22459379Y-59610573D01*
X22764073Y-59532340D01*
X23056544Y-59416544D01*
X23056552Y-59416540D01*
X23332209Y-59264996D01*
X23332219Y-59264990D01*
X23575026Y-59088579D01*
X23575027Y-59088579D01*
X22930698Y-58444251D01*
X23032330Y-58370412D01*
X23210412Y-58192330D01*
X23284251Y-58090698D01*
X23925712Y-58732160D01*
X24016544Y-58622364D01*
X24185096Y-58356767D01*
X24185099Y-58356761D01*
X24319034Y-58072137D01*
X24319036Y-58072132D01*
X24416244Y-57772958D01*
X24475191Y-57463949D01*
X24475192Y-57463942D01*
X24494943Y-57150005D01*
X24494943Y-57149994D01*
X24475192Y-56836057D01*
X24475191Y-56836050D01*
X24416244Y-56527041D01*
X24319036Y-56227867D01*
X24319034Y-56227862D01*
X24244949Y-56070424D01*
X27339498Y-56070424D01*
X27380423Y-56223155D01*
X27409358Y-56273270D01*
X27409359Y-56273274D01*
X27409360Y-56273274D01*
X27431381Y-56311417D01*
X27459479Y-56360084D01*
X27459481Y-56360087D01*
X27578349Y-56478955D01*
X27578355Y-56478960D01*
X29173769Y-58074374D01*
X29173779Y-58074385D01*
X29178109Y-58078715D01*
X29178110Y-58078716D01*
X29289914Y-58190520D01*
X29324338Y-58210394D01*
X29372554Y-58260961D01*
X29385778Y-58329567D01*
X29359811Y-58394433D01*
X29302897Y-58434962D01*
X29294432Y-58437557D01*
X29198511Y-58463258D01*
X29198502Y-58463261D01*
X28992267Y-58559431D01*
X28992265Y-58559432D01*
X28805858Y-58689954D01*
X28644954Y-58850858D01*
X28514432Y-59037265D01*
X28514431Y-59037267D01*
X28418261Y-59243502D01*
X28418258Y-59243511D01*
X28359366Y-59463302D01*
X28359364Y-59463313D01*
X28339532Y-59689998D01*
X28339532Y-59690001D01*
X28359364Y-59916686D01*
X28359366Y-59916697D01*
X28418258Y-60136488D01*
X28418261Y-60136497D01*
X28514431Y-60342732D01*
X28514432Y-60342734D01*
X28644954Y-60529141D01*
X28805858Y-60690045D01*
X28805861Y-60690047D01*
X28992266Y-60820568D01*
X29198504Y-60916739D01*
X29418308Y-60975635D01*
X29580230Y-60989801D01*
X29644998Y-60995468D01*
X29645000Y-60995468D01*
X29645002Y-60995468D01*
X29701673Y-60990509D01*
X29871692Y-60975635D01*
X30091496Y-60916739D01*
X30297734Y-60820568D01*
X30484139Y-60690047D01*
X30645047Y-60529139D01*
X30688425Y-60467188D01*
X30743001Y-60423563D01*
X30812499Y-60416369D01*
X30874854Y-60447891D01*
X30891576Y-60467189D01*
X30934955Y-60529142D01*
X31095858Y-60690045D01*
X31095861Y-60690047D01*
X31282266Y-60820568D01*
X31488504Y-60916739D01*
X31708308Y-60975635D01*
X31870230Y-60989801D01*
X31934998Y-60995468D01*
X31935000Y-60995468D01*
X31935002Y-60995468D01*
X31991673Y-60990509D01*
X32161692Y-60975635D01*
X32381496Y-60916739D01*
X32587734Y-60820568D01*
X32774139Y-60690047D01*
X32935047Y-60529139D01*
X32978425Y-60467188D01*
X33033001Y-60423563D01*
X33102499Y-60416369D01*
X33164854Y-60447891D01*
X33181576Y-60467189D01*
X33224955Y-60529142D01*
X33385858Y-60690045D01*
X33385861Y-60690047D01*
X33572266Y-60820568D01*
X33778504Y-60916739D01*
X33998308Y-60975635D01*
X34160230Y-60989801D01*
X34224998Y-60995468D01*
X34225000Y-60995468D01*
X34225002Y-60995468D01*
X34281673Y-60990509D01*
X34451692Y-60975635D01*
X34671496Y-60916739D01*
X34877734Y-60820568D01*
X35064139Y-60690047D01*
X35225047Y-60529139D01*
X35268425Y-60467188D01*
X35323001Y-60423563D01*
X35392499Y-60416369D01*
X35454854Y-60447891D01*
X35471576Y-60467189D01*
X35514955Y-60529142D01*
X35675858Y-60690045D01*
X35675861Y-60690047D01*
X35862266Y-60820568D01*
X36068504Y-60916739D01*
X36288308Y-60975635D01*
X36450230Y-60989801D01*
X36514998Y-60995468D01*
X36515000Y-60995468D01*
X36515002Y-60995468D01*
X36571673Y-60990509D01*
X36741692Y-60975635D01*
X36961496Y-60916739D01*
X37167734Y-60820568D01*
X37354139Y-60690047D01*
X37515047Y-60529139D01*
X37558425Y-60467188D01*
X37613001Y-60423563D01*
X37682499Y-60416369D01*
X37744854Y-60447891D01*
X37761576Y-60467189D01*
X37804955Y-60529142D01*
X37965858Y-60690045D01*
X37965861Y-60690047D01*
X38152266Y-60820568D01*
X38358504Y-60916739D01*
X38578308Y-60975635D01*
X38740230Y-60989801D01*
X38804998Y-60995468D01*
X38805000Y-60995468D01*
X38805002Y-60995468D01*
X38861673Y-60990509D01*
X39031692Y-60975635D01*
X39251496Y-60916739D01*
X39457734Y-60820568D01*
X39644139Y-60690047D01*
X39805047Y-60529139D01*
X39935568Y-60342734D01*
X40031739Y-60136496D01*
X40090635Y-59916692D01*
X40110468Y-59690000D01*
X40106968Y-59650000D01*
X40103519Y-59610573D01*
X40090635Y-59463308D01*
X40031739Y-59243504D01*
X40001208Y-59178031D01*
X39990717Y-59108957D01*
X40019236Y-59045173D01*
X40077712Y-59006933D01*
X40102782Y-59002101D01*
X40176692Y-58995635D01*
X40396496Y-58936739D01*
X40602734Y-58840568D01*
X40789139Y-58710047D01*
X40950047Y-58549139D01*
X41080568Y-58362734D01*
X41176739Y-58156496D01*
X41235635Y-57936692D01*
X41255468Y-57710000D01*
X41235635Y-57483308D01*
X41176739Y-57263504D01*
X41123808Y-57149994D01*
X44485057Y-57149994D01*
X44485057Y-57150005D01*
X44504807Y-57463942D01*
X44504808Y-57463949D01*
X44563755Y-57772958D01*
X44660963Y-58072132D01*
X44660965Y-58072137D01*
X44794900Y-58356761D01*
X44794903Y-58356767D01*
X44963457Y-58622367D01*
X44963460Y-58622371D01*
X45054286Y-58732160D01*
X45695748Y-58090698D01*
X45769588Y-58192330D01*
X45947670Y-58370412D01*
X46049300Y-58444250D01*
X45404971Y-59088579D01*
X45404972Y-59088581D01*
X45647772Y-59264985D01*
X45647790Y-59264996D01*
X45923447Y-59416540D01*
X45923455Y-59416544D01*
X46215926Y-59532340D01*
X46520620Y-59610573D01*
X46520629Y-59610575D01*
X46832701Y-59649999D01*
X46832715Y-59650000D01*
X47147285Y-59650000D01*
X47147298Y-59649999D01*
X47459370Y-59610575D01*
X47459379Y-59610573D01*
X47764073Y-59532340D01*
X48056544Y-59416544D01*
X48056552Y-59416540D01*
X48332209Y-59264996D01*
X48332219Y-59264990D01*
X48575026Y-59088579D01*
X48575027Y-59088579D01*
X47930698Y-58444251D01*
X48032330Y-58370412D01*
X48210412Y-58192330D01*
X48284251Y-58090699D01*
X48925712Y-58732160D01*
X49016544Y-58622364D01*
X49185096Y-58356767D01*
X49185099Y-58356761D01*
X49319034Y-58072137D01*
X49319036Y-58072132D01*
X49416244Y-57772958D01*
X49475191Y-57463949D01*
X49475192Y-57463942D01*
X49494943Y-57150005D01*
X49494943Y-57149994D01*
X49475192Y-56836057D01*
X49475191Y-56836050D01*
X49416244Y-56527041D01*
X49319036Y-56227867D01*
X49319034Y-56227862D01*
X49185099Y-55943238D01*
X49185096Y-55943232D01*
X49016542Y-55677632D01*
X49016539Y-55677628D01*
X48925712Y-55567838D01*
X48284250Y-56209300D01*
X48210412Y-56107670D01*
X48032330Y-55929588D01*
X47930698Y-55855748D01*
X48575027Y-55211419D01*
X48575026Y-55211417D01*
X48332227Y-55035014D01*
X48332209Y-55035003D01*
X48056552Y-54883459D01*
X48056544Y-54883455D01*
X47764073Y-54767659D01*
X47459379Y-54689426D01*
X47459370Y-54689424D01*
X47147298Y-54650000D01*
X46832701Y-54650000D01*
X46520629Y-54689424D01*
X46520620Y-54689426D01*
X46215926Y-54767659D01*
X45923455Y-54883455D01*
X45923447Y-54883459D01*
X45647787Y-55035004D01*
X45647782Y-55035007D01*
X45404972Y-55211418D01*
X45404971Y-55211419D01*
X46049301Y-55855748D01*
X45947670Y-55929588D01*
X45769588Y-56107670D01*
X45695748Y-56209300D01*
X45054286Y-55567838D01*
X45054285Y-55567838D01*
X44963459Y-55677629D01*
X44963457Y-55677632D01*
X44794903Y-55943232D01*
X44794900Y-55943238D01*
X44660965Y-56227862D01*
X44660963Y-56227867D01*
X44563755Y-56527041D01*
X44504808Y-56836050D01*
X44504807Y-56836057D01*
X44485057Y-57149994D01*
X41123808Y-57149994D01*
X41080568Y-57057266D01*
X40950047Y-56870861D01*
X40950045Y-56870858D01*
X40789140Y-56709953D01*
X40603377Y-56579881D01*
X40559752Y-56525304D01*
X40550500Y-56478306D01*
X40550500Y-32421692D01*
X40570185Y-32354653D01*
X40603374Y-32320119D01*
X40789139Y-32190047D01*
X40950047Y-32029139D01*
X41080568Y-31842734D01*
X41080568Y-31842732D01*
X41083673Y-31838299D01*
X41085730Y-31839739D01*
X41128623Y-31798799D01*
X41197223Y-31785540D01*
X41262101Y-31811475D01*
X41302659Y-31868368D01*
X41309500Y-31908985D01*
X41309500Y-34203330D01*
X41309499Y-34203348D01*
X41309499Y-34369054D01*
X41309498Y-34369054D01*
X41350424Y-34521789D01*
X41350425Y-34521790D01*
X41370340Y-34556283D01*
X41370341Y-34556284D01*
X41429477Y-34658712D01*
X41429481Y-34658717D01*
X41548349Y-34777585D01*
X41548355Y-34777590D01*
X43178181Y-36407416D01*
X43211666Y-36468739D01*
X43214500Y-36495097D01*
X43214500Y-37517587D01*
X43194815Y-37584626D01*
X43187450Y-37594896D01*
X43185186Y-37597734D01*
X43089211Y-37750476D01*
X43029631Y-37920745D01*
X43029630Y-37920750D01*
X43009435Y-38099996D01*
X43009435Y-38100003D01*
X43029630Y-38279249D01*
X43029631Y-38279254D01*
X43089211Y-38449523D01*
X43185184Y-38602262D01*
X43312738Y-38729816D01*
X43465478Y-38825789D01*
X43635745Y-38885368D01*
X43635749Y-38885369D01*
X43724857Y-38895408D01*
X43739383Y-38897045D01*
X43803797Y-38924111D01*
X43843352Y-38981705D01*
X43849500Y-39020265D01*
X43849500Y-42244902D01*
X43829815Y-42311941D01*
X43813183Y-42332580D01*
X43796463Y-42349301D01*
X43735138Y-42382784D01*
X43722668Y-42384837D01*
X43635750Y-42394630D01*
X43465478Y-42454210D01*
X43312737Y-42550184D01*
X43185184Y-42677737D01*
X43089211Y-42830476D01*
X43029631Y-43000745D01*
X43029630Y-43000750D01*
X43009435Y-43179996D01*
X43009435Y-43180003D01*
X43029630Y-43359249D01*
X43029631Y-43359254D01*
X43089211Y-43529523D01*
X43167209Y-43653655D01*
X43185184Y-43682262D01*
X43312738Y-43809816D01*
X43465478Y-43905789D01*
X43635745Y-43965368D01*
X43635750Y-43965369D01*
X43814996Y-43985565D01*
X43815000Y-43985565D01*
X43815004Y-43985565D01*
X43994249Y-43965369D01*
X43994252Y-43965368D01*
X43994255Y-43965368D01*
X44164522Y-43905789D01*
X44317262Y-43809816D01*
X44444816Y-43682262D01*
X44540789Y-43529522D01*
X44600368Y-43359255D01*
X44610161Y-43272329D01*
X44637226Y-43207919D01*
X44645688Y-43198545D01*
X44930520Y-42913716D01*
X45009577Y-42776784D01*
X45050501Y-42624057D01*
X45050501Y-42465942D01*
X45050501Y-42458347D01*
X45050500Y-42458329D01*
X45050500Y-41560265D01*
X45070185Y-41493226D01*
X45122989Y-41447471D01*
X45160616Y-41437045D01*
X45178252Y-41435058D01*
X45264250Y-41425369D01*
X45264253Y-41425368D01*
X45264255Y-41425368D01*
X45434522Y-41365789D01*
X45587262Y-41269816D01*
X45714816Y-41142262D01*
X45810789Y-40989522D01*
X45870368Y-40819255D01*
X45870369Y-40819249D01*
X45890565Y-40640003D01*
X45890565Y-40639996D01*
X45870369Y-40460750D01*
X45870368Y-40460745D01*
X45810788Y-40290476D01*
X45745353Y-40186337D01*
X45714816Y-40137738D01*
X45714814Y-40137736D01*
X45714813Y-40137734D01*
X45712550Y-40134896D01*
X45711659Y-40132715D01*
X45711111Y-40131842D01*
X45711264Y-40131745D01*
X45686144Y-40070209D01*
X45685500Y-40057587D01*
X45685500Y-35014059D01*
X45685501Y-35014046D01*
X45685501Y-34845945D01*
X45685501Y-34845943D01*
X45644577Y-34693215D01*
X45615639Y-34643095D01*
X45565520Y-34556284D01*
X45453716Y-34444480D01*
X45453715Y-34444479D01*
X45449385Y-34440149D01*
X45449374Y-34440139D01*
X43816819Y-32807584D01*
X43783334Y-32746261D01*
X43780500Y-32719903D01*
X43780500Y-31749994D01*
X44485057Y-31749994D01*
X44485057Y-31750005D01*
X44504807Y-32063942D01*
X44504808Y-32063949D01*
X44563755Y-32372958D01*
X44660963Y-32672132D01*
X44660965Y-32672137D01*
X44794900Y-32956761D01*
X44794903Y-32956767D01*
X44963457Y-33222367D01*
X44963460Y-33222371D01*
X45054286Y-33332160D01*
X45695748Y-32690698D01*
X45769588Y-32792330D01*
X45947670Y-32970412D01*
X46049300Y-33044250D01*
X45404971Y-33688579D01*
X45404972Y-33688581D01*
X45647772Y-33864985D01*
X45647790Y-33864996D01*
X45923447Y-34016540D01*
X45923455Y-34016544D01*
X46215926Y-34132340D01*
X46520620Y-34210573D01*
X46520629Y-34210575D01*
X46832701Y-34249999D01*
X46832715Y-34250000D01*
X47147285Y-34250000D01*
X47147298Y-34249999D01*
X47459370Y-34210575D01*
X47459379Y-34210573D01*
X47764073Y-34132340D01*
X48056544Y-34016544D01*
X48056552Y-34016540D01*
X48332209Y-33864996D01*
X48332219Y-33864990D01*
X48575026Y-33688579D01*
X48575027Y-33688579D01*
X47930698Y-33044251D01*
X48032330Y-32970412D01*
X48210412Y-32792330D01*
X48284251Y-32690699D01*
X48925712Y-33332160D01*
X49016544Y-33222364D01*
X49185096Y-32956767D01*
X49185099Y-32956761D01*
X49319034Y-32672137D01*
X49319036Y-32672132D01*
X49416244Y-32372958D01*
X49475191Y-32063949D01*
X49475192Y-32063942D01*
X49494943Y-31750005D01*
X49494943Y-31749994D01*
X49475192Y-31436057D01*
X49475191Y-31436050D01*
X49416244Y-31127041D01*
X49319036Y-30827867D01*
X49319034Y-30827862D01*
X49185099Y-30543238D01*
X49185096Y-30543232D01*
X49016542Y-30277632D01*
X49016539Y-30277628D01*
X48925712Y-30167838D01*
X48284250Y-30809300D01*
X48210412Y-30707670D01*
X48032330Y-30529588D01*
X47930698Y-30455748D01*
X48575027Y-29811419D01*
X48575026Y-29811417D01*
X48332227Y-29635014D01*
X48332209Y-29635003D01*
X48056552Y-29483459D01*
X48056544Y-29483455D01*
X47764073Y-29367659D01*
X47459379Y-29289426D01*
X47459370Y-29289424D01*
X47147298Y-29250000D01*
X46832701Y-29250000D01*
X46520629Y-29289424D01*
X46520620Y-29289426D01*
X46215926Y-29367659D01*
X45923455Y-29483455D01*
X45923447Y-29483459D01*
X45647787Y-29635004D01*
X45647782Y-29635007D01*
X45404972Y-29811418D01*
X45404971Y-29811419D01*
X46049301Y-30455748D01*
X45947670Y-30529588D01*
X45769588Y-30707670D01*
X45695748Y-30809300D01*
X45054286Y-30167838D01*
X45054285Y-30167838D01*
X44963459Y-30277629D01*
X44963457Y-30277632D01*
X44794903Y-30543232D01*
X44794900Y-30543238D01*
X44660965Y-30827862D01*
X44660963Y-30827867D01*
X44563755Y-31127041D01*
X44504808Y-31436050D01*
X44504807Y-31436057D01*
X44485057Y-31749994D01*
X43780500Y-31749994D01*
X43780500Y-29130945D01*
X43780500Y-29130943D01*
X43739577Y-28978216D01*
X43739573Y-28978209D01*
X43660524Y-28841290D01*
X43660521Y-28841286D01*
X43660520Y-28841284D01*
X43548716Y-28729480D01*
X43548715Y-28729479D01*
X43544385Y-28725149D01*
X43544374Y-28725139D01*
X41127590Y-26308355D01*
X41127588Y-26308352D01*
X41008717Y-26189481D01*
X41008716Y-26189480D01*
X40921904Y-26139360D01*
X40921904Y-26139359D01*
X40921900Y-26139358D01*
X40871785Y-26110423D01*
X40719057Y-26069499D01*
X40560943Y-26069499D01*
X40553347Y-26069499D01*
X40553331Y-26069500D01*
X32105940Y-26069500D01*
X32065019Y-26080464D01*
X32065019Y-26080465D01*
X32027751Y-26090451D01*
X31953214Y-26110423D01*
X31953209Y-26110426D01*
X31816290Y-26189475D01*
X31816282Y-26189481D01*
X31704478Y-26301286D01*
X30087705Y-27918058D01*
X30026382Y-27951543D01*
X29967931Y-27950152D01*
X29871697Y-27924366D01*
X29871693Y-27924365D01*
X29871692Y-27924365D01*
X29871691Y-27924364D01*
X29871686Y-27924364D01*
X29645002Y-27904532D01*
X29644998Y-27904532D01*
X29418313Y-27924364D01*
X29418302Y-27924366D01*
X29198511Y-27983258D01*
X29198502Y-27983261D01*
X28992267Y-28079431D01*
X28992265Y-28079432D01*
X28805858Y-28209954D01*
X28644954Y-28370858D01*
X28514432Y-28557265D01*
X28514431Y-28557267D01*
X28418261Y-28763502D01*
X28418258Y-28763511D01*
X28359366Y-28983302D01*
X28359364Y-28983313D01*
X28339532Y-29209998D01*
X28339532Y-29210001D01*
X28359364Y-29436686D01*
X28359366Y-29436697D01*
X28418258Y-29656488D01*
X28418261Y-29656497D01*
X28514431Y-29862732D01*
X28514432Y-29862734D01*
X28644954Y-30049141D01*
X28805858Y-30210045D01*
X28805861Y-30210047D01*
X28992266Y-30340568D01*
X29198504Y-30436739D01*
X29294432Y-30462442D01*
X29354091Y-30498806D01*
X29384621Y-30561653D01*
X29376327Y-30631029D01*
X29331842Y-30684907D01*
X29324340Y-30689603D01*
X29289917Y-30709477D01*
X29289912Y-30709481D01*
X27459481Y-32539912D01*
X27459477Y-32539917D01*
X27442400Y-32569498D01*
X27442399Y-32569500D01*
X27380423Y-32676845D01*
X27339499Y-32829573D01*
X27339499Y-32829575D01*
X27339499Y-32997676D01*
X27339500Y-32997689D01*
X27339500Y-55904700D01*
X27339499Y-55904718D01*
X27339499Y-56070424D01*
X27339498Y-56070424D01*
X24244949Y-56070424D01*
X24185099Y-55943238D01*
X24185096Y-55943232D01*
X24016542Y-55677632D01*
X24016539Y-55677628D01*
X23925712Y-55567838D01*
X23284250Y-56209300D01*
X23210412Y-56107670D01*
X23032330Y-55929588D01*
X22930698Y-55855748D01*
X23575027Y-55211419D01*
X23575026Y-55211417D01*
X23332227Y-55035014D01*
X23332209Y-55035003D01*
X23056552Y-54883459D01*
X23056544Y-54883455D01*
X22764073Y-54767659D01*
X22459379Y-54689426D01*
X22459370Y-54689424D01*
X22147298Y-54650000D01*
X21832701Y-54650000D01*
X21520629Y-54689424D01*
X21520620Y-54689426D01*
X21215926Y-54767659D01*
X20923455Y-54883455D01*
X20923447Y-54883459D01*
X20647787Y-55035004D01*
X20647782Y-55035007D01*
X20404972Y-55211418D01*
X20404971Y-55211419D01*
X21049301Y-55855748D01*
X20947670Y-55929588D01*
X20769588Y-56107670D01*
X20695748Y-56209300D01*
X20054286Y-55567838D01*
X20054285Y-55567838D01*
X19963459Y-55677629D01*
X19963457Y-55677632D01*
X19794903Y-55943232D01*
X19794900Y-55943238D01*
X19660965Y-56227862D01*
X19660963Y-56227867D01*
X19563755Y-56527041D01*
X19504808Y-56836050D01*
X19504807Y-56836057D01*
X19485057Y-57149994D01*
X18280500Y-57149994D01*
X18280500Y-31749994D01*
X19485057Y-31749994D01*
X19485057Y-31750005D01*
X19504807Y-32063942D01*
X19504808Y-32063949D01*
X19563755Y-32372958D01*
X19660963Y-32672132D01*
X19660965Y-32672137D01*
X19794900Y-32956761D01*
X19794903Y-32956767D01*
X19963457Y-33222367D01*
X19963460Y-33222371D01*
X20054286Y-33332160D01*
X20695748Y-32690698D01*
X20769588Y-32792330D01*
X20947670Y-32970412D01*
X21049300Y-33044250D01*
X20404971Y-33688579D01*
X20404972Y-33688581D01*
X20647772Y-33864985D01*
X20647790Y-33864996D01*
X20923447Y-34016540D01*
X20923455Y-34016544D01*
X21215926Y-34132340D01*
X21520620Y-34210573D01*
X21520629Y-34210575D01*
X21832701Y-34249999D01*
X21832715Y-34250000D01*
X22147285Y-34250000D01*
X22147298Y-34249999D01*
X22459370Y-34210575D01*
X22459379Y-34210573D01*
X22764073Y-34132340D01*
X23056544Y-34016544D01*
X23056552Y-34016540D01*
X23332209Y-33864996D01*
X23332219Y-33864990D01*
X23575026Y-33688579D01*
X23575027Y-33688579D01*
X22930698Y-33044251D01*
X23032330Y-32970412D01*
X23210412Y-32792330D01*
X23284251Y-32690698D01*
X23925712Y-33332160D01*
X24016544Y-33222364D01*
X24185096Y-32956767D01*
X24185099Y-32956761D01*
X24319034Y-32672137D01*
X24319036Y-32672132D01*
X24416244Y-32372958D01*
X24475191Y-32063949D01*
X24475192Y-32063942D01*
X24494943Y-31750005D01*
X24494943Y-31749994D01*
X24475192Y-31436057D01*
X24475191Y-31436050D01*
X24416244Y-31127041D01*
X24319036Y-30827867D01*
X24319034Y-30827862D01*
X24185099Y-30543238D01*
X24185096Y-30543232D01*
X24016542Y-30277632D01*
X24016539Y-30277628D01*
X23925712Y-30167838D01*
X23284250Y-30809300D01*
X23210412Y-30707670D01*
X23032330Y-30529588D01*
X22930698Y-30455748D01*
X23575027Y-29811419D01*
X23575026Y-29811417D01*
X23332227Y-29635014D01*
X23332209Y-29635003D01*
X23056552Y-29483459D01*
X23056544Y-29483455D01*
X22764073Y-29367659D01*
X22459379Y-29289426D01*
X22459370Y-29289424D01*
X22147298Y-29250000D01*
X21832701Y-29250000D01*
X21520629Y-29289424D01*
X21520620Y-29289426D01*
X21215926Y-29367659D01*
X20923455Y-29483455D01*
X20923447Y-29483459D01*
X20647787Y-29635004D01*
X20647782Y-29635007D01*
X20404972Y-29811418D01*
X20404971Y-29811419D01*
X21049301Y-30455748D01*
X20947670Y-30529588D01*
X20769588Y-30707670D01*
X20695748Y-30809300D01*
X20054286Y-30167838D01*
X20054285Y-30167838D01*
X19963459Y-30277629D01*
X19963457Y-30277632D01*
X19794903Y-30543232D01*
X19794900Y-30543238D01*
X19660965Y-30827862D01*
X19660963Y-30827867D01*
X19563755Y-31127041D01*
X19504808Y-31436050D01*
X19504807Y-31436057D01*
X19485057Y-31749994D01*
X18280500Y-31749994D01*
X18280500Y-20944500D01*
X18300185Y-20877461D01*
X18352989Y-20831706D01*
X18404500Y-20820500D01*
X50175500Y-20820500D01*
X50242539Y-20840185D01*
G37*
%TD.AperFunction*%
%TD*%
M02*
