%TF.GenerationSoftware,KiCad,Pcbnew,8.0.3+1*%
%TF.CreationDate,2024-06-22T01:26:53+02:00*%
%TF.ProjectId,EDID_spoofer,45444944-5f73-4706-9f6f-6665722e6b69,rev?*%
%TF.SameCoordinates,Original*%
%TF.FileFunction,Legend,Bot*%
%TF.FilePolarity,Positive*%
%FSLAX46Y46*%
G04 Gerber Fmt 4.6, Leading zero omitted, Abs format (unit mm)*
G04 Created by KiCad (PCBNEW 8.0.3+1) date 2024-06-22 01:26:53*
%MOMM*%
%LPD*%
G01*
G04 APERTURE LIST*
%ADD10C,0.200000*%
G04 APERTURE END LIST*
D10*
X18828115Y-36215387D02*
X19542400Y-36215387D01*
X19542400Y-36215387D02*
X19685257Y-36167768D01*
X19685257Y-36167768D02*
X19780496Y-36072530D01*
X19780496Y-36072530D02*
X19828115Y-35929673D01*
X19828115Y-35929673D02*
X19828115Y-35834435D01*
X19828115Y-36691578D02*
X18828115Y-36691578D01*
X18828115Y-36691578D02*
X18828115Y-37072530D01*
X18828115Y-37072530D02*
X18875734Y-37167768D01*
X18875734Y-37167768D02*
X18923353Y-37215387D01*
X18923353Y-37215387D02*
X19018591Y-37263006D01*
X19018591Y-37263006D02*
X19161448Y-37263006D01*
X19161448Y-37263006D02*
X19256686Y-37215387D01*
X19256686Y-37215387D02*
X19304305Y-37167768D01*
X19304305Y-37167768D02*
X19351924Y-37072530D01*
X19351924Y-37072530D02*
X19351924Y-36691578D01*
X19828115Y-38215387D02*
X19828115Y-37643959D01*
X19828115Y-37929673D02*
X18828115Y-37929673D01*
X18828115Y-37929673D02*
X18970972Y-37834435D01*
X18970972Y-37834435D02*
X19066210Y-37739197D01*
X19066210Y-37739197D02*
X19113829Y-37643959D01*
X19732876Y-38643959D02*
X19780496Y-38691578D01*
X19780496Y-38691578D02*
X19828115Y-38643959D01*
X19828115Y-38643959D02*
X19780496Y-38596340D01*
X19780496Y-38596340D02*
X19732876Y-38643959D01*
X19732876Y-38643959D02*
X19828115Y-38643959D01*
X19209067Y-38643959D02*
X19256686Y-38691578D01*
X19256686Y-38691578D02*
X19304305Y-38643959D01*
X19304305Y-38643959D02*
X19256686Y-38596340D01*
X19256686Y-38596340D02*
X19209067Y-38643959D01*
X19209067Y-38643959D02*
X19304305Y-38643959D01*
X18828115Y-39786816D02*
X19828115Y-40024911D01*
X19828115Y-40024911D02*
X19113829Y-40215387D01*
X19113829Y-40215387D02*
X19828115Y-40405863D01*
X19828115Y-40405863D02*
X18828115Y-40643959D01*
X19828115Y-41024911D02*
X19161448Y-41024911D01*
X19351924Y-41024911D02*
X19256686Y-41072530D01*
X19256686Y-41072530D02*
X19209067Y-41120149D01*
X19209067Y-41120149D02*
X19161448Y-41215387D01*
X19161448Y-41215387D02*
X19161448Y-41310625D01*
X19828115Y-41643959D02*
X19161448Y-41643959D01*
X18828115Y-41643959D02*
X18875734Y-41596340D01*
X18875734Y-41596340D02*
X18923353Y-41643959D01*
X18923353Y-41643959D02*
X18875734Y-41691578D01*
X18875734Y-41691578D02*
X18828115Y-41643959D01*
X18828115Y-41643959D02*
X18923353Y-41643959D01*
X19161448Y-41977292D02*
X19161448Y-42358244D01*
X18828115Y-42120149D02*
X19685257Y-42120149D01*
X19685257Y-42120149D02*
X19780496Y-42167768D01*
X19780496Y-42167768D02*
X19828115Y-42263006D01*
X19828115Y-42263006D02*
X19828115Y-42358244D01*
X19780496Y-43072530D02*
X19828115Y-42977292D01*
X19828115Y-42977292D02*
X19828115Y-42786816D01*
X19828115Y-42786816D02*
X19780496Y-42691578D01*
X19780496Y-42691578D02*
X19685257Y-42643959D01*
X19685257Y-42643959D02*
X19304305Y-42643959D01*
X19304305Y-42643959D02*
X19209067Y-42691578D01*
X19209067Y-42691578D02*
X19161448Y-42786816D01*
X19161448Y-42786816D02*
X19161448Y-42977292D01*
X19161448Y-42977292D02*
X19209067Y-43072530D01*
X19209067Y-43072530D02*
X19304305Y-43120149D01*
X19304305Y-43120149D02*
X19399543Y-43120149D01*
X19399543Y-43120149D02*
X19494781Y-42643959D01*
X19161448Y-44310626D02*
X20161448Y-44310626D01*
X19209067Y-44310626D02*
X19161448Y-44405864D01*
X19161448Y-44405864D02*
X19161448Y-44596340D01*
X19161448Y-44596340D02*
X19209067Y-44691578D01*
X19209067Y-44691578D02*
X19256686Y-44739197D01*
X19256686Y-44739197D02*
X19351924Y-44786816D01*
X19351924Y-44786816D02*
X19637638Y-44786816D01*
X19637638Y-44786816D02*
X19732876Y-44739197D01*
X19732876Y-44739197D02*
X19780496Y-44691578D01*
X19780496Y-44691578D02*
X19828115Y-44596340D01*
X19828115Y-44596340D02*
X19828115Y-44405864D01*
X19828115Y-44405864D02*
X19780496Y-44310626D01*
X19828115Y-45215388D02*
X19161448Y-45215388D01*
X19351924Y-45215388D02*
X19256686Y-45263007D01*
X19256686Y-45263007D02*
X19209067Y-45310626D01*
X19209067Y-45310626D02*
X19161448Y-45405864D01*
X19161448Y-45405864D02*
X19161448Y-45501102D01*
X19828115Y-45977293D02*
X19780496Y-45882055D01*
X19780496Y-45882055D02*
X19732876Y-45834436D01*
X19732876Y-45834436D02*
X19637638Y-45786817D01*
X19637638Y-45786817D02*
X19351924Y-45786817D01*
X19351924Y-45786817D02*
X19256686Y-45834436D01*
X19256686Y-45834436D02*
X19209067Y-45882055D01*
X19209067Y-45882055D02*
X19161448Y-45977293D01*
X19161448Y-45977293D02*
X19161448Y-46120150D01*
X19161448Y-46120150D02*
X19209067Y-46215388D01*
X19209067Y-46215388D02*
X19256686Y-46263007D01*
X19256686Y-46263007D02*
X19351924Y-46310626D01*
X19351924Y-46310626D02*
X19637638Y-46310626D01*
X19637638Y-46310626D02*
X19732876Y-46263007D01*
X19732876Y-46263007D02*
X19780496Y-46215388D01*
X19780496Y-46215388D02*
X19828115Y-46120150D01*
X19828115Y-46120150D02*
X19828115Y-45977293D01*
X19161448Y-46596341D02*
X19161448Y-46977293D01*
X18828115Y-46739198D02*
X19685257Y-46739198D01*
X19685257Y-46739198D02*
X19780496Y-46786817D01*
X19780496Y-46786817D02*
X19828115Y-46882055D01*
X19828115Y-46882055D02*
X19828115Y-46977293D01*
X19780496Y-47691579D02*
X19828115Y-47596341D01*
X19828115Y-47596341D02*
X19828115Y-47405865D01*
X19828115Y-47405865D02*
X19780496Y-47310627D01*
X19780496Y-47310627D02*
X19685257Y-47263008D01*
X19685257Y-47263008D02*
X19304305Y-47263008D01*
X19304305Y-47263008D02*
X19209067Y-47310627D01*
X19209067Y-47310627D02*
X19161448Y-47405865D01*
X19161448Y-47405865D02*
X19161448Y-47596341D01*
X19161448Y-47596341D02*
X19209067Y-47691579D01*
X19209067Y-47691579D02*
X19304305Y-47739198D01*
X19304305Y-47739198D02*
X19399543Y-47739198D01*
X19399543Y-47739198D02*
X19494781Y-47263008D01*
X19780496Y-48596341D02*
X19828115Y-48501103D01*
X19828115Y-48501103D02*
X19828115Y-48310627D01*
X19828115Y-48310627D02*
X19780496Y-48215389D01*
X19780496Y-48215389D02*
X19732876Y-48167770D01*
X19732876Y-48167770D02*
X19637638Y-48120151D01*
X19637638Y-48120151D02*
X19351924Y-48120151D01*
X19351924Y-48120151D02*
X19256686Y-48167770D01*
X19256686Y-48167770D02*
X19209067Y-48215389D01*
X19209067Y-48215389D02*
X19161448Y-48310627D01*
X19161448Y-48310627D02*
X19161448Y-48501103D01*
X19161448Y-48501103D02*
X19209067Y-48596341D01*
X19161448Y-48882056D02*
X19161448Y-49263008D01*
X18828115Y-49024913D02*
X19685257Y-49024913D01*
X19685257Y-49024913D02*
X19780496Y-49072532D01*
X19780496Y-49072532D02*
X19828115Y-49167770D01*
X19828115Y-49167770D02*
X19828115Y-49263008D01*
X21771392Y-36215387D02*
X21771392Y-35977292D01*
X21771392Y-35977292D02*
X20342820Y-35977292D01*
X20342820Y-35977292D02*
X20342820Y-36215387D01*
X21438059Y-37120149D02*
X21438059Y-36548721D01*
X21438059Y-36834435D02*
X20438059Y-36834435D01*
X20438059Y-36834435D02*
X20580916Y-36739197D01*
X20580916Y-36739197D02*
X20676154Y-36643959D01*
X20676154Y-36643959D02*
X20723773Y-36548721D01*
X21057106Y-37548721D02*
X21057106Y-38310626D01*
X20533297Y-38739197D02*
X20485678Y-38786816D01*
X20485678Y-38786816D02*
X20438059Y-38882054D01*
X20438059Y-38882054D02*
X20438059Y-39120149D01*
X20438059Y-39120149D02*
X20485678Y-39215387D01*
X20485678Y-39215387D02*
X20533297Y-39263006D01*
X20533297Y-39263006D02*
X20628535Y-39310625D01*
X20628535Y-39310625D02*
X20723773Y-39310625D01*
X20723773Y-39310625D02*
X20866630Y-39263006D01*
X20866630Y-39263006D02*
X21438059Y-38691578D01*
X21438059Y-38691578D02*
X21438059Y-39310625D01*
X21771392Y-39643959D02*
X21771392Y-39882054D01*
X21771392Y-39882054D02*
X20342820Y-39882054D01*
X20342820Y-39882054D02*
X20342820Y-39643959D01*
X21057106Y-41167769D02*
X21057106Y-41929674D01*
X20914249Y-43167769D02*
X20914249Y-43501102D01*
X21438059Y-43643959D02*
X21438059Y-43167769D01*
X21438059Y-43167769D02*
X20438059Y-43167769D01*
X20438059Y-43167769D02*
X20438059Y-43643959D01*
X20771392Y-44072531D02*
X21438059Y-44072531D01*
X20866630Y-44072531D02*
X20819011Y-44120150D01*
X20819011Y-44120150D02*
X20771392Y-44215388D01*
X20771392Y-44215388D02*
X20771392Y-44358245D01*
X20771392Y-44358245D02*
X20819011Y-44453483D01*
X20819011Y-44453483D02*
X20914249Y-44501102D01*
X20914249Y-44501102D02*
X21438059Y-44501102D01*
X21438059Y-45405864D02*
X20914249Y-45405864D01*
X20914249Y-45405864D02*
X20819011Y-45358245D01*
X20819011Y-45358245D02*
X20771392Y-45263007D01*
X20771392Y-45263007D02*
X20771392Y-45072531D01*
X20771392Y-45072531D02*
X20819011Y-44977293D01*
X21390440Y-45405864D02*
X21438059Y-45310626D01*
X21438059Y-45310626D02*
X21438059Y-45072531D01*
X21438059Y-45072531D02*
X21390440Y-44977293D01*
X21390440Y-44977293D02*
X21295201Y-44929674D01*
X21295201Y-44929674D02*
X21199963Y-44929674D01*
X21199963Y-44929674D02*
X21104725Y-44977293D01*
X21104725Y-44977293D02*
X21057106Y-45072531D01*
X21057106Y-45072531D02*
X21057106Y-45310626D01*
X21057106Y-45310626D02*
X21009487Y-45405864D01*
X21438059Y-45882055D02*
X20438059Y-45882055D01*
X20819011Y-45882055D02*
X20771392Y-45977293D01*
X20771392Y-45977293D02*
X20771392Y-46167769D01*
X20771392Y-46167769D02*
X20819011Y-46263007D01*
X20819011Y-46263007D02*
X20866630Y-46310626D01*
X20866630Y-46310626D02*
X20961868Y-46358245D01*
X20961868Y-46358245D02*
X21247582Y-46358245D01*
X21247582Y-46358245D02*
X21342820Y-46310626D01*
X21342820Y-46310626D02*
X21390440Y-46263007D01*
X21390440Y-46263007D02*
X21438059Y-46167769D01*
X21438059Y-46167769D02*
X21438059Y-45977293D01*
X21438059Y-45977293D02*
X21390440Y-45882055D01*
X21438059Y-46929674D02*
X21390440Y-46834436D01*
X21390440Y-46834436D02*
X21295201Y-46786817D01*
X21295201Y-46786817D02*
X20438059Y-46786817D01*
X21390440Y-47691579D02*
X21438059Y-47596341D01*
X21438059Y-47596341D02*
X21438059Y-47405865D01*
X21438059Y-47405865D02*
X21390440Y-47310627D01*
X21390440Y-47310627D02*
X21295201Y-47263008D01*
X21295201Y-47263008D02*
X20914249Y-47263008D01*
X20914249Y-47263008D02*
X20819011Y-47310627D01*
X20819011Y-47310627D02*
X20771392Y-47405865D01*
X20771392Y-47405865D02*
X20771392Y-47596341D01*
X20771392Y-47596341D02*
X20819011Y-47691579D01*
X20819011Y-47691579D02*
X20914249Y-47739198D01*
X20914249Y-47739198D02*
X21009487Y-47739198D01*
X21009487Y-47739198D02*
X21104725Y-47263008D01*
X21438059Y-48596341D02*
X20438059Y-48596341D01*
X21390440Y-48596341D02*
X21438059Y-48501103D01*
X21438059Y-48501103D02*
X21438059Y-48310627D01*
X21438059Y-48310627D02*
X21390440Y-48215389D01*
X21390440Y-48215389D02*
X21342820Y-48167770D01*
X21342820Y-48167770D02*
X21247582Y-48120151D01*
X21247582Y-48120151D02*
X20961868Y-48120151D01*
X20961868Y-48120151D02*
X20866630Y-48167770D01*
X20866630Y-48167770D02*
X20819011Y-48215389D01*
X20819011Y-48215389D02*
X20771392Y-48310627D01*
X20771392Y-48310627D02*
X20771392Y-48501103D01*
X20771392Y-48501103D02*
X20819011Y-48596341D01*
X22143241Y-36643959D02*
X22095622Y-36691578D01*
X22095622Y-36691578D02*
X22048003Y-36786816D01*
X22048003Y-36786816D02*
X22048003Y-37024911D01*
X22048003Y-37024911D02*
X22095622Y-37120149D01*
X22095622Y-37120149D02*
X22143241Y-37167768D01*
X22143241Y-37167768D02*
X22238479Y-37215387D01*
X22238479Y-37215387D02*
X22333717Y-37215387D01*
X22333717Y-37215387D02*
X22476574Y-37167768D01*
X22476574Y-37167768D02*
X23048003Y-36596340D01*
X23048003Y-36596340D02*
X23048003Y-37215387D01*
X22667050Y-37643959D02*
X22667050Y-38405864D01*
X22048003Y-38786816D02*
X22048003Y-39405863D01*
X22048003Y-39405863D02*
X22428955Y-39072530D01*
X22428955Y-39072530D02*
X22428955Y-39215387D01*
X22428955Y-39215387D02*
X22476574Y-39310625D01*
X22476574Y-39310625D02*
X22524193Y-39358244D01*
X22524193Y-39358244D02*
X22619431Y-39405863D01*
X22619431Y-39405863D02*
X22857526Y-39405863D01*
X22857526Y-39405863D02*
X22952764Y-39358244D01*
X22952764Y-39358244D02*
X23000384Y-39310625D01*
X23000384Y-39310625D02*
X23048003Y-39215387D01*
X23048003Y-39215387D02*
X23048003Y-38929673D01*
X23048003Y-38929673D02*
X23000384Y-38834435D01*
X23000384Y-38834435D02*
X22952764Y-38786816D01*
X22667050Y-41358245D02*
X22667050Y-42120150D01*
X23048003Y-43358245D02*
X22048003Y-43358245D01*
X22048003Y-43358245D02*
X22048003Y-43596340D01*
X22048003Y-43596340D02*
X22095622Y-43739197D01*
X22095622Y-43739197D02*
X22190860Y-43834435D01*
X22190860Y-43834435D02*
X22286098Y-43882054D01*
X22286098Y-43882054D02*
X22476574Y-43929673D01*
X22476574Y-43929673D02*
X22619431Y-43929673D01*
X22619431Y-43929673D02*
X22809907Y-43882054D01*
X22809907Y-43882054D02*
X22905145Y-43834435D01*
X22905145Y-43834435D02*
X23000384Y-43739197D01*
X23000384Y-43739197D02*
X23048003Y-43596340D01*
X23048003Y-43596340D02*
X23048003Y-43358245D01*
X23048003Y-44358245D02*
X22381336Y-44358245D01*
X22048003Y-44358245D02*
X22095622Y-44310626D01*
X22095622Y-44310626D02*
X22143241Y-44358245D01*
X22143241Y-44358245D02*
X22095622Y-44405864D01*
X22095622Y-44405864D02*
X22048003Y-44358245D01*
X22048003Y-44358245D02*
X22143241Y-44358245D01*
X23000384Y-44786816D02*
X23048003Y-44882054D01*
X23048003Y-44882054D02*
X23048003Y-45072530D01*
X23048003Y-45072530D02*
X23000384Y-45167768D01*
X23000384Y-45167768D02*
X22905145Y-45215387D01*
X22905145Y-45215387D02*
X22857526Y-45215387D01*
X22857526Y-45215387D02*
X22762288Y-45167768D01*
X22762288Y-45167768D02*
X22714669Y-45072530D01*
X22714669Y-45072530D02*
X22714669Y-44929673D01*
X22714669Y-44929673D02*
X22667050Y-44834435D01*
X22667050Y-44834435D02*
X22571812Y-44786816D01*
X22571812Y-44786816D02*
X22524193Y-44786816D01*
X22524193Y-44786816D02*
X22428955Y-44834435D01*
X22428955Y-44834435D02*
X22381336Y-44929673D01*
X22381336Y-44929673D02*
X22381336Y-45072530D01*
X22381336Y-45072530D02*
X22428955Y-45167768D01*
X23048003Y-46072530D02*
X22524193Y-46072530D01*
X22524193Y-46072530D02*
X22428955Y-46024911D01*
X22428955Y-46024911D02*
X22381336Y-45929673D01*
X22381336Y-45929673D02*
X22381336Y-45739197D01*
X22381336Y-45739197D02*
X22428955Y-45643959D01*
X23000384Y-46072530D02*
X23048003Y-45977292D01*
X23048003Y-45977292D02*
X23048003Y-45739197D01*
X23048003Y-45739197D02*
X23000384Y-45643959D01*
X23000384Y-45643959D02*
X22905145Y-45596340D01*
X22905145Y-45596340D02*
X22809907Y-45596340D01*
X22809907Y-45596340D02*
X22714669Y-45643959D01*
X22714669Y-45643959D02*
X22667050Y-45739197D01*
X22667050Y-45739197D02*
X22667050Y-45977292D01*
X22667050Y-45977292D02*
X22619431Y-46072530D01*
X23048003Y-46548721D02*
X22048003Y-46548721D01*
X22428955Y-46548721D02*
X22381336Y-46643959D01*
X22381336Y-46643959D02*
X22381336Y-46834435D01*
X22381336Y-46834435D02*
X22428955Y-46929673D01*
X22428955Y-46929673D02*
X22476574Y-46977292D01*
X22476574Y-46977292D02*
X22571812Y-47024911D01*
X22571812Y-47024911D02*
X22857526Y-47024911D01*
X22857526Y-47024911D02*
X22952764Y-46977292D01*
X22952764Y-46977292D02*
X23000384Y-46929673D01*
X23000384Y-46929673D02*
X23048003Y-46834435D01*
X23048003Y-46834435D02*
X23048003Y-46643959D01*
X23048003Y-46643959D02*
X23000384Y-46548721D01*
X23048003Y-47596340D02*
X23000384Y-47501102D01*
X23000384Y-47501102D02*
X22905145Y-47453483D01*
X22905145Y-47453483D02*
X22048003Y-47453483D01*
X23000384Y-48358245D02*
X23048003Y-48263007D01*
X23048003Y-48263007D02*
X23048003Y-48072531D01*
X23048003Y-48072531D02*
X23000384Y-47977293D01*
X23000384Y-47977293D02*
X22905145Y-47929674D01*
X22905145Y-47929674D02*
X22524193Y-47929674D01*
X22524193Y-47929674D02*
X22428955Y-47977293D01*
X22428955Y-47977293D02*
X22381336Y-48072531D01*
X22381336Y-48072531D02*
X22381336Y-48263007D01*
X22381336Y-48263007D02*
X22428955Y-48358245D01*
X22428955Y-48358245D02*
X22524193Y-48405864D01*
X22524193Y-48405864D02*
X22619431Y-48405864D01*
X22619431Y-48405864D02*
X22714669Y-47929674D01*
X23048003Y-49263007D02*
X22048003Y-49263007D01*
X23000384Y-49263007D02*
X23048003Y-49167769D01*
X23048003Y-49167769D02*
X23048003Y-48977293D01*
X23048003Y-48977293D02*
X23000384Y-48882055D01*
X23000384Y-48882055D02*
X22952764Y-48834436D01*
X22952764Y-48834436D02*
X22857526Y-48786817D01*
X22857526Y-48786817D02*
X22571812Y-48786817D01*
X22571812Y-48786817D02*
X22476574Y-48834436D01*
X22476574Y-48834436D02*
X22428955Y-48882055D01*
X22428955Y-48882055D02*
X22381336Y-48977293D01*
X22381336Y-48977293D02*
X22381336Y-49167769D01*
X22381336Y-49167769D02*
X22428955Y-49263007D01*
X24657947Y-35929673D02*
X23657947Y-35929673D01*
X23657947Y-35929673D02*
X23657947Y-36167768D01*
X23657947Y-36167768D02*
X23705566Y-36310625D01*
X23705566Y-36310625D02*
X23800804Y-36405863D01*
X23800804Y-36405863D02*
X23896042Y-36453482D01*
X23896042Y-36453482D02*
X24086518Y-36501101D01*
X24086518Y-36501101D02*
X24229375Y-36501101D01*
X24229375Y-36501101D02*
X24419851Y-36453482D01*
X24419851Y-36453482D02*
X24515089Y-36405863D01*
X24515089Y-36405863D02*
X24610328Y-36310625D01*
X24610328Y-36310625D02*
X24657947Y-36167768D01*
X24657947Y-36167768D02*
X24657947Y-35929673D01*
X24657947Y-36929673D02*
X23657947Y-36929673D01*
X23657947Y-36929673D02*
X23657947Y-37167768D01*
X23657947Y-37167768D02*
X23705566Y-37310625D01*
X23705566Y-37310625D02*
X23800804Y-37405863D01*
X23800804Y-37405863D02*
X23896042Y-37453482D01*
X23896042Y-37453482D02*
X24086518Y-37501101D01*
X24086518Y-37501101D02*
X24229375Y-37501101D01*
X24229375Y-37501101D02*
X24419851Y-37453482D01*
X24419851Y-37453482D02*
X24515089Y-37405863D01*
X24515089Y-37405863D02*
X24610328Y-37310625D01*
X24610328Y-37310625D02*
X24657947Y-37167768D01*
X24657947Y-37167768D02*
X24657947Y-36929673D01*
X24562708Y-38501101D02*
X24610328Y-38453482D01*
X24610328Y-38453482D02*
X24657947Y-38310625D01*
X24657947Y-38310625D02*
X24657947Y-38215387D01*
X24657947Y-38215387D02*
X24610328Y-38072530D01*
X24610328Y-38072530D02*
X24515089Y-37977292D01*
X24515089Y-37977292D02*
X24419851Y-37929673D01*
X24419851Y-37929673D02*
X24229375Y-37882054D01*
X24229375Y-37882054D02*
X24086518Y-37882054D01*
X24086518Y-37882054D02*
X23896042Y-37929673D01*
X23896042Y-37929673D02*
X23800804Y-37977292D01*
X23800804Y-37977292D02*
X23705566Y-38072530D01*
X23705566Y-38072530D02*
X23657947Y-38215387D01*
X23657947Y-38215387D02*
X23657947Y-38310625D01*
X23657947Y-38310625D02*
X23705566Y-38453482D01*
X23705566Y-38453482D02*
X23753185Y-38501101D01*
X24657947Y-39453482D02*
X24657947Y-38882054D01*
X24657947Y-39167768D02*
X23657947Y-39167768D01*
X23657947Y-39167768D02*
X23800804Y-39072530D01*
X23800804Y-39072530D02*
X23896042Y-38977292D01*
X23896042Y-38977292D02*
X23943661Y-38882054D01*
X24610328Y-41072530D02*
X24657947Y-40977292D01*
X24657947Y-40977292D02*
X24657947Y-40786816D01*
X24657947Y-40786816D02*
X24610328Y-40691578D01*
X24610328Y-40691578D02*
X24562708Y-40643959D01*
X24562708Y-40643959D02*
X24467470Y-40596340D01*
X24467470Y-40596340D02*
X24181756Y-40596340D01*
X24181756Y-40596340D02*
X24086518Y-40643959D01*
X24086518Y-40643959D02*
X24038899Y-40691578D01*
X24038899Y-40691578D02*
X23991280Y-40786816D01*
X23991280Y-40786816D02*
X23991280Y-40977292D01*
X23991280Y-40977292D02*
X24038899Y-41072530D01*
X24657947Y-41643959D02*
X24610328Y-41548721D01*
X24610328Y-41548721D02*
X24562708Y-41501102D01*
X24562708Y-41501102D02*
X24467470Y-41453483D01*
X24467470Y-41453483D02*
X24181756Y-41453483D01*
X24181756Y-41453483D02*
X24086518Y-41501102D01*
X24086518Y-41501102D02*
X24038899Y-41548721D01*
X24038899Y-41548721D02*
X23991280Y-41643959D01*
X23991280Y-41643959D02*
X23991280Y-41786816D01*
X23991280Y-41786816D02*
X24038899Y-41882054D01*
X24038899Y-41882054D02*
X24086518Y-41929673D01*
X24086518Y-41929673D02*
X24181756Y-41977292D01*
X24181756Y-41977292D02*
X24467470Y-41977292D01*
X24467470Y-41977292D02*
X24562708Y-41929673D01*
X24562708Y-41929673D02*
X24610328Y-41882054D01*
X24610328Y-41882054D02*
X24657947Y-41786816D01*
X24657947Y-41786816D02*
X24657947Y-41643959D01*
X23991280Y-42405864D02*
X24657947Y-42405864D01*
X24086518Y-42405864D02*
X24038899Y-42453483D01*
X24038899Y-42453483D02*
X23991280Y-42548721D01*
X23991280Y-42548721D02*
X23991280Y-42691578D01*
X23991280Y-42691578D02*
X24038899Y-42786816D01*
X24038899Y-42786816D02*
X24134137Y-42834435D01*
X24134137Y-42834435D02*
X24657947Y-42834435D01*
X23991280Y-43167769D02*
X23991280Y-43548721D01*
X24657947Y-43310626D02*
X23800804Y-43310626D01*
X23800804Y-43310626D02*
X23705566Y-43358245D01*
X23705566Y-43358245D02*
X23657947Y-43453483D01*
X23657947Y-43453483D02*
X23657947Y-43548721D01*
X24657947Y-43882055D02*
X23991280Y-43882055D01*
X23657947Y-43882055D02*
X23705566Y-43834436D01*
X23705566Y-43834436D02*
X23753185Y-43882055D01*
X23753185Y-43882055D02*
X23705566Y-43929674D01*
X23705566Y-43929674D02*
X23657947Y-43882055D01*
X23657947Y-43882055D02*
X23753185Y-43882055D01*
X23991280Y-44786816D02*
X24800804Y-44786816D01*
X24800804Y-44786816D02*
X24896042Y-44739197D01*
X24896042Y-44739197D02*
X24943661Y-44691578D01*
X24943661Y-44691578D02*
X24991280Y-44596340D01*
X24991280Y-44596340D02*
X24991280Y-44453483D01*
X24991280Y-44453483D02*
X24943661Y-44358245D01*
X24610328Y-44786816D02*
X24657947Y-44691578D01*
X24657947Y-44691578D02*
X24657947Y-44501102D01*
X24657947Y-44501102D02*
X24610328Y-44405864D01*
X24610328Y-44405864D02*
X24562708Y-44358245D01*
X24562708Y-44358245D02*
X24467470Y-44310626D01*
X24467470Y-44310626D02*
X24181756Y-44310626D01*
X24181756Y-44310626D02*
X24086518Y-44358245D01*
X24086518Y-44358245D02*
X24038899Y-44405864D01*
X24038899Y-44405864D02*
X23991280Y-44501102D01*
X23991280Y-44501102D02*
X23991280Y-44691578D01*
X23991280Y-44691578D02*
X24038899Y-44786816D01*
X23991280Y-45691578D02*
X24657947Y-45691578D01*
X23991280Y-45263007D02*
X24515089Y-45263007D01*
X24515089Y-45263007D02*
X24610328Y-45310626D01*
X24610328Y-45310626D02*
X24657947Y-45405864D01*
X24657947Y-45405864D02*
X24657947Y-45548721D01*
X24657947Y-45548721D02*
X24610328Y-45643959D01*
X24610328Y-45643959D02*
X24562708Y-45691578D01*
X24657947Y-46167769D02*
X23991280Y-46167769D01*
X24181756Y-46167769D02*
X24086518Y-46215388D01*
X24086518Y-46215388D02*
X24038899Y-46263007D01*
X24038899Y-46263007D02*
X23991280Y-46358245D01*
X23991280Y-46358245D02*
X23991280Y-46453483D01*
X24657947Y-47215388D02*
X24134137Y-47215388D01*
X24134137Y-47215388D02*
X24038899Y-47167769D01*
X24038899Y-47167769D02*
X23991280Y-47072531D01*
X23991280Y-47072531D02*
X23991280Y-46882055D01*
X23991280Y-46882055D02*
X24038899Y-46786817D01*
X24610328Y-47215388D02*
X24657947Y-47120150D01*
X24657947Y-47120150D02*
X24657947Y-46882055D01*
X24657947Y-46882055D02*
X24610328Y-46786817D01*
X24610328Y-46786817D02*
X24515089Y-46739198D01*
X24515089Y-46739198D02*
X24419851Y-46739198D01*
X24419851Y-46739198D02*
X24324613Y-46786817D01*
X24324613Y-46786817D02*
X24276994Y-46882055D01*
X24276994Y-46882055D02*
X24276994Y-47120150D01*
X24276994Y-47120150D02*
X24229375Y-47215388D01*
X23991280Y-47548722D02*
X23991280Y-47929674D01*
X23657947Y-47691579D02*
X24515089Y-47691579D01*
X24515089Y-47691579D02*
X24610328Y-47739198D01*
X24610328Y-47739198D02*
X24657947Y-47834436D01*
X24657947Y-47834436D02*
X24657947Y-47929674D01*
X24657947Y-48263008D02*
X23991280Y-48263008D01*
X23657947Y-48263008D02*
X23705566Y-48215389D01*
X23705566Y-48215389D02*
X23753185Y-48263008D01*
X23753185Y-48263008D02*
X23705566Y-48310627D01*
X23705566Y-48310627D02*
X23657947Y-48263008D01*
X23657947Y-48263008D02*
X23753185Y-48263008D01*
X24657947Y-48882055D02*
X24610328Y-48786817D01*
X24610328Y-48786817D02*
X24562708Y-48739198D01*
X24562708Y-48739198D02*
X24467470Y-48691579D01*
X24467470Y-48691579D02*
X24181756Y-48691579D01*
X24181756Y-48691579D02*
X24086518Y-48739198D01*
X24086518Y-48739198D02*
X24038899Y-48786817D01*
X24038899Y-48786817D02*
X23991280Y-48882055D01*
X23991280Y-48882055D02*
X23991280Y-49024912D01*
X23991280Y-49024912D02*
X24038899Y-49120150D01*
X24038899Y-49120150D02*
X24086518Y-49167769D01*
X24086518Y-49167769D02*
X24181756Y-49215388D01*
X24181756Y-49215388D02*
X24467470Y-49215388D01*
X24467470Y-49215388D02*
X24562708Y-49167769D01*
X24562708Y-49167769D02*
X24610328Y-49120150D01*
X24610328Y-49120150D02*
X24657947Y-49024912D01*
X24657947Y-49024912D02*
X24657947Y-48882055D01*
X23991280Y-49643960D02*
X24657947Y-49643960D01*
X24086518Y-49643960D02*
X24038899Y-49691579D01*
X24038899Y-49691579D02*
X23991280Y-49786817D01*
X23991280Y-49786817D02*
X23991280Y-49929674D01*
X23991280Y-49929674D02*
X24038899Y-50024912D01*
X24038899Y-50024912D02*
X24134137Y-50072531D01*
X24134137Y-50072531D02*
X24657947Y-50072531D01*
X24562708Y-50548722D02*
X24610328Y-50596341D01*
X24610328Y-50596341D02*
X24657947Y-50548722D01*
X24657947Y-50548722D02*
X24610328Y-50501103D01*
X24610328Y-50501103D02*
X24562708Y-50548722D01*
X24562708Y-50548722D02*
X24657947Y-50548722D01*
X24038899Y-50548722D02*
X24086518Y-50596341D01*
X24086518Y-50596341D02*
X24134137Y-50548722D01*
X24134137Y-50548722D02*
X24086518Y-50501103D01*
X24086518Y-50501103D02*
X24038899Y-50548722D01*
X24038899Y-50548722D02*
X24134137Y-50548722D01*
X25267891Y-36215387D02*
X25982176Y-36215387D01*
X25982176Y-36215387D02*
X26125033Y-36167768D01*
X26125033Y-36167768D02*
X26220272Y-36072530D01*
X26220272Y-36072530D02*
X26267891Y-35929673D01*
X26267891Y-35929673D02*
X26267891Y-35834435D01*
X26267891Y-36691578D02*
X25267891Y-36691578D01*
X25267891Y-36691578D02*
X25267891Y-37072530D01*
X25267891Y-37072530D02*
X25315510Y-37167768D01*
X25315510Y-37167768D02*
X25363129Y-37215387D01*
X25363129Y-37215387D02*
X25458367Y-37263006D01*
X25458367Y-37263006D02*
X25601224Y-37263006D01*
X25601224Y-37263006D02*
X25696462Y-37215387D01*
X25696462Y-37215387D02*
X25744081Y-37167768D01*
X25744081Y-37167768D02*
X25791700Y-37072530D01*
X25791700Y-37072530D02*
X25791700Y-36691578D01*
X25363129Y-37643959D02*
X25315510Y-37691578D01*
X25315510Y-37691578D02*
X25267891Y-37786816D01*
X25267891Y-37786816D02*
X25267891Y-38024911D01*
X25267891Y-38024911D02*
X25315510Y-38120149D01*
X25315510Y-38120149D02*
X25363129Y-38167768D01*
X25363129Y-38167768D02*
X25458367Y-38215387D01*
X25458367Y-38215387D02*
X25553605Y-38215387D01*
X25553605Y-38215387D02*
X25696462Y-38167768D01*
X25696462Y-38167768D02*
X26267891Y-37596340D01*
X26267891Y-37596340D02*
X26267891Y-38215387D01*
X26172652Y-38643959D02*
X26220272Y-38691578D01*
X26220272Y-38691578D02*
X26267891Y-38643959D01*
X26267891Y-38643959D02*
X26220272Y-38596340D01*
X26220272Y-38596340D02*
X26172652Y-38643959D01*
X26172652Y-38643959D02*
X26267891Y-38643959D01*
X25648843Y-38643959D02*
X25696462Y-38691578D01*
X25696462Y-38691578D02*
X25744081Y-38643959D01*
X25744081Y-38643959D02*
X25696462Y-38596340D01*
X25696462Y-38596340D02*
X25648843Y-38643959D01*
X25648843Y-38643959D02*
X25744081Y-38643959D01*
X26601224Y-40167768D02*
X26601224Y-39929673D01*
X26601224Y-39929673D02*
X25172652Y-39929673D01*
X25172652Y-39929673D02*
X25172652Y-40167768D01*
X26267891Y-40548721D02*
X25267891Y-40548721D01*
X26267891Y-41024911D02*
X25267891Y-41024911D01*
X25267891Y-41024911D02*
X25267891Y-41263006D01*
X25267891Y-41263006D02*
X25315510Y-41405863D01*
X25315510Y-41405863D02*
X25410748Y-41501101D01*
X25410748Y-41501101D02*
X25505986Y-41548720D01*
X25505986Y-41548720D02*
X25696462Y-41596339D01*
X25696462Y-41596339D02*
X25839319Y-41596339D01*
X25839319Y-41596339D02*
X26029795Y-41548720D01*
X26029795Y-41548720D02*
X26125033Y-41501101D01*
X26125033Y-41501101D02*
X26220272Y-41405863D01*
X26220272Y-41405863D02*
X26267891Y-41263006D01*
X26267891Y-41263006D02*
X26267891Y-41024911D01*
X25267891Y-42215387D02*
X25267891Y-42310625D01*
X25267891Y-42310625D02*
X25315510Y-42405863D01*
X25315510Y-42405863D02*
X25363129Y-42453482D01*
X25363129Y-42453482D02*
X25458367Y-42501101D01*
X25458367Y-42501101D02*
X25648843Y-42548720D01*
X25648843Y-42548720D02*
X25886938Y-42548720D01*
X25886938Y-42548720D02*
X26077414Y-42501101D01*
X26077414Y-42501101D02*
X26172652Y-42453482D01*
X26172652Y-42453482D02*
X26220272Y-42405863D01*
X26220272Y-42405863D02*
X26267891Y-42310625D01*
X26267891Y-42310625D02*
X26267891Y-42215387D01*
X26267891Y-42215387D02*
X26220272Y-42120149D01*
X26220272Y-42120149D02*
X26172652Y-42072530D01*
X26172652Y-42072530D02*
X26077414Y-42024911D01*
X26077414Y-42024911D02*
X25886938Y-41977292D01*
X25886938Y-41977292D02*
X25648843Y-41977292D01*
X25648843Y-41977292D02*
X25458367Y-42024911D01*
X25458367Y-42024911D02*
X25363129Y-42072530D01*
X25363129Y-42072530D02*
X25315510Y-42120149D01*
X25315510Y-42120149D02*
X25267891Y-42215387D01*
X26601224Y-42882054D02*
X26601224Y-43120149D01*
X26601224Y-43120149D02*
X25172652Y-43120149D01*
X25172652Y-43120149D02*
X25172652Y-42882054D01*
X25267891Y-46215388D02*
X25982176Y-46215388D01*
X25982176Y-46215388D02*
X26125033Y-46167769D01*
X26125033Y-46167769D02*
X26220272Y-46072531D01*
X26220272Y-46072531D02*
X26267891Y-45929674D01*
X26267891Y-45929674D02*
X26267891Y-45834436D01*
X26267891Y-46691579D02*
X25267891Y-46691579D01*
X25267891Y-46691579D02*
X25267891Y-47072531D01*
X25267891Y-47072531D02*
X25315510Y-47167769D01*
X25315510Y-47167769D02*
X25363129Y-47215388D01*
X25363129Y-47215388D02*
X25458367Y-47263007D01*
X25458367Y-47263007D02*
X25601224Y-47263007D01*
X25601224Y-47263007D02*
X25696462Y-47215388D01*
X25696462Y-47215388D02*
X25744081Y-47167769D01*
X25744081Y-47167769D02*
X25791700Y-47072531D01*
X25791700Y-47072531D02*
X25791700Y-46691579D01*
X25267891Y-47596341D02*
X25267891Y-48215388D01*
X25267891Y-48215388D02*
X25648843Y-47882055D01*
X25648843Y-47882055D02*
X25648843Y-48024912D01*
X25648843Y-48024912D02*
X25696462Y-48120150D01*
X25696462Y-48120150D02*
X25744081Y-48167769D01*
X25744081Y-48167769D02*
X25839319Y-48215388D01*
X25839319Y-48215388D02*
X26077414Y-48215388D01*
X26077414Y-48215388D02*
X26172652Y-48167769D01*
X26172652Y-48167769D02*
X26220272Y-48120150D01*
X26220272Y-48120150D02*
X26267891Y-48024912D01*
X26267891Y-48024912D02*
X26267891Y-47739198D01*
X26267891Y-47739198D02*
X26220272Y-47643960D01*
X26220272Y-47643960D02*
X26172652Y-47596341D01*
X26172652Y-48643960D02*
X26220272Y-48691579D01*
X26220272Y-48691579D02*
X26267891Y-48643960D01*
X26267891Y-48643960D02*
X26220272Y-48596341D01*
X26220272Y-48596341D02*
X26172652Y-48643960D01*
X26172652Y-48643960D02*
X26267891Y-48643960D01*
X25648843Y-48643960D02*
X25696462Y-48691579D01*
X25696462Y-48691579D02*
X25744081Y-48643960D01*
X25744081Y-48643960D02*
X25696462Y-48596341D01*
X25696462Y-48596341D02*
X25648843Y-48643960D01*
X25648843Y-48643960D02*
X25744081Y-48643960D01*
X26601224Y-50167769D02*
X26601224Y-49929674D01*
X26601224Y-49929674D02*
X25172652Y-49929674D01*
X25172652Y-49929674D02*
X25172652Y-50167769D01*
X26267891Y-50548722D02*
X25267891Y-50548722D01*
X26267891Y-51024912D02*
X25267891Y-51024912D01*
X25267891Y-51024912D02*
X25267891Y-51263007D01*
X25267891Y-51263007D02*
X25315510Y-51405864D01*
X25315510Y-51405864D02*
X25410748Y-51501102D01*
X25410748Y-51501102D02*
X25505986Y-51548721D01*
X25505986Y-51548721D02*
X25696462Y-51596340D01*
X25696462Y-51596340D02*
X25839319Y-51596340D01*
X25839319Y-51596340D02*
X26029795Y-51548721D01*
X26029795Y-51548721D02*
X26125033Y-51501102D01*
X26125033Y-51501102D02*
X26220272Y-51405864D01*
X26220272Y-51405864D02*
X26267891Y-51263007D01*
X26267891Y-51263007D02*
X26267891Y-51024912D01*
X25363129Y-51977293D02*
X25315510Y-52024912D01*
X25315510Y-52024912D02*
X25267891Y-52120150D01*
X25267891Y-52120150D02*
X25267891Y-52358245D01*
X25267891Y-52358245D02*
X25315510Y-52453483D01*
X25315510Y-52453483D02*
X25363129Y-52501102D01*
X25363129Y-52501102D02*
X25458367Y-52548721D01*
X25458367Y-52548721D02*
X25553605Y-52548721D01*
X25553605Y-52548721D02*
X25696462Y-52501102D01*
X25696462Y-52501102D02*
X26267891Y-51929674D01*
X26267891Y-51929674D02*
X26267891Y-52548721D01*
X26601224Y-52882055D02*
X26601224Y-53120150D01*
X26601224Y-53120150D02*
X25172652Y-53120150D01*
X25172652Y-53120150D02*
X25172652Y-52882055D01*
X26877835Y-36215387D02*
X27592120Y-36215387D01*
X27592120Y-36215387D02*
X27734977Y-36167768D01*
X27734977Y-36167768D02*
X27830216Y-36072530D01*
X27830216Y-36072530D02*
X27877835Y-35929673D01*
X27877835Y-35929673D02*
X27877835Y-35834435D01*
X27877835Y-36691578D02*
X26877835Y-36691578D01*
X26877835Y-36691578D02*
X26877835Y-37072530D01*
X26877835Y-37072530D02*
X26925454Y-37167768D01*
X26925454Y-37167768D02*
X26973073Y-37215387D01*
X26973073Y-37215387D02*
X27068311Y-37263006D01*
X27068311Y-37263006D02*
X27211168Y-37263006D01*
X27211168Y-37263006D02*
X27306406Y-37215387D01*
X27306406Y-37215387D02*
X27354025Y-37167768D01*
X27354025Y-37167768D02*
X27401644Y-37072530D01*
X27401644Y-37072530D02*
X27401644Y-36691578D01*
X27211168Y-38120149D02*
X27877835Y-38120149D01*
X26830216Y-37882054D02*
X27544501Y-37643959D01*
X27544501Y-37643959D02*
X27544501Y-38263006D01*
X27782596Y-38643959D02*
X27830216Y-38691578D01*
X27830216Y-38691578D02*
X27877835Y-38643959D01*
X27877835Y-38643959D02*
X27830216Y-38596340D01*
X27830216Y-38596340D02*
X27782596Y-38643959D01*
X27782596Y-38643959D02*
X27877835Y-38643959D01*
X27258787Y-38643959D02*
X27306406Y-38691578D01*
X27306406Y-38691578D02*
X27354025Y-38643959D01*
X27354025Y-38643959D02*
X27306406Y-38596340D01*
X27306406Y-38596340D02*
X27258787Y-38643959D01*
X27258787Y-38643959D02*
X27354025Y-38643959D01*
X27877835Y-40643959D02*
X26877835Y-40643959D01*
X27877835Y-41120149D02*
X26877835Y-41120149D01*
X26877835Y-41120149D02*
X26877835Y-41358244D01*
X26877835Y-41358244D02*
X26925454Y-41501101D01*
X26925454Y-41501101D02*
X27020692Y-41596339D01*
X27020692Y-41596339D02*
X27115930Y-41643958D01*
X27115930Y-41643958D02*
X27306406Y-41691577D01*
X27306406Y-41691577D02*
X27449263Y-41691577D01*
X27449263Y-41691577D02*
X27639739Y-41643958D01*
X27639739Y-41643958D02*
X27734977Y-41596339D01*
X27734977Y-41596339D02*
X27830216Y-41501101D01*
X27830216Y-41501101D02*
X27877835Y-41358244D01*
X27877835Y-41358244D02*
X27877835Y-41120149D01*
X27877835Y-42643958D02*
X27877835Y-42072530D01*
X27877835Y-42358244D02*
X26877835Y-42358244D01*
X26877835Y-42358244D02*
X27020692Y-42263006D01*
X27020692Y-42263006D02*
X27115930Y-42167768D01*
X27115930Y-42167768D02*
X27163549Y-42072530D01*
X26877835Y-46405864D02*
X27592120Y-46405864D01*
X27592120Y-46405864D02*
X27734977Y-46358245D01*
X27734977Y-46358245D02*
X27830216Y-46263007D01*
X27830216Y-46263007D02*
X27877835Y-46120150D01*
X27877835Y-46120150D02*
X27877835Y-46024912D01*
X27877835Y-46882055D02*
X26877835Y-46882055D01*
X26877835Y-46882055D02*
X26877835Y-47263007D01*
X26877835Y-47263007D02*
X26925454Y-47358245D01*
X26925454Y-47358245D02*
X26973073Y-47405864D01*
X26973073Y-47405864D02*
X27068311Y-47453483D01*
X27068311Y-47453483D02*
X27211168Y-47453483D01*
X27211168Y-47453483D02*
X27306406Y-47405864D01*
X27306406Y-47405864D02*
X27354025Y-47358245D01*
X27354025Y-47358245D02*
X27401644Y-47263007D01*
X27401644Y-47263007D02*
X27401644Y-46882055D01*
X26877835Y-48358245D02*
X26877835Y-47882055D01*
X26877835Y-47882055D02*
X27354025Y-47834436D01*
X27354025Y-47834436D02*
X27306406Y-47882055D01*
X27306406Y-47882055D02*
X27258787Y-47977293D01*
X27258787Y-47977293D02*
X27258787Y-48215388D01*
X27258787Y-48215388D02*
X27306406Y-48310626D01*
X27306406Y-48310626D02*
X27354025Y-48358245D01*
X27354025Y-48358245D02*
X27449263Y-48405864D01*
X27449263Y-48405864D02*
X27687358Y-48405864D01*
X27687358Y-48405864D02*
X27782596Y-48358245D01*
X27782596Y-48358245D02*
X27830216Y-48310626D01*
X27830216Y-48310626D02*
X27877835Y-48215388D01*
X27877835Y-48215388D02*
X27877835Y-47977293D01*
X27877835Y-47977293D02*
X27830216Y-47882055D01*
X27830216Y-47882055D02*
X27782596Y-47834436D01*
X27782596Y-48834436D02*
X27830216Y-48882055D01*
X27830216Y-48882055D02*
X27877835Y-48834436D01*
X27877835Y-48834436D02*
X27830216Y-48786817D01*
X27830216Y-48786817D02*
X27782596Y-48834436D01*
X27782596Y-48834436D02*
X27877835Y-48834436D01*
X27258787Y-48834436D02*
X27306406Y-48882055D01*
X27306406Y-48882055D02*
X27354025Y-48834436D01*
X27354025Y-48834436D02*
X27306406Y-48786817D01*
X27306406Y-48786817D02*
X27258787Y-48834436D01*
X27258787Y-48834436D02*
X27354025Y-48834436D01*
X27877835Y-50834436D02*
X26877835Y-50834436D01*
X27877835Y-51310626D02*
X26877835Y-51310626D01*
X26877835Y-51310626D02*
X26877835Y-51548721D01*
X26877835Y-51548721D02*
X26925454Y-51691578D01*
X26925454Y-51691578D02*
X27020692Y-51786816D01*
X27020692Y-51786816D02*
X27115930Y-51834435D01*
X27115930Y-51834435D02*
X27306406Y-51882054D01*
X27306406Y-51882054D02*
X27449263Y-51882054D01*
X27449263Y-51882054D02*
X27639739Y-51834435D01*
X27639739Y-51834435D02*
X27734977Y-51786816D01*
X27734977Y-51786816D02*
X27830216Y-51691578D01*
X27830216Y-51691578D02*
X27877835Y-51548721D01*
X27877835Y-51548721D02*
X27877835Y-51310626D01*
X26877835Y-52215388D02*
X26877835Y-52834435D01*
X26877835Y-52834435D02*
X27258787Y-52501102D01*
X27258787Y-52501102D02*
X27258787Y-52643959D01*
X27258787Y-52643959D02*
X27306406Y-52739197D01*
X27306406Y-52739197D02*
X27354025Y-52786816D01*
X27354025Y-52786816D02*
X27449263Y-52834435D01*
X27449263Y-52834435D02*
X27687358Y-52834435D01*
X27687358Y-52834435D02*
X27782596Y-52786816D01*
X27782596Y-52786816D02*
X27830216Y-52739197D01*
X27830216Y-52739197D02*
X27877835Y-52643959D01*
X27877835Y-52643959D02*
X27877835Y-52358245D01*
X27877835Y-52358245D02*
X27830216Y-52263007D01*
X27830216Y-52263007D02*
X27782596Y-52215388D01*
X30097723Y-36215387D02*
X30812008Y-36215387D01*
X30812008Y-36215387D02*
X30954865Y-36167768D01*
X30954865Y-36167768D02*
X31050104Y-36072530D01*
X31050104Y-36072530D02*
X31097723Y-35929673D01*
X31097723Y-35929673D02*
X31097723Y-35834435D01*
X31097723Y-37215387D02*
X31097723Y-36643959D01*
X31097723Y-36929673D02*
X30097723Y-36929673D01*
X30097723Y-36929673D02*
X30240580Y-36834435D01*
X30240580Y-36834435D02*
X30335818Y-36739197D01*
X30335818Y-36739197D02*
X30383437Y-36643959D01*
X31002484Y-37643959D02*
X31050104Y-37691578D01*
X31050104Y-37691578D02*
X31097723Y-37643959D01*
X31097723Y-37643959D02*
X31050104Y-37596340D01*
X31050104Y-37596340D02*
X31002484Y-37643959D01*
X31002484Y-37643959D02*
X31097723Y-37643959D01*
X30478675Y-37643959D02*
X30526294Y-37691578D01*
X30526294Y-37691578D02*
X30573913Y-37643959D01*
X30573913Y-37643959D02*
X30526294Y-37596340D01*
X30526294Y-37596340D02*
X30478675Y-37643959D01*
X30478675Y-37643959D02*
X30573913Y-37643959D01*
X31050104Y-38834435D02*
X31097723Y-38977292D01*
X31097723Y-38977292D02*
X31097723Y-39215387D01*
X31097723Y-39215387D02*
X31050104Y-39310625D01*
X31050104Y-39310625D02*
X31002484Y-39358244D01*
X31002484Y-39358244D02*
X30907246Y-39405863D01*
X30907246Y-39405863D02*
X30812008Y-39405863D01*
X30812008Y-39405863D02*
X30716770Y-39358244D01*
X30716770Y-39358244D02*
X30669151Y-39310625D01*
X30669151Y-39310625D02*
X30621532Y-39215387D01*
X30621532Y-39215387D02*
X30573913Y-39024911D01*
X30573913Y-39024911D02*
X30526294Y-38929673D01*
X30526294Y-38929673D02*
X30478675Y-38882054D01*
X30478675Y-38882054D02*
X30383437Y-38834435D01*
X30383437Y-38834435D02*
X30288199Y-38834435D01*
X30288199Y-38834435D02*
X30192961Y-38882054D01*
X30192961Y-38882054D02*
X30145342Y-38929673D01*
X30145342Y-38929673D02*
X30097723Y-39024911D01*
X30097723Y-39024911D02*
X30097723Y-39263006D01*
X30097723Y-39263006D02*
X30145342Y-39405863D01*
X31097723Y-39834435D02*
X30431056Y-39834435D01*
X30097723Y-39834435D02*
X30145342Y-39786816D01*
X30145342Y-39786816D02*
X30192961Y-39834435D01*
X30192961Y-39834435D02*
X30145342Y-39882054D01*
X30145342Y-39882054D02*
X30097723Y-39834435D01*
X30097723Y-39834435D02*
X30192961Y-39834435D01*
X30431056Y-40739196D02*
X31240580Y-40739196D01*
X31240580Y-40739196D02*
X31335818Y-40691577D01*
X31335818Y-40691577D02*
X31383437Y-40643958D01*
X31383437Y-40643958D02*
X31431056Y-40548720D01*
X31431056Y-40548720D02*
X31431056Y-40405863D01*
X31431056Y-40405863D02*
X31383437Y-40310625D01*
X31050104Y-40739196D02*
X31097723Y-40643958D01*
X31097723Y-40643958D02*
X31097723Y-40453482D01*
X31097723Y-40453482D02*
X31050104Y-40358244D01*
X31050104Y-40358244D02*
X31002484Y-40310625D01*
X31002484Y-40310625D02*
X30907246Y-40263006D01*
X30907246Y-40263006D02*
X30621532Y-40263006D01*
X30621532Y-40263006D02*
X30526294Y-40310625D01*
X30526294Y-40310625D02*
X30478675Y-40358244D01*
X30478675Y-40358244D02*
X30431056Y-40453482D01*
X30431056Y-40453482D02*
X30431056Y-40643958D01*
X30431056Y-40643958D02*
X30478675Y-40739196D01*
X30431056Y-41215387D02*
X31097723Y-41215387D01*
X30526294Y-41215387D02*
X30478675Y-41263006D01*
X30478675Y-41263006D02*
X30431056Y-41358244D01*
X30431056Y-41358244D02*
X30431056Y-41501101D01*
X30431056Y-41501101D02*
X30478675Y-41596339D01*
X30478675Y-41596339D02*
X30573913Y-41643958D01*
X30573913Y-41643958D02*
X31097723Y-41643958D01*
X31097723Y-42548720D02*
X30573913Y-42548720D01*
X30573913Y-42548720D02*
X30478675Y-42501101D01*
X30478675Y-42501101D02*
X30431056Y-42405863D01*
X30431056Y-42405863D02*
X30431056Y-42215387D01*
X30431056Y-42215387D02*
X30478675Y-42120149D01*
X31050104Y-42548720D02*
X31097723Y-42453482D01*
X31097723Y-42453482D02*
X31097723Y-42215387D01*
X31097723Y-42215387D02*
X31050104Y-42120149D01*
X31050104Y-42120149D02*
X30954865Y-42072530D01*
X30954865Y-42072530D02*
X30859627Y-42072530D01*
X30859627Y-42072530D02*
X30764389Y-42120149D01*
X30764389Y-42120149D02*
X30716770Y-42215387D01*
X30716770Y-42215387D02*
X30716770Y-42453482D01*
X30716770Y-42453482D02*
X30669151Y-42548720D01*
X31097723Y-43167768D02*
X31050104Y-43072530D01*
X31050104Y-43072530D02*
X30954865Y-43024911D01*
X30954865Y-43024911D02*
X30097723Y-43024911D01*
X31050104Y-44263007D02*
X31097723Y-44358245D01*
X31097723Y-44358245D02*
X31097723Y-44548721D01*
X31097723Y-44548721D02*
X31050104Y-44643959D01*
X31050104Y-44643959D02*
X30954865Y-44691578D01*
X30954865Y-44691578D02*
X30907246Y-44691578D01*
X30907246Y-44691578D02*
X30812008Y-44643959D01*
X30812008Y-44643959D02*
X30764389Y-44548721D01*
X30764389Y-44548721D02*
X30764389Y-44405864D01*
X30764389Y-44405864D02*
X30716770Y-44310626D01*
X30716770Y-44310626D02*
X30621532Y-44263007D01*
X30621532Y-44263007D02*
X30573913Y-44263007D01*
X30573913Y-44263007D02*
X30478675Y-44310626D01*
X30478675Y-44310626D02*
X30431056Y-44405864D01*
X30431056Y-44405864D02*
X30431056Y-44548721D01*
X30431056Y-44548721D02*
X30478675Y-44643959D01*
X31097723Y-45263007D02*
X31050104Y-45167769D01*
X31050104Y-45167769D02*
X31002484Y-45120150D01*
X31002484Y-45120150D02*
X30907246Y-45072531D01*
X30907246Y-45072531D02*
X30621532Y-45072531D01*
X30621532Y-45072531D02*
X30526294Y-45120150D01*
X30526294Y-45120150D02*
X30478675Y-45167769D01*
X30478675Y-45167769D02*
X30431056Y-45263007D01*
X30431056Y-45263007D02*
X30431056Y-45405864D01*
X30431056Y-45405864D02*
X30478675Y-45501102D01*
X30478675Y-45501102D02*
X30526294Y-45548721D01*
X30526294Y-45548721D02*
X30621532Y-45596340D01*
X30621532Y-45596340D02*
X30907246Y-45596340D01*
X30907246Y-45596340D02*
X31002484Y-45548721D01*
X31002484Y-45548721D02*
X31050104Y-45501102D01*
X31050104Y-45501102D02*
X31097723Y-45405864D01*
X31097723Y-45405864D02*
X31097723Y-45263007D01*
X30431056Y-46453483D02*
X31097723Y-46453483D01*
X30431056Y-46024912D02*
X30954865Y-46024912D01*
X30954865Y-46024912D02*
X31050104Y-46072531D01*
X31050104Y-46072531D02*
X31097723Y-46167769D01*
X31097723Y-46167769D02*
X31097723Y-46310626D01*
X31097723Y-46310626D02*
X31050104Y-46405864D01*
X31050104Y-46405864D02*
X31002484Y-46453483D01*
X31097723Y-46929674D02*
X30431056Y-46929674D01*
X30621532Y-46929674D02*
X30526294Y-46977293D01*
X30526294Y-46977293D02*
X30478675Y-47024912D01*
X30478675Y-47024912D02*
X30431056Y-47120150D01*
X30431056Y-47120150D02*
X30431056Y-47215388D01*
X31050104Y-47977293D02*
X31097723Y-47882055D01*
X31097723Y-47882055D02*
X31097723Y-47691579D01*
X31097723Y-47691579D02*
X31050104Y-47596341D01*
X31050104Y-47596341D02*
X31002484Y-47548722D01*
X31002484Y-47548722D02*
X30907246Y-47501103D01*
X30907246Y-47501103D02*
X30621532Y-47501103D01*
X30621532Y-47501103D02*
X30526294Y-47548722D01*
X30526294Y-47548722D02*
X30478675Y-47596341D01*
X30478675Y-47596341D02*
X30431056Y-47691579D01*
X30431056Y-47691579D02*
X30431056Y-47882055D01*
X30431056Y-47882055D02*
X30478675Y-47977293D01*
X31050104Y-48786817D02*
X31097723Y-48691579D01*
X31097723Y-48691579D02*
X31097723Y-48501103D01*
X31097723Y-48501103D02*
X31050104Y-48405865D01*
X31050104Y-48405865D02*
X30954865Y-48358246D01*
X30954865Y-48358246D02*
X30573913Y-48358246D01*
X30573913Y-48358246D02*
X30478675Y-48405865D01*
X30478675Y-48405865D02*
X30431056Y-48501103D01*
X30431056Y-48501103D02*
X30431056Y-48691579D01*
X30431056Y-48691579D02*
X30478675Y-48786817D01*
X30478675Y-48786817D02*
X30573913Y-48834436D01*
X30573913Y-48834436D02*
X30669151Y-48834436D01*
X30669151Y-48834436D02*
X30764389Y-48358246D01*
X31707667Y-36215387D02*
X32421952Y-36215387D01*
X32421952Y-36215387D02*
X32564809Y-36167768D01*
X32564809Y-36167768D02*
X32660048Y-36072530D01*
X32660048Y-36072530D02*
X32707667Y-35929673D01*
X32707667Y-35929673D02*
X32707667Y-35834435D01*
X31802905Y-36643959D02*
X31755286Y-36691578D01*
X31755286Y-36691578D02*
X31707667Y-36786816D01*
X31707667Y-36786816D02*
X31707667Y-37024911D01*
X31707667Y-37024911D02*
X31755286Y-37120149D01*
X31755286Y-37120149D02*
X31802905Y-37167768D01*
X31802905Y-37167768D02*
X31898143Y-37215387D01*
X31898143Y-37215387D02*
X31993381Y-37215387D01*
X31993381Y-37215387D02*
X32136238Y-37167768D01*
X32136238Y-37167768D02*
X32707667Y-36596340D01*
X32707667Y-36596340D02*
X32707667Y-37215387D01*
X32612428Y-37643959D02*
X32660048Y-37691578D01*
X32660048Y-37691578D02*
X32707667Y-37643959D01*
X32707667Y-37643959D02*
X32660048Y-37596340D01*
X32660048Y-37596340D02*
X32612428Y-37643959D01*
X32612428Y-37643959D02*
X32707667Y-37643959D01*
X32088619Y-37643959D02*
X32136238Y-37691578D01*
X32136238Y-37691578D02*
X32183857Y-37643959D01*
X32183857Y-37643959D02*
X32136238Y-37596340D01*
X32136238Y-37596340D02*
X32088619Y-37643959D01*
X32088619Y-37643959D02*
X32183857Y-37643959D01*
X32660048Y-38834435D02*
X32707667Y-38977292D01*
X32707667Y-38977292D02*
X32707667Y-39215387D01*
X32707667Y-39215387D02*
X32660048Y-39310625D01*
X32660048Y-39310625D02*
X32612428Y-39358244D01*
X32612428Y-39358244D02*
X32517190Y-39405863D01*
X32517190Y-39405863D02*
X32421952Y-39405863D01*
X32421952Y-39405863D02*
X32326714Y-39358244D01*
X32326714Y-39358244D02*
X32279095Y-39310625D01*
X32279095Y-39310625D02*
X32231476Y-39215387D01*
X32231476Y-39215387D02*
X32183857Y-39024911D01*
X32183857Y-39024911D02*
X32136238Y-38929673D01*
X32136238Y-38929673D02*
X32088619Y-38882054D01*
X32088619Y-38882054D02*
X31993381Y-38834435D01*
X31993381Y-38834435D02*
X31898143Y-38834435D01*
X31898143Y-38834435D02*
X31802905Y-38882054D01*
X31802905Y-38882054D02*
X31755286Y-38929673D01*
X31755286Y-38929673D02*
X31707667Y-39024911D01*
X31707667Y-39024911D02*
X31707667Y-39263006D01*
X31707667Y-39263006D02*
X31755286Y-39405863D01*
X32707667Y-39834435D02*
X32041000Y-39834435D01*
X31707667Y-39834435D02*
X31755286Y-39786816D01*
X31755286Y-39786816D02*
X31802905Y-39834435D01*
X31802905Y-39834435D02*
X31755286Y-39882054D01*
X31755286Y-39882054D02*
X31707667Y-39834435D01*
X31707667Y-39834435D02*
X31802905Y-39834435D01*
X32041000Y-40739196D02*
X32850524Y-40739196D01*
X32850524Y-40739196D02*
X32945762Y-40691577D01*
X32945762Y-40691577D02*
X32993381Y-40643958D01*
X32993381Y-40643958D02*
X33041000Y-40548720D01*
X33041000Y-40548720D02*
X33041000Y-40405863D01*
X33041000Y-40405863D02*
X32993381Y-40310625D01*
X32660048Y-40739196D02*
X32707667Y-40643958D01*
X32707667Y-40643958D02*
X32707667Y-40453482D01*
X32707667Y-40453482D02*
X32660048Y-40358244D01*
X32660048Y-40358244D02*
X32612428Y-40310625D01*
X32612428Y-40310625D02*
X32517190Y-40263006D01*
X32517190Y-40263006D02*
X32231476Y-40263006D01*
X32231476Y-40263006D02*
X32136238Y-40310625D01*
X32136238Y-40310625D02*
X32088619Y-40358244D01*
X32088619Y-40358244D02*
X32041000Y-40453482D01*
X32041000Y-40453482D02*
X32041000Y-40643958D01*
X32041000Y-40643958D02*
X32088619Y-40739196D01*
X32041000Y-41215387D02*
X32707667Y-41215387D01*
X32136238Y-41215387D02*
X32088619Y-41263006D01*
X32088619Y-41263006D02*
X32041000Y-41358244D01*
X32041000Y-41358244D02*
X32041000Y-41501101D01*
X32041000Y-41501101D02*
X32088619Y-41596339D01*
X32088619Y-41596339D02*
X32183857Y-41643958D01*
X32183857Y-41643958D02*
X32707667Y-41643958D01*
X32707667Y-42548720D02*
X32183857Y-42548720D01*
X32183857Y-42548720D02*
X32088619Y-42501101D01*
X32088619Y-42501101D02*
X32041000Y-42405863D01*
X32041000Y-42405863D02*
X32041000Y-42215387D01*
X32041000Y-42215387D02*
X32088619Y-42120149D01*
X32660048Y-42548720D02*
X32707667Y-42453482D01*
X32707667Y-42453482D02*
X32707667Y-42215387D01*
X32707667Y-42215387D02*
X32660048Y-42120149D01*
X32660048Y-42120149D02*
X32564809Y-42072530D01*
X32564809Y-42072530D02*
X32469571Y-42072530D01*
X32469571Y-42072530D02*
X32374333Y-42120149D01*
X32374333Y-42120149D02*
X32326714Y-42215387D01*
X32326714Y-42215387D02*
X32326714Y-42453482D01*
X32326714Y-42453482D02*
X32279095Y-42548720D01*
X32707667Y-43167768D02*
X32660048Y-43072530D01*
X32660048Y-43072530D02*
X32564809Y-43024911D01*
X32564809Y-43024911D02*
X31707667Y-43024911D01*
X32660048Y-44263007D02*
X32707667Y-44358245D01*
X32707667Y-44358245D02*
X32707667Y-44548721D01*
X32707667Y-44548721D02*
X32660048Y-44643959D01*
X32660048Y-44643959D02*
X32564809Y-44691578D01*
X32564809Y-44691578D02*
X32517190Y-44691578D01*
X32517190Y-44691578D02*
X32421952Y-44643959D01*
X32421952Y-44643959D02*
X32374333Y-44548721D01*
X32374333Y-44548721D02*
X32374333Y-44405864D01*
X32374333Y-44405864D02*
X32326714Y-44310626D01*
X32326714Y-44310626D02*
X32231476Y-44263007D01*
X32231476Y-44263007D02*
X32183857Y-44263007D01*
X32183857Y-44263007D02*
X32088619Y-44310626D01*
X32088619Y-44310626D02*
X32041000Y-44405864D01*
X32041000Y-44405864D02*
X32041000Y-44548721D01*
X32041000Y-44548721D02*
X32088619Y-44643959D01*
X32707667Y-45120150D02*
X32041000Y-45120150D01*
X31707667Y-45120150D02*
X31755286Y-45072531D01*
X31755286Y-45072531D02*
X31802905Y-45120150D01*
X31802905Y-45120150D02*
X31755286Y-45167769D01*
X31755286Y-45167769D02*
X31707667Y-45120150D01*
X31707667Y-45120150D02*
X31802905Y-45120150D01*
X32041000Y-45596340D02*
X32707667Y-45596340D01*
X32136238Y-45596340D02*
X32088619Y-45643959D01*
X32088619Y-45643959D02*
X32041000Y-45739197D01*
X32041000Y-45739197D02*
X32041000Y-45882054D01*
X32041000Y-45882054D02*
X32088619Y-45977292D01*
X32088619Y-45977292D02*
X32183857Y-46024911D01*
X32183857Y-46024911D02*
X32707667Y-46024911D01*
X32707667Y-46501102D02*
X31707667Y-46501102D01*
X32326714Y-46596340D02*
X32707667Y-46882054D01*
X32041000Y-46882054D02*
X32421952Y-46501102D01*
X33317611Y-36215387D02*
X34031896Y-36215387D01*
X34031896Y-36215387D02*
X34174753Y-36167768D01*
X34174753Y-36167768D02*
X34269992Y-36072530D01*
X34269992Y-36072530D02*
X34317611Y-35929673D01*
X34317611Y-35929673D02*
X34317611Y-35834435D01*
X33317611Y-36596340D02*
X33317611Y-37215387D01*
X33317611Y-37215387D02*
X33698563Y-36882054D01*
X33698563Y-36882054D02*
X33698563Y-37024911D01*
X33698563Y-37024911D02*
X33746182Y-37120149D01*
X33746182Y-37120149D02*
X33793801Y-37167768D01*
X33793801Y-37167768D02*
X33889039Y-37215387D01*
X33889039Y-37215387D02*
X34127134Y-37215387D01*
X34127134Y-37215387D02*
X34222372Y-37167768D01*
X34222372Y-37167768D02*
X34269992Y-37120149D01*
X34269992Y-37120149D02*
X34317611Y-37024911D01*
X34317611Y-37024911D02*
X34317611Y-36739197D01*
X34317611Y-36739197D02*
X34269992Y-36643959D01*
X34269992Y-36643959D02*
X34222372Y-36596340D01*
X34222372Y-37643959D02*
X34269992Y-37691578D01*
X34269992Y-37691578D02*
X34317611Y-37643959D01*
X34317611Y-37643959D02*
X34269992Y-37596340D01*
X34269992Y-37596340D02*
X34222372Y-37643959D01*
X34222372Y-37643959D02*
X34317611Y-37643959D01*
X33698563Y-37643959D02*
X33746182Y-37691578D01*
X33746182Y-37691578D02*
X33793801Y-37643959D01*
X33793801Y-37643959D02*
X33746182Y-37596340D01*
X33746182Y-37596340D02*
X33698563Y-37643959D01*
X33698563Y-37643959D02*
X33793801Y-37643959D01*
X34317611Y-38882054D02*
X33317611Y-38882054D01*
X33317611Y-38882054D02*
X33317611Y-39120149D01*
X33317611Y-39120149D02*
X33365230Y-39263006D01*
X33365230Y-39263006D02*
X33460468Y-39358244D01*
X33460468Y-39358244D02*
X33555706Y-39405863D01*
X33555706Y-39405863D02*
X33746182Y-39453482D01*
X33746182Y-39453482D02*
X33889039Y-39453482D01*
X33889039Y-39453482D02*
X34079515Y-39405863D01*
X34079515Y-39405863D02*
X34174753Y-39358244D01*
X34174753Y-39358244D02*
X34269992Y-39263006D01*
X34269992Y-39263006D02*
X34317611Y-39120149D01*
X34317611Y-39120149D02*
X34317611Y-38882054D01*
X34317611Y-39882054D02*
X33317611Y-39882054D01*
X33317611Y-39882054D02*
X33317611Y-40120149D01*
X33317611Y-40120149D02*
X33365230Y-40263006D01*
X33365230Y-40263006D02*
X33460468Y-40358244D01*
X33460468Y-40358244D02*
X33555706Y-40405863D01*
X33555706Y-40405863D02*
X33746182Y-40453482D01*
X33746182Y-40453482D02*
X33889039Y-40453482D01*
X33889039Y-40453482D02*
X34079515Y-40405863D01*
X34079515Y-40405863D02*
X34174753Y-40358244D01*
X34174753Y-40358244D02*
X34269992Y-40263006D01*
X34269992Y-40263006D02*
X34317611Y-40120149D01*
X34317611Y-40120149D02*
X34317611Y-39882054D01*
X34222372Y-41453482D02*
X34269992Y-41405863D01*
X34269992Y-41405863D02*
X34317611Y-41263006D01*
X34317611Y-41263006D02*
X34317611Y-41167768D01*
X34317611Y-41167768D02*
X34269992Y-41024911D01*
X34269992Y-41024911D02*
X34174753Y-40929673D01*
X34174753Y-40929673D02*
X34079515Y-40882054D01*
X34079515Y-40882054D02*
X33889039Y-40834435D01*
X33889039Y-40834435D02*
X33746182Y-40834435D01*
X33746182Y-40834435D02*
X33555706Y-40882054D01*
X33555706Y-40882054D02*
X33460468Y-40929673D01*
X33460468Y-40929673D02*
X33365230Y-41024911D01*
X33365230Y-41024911D02*
X33317611Y-41167768D01*
X33317611Y-41167768D02*
X33317611Y-41263006D01*
X33317611Y-41263006D02*
X33365230Y-41405863D01*
X33365230Y-41405863D02*
X33412849Y-41453482D01*
X33412849Y-41834435D02*
X33365230Y-41882054D01*
X33365230Y-41882054D02*
X33317611Y-41977292D01*
X33317611Y-41977292D02*
X33317611Y-42215387D01*
X33317611Y-42215387D02*
X33365230Y-42310625D01*
X33365230Y-42310625D02*
X33412849Y-42358244D01*
X33412849Y-42358244D02*
X33508087Y-42405863D01*
X33508087Y-42405863D02*
X33603325Y-42405863D01*
X33603325Y-42405863D02*
X33746182Y-42358244D01*
X33746182Y-42358244D02*
X34317611Y-41786816D01*
X34317611Y-41786816D02*
X34317611Y-42405863D01*
X34317611Y-43596340D02*
X33317611Y-43596340D01*
X33079515Y-44024911D02*
X33031896Y-44120149D01*
X33031896Y-44120149D02*
X33031896Y-44263006D01*
X33031896Y-44263006D02*
X33079515Y-44358244D01*
X33079515Y-44358244D02*
X33174753Y-44405863D01*
X33174753Y-44405863D02*
X33269992Y-44405863D01*
X33269992Y-44405863D02*
X33365230Y-44358244D01*
X33365230Y-44358244D02*
X33698563Y-44024911D01*
X33698563Y-44024911D02*
X33698563Y-44405863D01*
X34222372Y-45405863D02*
X34269992Y-45358244D01*
X34269992Y-45358244D02*
X34317611Y-45215387D01*
X34317611Y-45215387D02*
X34317611Y-45120149D01*
X34317611Y-45120149D02*
X34269992Y-44977292D01*
X34269992Y-44977292D02*
X34174753Y-44882054D01*
X34174753Y-44882054D02*
X34079515Y-44834435D01*
X34079515Y-44834435D02*
X33889039Y-44786816D01*
X33889039Y-44786816D02*
X33746182Y-44786816D01*
X33746182Y-44786816D02*
X33555706Y-44834435D01*
X33555706Y-44834435D02*
X33460468Y-44882054D01*
X33460468Y-44882054D02*
X33365230Y-44977292D01*
X33365230Y-44977292D02*
X33317611Y-45120149D01*
X33317611Y-45120149D02*
X33317611Y-45215387D01*
X33317611Y-45215387D02*
X33365230Y-45358244D01*
X33365230Y-45358244D02*
X33412849Y-45405863D01*
X34317611Y-46596340D02*
X33317611Y-46596340D01*
X33698563Y-46596340D02*
X33650944Y-46691578D01*
X33650944Y-46691578D02*
X33650944Y-46882054D01*
X33650944Y-46882054D02*
X33698563Y-46977292D01*
X33698563Y-46977292D02*
X33746182Y-47024911D01*
X33746182Y-47024911D02*
X33841420Y-47072530D01*
X33841420Y-47072530D02*
X34127134Y-47072530D01*
X34127134Y-47072530D02*
X34222372Y-47024911D01*
X34222372Y-47024911D02*
X34269992Y-46977292D01*
X34269992Y-46977292D02*
X34317611Y-46882054D01*
X34317611Y-46882054D02*
X34317611Y-46691578D01*
X34317611Y-46691578D02*
X34269992Y-46596340D01*
X33650944Y-47929673D02*
X34317611Y-47929673D01*
X33650944Y-47501102D02*
X34174753Y-47501102D01*
X34174753Y-47501102D02*
X34269992Y-47548721D01*
X34269992Y-47548721D02*
X34317611Y-47643959D01*
X34317611Y-47643959D02*
X34317611Y-47786816D01*
X34317611Y-47786816D02*
X34269992Y-47882054D01*
X34269992Y-47882054D02*
X34222372Y-47929673D01*
X34269992Y-48358245D02*
X34317611Y-48453483D01*
X34317611Y-48453483D02*
X34317611Y-48643959D01*
X34317611Y-48643959D02*
X34269992Y-48739197D01*
X34269992Y-48739197D02*
X34174753Y-48786816D01*
X34174753Y-48786816D02*
X34127134Y-48786816D01*
X34127134Y-48786816D02*
X34031896Y-48739197D01*
X34031896Y-48739197D02*
X33984277Y-48643959D01*
X33984277Y-48643959D02*
X33984277Y-48501102D01*
X33984277Y-48501102D02*
X33936658Y-48405864D01*
X33936658Y-48405864D02*
X33841420Y-48358245D01*
X33841420Y-48358245D02*
X33793801Y-48358245D01*
X33793801Y-48358245D02*
X33698563Y-48405864D01*
X33698563Y-48405864D02*
X33650944Y-48501102D01*
X33650944Y-48501102D02*
X33650944Y-48643959D01*
X33650944Y-48643959D02*
X33698563Y-48739197D01*
X35927555Y-36453482D02*
X35927555Y-35882054D01*
X35927555Y-36167768D02*
X34927555Y-36167768D01*
X34927555Y-36167768D02*
X35070412Y-36072530D01*
X35070412Y-36072530D02*
X35165650Y-35977292D01*
X35165650Y-35977292D02*
X35213269Y-35882054D01*
X35832316Y-36882054D02*
X35879936Y-36929673D01*
X35879936Y-36929673D02*
X35927555Y-36882054D01*
X35927555Y-36882054D02*
X35879936Y-36834435D01*
X35879936Y-36834435D02*
X35832316Y-36882054D01*
X35832316Y-36882054D02*
X35927555Y-36882054D01*
X35308507Y-36882054D02*
X35356126Y-36929673D01*
X35356126Y-36929673D02*
X35403745Y-36882054D01*
X35403745Y-36882054D02*
X35356126Y-36834435D01*
X35356126Y-36834435D02*
X35308507Y-36882054D01*
X35308507Y-36882054D02*
X35403745Y-36882054D01*
X34927555Y-37977292D02*
X35927555Y-38310625D01*
X35927555Y-38310625D02*
X34927555Y-38643958D01*
X35832316Y-39548720D02*
X35879936Y-39501101D01*
X35879936Y-39501101D02*
X35927555Y-39358244D01*
X35927555Y-39358244D02*
X35927555Y-39263006D01*
X35927555Y-39263006D02*
X35879936Y-39120149D01*
X35879936Y-39120149D02*
X35784697Y-39024911D01*
X35784697Y-39024911D02*
X35689459Y-38977292D01*
X35689459Y-38977292D02*
X35498983Y-38929673D01*
X35498983Y-38929673D02*
X35356126Y-38929673D01*
X35356126Y-38929673D02*
X35165650Y-38977292D01*
X35165650Y-38977292D02*
X35070412Y-39024911D01*
X35070412Y-39024911D02*
X34975174Y-39120149D01*
X34975174Y-39120149D02*
X34927555Y-39263006D01*
X34927555Y-39263006D02*
X34927555Y-39358244D01*
X34927555Y-39358244D02*
X34975174Y-39501101D01*
X34975174Y-39501101D02*
X35022793Y-39548720D01*
X35832316Y-40548720D02*
X35879936Y-40501101D01*
X35879936Y-40501101D02*
X35927555Y-40358244D01*
X35927555Y-40358244D02*
X35927555Y-40263006D01*
X35927555Y-40263006D02*
X35879936Y-40120149D01*
X35879936Y-40120149D02*
X35784697Y-40024911D01*
X35784697Y-40024911D02*
X35689459Y-39977292D01*
X35689459Y-39977292D02*
X35498983Y-39929673D01*
X35498983Y-39929673D02*
X35356126Y-39929673D01*
X35356126Y-39929673D02*
X35165650Y-39977292D01*
X35165650Y-39977292D02*
X35070412Y-40024911D01*
X35070412Y-40024911D02*
X34975174Y-40120149D01*
X34975174Y-40120149D02*
X34927555Y-40263006D01*
X34927555Y-40263006D02*
X34927555Y-40358244D01*
X34927555Y-40358244D02*
X34975174Y-40501101D01*
X34975174Y-40501101D02*
X35022793Y-40548720D01*
X35022793Y-43215388D02*
X34975174Y-43263007D01*
X34975174Y-43263007D02*
X34927555Y-43358245D01*
X34927555Y-43358245D02*
X34927555Y-43596340D01*
X34927555Y-43596340D02*
X34975174Y-43691578D01*
X34975174Y-43691578D02*
X35022793Y-43739197D01*
X35022793Y-43739197D02*
X35118031Y-43786816D01*
X35118031Y-43786816D02*
X35213269Y-43786816D01*
X35213269Y-43786816D02*
X35356126Y-43739197D01*
X35356126Y-43739197D02*
X35927555Y-43167769D01*
X35927555Y-43167769D02*
X35927555Y-43786816D01*
X35832316Y-44215388D02*
X35879936Y-44263007D01*
X35879936Y-44263007D02*
X35927555Y-44215388D01*
X35927555Y-44215388D02*
X35879936Y-44167769D01*
X35879936Y-44167769D02*
X35832316Y-44215388D01*
X35832316Y-44215388D02*
X35927555Y-44215388D01*
X35308507Y-44215388D02*
X35356126Y-44263007D01*
X35356126Y-44263007D02*
X35403745Y-44215388D01*
X35403745Y-44215388D02*
X35356126Y-44167769D01*
X35356126Y-44167769D02*
X35308507Y-44215388D01*
X35308507Y-44215388D02*
X35403745Y-44215388D01*
X35879936Y-45405864D02*
X35927555Y-45548721D01*
X35927555Y-45548721D02*
X35927555Y-45786816D01*
X35927555Y-45786816D02*
X35879936Y-45882054D01*
X35879936Y-45882054D02*
X35832316Y-45929673D01*
X35832316Y-45929673D02*
X35737078Y-45977292D01*
X35737078Y-45977292D02*
X35641840Y-45977292D01*
X35641840Y-45977292D02*
X35546602Y-45929673D01*
X35546602Y-45929673D02*
X35498983Y-45882054D01*
X35498983Y-45882054D02*
X35451364Y-45786816D01*
X35451364Y-45786816D02*
X35403745Y-45596340D01*
X35403745Y-45596340D02*
X35356126Y-45501102D01*
X35356126Y-45501102D02*
X35308507Y-45453483D01*
X35308507Y-45453483D02*
X35213269Y-45405864D01*
X35213269Y-45405864D02*
X35118031Y-45405864D01*
X35118031Y-45405864D02*
X35022793Y-45453483D01*
X35022793Y-45453483D02*
X34975174Y-45501102D01*
X34975174Y-45501102D02*
X34927555Y-45596340D01*
X34927555Y-45596340D02*
X34927555Y-45834435D01*
X34927555Y-45834435D02*
X34975174Y-45977292D01*
X35927555Y-46405864D02*
X34927555Y-46405864D01*
X34927555Y-46405864D02*
X34927555Y-46643959D01*
X34927555Y-46643959D02*
X34975174Y-46786816D01*
X34975174Y-46786816D02*
X35070412Y-46882054D01*
X35070412Y-46882054D02*
X35165650Y-46929673D01*
X35165650Y-46929673D02*
X35356126Y-46977292D01*
X35356126Y-46977292D02*
X35498983Y-46977292D01*
X35498983Y-46977292D02*
X35689459Y-46929673D01*
X35689459Y-46929673D02*
X35784697Y-46882054D01*
X35784697Y-46882054D02*
X35879936Y-46786816D01*
X35879936Y-46786816D02*
X35927555Y-46643959D01*
X35927555Y-46643959D02*
X35927555Y-46405864D01*
X35641840Y-47358245D02*
X35641840Y-47834435D01*
X35927555Y-47263007D02*
X34927555Y-47596340D01*
X34927555Y-47596340D02*
X35927555Y-47929673D01*
X36537499Y-35834435D02*
X36537499Y-36453482D01*
X36537499Y-36453482D02*
X36918451Y-36120149D01*
X36918451Y-36120149D02*
X36918451Y-36263006D01*
X36918451Y-36263006D02*
X36966070Y-36358244D01*
X36966070Y-36358244D02*
X37013689Y-36405863D01*
X37013689Y-36405863D02*
X37108927Y-36453482D01*
X37108927Y-36453482D02*
X37347022Y-36453482D01*
X37347022Y-36453482D02*
X37442260Y-36405863D01*
X37442260Y-36405863D02*
X37489880Y-36358244D01*
X37489880Y-36358244D02*
X37537499Y-36263006D01*
X37537499Y-36263006D02*
X37537499Y-35977292D01*
X37537499Y-35977292D02*
X37489880Y-35882054D01*
X37489880Y-35882054D02*
X37442260Y-35834435D01*
X37442260Y-36882054D02*
X37489880Y-36929673D01*
X37489880Y-36929673D02*
X37537499Y-36882054D01*
X37537499Y-36882054D02*
X37489880Y-36834435D01*
X37489880Y-36834435D02*
X37442260Y-36882054D01*
X37442260Y-36882054D02*
X37537499Y-36882054D01*
X36918451Y-36882054D02*
X36966070Y-36929673D01*
X36966070Y-36929673D02*
X37013689Y-36882054D01*
X37013689Y-36882054D02*
X36966070Y-36834435D01*
X36966070Y-36834435D02*
X36918451Y-36882054D01*
X36918451Y-36882054D02*
X37013689Y-36882054D01*
X37489880Y-38072530D02*
X37537499Y-38215387D01*
X37537499Y-38215387D02*
X37537499Y-38453482D01*
X37537499Y-38453482D02*
X37489880Y-38548720D01*
X37489880Y-38548720D02*
X37442260Y-38596339D01*
X37442260Y-38596339D02*
X37347022Y-38643958D01*
X37347022Y-38643958D02*
X37251784Y-38643958D01*
X37251784Y-38643958D02*
X37156546Y-38596339D01*
X37156546Y-38596339D02*
X37108927Y-38548720D01*
X37108927Y-38548720D02*
X37061308Y-38453482D01*
X37061308Y-38453482D02*
X37013689Y-38263006D01*
X37013689Y-38263006D02*
X36966070Y-38167768D01*
X36966070Y-38167768D02*
X36918451Y-38120149D01*
X36918451Y-38120149D02*
X36823213Y-38072530D01*
X36823213Y-38072530D02*
X36727975Y-38072530D01*
X36727975Y-38072530D02*
X36632737Y-38120149D01*
X36632737Y-38120149D02*
X36585118Y-38167768D01*
X36585118Y-38167768D02*
X36537499Y-38263006D01*
X36537499Y-38263006D02*
X36537499Y-38501101D01*
X36537499Y-38501101D02*
X36585118Y-38643958D01*
X37442260Y-39643958D02*
X37489880Y-39596339D01*
X37489880Y-39596339D02*
X37537499Y-39453482D01*
X37537499Y-39453482D02*
X37537499Y-39358244D01*
X37537499Y-39358244D02*
X37489880Y-39215387D01*
X37489880Y-39215387D02*
X37394641Y-39120149D01*
X37394641Y-39120149D02*
X37299403Y-39072530D01*
X37299403Y-39072530D02*
X37108927Y-39024911D01*
X37108927Y-39024911D02*
X36966070Y-39024911D01*
X36966070Y-39024911D02*
X36775594Y-39072530D01*
X36775594Y-39072530D02*
X36680356Y-39120149D01*
X36680356Y-39120149D02*
X36585118Y-39215387D01*
X36585118Y-39215387D02*
X36537499Y-39358244D01*
X36537499Y-39358244D02*
X36537499Y-39453482D01*
X36537499Y-39453482D02*
X36585118Y-39596339D01*
X36585118Y-39596339D02*
X36632737Y-39643958D01*
X37537499Y-40548720D02*
X37537499Y-40072530D01*
X37537499Y-40072530D02*
X36537499Y-40072530D01*
X36870832Y-43596340D02*
X37537499Y-43596340D01*
X36489880Y-43358245D02*
X37204165Y-43120150D01*
X37204165Y-43120150D02*
X37204165Y-43739197D01*
X37442260Y-44120150D02*
X37489880Y-44167769D01*
X37489880Y-44167769D02*
X37537499Y-44120150D01*
X37537499Y-44120150D02*
X37489880Y-44072531D01*
X37489880Y-44072531D02*
X37442260Y-44120150D01*
X37442260Y-44120150D02*
X37537499Y-44120150D01*
X36918451Y-44120150D02*
X36966070Y-44167769D01*
X36966070Y-44167769D02*
X37013689Y-44120150D01*
X37013689Y-44120150D02*
X36966070Y-44072531D01*
X36966070Y-44072531D02*
X36918451Y-44120150D01*
X36918451Y-44120150D02*
X37013689Y-44120150D01*
X36585118Y-45882054D02*
X36537499Y-45786816D01*
X36537499Y-45786816D02*
X36537499Y-45643959D01*
X36537499Y-45643959D02*
X36585118Y-45501102D01*
X36585118Y-45501102D02*
X36680356Y-45405864D01*
X36680356Y-45405864D02*
X36775594Y-45358245D01*
X36775594Y-45358245D02*
X36966070Y-45310626D01*
X36966070Y-45310626D02*
X37108927Y-45310626D01*
X37108927Y-45310626D02*
X37299403Y-45358245D01*
X37299403Y-45358245D02*
X37394641Y-45405864D01*
X37394641Y-45405864D02*
X37489880Y-45501102D01*
X37489880Y-45501102D02*
X37537499Y-45643959D01*
X37537499Y-45643959D02*
X37537499Y-45739197D01*
X37537499Y-45739197D02*
X37489880Y-45882054D01*
X37489880Y-45882054D02*
X37442260Y-45929673D01*
X37442260Y-45929673D02*
X37108927Y-45929673D01*
X37108927Y-45929673D02*
X37108927Y-45739197D01*
X37537499Y-46358245D02*
X36537499Y-46358245D01*
X36537499Y-46358245D02*
X37537499Y-46929673D01*
X37537499Y-46929673D02*
X36537499Y-46929673D01*
X37537499Y-47405864D02*
X36537499Y-47405864D01*
X36537499Y-47405864D02*
X36537499Y-47643959D01*
X36537499Y-47643959D02*
X36585118Y-47786816D01*
X36585118Y-47786816D02*
X36680356Y-47882054D01*
X36680356Y-47882054D02*
X36775594Y-47929673D01*
X36775594Y-47929673D02*
X36966070Y-47977292D01*
X36966070Y-47977292D02*
X37108927Y-47977292D01*
X37108927Y-47977292D02*
X37299403Y-47929673D01*
X37299403Y-47929673D02*
X37394641Y-47882054D01*
X37394641Y-47882054D02*
X37489880Y-47786816D01*
X37489880Y-47786816D02*
X37537499Y-47643959D01*
X37537499Y-47643959D02*
X37537499Y-47405864D01*
X40757387Y-35929673D02*
X39757387Y-35929673D01*
X40090720Y-36405863D02*
X40757387Y-36405863D01*
X40185958Y-36405863D02*
X40138339Y-36453482D01*
X40138339Y-36453482D02*
X40090720Y-36548720D01*
X40090720Y-36548720D02*
X40090720Y-36691577D01*
X40090720Y-36691577D02*
X40138339Y-36786815D01*
X40138339Y-36786815D02*
X40233577Y-36834434D01*
X40233577Y-36834434D02*
X40757387Y-36834434D01*
X40757387Y-37310625D02*
X40090720Y-37310625D01*
X39757387Y-37310625D02*
X39805006Y-37263006D01*
X39805006Y-37263006D02*
X39852625Y-37310625D01*
X39852625Y-37310625D02*
X39805006Y-37358244D01*
X39805006Y-37358244D02*
X39757387Y-37310625D01*
X39757387Y-37310625D02*
X39852625Y-37310625D01*
X40090720Y-37643958D02*
X40090720Y-38024910D01*
X39757387Y-37786815D02*
X40614529Y-37786815D01*
X40614529Y-37786815D02*
X40709768Y-37834434D01*
X40709768Y-37834434D02*
X40757387Y-37929672D01*
X40757387Y-37929672D02*
X40757387Y-38024910D01*
X40757387Y-38358244D02*
X40090720Y-38358244D01*
X39757387Y-38358244D02*
X39805006Y-38310625D01*
X39805006Y-38310625D02*
X39852625Y-38358244D01*
X39852625Y-38358244D02*
X39805006Y-38405863D01*
X39805006Y-38405863D02*
X39757387Y-38358244D01*
X39757387Y-38358244D02*
X39852625Y-38358244D01*
X40757387Y-39263005D02*
X40233577Y-39263005D01*
X40233577Y-39263005D02*
X40138339Y-39215386D01*
X40138339Y-39215386D02*
X40090720Y-39120148D01*
X40090720Y-39120148D02*
X40090720Y-38929672D01*
X40090720Y-38929672D02*
X40138339Y-38834434D01*
X40709768Y-39263005D02*
X40757387Y-39167767D01*
X40757387Y-39167767D02*
X40757387Y-38929672D01*
X40757387Y-38929672D02*
X40709768Y-38834434D01*
X40709768Y-38834434D02*
X40614529Y-38786815D01*
X40614529Y-38786815D02*
X40519291Y-38786815D01*
X40519291Y-38786815D02*
X40424053Y-38834434D01*
X40424053Y-38834434D02*
X40376434Y-38929672D01*
X40376434Y-38929672D02*
X40376434Y-39167767D01*
X40376434Y-39167767D02*
X40328815Y-39263005D01*
X40757387Y-39882053D02*
X40709768Y-39786815D01*
X40709768Y-39786815D02*
X40614529Y-39739196D01*
X40614529Y-39739196D02*
X39757387Y-39739196D01*
X40090720Y-41024911D02*
X41090720Y-41024911D01*
X40138339Y-41024911D02*
X40090720Y-41120149D01*
X40090720Y-41120149D02*
X40090720Y-41310625D01*
X40090720Y-41310625D02*
X40138339Y-41405863D01*
X40138339Y-41405863D02*
X40185958Y-41453482D01*
X40185958Y-41453482D02*
X40281196Y-41501101D01*
X40281196Y-41501101D02*
X40566910Y-41501101D01*
X40566910Y-41501101D02*
X40662148Y-41453482D01*
X40662148Y-41453482D02*
X40709768Y-41405863D01*
X40709768Y-41405863D02*
X40757387Y-41310625D01*
X40757387Y-41310625D02*
X40757387Y-41120149D01*
X40757387Y-41120149D02*
X40709768Y-41024911D01*
X40757387Y-41929673D02*
X40090720Y-41929673D01*
X40281196Y-41929673D02*
X40185958Y-41977292D01*
X40185958Y-41977292D02*
X40138339Y-42024911D01*
X40138339Y-42024911D02*
X40090720Y-42120149D01*
X40090720Y-42120149D02*
X40090720Y-42215387D01*
X40757387Y-42691578D02*
X40709768Y-42596340D01*
X40709768Y-42596340D02*
X40662148Y-42548721D01*
X40662148Y-42548721D02*
X40566910Y-42501102D01*
X40566910Y-42501102D02*
X40281196Y-42501102D01*
X40281196Y-42501102D02*
X40185958Y-42548721D01*
X40185958Y-42548721D02*
X40138339Y-42596340D01*
X40138339Y-42596340D02*
X40090720Y-42691578D01*
X40090720Y-42691578D02*
X40090720Y-42834435D01*
X40090720Y-42834435D02*
X40138339Y-42929673D01*
X40138339Y-42929673D02*
X40185958Y-42977292D01*
X40185958Y-42977292D02*
X40281196Y-43024911D01*
X40281196Y-43024911D02*
X40566910Y-43024911D01*
X40566910Y-43024911D02*
X40662148Y-42977292D01*
X40662148Y-42977292D02*
X40709768Y-42929673D01*
X40709768Y-42929673D02*
X40757387Y-42834435D01*
X40757387Y-42834435D02*
X40757387Y-42691578D01*
X40090720Y-43882054D02*
X40900244Y-43882054D01*
X40900244Y-43882054D02*
X40995482Y-43834435D01*
X40995482Y-43834435D02*
X41043101Y-43786816D01*
X41043101Y-43786816D02*
X41090720Y-43691578D01*
X41090720Y-43691578D02*
X41090720Y-43548721D01*
X41090720Y-43548721D02*
X41043101Y-43453483D01*
X40709768Y-43882054D02*
X40757387Y-43786816D01*
X40757387Y-43786816D02*
X40757387Y-43596340D01*
X40757387Y-43596340D02*
X40709768Y-43501102D01*
X40709768Y-43501102D02*
X40662148Y-43453483D01*
X40662148Y-43453483D02*
X40566910Y-43405864D01*
X40566910Y-43405864D02*
X40281196Y-43405864D01*
X40281196Y-43405864D02*
X40185958Y-43453483D01*
X40185958Y-43453483D02*
X40138339Y-43501102D01*
X40138339Y-43501102D02*
X40090720Y-43596340D01*
X40090720Y-43596340D02*
X40090720Y-43786816D01*
X40090720Y-43786816D02*
X40138339Y-43882054D01*
X40757387Y-44358245D02*
X40090720Y-44358245D01*
X40281196Y-44358245D02*
X40185958Y-44405864D01*
X40185958Y-44405864D02*
X40138339Y-44453483D01*
X40138339Y-44453483D02*
X40090720Y-44548721D01*
X40090720Y-44548721D02*
X40090720Y-44643959D01*
X40757387Y-45405864D02*
X40233577Y-45405864D01*
X40233577Y-45405864D02*
X40138339Y-45358245D01*
X40138339Y-45358245D02*
X40090720Y-45263007D01*
X40090720Y-45263007D02*
X40090720Y-45072531D01*
X40090720Y-45072531D02*
X40138339Y-44977293D01*
X40709768Y-45405864D02*
X40757387Y-45310626D01*
X40757387Y-45310626D02*
X40757387Y-45072531D01*
X40757387Y-45072531D02*
X40709768Y-44977293D01*
X40709768Y-44977293D02*
X40614529Y-44929674D01*
X40614529Y-44929674D02*
X40519291Y-44929674D01*
X40519291Y-44929674D02*
X40424053Y-44977293D01*
X40424053Y-44977293D02*
X40376434Y-45072531D01*
X40376434Y-45072531D02*
X40376434Y-45310626D01*
X40376434Y-45310626D02*
X40328815Y-45405864D01*
X40757387Y-45882055D02*
X40090720Y-45882055D01*
X40185958Y-45882055D02*
X40138339Y-45929674D01*
X40138339Y-45929674D02*
X40090720Y-46024912D01*
X40090720Y-46024912D02*
X40090720Y-46167769D01*
X40090720Y-46167769D02*
X40138339Y-46263007D01*
X40138339Y-46263007D02*
X40233577Y-46310626D01*
X40233577Y-46310626D02*
X40757387Y-46310626D01*
X40233577Y-46310626D02*
X40138339Y-46358245D01*
X40138339Y-46358245D02*
X40090720Y-46453483D01*
X40090720Y-46453483D02*
X40090720Y-46596340D01*
X40090720Y-46596340D02*
X40138339Y-46691579D01*
X40138339Y-46691579D02*
X40233577Y-46739198D01*
X40233577Y-46739198D02*
X40757387Y-46739198D01*
X40757387Y-47215388D02*
X40090720Y-47215388D01*
X40185958Y-47215388D02*
X40138339Y-47263007D01*
X40138339Y-47263007D02*
X40090720Y-47358245D01*
X40090720Y-47358245D02*
X40090720Y-47501102D01*
X40090720Y-47501102D02*
X40138339Y-47596340D01*
X40138339Y-47596340D02*
X40233577Y-47643959D01*
X40233577Y-47643959D02*
X40757387Y-47643959D01*
X40233577Y-47643959D02*
X40138339Y-47691578D01*
X40138339Y-47691578D02*
X40090720Y-47786816D01*
X40090720Y-47786816D02*
X40090720Y-47929673D01*
X40090720Y-47929673D02*
X40138339Y-48024912D01*
X40138339Y-48024912D02*
X40233577Y-48072531D01*
X40233577Y-48072531D02*
X40757387Y-48072531D01*
X40757387Y-48548721D02*
X40090720Y-48548721D01*
X39757387Y-48548721D02*
X39805006Y-48501102D01*
X39805006Y-48501102D02*
X39852625Y-48548721D01*
X39852625Y-48548721D02*
X39805006Y-48596340D01*
X39805006Y-48596340D02*
X39757387Y-48548721D01*
X39757387Y-48548721D02*
X39852625Y-48548721D01*
X40090720Y-49024911D02*
X40757387Y-49024911D01*
X40185958Y-49024911D02*
X40138339Y-49072530D01*
X40138339Y-49072530D02*
X40090720Y-49167768D01*
X40090720Y-49167768D02*
X40090720Y-49310625D01*
X40090720Y-49310625D02*
X40138339Y-49405863D01*
X40138339Y-49405863D02*
X40233577Y-49453482D01*
X40233577Y-49453482D02*
X40757387Y-49453482D01*
X40090720Y-50358244D02*
X40900244Y-50358244D01*
X40900244Y-50358244D02*
X40995482Y-50310625D01*
X40995482Y-50310625D02*
X41043101Y-50263006D01*
X41043101Y-50263006D02*
X41090720Y-50167768D01*
X41090720Y-50167768D02*
X41090720Y-50024911D01*
X41090720Y-50024911D02*
X41043101Y-49929673D01*
X40709768Y-50358244D02*
X40757387Y-50263006D01*
X40757387Y-50263006D02*
X40757387Y-50072530D01*
X40757387Y-50072530D02*
X40709768Y-49977292D01*
X40709768Y-49977292D02*
X40662148Y-49929673D01*
X40662148Y-49929673D02*
X40566910Y-49882054D01*
X40566910Y-49882054D02*
X40281196Y-49882054D01*
X40281196Y-49882054D02*
X40185958Y-49929673D01*
X40185958Y-49929673D02*
X40138339Y-49977292D01*
X40138339Y-49977292D02*
X40090720Y-50072530D01*
X40090720Y-50072530D02*
X40090720Y-50263006D01*
X40090720Y-50263006D02*
X40138339Y-50358244D01*
X41700664Y-35929673D02*
X42700664Y-35929673D01*
X41748283Y-35929673D02*
X41700664Y-36024911D01*
X41700664Y-36024911D02*
X41700664Y-36215387D01*
X41700664Y-36215387D02*
X41748283Y-36310625D01*
X41748283Y-36310625D02*
X41795902Y-36358244D01*
X41795902Y-36358244D02*
X41891140Y-36405863D01*
X41891140Y-36405863D02*
X42176854Y-36405863D01*
X42176854Y-36405863D02*
X42272092Y-36358244D01*
X42272092Y-36358244D02*
X42319712Y-36310625D01*
X42319712Y-36310625D02*
X42367331Y-36215387D01*
X42367331Y-36215387D02*
X42367331Y-36024911D01*
X42367331Y-36024911D02*
X42319712Y-35929673D01*
X42367331Y-36977292D02*
X42319712Y-36882054D01*
X42319712Y-36882054D02*
X42272092Y-36834435D01*
X42272092Y-36834435D02*
X42176854Y-36786816D01*
X42176854Y-36786816D02*
X41891140Y-36786816D01*
X41891140Y-36786816D02*
X41795902Y-36834435D01*
X41795902Y-36834435D02*
X41748283Y-36882054D01*
X41748283Y-36882054D02*
X41700664Y-36977292D01*
X41700664Y-36977292D02*
X41700664Y-37120149D01*
X41700664Y-37120149D02*
X41748283Y-37215387D01*
X41748283Y-37215387D02*
X41795902Y-37263006D01*
X41795902Y-37263006D02*
X41891140Y-37310625D01*
X41891140Y-37310625D02*
X42176854Y-37310625D01*
X42176854Y-37310625D02*
X42272092Y-37263006D01*
X42272092Y-37263006D02*
X42319712Y-37215387D01*
X42319712Y-37215387D02*
X42367331Y-37120149D01*
X42367331Y-37120149D02*
X42367331Y-36977292D01*
X42319712Y-37691578D02*
X42367331Y-37786816D01*
X42367331Y-37786816D02*
X42367331Y-37977292D01*
X42367331Y-37977292D02*
X42319712Y-38072530D01*
X42319712Y-38072530D02*
X42224473Y-38120149D01*
X42224473Y-38120149D02*
X42176854Y-38120149D01*
X42176854Y-38120149D02*
X42081616Y-38072530D01*
X42081616Y-38072530D02*
X42033997Y-37977292D01*
X42033997Y-37977292D02*
X42033997Y-37834435D01*
X42033997Y-37834435D02*
X41986378Y-37739197D01*
X41986378Y-37739197D02*
X41891140Y-37691578D01*
X41891140Y-37691578D02*
X41843521Y-37691578D01*
X41843521Y-37691578D02*
X41748283Y-37739197D01*
X41748283Y-37739197D02*
X41700664Y-37834435D01*
X41700664Y-37834435D02*
X41700664Y-37977292D01*
X41700664Y-37977292D02*
X41748283Y-38072530D01*
X42319712Y-38501102D02*
X42367331Y-38596340D01*
X42367331Y-38596340D02*
X42367331Y-38786816D01*
X42367331Y-38786816D02*
X42319712Y-38882054D01*
X42319712Y-38882054D02*
X42224473Y-38929673D01*
X42224473Y-38929673D02*
X42176854Y-38929673D01*
X42176854Y-38929673D02*
X42081616Y-38882054D01*
X42081616Y-38882054D02*
X42033997Y-38786816D01*
X42033997Y-38786816D02*
X42033997Y-38643959D01*
X42033997Y-38643959D02*
X41986378Y-38548721D01*
X41986378Y-38548721D02*
X41891140Y-38501102D01*
X41891140Y-38501102D02*
X41843521Y-38501102D01*
X41843521Y-38501102D02*
X41748283Y-38548721D01*
X41748283Y-38548721D02*
X41700664Y-38643959D01*
X41700664Y-38643959D02*
X41700664Y-38786816D01*
X41700664Y-38786816D02*
X41748283Y-38882054D01*
X42367331Y-39358245D02*
X41700664Y-39358245D01*
X41367331Y-39358245D02*
X41414950Y-39310626D01*
X41414950Y-39310626D02*
X41462569Y-39358245D01*
X41462569Y-39358245D02*
X41414950Y-39405864D01*
X41414950Y-39405864D02*
X41367331Y-39358245D01*
X41367331Y-39358245D02*
X41462569Y-39358245D01*
X42367331Y-39834435D02*
X41367331Y-39834435D01*
X41748283Y-39834435D02*
X41700664Y-39929673D01*
X41700664Y-39929673D02*
X41700664Y-40120149D01*
X41700664Y-40120149D02*
X41748283Y-40215387D01*
X41748283Y-40215387D02*
X41795902Y-40263006D01*
X41795902Y-40263006D02*
X41891140Y-40310625D01*
X41891140Y-40310625D02*
X42176854Y-40310625D01*
X42176854Y-40310625D02*
X42272092Y-40263006D01*
X42272092Y-40263006D02*
X42319712Y-40215387D01*
X42319712Y-40215387D02*
X42367331Y-40120149D01*
X42367331Y-40120149D02*
X42367331Y-39929673D01*
X42367331Y-39929673D02*
X42319712Y-39834435D01*
X42367331Y-40882054D02*
X42319712Y-40786816D01*
X42319712Y-40786816D02*
X42224473Y-40739197D01*
X42224473Y-40739197D02*
X41367331Y-40739197D01*
X42319712Y-41643959D02*
X42367331Y-41548721D01*
X42367331Y-41548721D02*
X42367331Y-41358245D01*
X42367331Y-41358245D02*
X42319712Y-41263007D01*
X42319712Y-41263007D02*
X42224473Y-41215388D01*
X42224473Y-41215388D02*
X41843521Y-41215388D01*
X41843521Y-41215388D02*
X41748283Y-41263007D01*
X41748283Y-41263007D02*
X41700664Y-41358245D01*
X41700664Y-41358245D02*
X41700664Y-41548721D01*
X41700664Y-41548721D02*
X41748283Y-41643959D01*
X41748283Y-41643959D02*
X41843521Y-41691578D01*
X41843521Y-41691578D02*
X41938759Y-41691578D01*
X41938759Y-41691578D02*
X42033997Y-41215388D01*
X41700664Y-42786817D02*
X42367331Y-42977293D01*
X42367331Y-42977293D02*
X41891140Y-43167769D01*
X41891140Y-43167769D02*
X42367331Y-43358245D01*
X42367331Y-43358245D02*
X41700664Y-43548721D01*
X42367331Y-43929674D02*
X41700664Y-43929674D01*
X41367331Y-43929674D02*
X41414950Y-43882055D01*
X41414950Y-43882055D02*
X41462569Y-43929674D01*
X41462569Y-43929674D02*
X41414950Y-43977293D01*
X41414950Y-43977293D02*
X41367331Y-43929674D01*
X41367331Y-43929674D02*
X41462569Y-43929674D01*
X41700664Y-44263007D02*
X41700664Y-44643959D01*
X41367331Y-44405864D02*
X42224473Y-44405864D01*
X42224473Y-44405864D02*
X42319712Y-44453483D01*
X42319712Y-44453483D02*
X42367331Y-44548721D01*
X42367331Y-44548721D02*
X42367331Y-44643959D01*
X42367331Y-44977293D02*
X41367331Y-44977293D01*
X42367331Y-45405864D02*
X41843521Y-45405864D01*
X41843521Y-45405864D02*
X41748283Y-45358245D01*
X41748283Y-45358245D02*
X41700664Y-45263007D01*
X41700664Y-45263007D02*
X41700664Y-45120150D01*
X41700664Y-45120150D02*
X41748283Y-45024912D01*
X41748283Y-45024912D02*
X41795902Y-44977293D01*
X41367331Y-46548722D02*
X42367331Y-46786817D01*
X42367331Y-46786817D02*
X41653045Y-46977293D01*
X41653045Y-46977293D02*
X42367331Y-47167769D01*
X42367331Y-47167769D02*
X41367331Y-47405865D01*
X42367331Y-47786817D02*
X41367331Y-47786817D01*
X41367331Y-47786817D02*
X41367331Y-48167769D01*
X41367331Y-48167769D02*
X41414950Y-48263007D01*
X41414950Y-48263007D02*
X41462569Y-48310626D01*
X41462569Y-48310626D02*
X41557807Y-48358245D01*
X41557807Y-48358245D02*
X41700664Y-48358245D01*
X41700664Y-48358245D02*
X41795902Y-48310626D01*
X41795902Y-48310626D02*
X41843521Y-48263007D01*
X41843521Y-48263007D02*
X41891140Y-48167769D01*
X41891140Y-48167769D02*
X41891140Y-47786817D01*
X42319712Y-49501103D02*
X42367331Y-49596341D01*
X42367331Y-49596341D02*
X42367331Y-49786817D01*
X42367331Y-49786817D02*
X42319712Y-49882055D01*
X42319712Y-49882055D02*
X42224473Y-49929674D01*
X42224473Y-49929674D02*
X42176854Y-49929674D01*
X42176854Y-49929674D02*
X42081616Y-49882055D01*
X42081616Y-49882055D02*
X42033997Y-49786817D01*
X42033997Y-49786817D02*
X42033997Y-49643960D01*
X42033997Y-49643960D02*
X41986378Y-49548722D01*
X41986378Y-49548722D02*
X41891140Y-49501103D01*
X41891140Y-49501103D02*
X41843521Y-49501103D01*
X41843521Y-49501103D02*
X41748283Y-49548722D01*
X41748283Y-49548722D02*
X41700664Y-49643960D01*
X41700664Y-49643960D02*
X41700664Y-49786817D01*
X41700664Y-49786817D02*
X41748283Y-49882055D01*
X42319712Y-50739198D02*
X42367331Y-50643960D01*
X42367331Y-50643960D02*
X42367331Y-50453484D01*
X42367331Y-50453484D02*
X42319712Y-50358246D01*
X42319712Y-50358246D02*
X42224473Y-50310627D01*
X42224473Y-50310627D02*
X41843521Y-50310627D01*
X41843521Y-50310627D02*
X41748283Y-50358246D01*
X41748283Y-50358246D02*
X41700664Y-50453484D01*
X41700664Y-50453484D02*
X41700664Y-50643960D01*
X41700664Y-50643960D02*
X41748283Y-50739198D01*
X41748283Y-50739198D02*
X41843521Y-50786817D01*
X41843521Y-50786817D02*
X41938759Y-50786817D01*
X41938759Y-50786817D02*
X42033997Y-50310627D01*
X41700664Y-51072532D02*
X41700664Y-51453484D01*
X41367331Y-51215389D02*
X42224473Y-51215389D01*
X42224473Y-51215389D02*
X42319712Y-51263008D01*
X42319712Y-51263008D02*
X42367331Y-51358246D01*
X42367331Y-51358246D02*
X42367331Y-51453484D01*
X42319712Y-51834437D02*
X42367331Y-51834437D01*
X42367331Y-51834437D02*
X42462569Y-51786818D01*
X42462569Y-51786818D02*
X42510188Y-51739199D01*
X43310608Y-36358244D02*
X43977275Y-36358244D01*
X43310608Y-35929673D02*
X43834417Y-35929673D01*
X43834417Y-35929673D02*
X43929656Y-35977292D01*
X43929656Y-35977292D02*
X43977275Y-36072530D01*
X43977275Y-36072530D02*
X43977275Y-36215387D01*
X43977275Y-36215387D02*
X43929656Y-36310625D01*
X43929656Y-36310625D02*
X43882036Y-36358244D01*
X43310608Y-36834435D02*
X43977275Y-36834435D01*
X43405846Y-36834435D02*
X43358227Y-36882054D01*
X43358227Y-36882054D02*
X43310608Y-36977292D01*
X43310608Y-36977292D02*
X43310608Y-37120149D01*
X43310608Y-37120149D02*
X43358227Y-37215387D01*
X43358227Y-37215387D02*
X43453465Y-37263006D01*
X43453465Y-37263006D02*
X43977275Y-37263006D01*
X43310608Y-37596340D02*
X43310608Y-37977292D01*
X42977275Y-37739197D02*
X43834417Y-37739197D01*
X43834417Y-37739197D02*
X43929656Y-37786816D01*
X43929656Y-37786816D02*
X43977275Y-37882054D01*
X43977275Y-37882054D02*
X43977275Y-37977292D01*
X43977275Y-38310626D02*
X43310608Y-38310626D01*
X42977275Y-38310626D02*
X43024894Y-38263007D01*
X43024894Y-38263007D02*
X43072513Y-38310626D01*
X43072513Y-38310626D02*
X43024894Y-38358245D01*
X43024894Y-38358245D02*
X42977275Y-38310626D01*
X42977275Y-38310626D02*
X43072513Y-38310626D01*
X43977275Y-38929673D02*
X43929656Y-38834435D01*
X43929656Y-38834435D02*
X43834417Y-38786816D01*
X43834417Y-38786816D02*
X42977275Y-38786816D01*
X43977275Y-40501102D02*
X43453465Y-40501102D01*
X43453465Y-40501102D02*
X43358227Y-40453483D01*
X43358227Y-40453483D02*
X43310608Y-40358245D01*
X43310608Y-40358245D02*
X43310608Y-40167769D01*
X43310608Y-40167769D02*
X43358227Y-40072531D01*
X43929656Y-40501102D02*
X43977275Y-40405864D01*
X43977275Y-40405864D02*
X43977275Y-40167769D01*
X43977275Y-40167769D02*
X43929656Y-40072531D01*
X43929656Y-40072531D02*
X43834417Y-40024912D01*
X43834417Y-40024912D02*
X43739179Y-40024912D01*
X43739179Y-40024912D02*
X43643941Y-40072531D01*
X43643941Y-40072531D02*
X43596322Y-40167769D01*
X43596322Y-40167769D02*
X43596322Y-40405864D01*
X43596322Y-40405864D02*
X43548703Y-40501102D01*
X43977275Y-41405864D02*
X42977275Y-41405864D01*
X43929656Y-41405864D02*
X43977275Y-41310626D01*
X43977275Y-41310626D02*
X43977275Y-41120150D01*
X43977275Y-41120150D02*
X43929656Y-41024912D01*
X43929656Y-41024912D02*
X43882036Y-40977293D01*
X43882036Y-40977293D02*
X43786798Y-40929674D01*
X43786798Y-40929674D02*
X43501084Y-40929674D01*
X43501084Y-40929674D02*
X43405846Y-40977293D01*
X43405846Y-40977293D02*
X43358227Y-41024912D01*
X43358227Y-41024912D02*
X43310608Y-41120150D01*
X43310608Y-41120150D02*
X43310608Y-41310626D01*
X43310608Y-41310626D02*
X43358227Y-41405864D01*
X43977275Y-42310626D02*
X42977275Y-42310626D01*
X43929656Y-42310626D02*
X43977275Y-42215388D01*
X43977275Y-42215388D02*
X43977275Y-42024912D01*
X43977275Y-42024912D02*
X43929656Y-41929674D01*
X43929656Y-41929674D02*
X43882036Y-41882055D01*
X43882036Y-41882055D02*
X43786798Y-41834436D01*
X43786798Y-41834436D02*
X43501084Y-41834436D01*
X43501084Y-41834436D02*
X43405846Y-41882055D01*
X43405846Y-41882055D02*
X43358227Y-41929674D01*
X43358227Y-41929674D02*
X43310608Y-42024912D01*
X43310608Y-42024912D02*
X43310608Y-42215388D01*
X43310608Y-42215388D02*
X43358227Y-42310626D01*
X43977275Y-42786817D02*
X43310608Y-42786817D01*
X43501084Y-42786817D02*
X43405846Y-42834436D01*
X43405846Y-42834436D02*
X43358227Y-42882055D01*
X43358227Y-42882055D02*
X43310608Y-42977293D01*
X43310608Y-42977293D02*
X43310608Y-43072531D01*
X43929656Y-43786817D02*
X43977275Y-43691579D01*
X43977275Y-43691579D02*
X43977275Y-43501103D01*
X43977275Y-43501103D02*
X43929656Y-43405865D01*
X43929656Y-43405865D02*
X43834417Y-43358246D01*
X43834417Y-43358246D02*
X43453465Y-43358246D01*
X43453465Y-43358246D02*
X43358227Y-43405865D01*
X43358227Y-43405865D02*
X43310608Y-43501103D01*
X43310608Y-43501103D02*
X43310608Y-43691579D01*
X43310608Y-43691579D02*
X43358227Y-43786817D01*
X43358227Y-43786817D02*
X43453465Y-43834436D01*
X43453465Y-43834436D02*
X43548703Y-43834436D01*
X43548703Y-43834436D02*
X43643941Y-43358246D01*
X43929656Y-44215389D02*
X43977275Y-44310627D01*
X43977275Y-44310627D02*
X43977275Y-44501103D01*
X43977275Y-44501103D02*
X43929656Y-44596341D01*
X43929656Y-44596341D02*
X43834417Y-44643960D01*
X43834417Y-44643960D02*
X43786798Y-44643960D01*
X43786798Y-44643960D02*
X43691560Y-44596341D01*
X43691560Y-44596341D02*
X43643941Y-44501103D01*
X43643941Y-44501103D02*
X43643941Y-44358246D01*
X43643941Y-44358246D02*
X43596322Y-44263008D01*
X43596322Y-44263008D02*
X43501084Y-44215389D01*
X43501084Y-44215389D02*
X43453465Y-44215389D01*
X43453465Y-44215389D02*
X43358227Y-44263008D01*
X43358227Y-44263008D02*
X43310608Y-44358246D01*
X43310608Y-44358246D02*
X43310608Y-44501103D01*
X43310608Y-44501103D02*
X43358227Y-44596341D01*
X42977275Y-46024913D02*
X42977275Y-46120151D01*
X42977275Y-46120151D02*
X43024894Y-46215389D01*
X43024894Y-46215389D02*
X43072513Y-46263008D01*
X43072513Y-46263008D02*
X43167751Y-46310627D01*
X43167751Y-46310627D02*
X43358227Y-46358246D01*
X43358227Y-46358246D02*
X43596322Y-46358246D01*
X43596322Y-46358246D02*
X43786798Y-46310627D01*
X43786798Y-46310627D02*
X43882036Y-46263008D01*
X43882036Y-46263008D02*
X43929656Y-46215389D01*
X43929656Y-46215389D02*
X43977275Y-46120151D01*
X43977275Y-46120151D02*
X43977275Y-46024913D01*
X43977275Y-46024913D02*
X43929656Y-45929675D01*
X43929656Y-45929675D02*
X43882036Y-45882056D01*
X43882036Y-45882056D02*
X43786798Y-45834437D01*
X43786798Y-45834437D02*
X43596322Y-45786818D01*
X43596322Y-45786818D02*
X43358227Y-45786818D01*
X43358227Y-45786818D02*
X43167751Y-45834437D01*
X43167751Y-45834437D02*
X43072513Y-45882056D01*
X43072513Y-45882056D02*
X43024894Y-45929675D01*
X43024894Y-45929675D02*
X42977275Y-46024913D01*
X43977275Y-46691580D02*
X43310608Y-47215389D01*
X43310608Y-46691580D02*
X43977275Y-47215389D01*
X42977275Y-47501104D02*
X42977275Y-48167770D01*
X42977275Y-48167770D02*
X43977275Y-47739199D01*
X43453465Y-48882056D02*
X43453465Y-48548723D01*
X43977275Y-48548723D02*
X42977275Y-48548723D01*
X42977275Y-48548723D02*
X42977275Y-49024913D01*
X45968171Y-36215387D02*
X45920552Y-36167768D01*
X45920552Y-36167768D02*
X45777695Y-36072530D01*
X45777695Y-36072530D02*
X45682457Y-36024911D01*
X45682457Y-36024911D02*
X45539600Y-35977292D01*
X45539600Y-35977292D02*
X45301504Y-35929673D01*
X45301504Y-35929673D02*
X45111028Y-35929673D01*
X45111028Y-35929673D02*
X44872933Y-35977292D01*
X44872933Y-35977292D02*
X44730076Y-36024911D01*
X44730076Y-36024911D02*
X44634838Y-36072530D01*
X44634838Y-36072530D02*
X44491980Y-36167768D01*
X44491980Y-36167768D02*
X44444361Y-36215387D01*
X45539600Y-37024911D02*
X45587219Y-36929673D01*
X45587219Y-36929673D02*
X45587219Y-36739197D01*
X45587219Y-36739197D02*
X45539600Y-36643959D01*
X45539600Y-36643959D02*
X45491980Y-36596340D01*
X45491980Y-36596340D02*
X45396742Y-36548721D01*
X45396742Y-36548721D02*
X45111028Y-36548721D01*
X45111028Y-36548721D02*
X45015790Y-36596340D01*
X45015790Y-36596340D02*
X44968171Y-36643959D01*
X44968171Y-36643959D02*
X44920552Y-36739197D01*
X44920552Y-36739197D02*
X44920552Y-36929673D01*
X44920552Y-36929673D02*
X44968171Y-37024911D01*
X45587219Y-37453483D02*
X44587219Y-37453483D01*
X45587219Y-37882054D02*
X45063409Y-37882054D01*
X45063409Y-37882054D02*
X44968171Y-37834435D01*
X44968171Y-37834435D02*
X44920552Y-37739197D01*
X44920552Y-37739197D02*
X44920552Y-37596340D01*
X44920552Y-37596340D02*
X44968171Y-37501102D01*
X44968171Y-37501102D02*
X45015790Y-37453483D01*
X45539600Y-38739197D02*
X45587219Y-38643959D01*
X45587219Y-38643959D02*
X45587219Y-38453483D01*
X45587219Y-38453483D02*
X45539600Y-38358245D01*
X45539600Y-38358245D02*
X45444361Y-38310626D01*
X45444361Y-38310626D02*
X45063409Y-38310626D01*
X45063409Y-38310626D02*
X44968171Y-38358245D01*
X44968171Y-38358245D02*
X44920552Y-38453483D01*
X44920552Y-38453483D02*
X44920552Y-38643959D01*
X44920552Y-38643959D02*
X44968171Y-38739197D01*
X44968171Y-38739197D02*
X45063409Y-38786816D01*
X45063409Y-38786816D02*
X45158647Y-38786816D01*
X45158647Y-38786816D02*
X45253885Y-38310626D01*
X45539600Y-39643959D02*
X45587219Y-39548721D01*
X45587219Y-39548721D02*
X45587219Y-39358245D01*
X45587219Y-39358245D02*
X45539600Y-39263007D01*
X45539600Y-39263007D02*
X45491980Y-39215388D01*
X45491980Y-39215388D02*
X45396742Y-39167769D01*
X45396742Y-39167769D02*
X45111028Y-39167769D01*
X45111028Y-39167769D02*
X45015790Y-39215388D01*
X45015790Y-39215388D02*
X44968171Y-39263007D01*
X44968171Y-39263007D02*
X44920552Y-39358245D01*
X44920552Y-39358245D02*
X44920552Y-39548721D01*
X44920552Y-39548721D02*
X44968171Y-39643959D01*
X45587219Y-40072531D02*
X44587219Y-40072531D01*
X45206266Y-40167769D02*
X45587219Y-40453483D01*
X44920552Y-40453483D02*
X45301504Y-40072531D01*
X45539600Y-40834436D02*
X45587219Y-40929674D01*
X45587219Y-40929674D02*
X45587219Y-41120150D01*
X45587219Y-41120150D02*
X45539600Y-41215388D01*
X45539600Y-41215388D02*
X45444361Y-41263007D01*
X45444361Y-41263007D02*
X45396742Y-41263007D01*
X45396742Y-41263007D02*
X45301504Y-41215388D01*
X45301504Y-41215388D02*
X45253885Y-41120150D01*
X45253885Y-41120150D02*
X45253885Y-40977293D01*
X45253885Y-40977293D02*
X45206266Y-40882055D01*
X45206266Y-40882055D02*
X45111028Y-40834436D01*
X45111028Y-40834436D02*
X45063409Y-40834436D01*
X45063409Y-40834436D02*
X44968171Y-40882055D01*
X44968171Y-40882055D02*
X44920552Y-40977293D01*
X44920552Y-40977293D02*
X44920552Y-41120150D01*
X44920552Y-41120150D02*
X44968171Y-41215388D01*
X44920552Y-42120150D02*
X45587219Y-42120150D01*
X44920552Y-41691579D02*
X45444361Y-41691579D01*
X45444361Y-41691579D02*
X45539600Y-41739198D01*
X45539600Y-41739198D02*
X45587219Y-41834436D01*
X45587219Y-41834436D02*
X45587219Y-41977293D01*
X45587219Y-41977293D02*
X45539600Y-42072531D01*
X45539600Y-42072531D02*
X45491980Y-42120150D01*
X45587219Y-42596341D02*
X44920552Y-42596341D01*
X45015790Y-42596341D02*
X44968171Y-42643960D01*
X44968171Y-42643960D02*
X44920552Y-42739198D01*
X44920552Y-42739198D02*
X44920552Y-42882055D01*
X44920552Y-42882055D02*
X44968171Y-42977293D01*
X44968171Y-42977293D02*
X45063409Y-43024912D01*
X45063409Y-43024912D02*
X45587219Y-43024912D01*
X45063409Y-43024912D02*
X44968171Y-43072531D01*
X44968171Y-43072531D02*
X44920552Y-43167769D01*
X44920552Y-43167769D02*
X44920552Y-43310626D01*
X44920552Y-43310626D02*
X44968171Y-43405865D01*
X44968171Y-43405865D02*
X45063409Y-43453484D01*
X45063409Y-43453484D02*
X45587219Y-43453484D01*
X45968171Y-43834436D02*
X45920552Y-43882055D01*
X45920552Y-43882055D02*
X45777695Y-43977293D01*
X45777695Y-43977293D02*
X45682457Y-44024912D01*
X45682457Y-44024912D02*
X45539600Y-44072531D01*
X45539600Y-44072531D02*
X45301504Y-44120150D01*
X45301504Y-44120150D02*
X45111028Y-44120150D01*
X45111028Y-44120150D02*
X44872933Y-44072531D01*
X44872933Y-44072531D02*
X44730076Y-44024912D01*
X44730076Y-44024912D02*
X44634838Y-43977293D01*
X44634838Y-43977293D02*
X44491980Y-43882055D01*
X44491980Y-43882055D02*
X44444361Y-43834436D01*
X45587219Y-45358246D02*
X44920552Y-45358246D01*
X44587219Y-45358246D02*
X44634838Y-45310627D01*
X44634838Y-45310627D02*
X44682457Y-45358246D01*
X44682457Y-45358246D02*
X44634838Y-45405865D01*
X44634838Y-45405865D02*
X44587219Y-45358246D01*
X44587219Y-45358246D02*
X44682457Y-45358246D01*
X45539600Y-45786817D02*
X45587219Y-45882055D01*
X45587219Y-45882055D02*
X45587219Y-46072531D01*
X45587219Y-46072531D02*
X45539600Y-46167769D01*
X45539600Y-46167769D02*
X45444361Y-46215388D01*
X45444361Y-46215388D02*
X45396742Y-46215388D01*
X45396742Y-46215388D02*
X45301504Y-46167769D01*
X45301504Y-46167769D02*
X45253885Y-46072531D01*
X45253885Y-46072531D02*
X45253885Y-45929674D01*
X45253885Y-45929674D02*
X45206266Y-45834436D01*
X45206266Y-45834436D02*
X45111028Y-45786817D01*
X45111028Y-45786817D02*
X45063409Y-45786817D01*
X45063409Y-45786817D02*
X44968171Y-45834436D01*
X44968171Y-45834436D02*
X44920552Y-45929674D01*
X44920552Y-45929674D02*
X44920552Y-46072531D01*
X44920552Y-46072531D02*
X44968171Y-46167769D01*
X45539600Y-47358246D02*
X45587219Y-47453484D01*
X45587219Y-47453484D02*
X45587219Y-47643960D01*
X45587219Y-47643960D02*
X45539600Y-47739198D01*
X45539600Y-47739198D02*
X45444361Y-47786817D01*
X45444361Y-47786817D02*
X45396742Y-47786817D01*
X45396742Y-47786817D02*
X45301504Y-47739198D01*
X45301504Y-47739198D02*
X45253885Y-47643960D01*
X45253885Y-47643960D02*
X45253885Y-47501103D01*
X45253885Y-47501103D02*
X45206266Y-47405865D01*
X45206266Y-47405865D02*
X45111028Y-47358246D01*
X45111028Y-47358246D02*
X45063409Y-47358246D01*
X45063409Y-47358246D02*
X44968171Y-47405865D01*
X44968171Y-47405865D02*
X44920552Y-47501103D01*
X44920552Y-47501103D02*
X44920552Y-47643960D01*
X44920552Y-47643960D02*
X44968171Y-47739198D01*
X45539600Y-48596341D02*
X45587219Y-48501103D01*
X45587219Y-48501103D02*
X45587219Y-48310627D01*
X45587219Y-48310627D02*
X45539600Y-48215389D01*
X45539600Y-48215389D02*
X45444361Y-48167770D01*
X45444361Y-48167770D02*
X45063409Y-48167770D01*
X45063409Y-48167770D02*
X44968171Y-48215389D01*
X44968171Y-48215389D02*
X44920552Y-48310627D01*
X44920552Y-48310627D02*
X44920552Y-48501103D01*
X44920552Y-48501103D02*
X44968171Y-48596341D01*
X44968171Y-48596341D02*
X45063409Y-48643960D01*
X45063409Y-48643960D02*
X45158647Y-48643960D01*
X45158647Y-48643960D02*
X45253885Y-48167770D01*
X44920552Y-48929675D02*
X44920552Y-49310627D01*
X44587219Y-49072532D02*
X45444361Y-49072532D01*
X45444361Y-49072532D02*
X45539600Y-49120151D01*
X45539600Y-49120151D02*
X45587219Y-49215389D01*
X45587219Y-49215389D02*
X45587219Y-49310627D01*
X45491980Y-49643961D02*
X45539600Y-49691580D01*
X45539600Y-49691580D02*
X45587219Y-49643961D01*
X45587219Y-49643961D02*
X45539600Y-49596342D01*
X45539600Y-49596342D02*
X45491980Y-49643961D01*
X45491980Y-49643961D02*
X45587219Y-49643961D01*
M02*
