%TF.GenerationSoftware,KiCad,Pcbnew,8.0.3+1*%
%TF.CreationDate,2024-06-18T17:54:09+02:00*%
%TF.ProjectId,EDID_spoofer,45444944-5f73-4706-9f6f-6665722e6b69,rev?*%
%TF.SameCoordinates,Original*%
%TF.FileFunction,Copper,L1,Top*%
%TF.FilePolarity,Positive*%
%FSLAX46Y46*%
G04 Gerber Fmt 4.6, Leading zero omitted, Abs format (unit mm)*
G04 Created by KiCad (PCBNEW 8.0.3+1) date 2024-06-18 17:54:09*
%MOMM*%
%LPD*%
G01*
G04 APERTURE LIST*
G04 Aperture macros list*
%AMRoundRect*
0 Rectangle with rounded corners*
0 $1 Rounding radius*
0 $2 $3 $4 $5 $6 $7 $8 $9 X,Y pos of 4 corners*
0 Add a 4 corners polygon primitive as box body*
4,1,4,$2,$3,$4,$5,$6,$7,$8,$9,$2,$3,0*
0 Add four circle primitives for the rounded corners*
1,1,$1+$1,$2,$3*
1,1,$1+$1,$4,$5*
1,1,$1+$1,$6,$7*
1,1,$1+$1,$8,$9*
0 Add four rect primitives between the rounded corners*
20,1,$1+$1,$2,$3,$4,$5,0*
20,1,$1+$1,$4,$5,$6,$7,0*
20,1,$1+$1,$6,$7,$8,$9,0*
20,1,$1+$1,$8,$9,$2,$3,0*%
%AMFreePoly0*
4,1,19,0.550000,-0.750000,0.000000,-0.750000,0.000000,-0.744911,-0.071157,-0.744911,-0.207708,-0.704816,-0.327430,-0.627875,-0.420627,-0.520320,-0.479746,-0.390866,-0.500000,-0.250000,-0.500000,0.250000,-0.479746,0.390866,-0.420627,0.520320,-0.327430,0.627875,-0.207708,0.704816,-0.071157,0.744911,0.000000,0.744911,0.000000,0.750000,0.550000,0.750000,0.550000,-0.750000,0.550000,-0.750000,
$1*%
%AMFreePoly1*
4,1,19,0.000000,0.744911,0.071157,0.744911,0.207708,0.704816,0.327430,0.627875,0.420627,0.520320,0.479746,0.390866,0.500000,0.250000,0.500000,-0.250000,0.479746,-0.390866,0.420627,-0.520320,0.327430,-0.627875,0.207708,-0.704816,0.071157,-0.744911,0.000000,-0.744911,0.000000,-0.750000,-0.550000,-0.750000,-0.550000,0.750000,0.000000,0.750000,0.000000,0.744911,0.000000,0.744911,
$1*%
G04 Aperture macros list end*
%TA.AperFunction,EtchedComponent*%
%ADD10C,0.000000*%
%TD*%
%TA.AperFunction,ComponentPad*%
%ADD11C,4.000000*%
%TD*%
%TA.AperFunction,ComponentPad*%
%ADD12R,1.600000X1.600000*%
%TD*%
%TA.AperFunction,ComponentPad*%
%ADD13C,1.600000*%
%TD*%
%TA.AperFunction,SMDPad,CuDef*%
%ADD14RoundRect,0.250000X-0.262500X-0.450000X0.262500X-0.450000X0.262500X0.450000X-0.262500X0.450000X0*%
%TD*%
%TA.AperFunction,SMDPad,CuDef*%
%ADD15RoundRect,0.250000X-0.475000X0.250000X-0.475000X-0.250000X0.475000X-0.250000X0.475000X0.250000X0*%
%TD*%
%TA.AperFunction,SMDPad,CuDef*%
%ADD16RoundRect,0.150000X0.150000X-0.725000X0.150000X0.725000X-0.150000X0.725000X-0.150000X-0.725000X0*%
%TD*%
%TA.AperFunction,ComponentPad*%
%ADD17R,1.700000X1.700000*%
%TD*%
%TA.AperFunction,ComponentPad*%
%ADD18O,1.700000X1.700000*%
%TD*%
%TA.AperFunction,SMDPad,CuDef*%
%ADD19FreePoly0,90.000000*%
%TD*%
%TA.AperFunction,SMDPad,CuDef*%
%ADD20R,1.500000X1.000000*%
%TD*%
%TA.AperFunction,SMDPad,CuDef*%
%ADD21FreePoly1,90.000000*%
%TD*%
%TA.AperFunction,ViaPad*%
%ADD22C,0.600000*%
%TD*%
%TA.AperFunction,Conductor*%
%ADD23C,0.200000*%
%TD*%
G04 APERTURE END LIST*
D10*
%TA.AperFunction,EtchedComponent*%
%TO.C,JP1*%
G36*
X49195000Y-51065000D02*
G01*
X48595000Y-51065000D01*
X48595000Y-50565000D01*
X49195000Y-50565000D01*
X49195000Y-51065000D01*
G37*
%TD.AperFunction*%
%TD*%
D11*
%TO.P,J2,0*%
%TO.N,GND*%
X21990000Y-57150000D03*
X46990000Y-57150000D03*
D12*
%TO.P,J2,1*%
%TO.N,/R*%
X38805000Y-55730000D03*
D13*
%TO.P,J2,2*%
%TO.N,/G*%
X36515000Y-55730000D03*
%TO.P,J2,3*%
%TO.N,/B*%
X34225000Y-55730000D03*
%TO.P,J2,4*%
%TO.N,unconnected-(J2-Pad4)*%
X31935000Y-55730000D03*
%TO.P,J2,5*%
%TO.N,GND*%
X29645000Y-55730000D03*
%TO.P,J2,6*%
%TO.N,/RRTN*%
X39950000Y-57710000D03*
%TO.P,J2,7*%
%TO.N,/GRTN*%
X37660000Y-57710000D03*
%TO.P,J2,8*%
%TO.N,/BRTN*%
X35370000Y-57710000D03*
%TO.P,J2,9*%
%TO.N,unconnected-(J2-Pad9)*%
X33080000Y-57710000D03*
%TO.P,J2,10*%
%TO.N,/SRTN*%
X30790000Y-57710000D03*
%TO.P,J2,11*%
%TO.N,unconnected-(J2-Pad11)*%
X38805000Y-59690000D03*
%TO.P,J2,12*%
%TO.N,unconnected-(J2-Pad12)*%
X36515000Y-59690000D03*
%TO.P,J2,13*%
%TO.N,HSYNC*%
X34225000Y-59690000D03*
%TO.P,J2,14*%
%TO.N,VSYNC*%
X31935000Y-59690000D03*
%TO.P,J2,15*%
%TO.N,unconnected-(J2-Pad15)*%
X29645000Y-59690000D03*
%TD*%
D14*
%TO.P,R1,1*%
%TO.N,+5V*%
X40720000Y-38100000D03*
%TO.P,R1,2*%
%TO.N,SDA*%
X42545000Y-38100000D03*
%TD*%
%TO.P,R2,1*%
%TO.N,+5V*%
X40720000Y-40640000D03*
%TO.P,R2,2*%
%TO.N,SCL*%
X42545000Y-40640000D03*
%TD*%
%TO.P,R3,1*%
%TO.N,+5V*%
X40720000Y-43180000D03*
%TO.P,R3,2*%
%TO.N,VSYNC*%
X42545000Y-43180000D03*
%TD*%
D15*
%TO.P,C1,1*%
%TO.N,+5V*%
X38777500Y-48580000D03*
%TO.P,C1,2*%
%TO.N,GND*%
X38777500Y-50480000D03*
%TD*%
D16*
%TO.P,U1,1,N/C*%
%TO.N,GND*%
X40997500Y-52070000D03*
%TO.P,U1,2,N/C*%
X42267500Y-52070000D03*
%TO.P,U1,3,WP*%
%TO.N,/WP*%
X43537500Y-52070000D03*
%TO.P,U1,4,GND*%
%TO.N,GND*%
X44807500Y-52070000D03*
%TO.P,U1,5,SDA*%
%TO.N,SDA*%
X44807500Y-46920000D03*
%TO.P,U1,6,SCL*%
%TO.N,SCL*%
X43537500Y-46920000D03*
%TO.P,U1,7,VCLK*%
%TO.N,VSYNC*%
X42267500Y-46920000D03*
%TO.P,U1,8,VCC*%
%TO.N,+5V*%
X40997500Y-46920000D03*
%TD*%
D11*
%TO.P,J1,0*%
%TO.N,GND*%
X46990000Y-31750000D03*
X21990000Y-31750000D03*
D12*
%TO.P,J1,1*%
%TO.N,/R*%
X38805000Y-33170000D03*
D13*
%TO.P,J1,2*%
%TO.N,/G*%
X36515000Y-33170000D03*
%TO.P,J1,3*%
%TO.N,/B*%
X34225000Y-33170000D03*
%TO.P,J1,4*%
%TO.N,GND*%
X31935000Y-33170000D03*
%TO.P,J1,5*%
X29645000Y-33170000D03*
%TO.P,J1,6*%
%TO.N,/RRTN*%
X39950000Y-31190000D03*
%TO.P,J1,7*%
%TO.N,/GRTN*%
X37660000Y-31190000D03*
%TO.P,J1,8*%
%TO.N,/BRTN*%
X35370000Y-31190000D03*
%TO.P,J1,9*%
%TO.N,+5V*%
X33080000Y-31190000D03*
%TO.P,J1,10*%
%TO.N,/SRTN*%
X30790000Y-31190000D03*
%TO.P,J1,11*%
%TO.N,GND*%
X38805000Y-29210000D03*
%TO.P,J1,12*%
%TO.N,SDA*%
X36515000Y-29210000D03*
%TO.P,J1,13*%
%TO.N,HSYNC*%
X34225000Y-29210000D03*
%TO.P,J1,14*%
%TO.N,VSYNC*%
X31935000Y-29210000D03*
%TO.P,J1,15*%
%TO.N,SCL*%
X29645000Y-29210000D03*
%TD*%
D17*
%TO.P,J3,1,Pin_1*%
%TO.N,+5V*%
X48895000Y-38110000D03*
D18*
%TO.P,J3,2,Pin_2*%
%TO.N,SDA*%
X48895000Y-40650000D03*
%TO.P,J3,3,Pin_3*%
%TO.N,SCL*%
X48895000Y-43190000D03*
%TO.P,J3,4,Pin_4*%
%TO.N,GND*%
X48895000Y-45730000D03*
%TD*%
D19*
%TO.P,JP1,1,A*%
%TO.N,GND*%
X48895000Y-51465000D03*
D20*
%TO.P,JP1,2,C*%
%TO.N,/WP*%
X48895000Y-50165000D03*
D21*
%TO.P,JP1,3,B*%
%TO.N,+5V*%
X48895000Y-48865000D03*
%TD*%
D22*
%TO.N,SCL*%
X45085000Y-40640000D03*
%TO.N,SDA*%
X43815000Y-38100000D03*
%TO.N,GND*%
X25400000Y-22860000D03*
X25400000Y-66040000D03*
X20320000Y-53340000D03*
X48260000Y-53340000D03*
X20320000Y-48260000D03*
X41910000Y-35560000D03*
X48260000Y-22860000D03*
X43180000Y-22860000D03*
X48260000Y-35560000D03*
X29210000Y-40640000D03*
X20320000Y-22860000D03*
X20320000Y-50800000D03*
X27940000Y-66040000D03*
X29210000Y-38100000D03*
X35560000Y-22860000D03*
X48260000Y-60960000D03*
X29210000Y-35560000D03*
X40640000Y-22860000D03*
X29210000Y-48260000D03*
X44450000Y-54610000D03*
X20320000Y-35560000D03*
X45720000Y-53340000D03*
X30480000Y-22860000D03*
X20320000Y-66040000D03*
X29210000Y-45720000D03*
X27940000Y-22860000D03*
X22860000Y-22860000D03*
X38100000Y-66040000D03*
X45720000Y-66040000D03*
X22860000Y-66040000D03*
X41910000Y-49530000D03*
X38100000Y-22860000D03*
X33020000Y-66040000D03*
X20320000Y-38100000D03*
X40640000Y-66040000D03*
X33020000Y-22860000D03*
X29210000Y-50800000D03*
X45720000Y-22860000D03*
X29210000Y-43180000D03*
X20320000Y-63500000D03*
X35560000Y-66040000D03*
X41910000Y-54610000D03*
X48260000Y-25400000D03*
X48260000Y-66040000D03*
X20320000Y-60960000D03*
X30480000Y-66040000D03*
X48260000Y-27940000D03*
X48260000Y-63500000D03*
X43180000Y-66040000D03*
X20320000Y-27940000D03*
X20320000Y-43180000D03*
X20320000Y-40640000D03*
X20320000Y-45720000D03*
X20320000Y-25400000D03*
X29210000Y-53340000D03*
%TO.N,VSYNC*%
X43815000Y-43180000D03*
%TD*%
D23*
%TO.N,+5V*%
X38777500Y-48580000D02*
X40212499Y-48580000D01*
X40720000Y-36830000D02*
X35560000Y-36830000D01*
X33080000Y-34350000D02*
X35560000Y-36830000D01*
X40997500Y-45085000D02*
X40997500Y-46920000D01*
X47000000Y-38110000D02*
X48895000Y-38110000D01*
X40212499Y-48580000D02*
X40997500Y-47794999D01*
X40997500Y-47794999D02*
X40997500Y-46920000D01*
X40720000Y-44807500D02*
X40997500Y-45085000D01*
X45720000Y-36830000D02*
X40720000Y-36830000D01*
X40720000Y-43180000D02*
X40720000Y-44807500D01*
X45720000Y-36830000D02*
X47000000Y-38110000D01*
X33080000Y-31190000D02*
X33080000Y-34350000D01*
X40720000Y-43180000D02*
X40720000Y-40640000D01*
X42067501Y-48865000D02*
X40997500Y-47794999D01*
X40720000Y-40640000D02*
X40720000Y-38100000D01*
X42067501Y-48865000D02*
X48895000Y-48865000D01*
X40720000Y-38100000D02*
X40720000Y-36830000D01*
%TO.N,SCL*%
X44002501Y-48260000D02*
X43537500Y-47794999D01*
X43537500Y-44727500D02*
X45085000Y-43180000D01*
X45085000Y-43180000D02*
X45085000Y-40640000D01*
X46990000Y-46990000D02*
X45720000Y-48260000D01*
X43537500Y-47794999D02*
X43537500Y-46920000D01*
X45720000Y-48260000D02*
X44002501Y-48260000D01*
X48895000Y-43190000D02*
X47000000Y-43190000D01*
X47000000Y-43190000D02*
X46990000Y-43180000D01*
X42545000Y-40640000D02*
X45085000Y-40640000D01*
X46990000Y-43180000D02*
X46990000Y-46990000D01*
X43537500Y-46920000D02*
X43537500Y-44727500D01*
%TO.N,SDA*%
X45685000Y-39970000D02*
X43815000Y-38100000D01*
X44807500Y-44871250D02*
X45685000Y-43993750D01*
X45695000Y-40650000D02*
X45685000Y-40640000D01*
X44807500Y-46920000D02*
X44807500Y-44871250D01*
X42545000Y-38100000D02*
X43815000Y-38100000D01*
X48895000Y-40650000D02*
X45695000Y-40650000D01*
X45685000Y-43993750D02*
X45685000Y-40640000D01*
X45685000Y-40640000D02*
X45685000Y-39970000D01*
%TO.N,GND*%
X46077500Y-52070000D02*
X44807500Y-52070000D01*
X46682500Y-51465000D02*
X48895000Y-51465000D01*
X46682500Y-51465000D02*
X46077500Y-52070000D01*
%TO.N,VSYNC*%
X42545000Y-43180000D02*
X42545000Y-44807500D01*
X42545000Y-44807500D02*
X42267500Y-45085000D01*
X42267500Y-45085000D02*
X42267500Y-46920000D01*
X42545000Y-43180000D02*
X43815000Y-43180000D01*
%TO.N,/WP*%
X43537500Y-51195001D02*
X43537500Y-52070000D01*
X44508751Y-50223751D02*
X43537500Y-51195001D01*
X44508751Y-50223751D02*
X44567502Y-50165000D01*
X44567502Y-50165000D02*
X48895000Y-50165000D01*
%TD*%
%TA.AperFunction,Conductor*%
%TO.N,GND*%
G36*
X50242539Y-20840185D02*
G01*
X50288294Y-20892989D01*
X50299500Y-20944500D01*
X50299500Y-36802171D01*
X50279815Y-36869210D01*
X50227011Y-36914965D01*
X50157853Y-36924909D01*
X50101189Y-36901438D01*
X50058138Y-36869210D01*
X49987331Y-36816204D01*
X49987329Y-36816203D01*
X49987328Y-36816202D01*
X49852482Y-36765908D01*
X49852483Y-36765908D01*
X49792883Y-36759501D01*
X49792881Y-36759500D01*
X49792873Y-36759500D01*
X49792864Y-36759500D01*
X47997129Y-36759500D01*
X47997123Y-36759501D01*
X47937516Y-36765908D01*
X47802671Y-36816202D01*
X47802664Y-36816206D01*
X47687455Y-36902452D01*
X47687452Y-36902455D01*
X47601206Y-37017664D01*
X47601202Y-37017671D01*
X47550908Y-37152517D01*
X47544501Y-37212116D01*
X47544500Y-37212135D01*
X47544500Y-37385500D01*
X47524815Y-37452539D01*
X47472011Y-37498294D01*
X47420500Y-37509500D01*
X47300097Y-37509500D01*
X47233058Y-37489815D01*
X47212416Y-37473181D01*
X46207590Y-36468355D01*
X46207588Y-36468352D01*
X46088717Y-36349481D01*
X46088716Y-36349480D01*
X46001904Y-36299360D01*
X46001904Y-36299359D01*
X46001900Y-36299358D01*
X45951785Y-36270423D01*
X45799057Y-36229499D01*
X45640943Y-36229499D01*
X45633347Y-36229499D01*
X45633331Y-36229500D01*
X35860098Y-36229500D01*
X35793059Y-36209815D01*
X35772417Y-36193181D01*
X34256436Y-34677201D01*
X34222951Y-34615878D01*
X34227935Y-34546186D01*
X34269807Y-34490253D01*
X34333309Y-34465992D01*
X34451692Y-34455635D01*
X34671496Y-34396739D01*
X34877734Y-34300568D01*
X35064139Y-34170047D01*
X35225047Y-34009139D01*
X35268425Y-33947188D01*
X35323001Y-33903563D01*
X35392499Y-33896369D01*
X35454854Y-33927891D01*
X35471576Y-33947189D01*
X35514955Y-34009142D01*
X35675858Y-34170045D01*
X35675861Y-34170047D01*
X35862266Y-34300568D01*
X36068504Y-34396739D01*
X36288308Y-34455635D01*
X36450230Y-34469801D01*
X36514998Y-34475468D01*
X36515000Y-34475468D01*
X36515002Y-34475468D01*
X36571807Y-34470498D01*
X36741692Y-34455635D01*
X36961496Y-34396739D01*
X37167734Y-34300568D01*
X37354139Y-34170047D01*
X37357028Y-34167157D01*
X37418345Y-34133671D01*
X37488037Y-34138650D01*
X37543974Y-34180517D01*
X37560892Y-34211498D01*
X37561199Y-34212323D01*
X37561206Y-34212335D01*
X37647452Y-34327544D01*
X37647455Y-34327547D01*
X37762664Y-34413793D01*
X37762671Y-34413797D01*
X37897517Y-34464091D01*
X37897516Y-34464091D01*
X37904444Y-34464835D01*
X37957127Y-34470500D01*
X39652872Y-34470499D01*
X39712483Y-34464091D01*
X39847331Y-34413796D01*
X39962546Y-34327546D01*
X40048796Y-34212331D01*
X40099091Y-34077483D01*
X40105500Y-34017873D01*
X40105499Y-32589858D01*
X40125184Y-32522820D01*
X40177987Y-32477065D01*
X40197398Y-32470086D01*
X40396496Y-32416739D01*
X40602734Y-32320568D01*
X40789139Y-32190047D01*
X40950047Y-32029139D01*
X41080568Y-31842734D01*
X41123814Y-31749994D01*
X44485057Y-31749994D01*
X44485057Y-31750005D01*
X44504807Y-32063942D01*
X44504808Y-32063949D01*
X44563755Y-32372958D01*
X44660963Y-32672132D01*
X44660965Y-32672137D01*
X44794900Y-32956761D01*
X44794903Y-32956767D01*
X44963457Y-33222367D01*
X44963460Y-33222371D01*
X45054286Y-33332160D01*
X45695748Y-32690698D01*
X45769588Y-32792330D01*
X45947670Y-32970412D01*
X46049300Y-33044250D01*
X45404971Y-33688579D01*
X45404972Y-33688581D01*
X45647772Y-33864985D01*
X45647790Y-33864996D01*
X45923447Y-34016540D01*
X45923455Y-34016544D01*
X46215926Y-34132340D01*
X46520620Y-34210573D01*
X46520629Y-34210575D01*
X46832701Y-34249999D01*
X46832715Y-34250000D01*
X47147285Y-34250000D01*
X47147298Y-34249999D01*
X47459370Y-34210575D01*
X47459379Y-34210573D01*
X47764073Y-34132340D01*
X48056544Y-34016544D01*
X48056552Y-34016540D01*
X48332209Y-33864996D01*
X48332219Y-33864990D01*
X48575026Y-33688579D01*
X48575027Y-33688579D01*
X47930698Y-33044251D01*
X48032330Y-32970412D01*
X48210412Y-32792330D01*
X48284251Y-32690699D01*
X48925712Y-33332160D01*
X49016544Y-33222364D01*
X49185096Y-32956767D01*
X49185099Y-32956761D01*
X49319034Y-32672137D01*
X49319036Y-32672132D01*
X49416244Y-32372958D01*
X49475191Y-32063949D01*
X49475192Y-32063942D01*
X49494943Y-31750005D01*
X49494943Y-31749994D01*
X49475192Y-31436057D01*
X49475191Y-31436050D01*
X49416244Y-31127041D01*
X49319036Y-30827867D01*
X49319034Y-30827862D01*
X49185099Y-30543238D01*
X49185096Y-30543232D01*
X49016542Y-30277632D01*
X49016539Y-30277628D01*
X48925712Y-30167838D01*
X48284250Y-30809300D01*
X48210412Y-30707670D01*
X48032330Y-30529588D01*
X47930698Y-30455748D01*
X48575027Y-29811419D01*
X48575026Y-29811417D01*
X48332227Y-29635014D01*
X48332209Y-29635003D01*
X48056552Y-29483459D01*
X48056544Y-29483455D01*
X47764073Y-29367659D01*
X47459379Y-29289426D01*
X47459370Y-29289424D01*
X47147298Y-29250000D01*
X46832701Y-29250000D01*
X46520629Y-29289424D01*
X46520620Y-29289426D01*
X46215926Y-29367659D01*
X45923455Y-29483455D01*
X45923447Y-29483459D01*
X45647787Y-29635004D01*
X45647782Y-29635007D01*
X45404972Y-29811418D01*
X45404971Y-29811419D01*
X46049301Y-30455748D01*
X45947670Y-30529588D01*
X45769588Y-30707670D01*
X45695748Y-30809300D01*
X45054286Y-30167838D01*
X45054285Y-30167838D01*
X44963459Y-30277629D01*
X44963457Y-30277632D01*
X44794903Y-30543232D01*
X44794900Y-30543238D01*
X44660965Y-30827862D01*
X44660963Y-30827867D01*
X44563755Y-31127041D01*
X44504808Y-31436050D01*
X44504807Y-31436057D01*
X44485057Y-31749994D01*
X41123814Y-31749994D01*
X41176739Y-31636496D01*
X41235635Y-31416692D01*
X41255468Y-31190000D01*
X41235635Y-30963308D01*
X41176739Y-30743504D01*
X41080568Y-30537266D01*
X40950047Y-30350861D01*
X40950045Y-30350858D01*
X40789141Y-30189954D01*
X40602734Y-30059432D01*
X40602732Y-30059431D01*
X40396497Y-29963261D01*
X40396488Y-29963258D01*
X40176697Y-29904366D01*
X40176687Y-29904364D01*
X40102253Y-29897852D01*
X40037184Y-29872399D01*
X39996206Y-29815808D01*
X39992328Y-29746046D01*
X40000679Y-29721918D01*
X40031267Y-29656321D01*
X40031269Y-29656317D01*
X40090139Y-29436610D01*
X40090141Y-29436599D01*
X40109966Y-29210002D01*
X40109966Y-29209997D01*
X40090141Y-28983400D01*
X40090139Y-28983389D01*
X40031269Y-28763682D01*
X40031264Y-28763668D01*
X39935136Y-28557521D01*
X39935132Y-28557513D01*
X39884025Y-28484526D01*
X39287962Y-29080588D01*
X39270925Y-29017007D01*
X39205099Y-28902993D01*
X39112007Y-28809901D01*
X38997993Y-28744075D01*
X38934410Y-28727037D01*
X39530472Y-28130974D01*
X39457478Y-28079863D01*
X39251331Y-27983735D01*
X39251317Y-27983730D01*
X39031610Y-27924860D01*
X39031599Y-27924858D01*
X38805002Y-27905034D01*
X38804998Y-27905034D01*
X38578400Y-27924858D01*
X38578389Y-27924860D01*
X38358682Y-27983730D01*
X38358673Y-27983734D01*
X38152516Y-28079866D01*
X38152512Y-28079868D01*
X38079526Y-28130973D01*
X38079526Y-28130974D01*
X38675590Y-28727037D01*
X38612007Y-28744075D01*
X38497993Y-28809901D01*
X38404901Y-28902993D01*
X38339075Y-29017007D01*
X38322037Y-29080590D01*
X37725974Y-28484526D01*
X37673536Y-28489114D01*
X37605036Y-28475347D01*
X37561154Y-28436709D01*
X37515045Y-28370858D01*
X37354141Y-28209954D01*
X37167734Y-28079432D01*
X37167732Y-28079431D01*
X36961497Y-27983261D01*
X36961488Y-27983258D01*
X36741697Y-27924366D01*
X36741693Y-27924365D01*
X36741692Y-27924365D01*
X36741691Y-27924364D01*
X36741686Y-27924364D01*
X36515002Y-27904532D01*
X36514998Y-27904532D01*
X36288313Y-27924364D01*
X36288302Y-27924366D01*
X36068511Y-27983258D01*
X36068502Y-27983261D01*
X35862267Y-28079431D01*
X35862265Y-28079432D01*
X35675858Y-28209954D01*
X35514953Y-28370859D01*
X35471575Y-28432811D01*
X35416998Y-28476436D01*
X35347500Y-28483630D01*
X35285145Y-28452107D01*
X35268425Y-28432811D01*
X35225046Y-28370859D01*
X35064141Y-28209954D01*
X34877734Y-28079432D01*
X34877732Y-28079431D01*
X34671497Y-27983261D01*
X34671488Y-27983258D01*
X34451697Y-27924366D01*
X34451693Y-27924365D01*
X34451692Y-27924365D01*
X34451691Y-27924364D01*
X34451686Y-27924364D01*
X34225002Y-27904532D01*
X34224998Y-27904532D01*
X33998313Y-27924364D01*
X33998302Y-27924366D01*
X33778511Y-27983258D01*
X33778502Y-27983261D01*
X33572267Y-28079431D01*
X33572265Y-28079432D01*
X33385858Y-28209954D01*
X33224953Y-28370859D01*
X33181575Y-28432811D01*
X33126998Y-28476436D01*
X33057500Y-28483630D01*
X32995145Y-28452107D01*
X32978425Y-28432811D01*
X32935046Y-28370859D01*
X32774141Y-28209954D01*
X32587734Y-28079432D01*
X32587732Y-28079431D01*
X32381497Y-27983261D01*
X32381488Y-27983258D01*
X32161697Y-27924366D01*
X32161693Y-27924365D01*
X32161692Y-27924365D01*
X32161691Y-27924364D01*
X32161686Y-27924364D01*
X31935002Y-27904532D01*
X31934998Y-27904532D01*
X31708313Y-27924364D01*
X31708302Y-27924366D01*
X31488511Y-27983258D01*
X31488502Y-27983261D01*
X31282267Y-28079431D01*
X31282265Y-28079432D01*
X31095858Y-28209954D01*
X30934953Y-28370859D01*
X30891575Y-28432811D01*
X30836998Y-28476436D01*
X30767500Y-28483630D01*
X30705145Y-28452107D01*
X30688425Y-28432811D01*
X30645046Y-28370859D01*
X30484141Y-28209954D01*
X30297734Y-28079432D01*
X30297732Y-28079431D01*
X30091497Y-27983261D01*
X30091488Y-27983258D01*
X29871697Y-27924366D01*
X29871693Y-27924365D01*
X29871692Y-27924365D01*
X29871691Y-27924364D01*
X29871686Y-27924364D01*
X29645002Y-27904532D01*
X29644998Y-27904532D01*
X29418313Y-27924364D01*
X29418302Y-27924366D01*
X29198511Y-27983258D01*
X29198502Y-27983261D01*
X28992267Y-28079431D01*
X28992265Y-28079432D01*
X28805858Y-28209954D01*
X28644954Y-28370858D01*
X28514432Y-28557265D01*
X28514431Y-28557267D01*
X28418261Y-28763502D01*
X28418258Y-28763511D01*
X28359366Y-28983302D01*
X28359364Y-28983313D01*
X28339532Y-29209998D01*
X28339532Y-29210001D01*
X28359364Y-29436686D01*
X28359366Y-29436697D01*
X28418258Y-29656488D01*
X28418261Y-29656497D01*
X28514431Y-29862732D01*
X28514432Y-29862734D01*
X28644954Y-30049141D01*
X28805858Y-30210045D01*
X28805861Y-30210047D01*
X28992266Y-30340568D01*
X29198504Y-30436739D01*
X29418308Y-30495635D01*
X29492215Y-30502101D01*
X29557284Y-30527553D01*
X29598263Y-30584144D01*
X29602141Y-30653906D01*
X29593790Y-30678033D01*
X29563263Y-30743497D01*
X29563258Y-30743511D01*
X29504366Y-30963302D01*
X29504364Y-30963313D01*
X29484532Y-31189998D01*
X29484532Y-31190001D01*
X29504364Y-31416686D01*
X29504366Y-31416697D01*
X29563258Y-31636488D01*
X29563261Y-31636497D01*
X29594015Y-31702447D01*
X29604507Y-31771524D01*
X29575988Y-31835308D01*
X29517511Y-31873548D01*
X29492442Y-31878380D01*
X29418399Y-31884858D01*
X29418389Y-31884860D01*
X29198682Y-31943730D01*
X29198673Y-31943734D01*
X28992516Y-32039866D01*
X28992512Y-32039868D01*
X28919526Y-32090973D01*
X28919526Y-32090974D01*
X29515590Y-32687037D01*
X29452007Y-32704075D01*
X29337993Y-32769901D01*
X29244901Y-32862993D01*
X29179075Y-32977007D01*
X29162037Y-33040589D01*
X28565974Y-32444526D01*
X28565973Y-32444526D01*
X28514868Y-32517512D01*
X28514866Y-32517516D01*
X28418734Y-32723673D01*
X28418730Y-32723682D01*
X28359860Y-32943389D01*
X28359858Y-32943400D01*
X28340034Y-33169997D01*
X28340034Y-33170002D01*
X28359858Y-33396599D01*
X28359860Y-33396610D01*
X28418730Y-33616317D01*
X28418735Y-33616331D01*
X28514863Y-33822478D01*
X28565974Y-33895472D01*
X29162037Y-33299409D01*
X29179075Y-33362993D01*
X29244901Y-33477007D01*
X29337993Y-33570099D01*
X29452007Y-33635925D01*
X29515590Y-33652962D01*
X28919526Y-34249025D01*
X28992513Y-34300132D01*
X28992521Y-34300136D01*
X29198668Y-34396264D01*
X29198682Y-34396269D01*
X29418389Y-34455139D01*
X29418400Y-34455141D01*
X29644998Y-34474966D01*
X29645002Y-34474966D01*
X29871599Y-34455141D01*
X29871610Y-34455139D01*
X30091317Y-34396269D01*
X30091331Y-34396264D01*
X30297478Y-34300136D01*
X30370471Y-34249024D01*
X29774409Y-33652962D01*
X29837993Y-33635925D01*
X29952007Y-33570099D01*
X30045099Y-33477007D01*
X30110925Y-33362993D01*
X30127962Y-33299409D01*
X30724024Y-33895471D01*
X30779191Y-33890645D01*
X30800806Y-33890645D01*
X30855974Y-33895472D01*
X31452037Y-33299409D01*
X31469075Y-33362993D01*
X31534901Y-33477007D01*
X31627993Y-33570099D01*
X31742007Y-33635925D01*
X31805588Y-33652962D01*
X31209526Y-34249025D01*
X31282513Y-34300132D01*
X31282521Y-34300136D01*
X31488668Y-34396264D01*
X31488682Y-34396269D01*
X31708389Y-34455139D01*
X31708400Y-34455141D01*
X31934998Y-34474966D01*
X31935002Y-34474966D01*
X32161599Y-34455141D01*
X32161606Y-34455140D01*
X32344950Y-34406012D01*
X32414799Y-34407675D01*
X32472662Y-34446837D01*
X32496817Y-34493690D01*
X32510884Y-34546186D01*
X32520423Y-34581785D01*
X32549358Y-34631900D01*
X32549359Y-34631904D01*
X32549360Y-34631904D01*
X32599479Y-34718714D01*
X32599481Y-34718717D01*
X32718349Y-34837585D01*
X32718354Y-34837589D01*
X35191284Y-37310520D01*
X35191286Y-37310521D01*
X35191290Y-37310524D01*
X35321154Y-37385500D01*
X35328216Y-37389577D01*
X35480943Y-37430501D01*
X35480945Y-37430501D01*
X35646654Y-37430501D01*
X35646670Y-37430500D01*
X39587002Y-37430500D01*
X39654041Y-37450185D01*
X39699796Y-37502989D01*
X39710360Y-37567103D01*
X39707000Y-37599983D01*
X39707000Y-38600001D01*
X39707001Y-38600019D01*
X39717500Y-38702796D01*
X39717501Y-38702799D01*
X39772685Y-38869331D01*
X39772687Y-38869336D01*
X39805310Y-38922226D01*
X39864788Y-39018656D01*
X39988844Y-39142712D01*
X40060596Y-39186968D01*
X40107321Y-39238915D01*
X40119500Y-39292507D01*
X40119500Y-39447491D01*
X40099815Y-39514530D01*
X40060598Y-39553029D01*
X39988844Y-39597287D01*
X39864789Y-39721342D01*
X39772687Y-39870663D01*
X39772685Y-39870668D01*
X39756966Y-39918106D01*
X39717501Y-40037203D01*
X39717501Y-40037204D01*
X39717500Y-40037204D01*
X39707000Y-40139983D01*
X39707000Y-41140001D01*
X39707001Y-41140019D01*
X39717500Y-41242796D01*
X39717501Y-41242799D01*
X39757829Y-41364500D01*
X39772686Y-41409334D01*
X39864788Y-41558656D01*
X39988844Y-41682712D01*
X40060596Y-41726968D01*
X40107321Y-41778915D01*
X40119500Y-41832507D01*
X40119500Y-41987491D01*
X40099815Y-42054530D01*
X40060598Y-42093029D01*
X39988844Y-42137287D01*
X39864789Y-42261342D01*
X39772687Y-42410663D01*
X39772685Y-42410668D01*
X39744849Y-42494670D01*
X39717501Y-42577203D01*
X39717501Y-42577204D01*
X39717500Y-42577204D01*
X39707000Y-42679983D01*
X39707000Y-43680001D01*
X39707001Y-43680019D01*
X39717500Y-43782796D01*
X39717501Y-43782799D01*
X39766752Y-43931427D01*
X39772686Y-43949334D01*
X39864788Y-44098656D01*
X39988844Y-44222712D01*
X40060596Y-44266968D01*
X40107321Y-44318915D01*
X40119500Y-44372507D01*
X40119500Y-44720830D01*
X40119499Y-44720848D01*
X40119499Y-44886554D01*
X40119498Y-44886554D01*
X40147104Y-44989578D01*
X40160423Y-45039285D01*
X40186046Y-45083665D01*
X40189358Y-45089400D01*
X40189359Y-45089404D01*
X40189360Y-45089404D01*
X40236668Y-45171346D01*
X40239479Y-45176214D01*
X40239481Y-45176217D01*
X40358349Y-45295085D01*
X40358355Y-45295090D01*
X40360681Y-45297416D01*
X40394166Y-45358739D01*
X40397000Y-45385097D01*
X40397000Y-45674191D01*
X40377315Y-45741230D01*
X40360681Y-45761872D01*
X40329423Y-45793129D01*
X40329417Y-45793137D01*
X40245755Y-45934603D01*
X40245754Y-45934606D01*
X40199902Y-46092426D01*
X40199901Y-46092432D01*
X40197000Y-46129298D01*
X40197000Y-47694901D01*
X40177315Y-47761940D01*
X40160681Y-47782582D01*
X40046406Y-47896857D01*
X39985083Y-47930342D01*
X39915391Y-47925358D01*
X39859458Y-47883486D01*
X39853186Y-47874272D01*
X39845212Y-47861344D01*
X39721157Y-47737289D01*
X39721156Y-47737288D01*
X39571834Y-47645186D01*
X39405297Y-47590001D01*
X39405295Y-47590000D01*
X39302510Y-47579500D01*
X38252498Y-47579500D01*
X38252480Y-47579501D01*
X38149703Y-47590000D01*
X38149700Y-47590001D01*
X37983168Y-47645185D01*
X37983163Y-47645187D01*
X37833842Y-47737289D01*
X37709789Y-47861342D01*
X37617687Y-48010663D01*
X37617686Y-48010666D01*
X37562501Y-48177203D01*
X37562501Y-48177204D01*
X37562500Y-48177204D01*
X37552000Y-48279983D01*
X37552000Y-48880001D01*
X37552001Y-48880019D01*
X37562500Y-48982796D01*
X37562501Y-48982799D01*
X37614453Y-49139577D01*
X37617686Y-49149334D01*
X37709788Y-49298656D01*
X37833844Y-49422712D01*
X37836868Y-49424577D01*
X37837153Y-49424753D01*
X37838945Y-49426746D01*
X37839511Y-49427193D01*
X37839434Y-49427289D01*
X37883879Y-49476699D01*
X37895103Y-49545661D01*
X37867261Y-49609744D01*
X37837165Y-49635826D01*
X37834160Y-49637679D01*
X37834155Y-49637683D01*
X37710184Y-49761654D01*
X37618143Y-49910875D01*
X37618141Y-49910880D01*
X37562994Y-50077302D01*
X37562993Y-50077309D01*
X37552500Y-50180013D01*
X37552500Y-50230000D01*
X40002499Y-50230000D01*
X40002499Y-50180028D01*
X40002498Y-50180013D01*
X39992005Y-50077302D01*
X39936858Y-49910880D01*
X39936856Y-49910875D01*
X39844815Y-49761654D01*
X39720844Y-49637683D01*
X39720841Y-49637681D01*
X39717839Y-49635829D01*
X39716213Y-49634021D01*
X39715177Y-49633202D01*
X39715317Y-49633024D01*
X39671117Y-49583880D01*
X39659897Y-49514917D01*
X39687743Y-49450836D01*
X39717844Y-49424754D01*
X39721156Y-49422712D01*
X39845212Y-49298656D01*
X39881759Y-49239402D01*
X39933707Y-49192679D01*
X39987298Y-49180500D01*
X40125830Y-49180500D01*
X40125846Y-49180501D01*
X40133442Y-49180501D01*
X40291553Y-49180501D01*
X40291556Y-49180501D01*
X40444284Y-49139577D01*
X40494403Y-49110639D01*
X40581215Y-49060520D01*
X40693019Y-48948716D01*
X40693019Y-48948714D01*
X40703227Y-48938507D01*
X40703228Y-48938504D01*
X40909821Y-48731911D01*
X40971141Y-48698429D01*
X41040833Y-48703413D01*
X41085180Y-48731914D01*
X41582640Y-49229374D01*
X41582650Y-49229385D01*
X41586980Y-49233715D01*
X41586981Y-49233716D01*
X41698785Y-49345520D01*
X41785596Y-49395639D01*
X41785598Y-49395641D01*
X41819129Y-49415000D01*
X41835716Y-49424577D01*
X41988444Y-49465501D01*
X41988447Y-49465501D01*
X42154154Y-49465501D01*
X42154170Y-49465500D01*
X44118874Y-49465500D01*
X44185913Y-49485185D01*
X44231668Y-49537989D01*
X44241612Y-49607147D01*
X44212587Y-49670703D01*
X44204306Y-49678506D01*
X44204533Y-49678733D01*
X44086980Y-49796286D01*
X43168786Y-50714479D01*
X43168766Y-50714499D01*
X43166562Y-50716702D01*
X43133676Y-50739048D01*
X43133816Y-50739285D01*
X43130051Y-50741511D01*
X43128158Y-50742798D01*
X43127105Y-50743253D01*
X42985640Y-50826915D01*
X42979474Y-50831699D01*
X42977674Y-50829379D01*
X42928413Y-50856230D01*
X42858725Y-50851193D01*
X42826492Y-50830461D01*
X42825222Y-50832100D01*
X42819052Y-50827314D01*
X42677696Y-50743717D01*
X42677693Y-50743716D01*
X42519994Y-50697900D01*
X42519997Y-50697900D01*
X42517500Y-50697703D01*
X42517500Y-53442295D01*
X42517501Y-53442295D01*
X42519986Y-53442100D01*
X42677698Y-53396281D01*
X42819050Y-53312686D01*
X42825217Y-53307903D01*
X42827130Y-53310369D01*
X42875722Y-53283802D01*
X42945417Y-53288749D01*
X42978262Y-53309853D01*
X42979469Y-53308298D01*
X42985632Y-53313078D01*
X42985635Y-53313081D01*
X43127102Y-53396744D01*
X43168724Y-53408836D01*
X43284926Y-53442597D01*
X43284929Y-53442597D01*
X43284931Y-53442598D01*
X43321806Y-53445500D01*
X43321814Y-53445500D01*
X43753186Y-53445500D01*
X43753194Y-53445500D01*
X43790069Y-53442598D01*
X43790071Y-53442597D01*
X43790073Y-53442597D01*
X43831691Y-53430505D01*
X43947898Y-53396744D01*
X44089365Y-53313081D01*
X44089368Y-53313077D01*
X44095526Y-53308301D01*
X44097339Y-53310638D01*
X44146449Y-53283798D01*
X44216143Y-53288756D01*
X44248496Y-53309551D01*
X44249778Y-53307900D01*
X44255947Y-53312685D01*
X44397301Y-53396281D01*
X44555014Y-53442100D01*
X44555011Y-53442100D01*
X44557498Y-53442295D01*
X44557500Y-53442295D01*
X45057500Y-53442295D01*
X45057501Y-53442295D01*
X45059986Y-53442100D01*
X45217698Y-53396281D01*
X45359052Y-53312685D01*
X45359061Y-53312678D01*
X45475178Y-53196561D01*
X45475185Y-53196552D01*
X45558782Y-53055196D01*
X45558783Y-53055193D01*
X45604599Y-52897495D01*
X45604600Y-52897489D01*
X45607499Y-52860649D01*
X45607500Y-52860634D01*
X45607500Y-52320000D01*
X45057500Y-52320000D01*
X45057500Y-53442295D01*
X44557500Y-53442295D01*
X44557500Y-51944000D01*
X44577185Y-51876961D01*
X44629989Y-51831206D01*
X44681500Y-51820000D01*
X45607500Y-51820000D01*
X45607500Y-51279365D01*
X45607499Y-51279350D01*
X45604600Y-51242510D01*
X45604599Y-51242504D01*
X45558783Y-51084806D01*
X45558782Y-51084803D01*
X45480610Y-50952621D01*
X45463427Y-50884897D01*
X45485587Y-50818635D01*
X45540053Y-50774871D01*
X45587342Y-50765500D01*
X47562209Y-50765500D01*
X47629248Y-50785185D01*
X47675003Y-50837989D01*
X47678391Y-50846167D01*
X47701202Y-50907328D01*
X47701206Y-50907335D01*
X47787452Y-51022544D01*
X47787455Y-51022547D01*
X47902664Y-51108793D01*
X47902671Y-51108797D01*
X48037517Y-51159091D01*
X48037516Y-51159091D01*
X48044444Y-51159835D01*
X48097127Y-51165500D01*
X49692872Y-51165499D01*
X49752483Y-51159091D01*
X49887331Y-51108796D01*
X50002546Y-51022546D01*
X50076234Y-50924110D01*
X50132167Y-50882241D01*
X50201859Y-50877257D01*
X50263182Y-50910742D01*
X50296666Y-50972066D01*
X50299500Y-50998423D01*
X50299500Y-67320500D01*
X50279815Y-67387539D01*
X50227011Y-67433294D01*
X50175500Y-67444500D01*
X18404500Y-67444500D01*
X18337461Y-67424815D01*
X18291706Y-67372011D01*
X18280500Y-67320500D01*
X18280500Y-59689998D01*
X28339532Y-59689998D01*
X28339532Y-59690001D01*
X28359364Y-59916686D01*
X28359366Y-59916697D01*
X28418258Y-60136488D01*
X28418261Y-60136497D01*
X28514431Y-60342732D01*
X28514432Y-60342734D01*
X28644954Y-60529141D01*
X28805858Y-60690045D01*
X28805861Y-60690047D01*
X28992266Y-60820568D01*
X29198504Y-60916739D01*
X29418308Y-60975635D01*
X29580230Y-60989801D01*
X29644998Y-60995468D01*
X29645000Y-60995468D01*
X29645002Y-60995468D01*
X29701673Y-60990509D01*
X29871692Y-60975635D01*
X30091496Y-60916739D01*
X30297734Y-60820568D01*
X30484139Y-60690047D01*
X30645047Y-60529139D01*
X30688425Y-60467188D01*
X30743001Y-60423563D01*
X30812499Y-60416369D01*
X30874854Y-60447891D01*
X30891576Y-60467189D01*
X30934955Y-60529142D01*
X31095858Y-60690045D01*
X31095861Y-60690047D01*
X31282266Y-60820568D01*
X31488504Y-60916739D01*
X31708308Y-60975635D01*
X31870230Y-60989801D01*
X31934998Y-60995468D01*
X31935000Y-60995468D01*
X31935002Y-60995468D01*
X31991673Y-60990509D01*
X32161692Y-60975635D01*
X32381496Y-60916739D01*
X32587734Y-60820568D01*
X32774139Y-60690047D01*
X32935047Y-60529139D01*
X32978425Y-60467188D01*
X33033001Y-60423563D01*
X33102499Y-60416369D01*
X33164854Y-60447891D01*
X33181576Y-60467189D01*
X33224955Y-60529142D01*
X33385858Y-60690045D01*
X33385861Y-60690047D01*
X33572266Y-60820568D01*
X33778504Y-60916739D01*
X33998308Y-60975635D01*
X34160230Y-60989801D01*
X34224998Y-60995468D01*
X34225000Y-60995468D01*
X34225002Y-60995468D01*
X34281673Y-60990509D01*
X34451692Y-60975635D01*
X34671496Y-60916739D01*
X34877734Y-60820568D01*
X35064139Y-60690047D01*
X35225047Y-60529139D01*
X35268425Y-60467188D01*
X35323001Y-60423563D01*
X35392499Y-60416369D01*
X35454854Y-60447891D01*
X35471576Y-60467189D01*
X35514955Y-60529142D01*
X35675858Y-60690045D01*
X35675861Y-60690047D01*
X35862266Y-60820568D01*
X36068504Y-60916739D01*
X36288308Y-60975635D01*
X36450230Y-60989801D01*
X36514998Y-60995468D01*
X36515000Y-60995468D01*
X36515002Y-60995468D01*
X36571673Y-60990509D01*
X36741692Y-60975635D01*
X36961496Y-60916739D01*
X37167734Y-60820568D01*
X37354139Y-60690047D01*
X37515047Y-60529139D01*
X37558425Y-60467188D01*
X37613001Y-60423563D01*
X37682499Y-60416369D01*
X37744854Y-60447891D01*
X37761576Y-60467189D01*
X37804955Y-60529142D01*
X37965858Y-60690045D01*
X37965861Y-60690047D01*
X38152266Y-60820568D01*
X38358504Y-60916739D01*
X38578308Y-60975635D01*
X38740230Y-60989801D01*
X38804998Y-60995468D01*
X38805000Y-60995468D01*
X38805002Y-60995468D01*
X38861673Y-60990509D01*
X39031692Y-60975635D01*
X39251496Y-60916739D01*
X39457734Y-60820568D01*
X39644139Y-60690047D01*
X39805047Y-60529139D01*
X39935568Y-60342734D01*
X40031739Y-60136496D01*
X40090635Y-59916692D01*
X40110468Y-59690000D01*
X40106968Y-59650000D01*
X40103519Y-59610573D01*
X40090635Y-59463308D01*
X40031739Y-59243504D01*
X40001208Y-59178031D01*
X39990717Y-59108957D01*
X40019236Y-59045173D01*
X40077712Y-59006933D01*
X40102782Y-59002101D01*
X40176692Y-58995635D01*
X40396496Y-58936739D01*
X40602734Y-58840568D01*
X40789139Y-58710047D01*
X40950047Y-58549139D01*
X41080568Y-58362734D01*
X41176739Y-58156496D01*
X41235635Y-57936692D01*
X41255468Y-57710000D01*
X41235635Y-57483308D01*
X41176739Y-57263504D01*
X41123808Y-57149994D01*
X44485057Y-57149994D01*
X44485057Y-57150005D01*
X44504807Y-57463942D01*
X44504808Y-57463949D01*
X44563755Y-57772958D01*
X44660963Y-58072132D01*
X44660965Y-58072137D01*
X44794900Y-58356761D01*
X44794903Y-58356767D01*
X44963457Y-58622367D01*
X44963460Y-58622371D01*
X45054286Y-58732160D01*
X45695748Y-58090698D01*
X45769588Y-58192330D01*
X45947670Y-58370412D01*
X46049300Y-58444250D01*
X45404971Y-59088579D01*
X45404972Y-59088581D01*
X45647772Y-59264985D01*
X45647790Y-59264996D01*
X45923447Y-59416540D01*
X45923455Y-59416544D01*
X46215926Y-59532340D01*
X46520620Y-59610573D01*
X46520629Y-59610575D01*
X46832701Y-59649999D01*
X46832715Y-59650000D01*
X47147285Y-59650000D01*
X47147298Y-59649999D01*
X47459370Y-59610575D01*
X47459379Y-59610573D01*
X47764073Y-59532340D01*
X48056544Y-59416544D01*
X48056552Y-59416540D01*
X48332209Y-59264996D01*
X48332219Y-59264990D01*
X48575026Y-59088579D01*
X48575027Y-59088579D01*
X47930698Y-58444251D01*
X48032330Y-58370412D01*
X48210412Y-58192330D01*
X48284251Y-58090699D01*
X48925712Y-58732160D01*
X49016544Y-58622364D01*
X49185096Y-58356767D01*
X49185099Y-58356761D01*
X49319034Y-58072137D01*
X49319036Y-58072132D01*
X49416244Y-57772958D01*
X49475191Y-57463949D01*
X49475192Y-57463942D01*
X49494943Y-57150005D01*
X49494943Y-57149994D01*
X49475192Y-56836057D01*
X49475191Y-56836050D01*
X49416244Y-56527041D01*
X49319036Y-56227867D01*
X49319034Y-56227862D01*
X49185099Y-55943238D01*
X49185096Y-55943232D01*
X49016542Y-55677632D01*
X49016539Y-55677628D01*
X48925712Y-55567838D01*
X48284250Y-56209300D01*
X48210412Y-56107670D01*
X48032330Y-55929588D01*
X47930698Y-55855748D01*
X48575027Y-55211419D01*
X48575026Y-55211417D01*
X48332227Y-55035014D01*
X48332209Y-55035003D01*
X48056552Y-54883459D01*
X48056544Y-54883455D01*
X47764073Y-54767659D01*
X47459379Y-54689426D01*
X47459370Y-54689424D01*
X47147298Y-54650000D01*
X46832701Y-54650000D01*
X46520629Y-54689424D01*
X46520620Y-54689426D01*
X46215926Y-54767659D01*
X45923455Y-54883455D01*
X45923447Y-54883459D01*
X45647787Y-55035004D01*
X45647782Y-55035007D01*
X45404972Y-55211418D01*
X45404971Y-55211419D01*
X46049301Y-55855748D01*
X45947670Y-55929588D01*
X45769588Y-56107670D01*
X45695748Y-56209300D01*
X45054286Y-55567838D01*
X45054285Y-55567838D01*
X44963459Y-55677629D01*
X44963457Y-55677632D01*
X44794903Y-55943232D01*
X44794900Y-55943238D01*
X44660965Y-56227862D01*
X44660963Y-56227867D01*
X44563755Y-56527041D01*
X44504808Y-56836050D01*
X44504807Y-56836057D01*
X44485057Y-57149994D01*
X41123808Y-57149994D01*
X41080568Y-57057266D01*
X40950047Y-56870861D01*
X40950045Y-56870858D01*
X40789141Y-56709954D01*
X40602734Y-56579432D01*
X40602732Y-56579431D01*
X40396497Y-56483261D01*
X40396488Y-56483258D01*
X40197406Y-56429915D01*
X40137745Y-56393550D01*
X40107216Y-56330703D01*
X40105499Y-56310140D01*
X40105499Y-54882129D01*
X40105498Y-54882123D01*
X40105322Y-54880490D01*
X40099091Y-54822517D01*
X40078630Y-54767659D01*
X40048797Y-54687671D01*
X40048793Y-54687664D01*
X39962547Y-54572455D01*
X39962544Y-54572452D01*
X39847335Y-54486206D01*
X39847328Y-54486202D01*
X39712482Y-54435908D01*
X39712483Y-54435908D01*
X39652883Y-54429501D01*
X39652881Y-54429500D01*
X39652873Y-54429500D01*
X39652864Y-54429500D01*
X37957129Y-54429500D01*
X37957123Y-54429501D01*
X37897516Y-54435908D01*
X37762671Y-54486202D01*
X37762664Y-54486206D01*
X37647455Y-54572452D01*
X37647452Y-54572455D01*
X37561206Y-54687664D01*
X37561198Y-54687678D01*
X37560889Y-54688509D01*
X37560358Y-54689217D01*
X37556953Y-54695454D01*
X37556055Y-54694964D01*
X37519012Y-54744438D01*
X37453545Y-54768848D01*
X37385274Y-54753989D01*
X37357031Y-54732844D01*
X37354141Y-54729954D01*
X37167734Y-54599432D01*
X37167732Y-54599431D01*
X36961497Y-54503261D01*
X36961488Y-54503258D01*
X36741697Y-54444366D01*
X36741693Y-54444365D01*
X36741692Y-54444365D01*
X36741691Y-54444364D01*
X36741686Y-54444364D01*
X36515002Y-54424532D01*
X36514998Y-54424532D01*
X36288313Y-54444364D01*
X36288302Y-54444366D01*
X36068511Y-54503258D01*
X36068502Y-54503261D01*
X35862267Y-54599431D01*
X35862265Y-54599432D01*
X35675858Y-54729954D01*
X35514953Y-54890859D01*
X35471575Y-54952811D01*
X35416998Y-54996436D01*
X35347500Y-55003630D01*
X35285145Y-54972107D01*
X35268425Y-54952811D01*
X35225046Y-54890859D01*
X35064141Y-54729954D01*
X34877734Y-54599432D01*
X34877732Y-54599431D01*
X34671497Y-54503261D01*
X34671488Y-54503258D01*
X34451697Y-54444366D01*
X34451693Y-54444365D01*
X34451692Y-54444365D01*
X34451691Y-54444364D01*
X34451686Y-54444364D01*
X34225002Y-54424532D01*
X34224998Y-54424532D01*
X33998313Y-54444364D01*
X33998302Y-54444366D01*
X33778511Y-54503258D01*
X33778502Y-54503261D01*
X33572267Y-54599431D01*
X33572265Y-54599432D01*
X33385858Y-54729954D01*
X33224953Y-54890859D01*
X33181575Y-54952811D01*
X33126998Y-54996436D01*
X33057500Y-55003630D01*
X32995145Y-54972107D01*
X32978425Y-54952811D01*
X32935046Y-54890859D01*
X32774141Y-54729954D01*
X32587734Y-54599432D01*
X32587732Y-54599431D01*
X32381497Y-54503261D01*
X32381488Y-54503258D01*
X32161697Y-54444366D01*
X32161693Y-54444365D01*
X32161692Y-54444365D01*
X32161691Y-54444364D01*
X32161686Y-54444364D01*
X31935002Y-54424532D01*
X31934998Y-54424532D01*
X31708313Y-54444364D01*
X31708302Y-54444366D01*
X31488511Y-54503258D01*
X31488502Y-54503261D01*
X31282267Y-54599431D01*
X31282265Y-54599432D01*
X31095858Y-54729954D01*
X30934956Y-54890856D01*
X30888845Y-54956710D01*
X30834268Y-55000335D01*
X30776464Y-55009114D01*
X30724025Y-55004526D01*
X30127962Y-55600589D01*
X30110925Y-55537007D01*
X30045099Y-55422993D01*
X29952007Y-55329901D01*
X29837993Y-55264075D01*
X29774410Y-55247037D01*
X30370472Y-54650974D01*
X30297478Y-54599863D01*
X30091331Y-54503735D01*
X30091317Y-54503730D01*
X29871610Y-54444860D01*
X29871599Y-54444858D01*
X29645002Y-54425034D01*
X29644998Y-54425034D01*
X29418400Y-54444858D01*
X29418389Y-54444860D01*
X29198682Y-54503730D01*
X29198673Y-54503734D01*
X28992516Y-54599866D01*
X28992512Y-54599868D01*
X28919526Y-54650973D01*
X28919526Y-54650974D01*
X29515590Y-55247037D01*
X29452007Y-55264075D01*
X29337993Y-55329901D01*
X29244901Y-55422993D01*
X29179075Y-55537007D01*
X29162037Y-55600589D01*
X28565974Y-55004526D01*
X28565973Y-55004526D01*
X28514868Y-55077512D01*
X28514866Y-55077516D01*
X28418734Y-55283673D01*
X28418730Y-55283682D01*
X28359860Y-55503389D01*
X28359858Y-55503400D01*
X28340034Y-55729997D01*
X28340034Y-55730002D01*
X28359858Y-55956599D01*
X28359860Y-55956610D01*
X28418730Y-56176317D01*
X28418735Y-56176331D01*
X28514863Y-56382478D01*
X28565974Y-56455472D01*
X29162037Y-55859409D01*
X29179075Y-55922993D01*
X29244901Y-56037007D01*
X29337993Y-56130099D01*
X29452007Y-56195925D01*
X29515590Y-56212962D01*
X28919526Y-56809025D01*
X28992513Y-56860132D01*
X28992521Y-56860136D01*
X29198668Y-56956264D01*
X29198682Y-56956269D01*
X29418389Y-57015139D01*
X29418400Y-57015141D01*
X29492439Y-57021618D01*
X29557508Y-57047069D01*
X29598487Y-57103660D01*
X29602366Y-57173422D01*
X29594016Y-57197550D01*
X29563260Y-57263506D01*
X29563258Y-57263511D01*
X29504366Y-57483302D01*
X29504364Y-57483313D01*
X29484532Y-57709998D01*
X29484532Y-57710001D01*
X29504364Y-57936686D01*
X29504366Y-57936697D01*
X29563258Y-58156488D01*
X29563260Y-58156492D01*
X29563261Y-58156496D01*
X29579971Y-58192330D01*
X29593790Y-58221965D01*
X29604282Y-58291043D01*
X29575762Y-58354827D01*
X29517286Y-58393066D01*
X29492217Y-58397898D01*
X29418312Y-58404364D01*
X29418302Y-58404366D01*
X29198511Y-58463258D01*
X29198502Y-58463261D01*
X28992267Y-58559431D01*
X28992265Y-58559432D01*
X28805858Y-58689954D01*
X28644954Y-58850858D01*
X28514432Y-59037265D01*
X28514431Y-59037267D01*
X28418261Y-59243502D01*
X28418258Y-59243511D01*
X28359366Y-59463302D01*
X28359364Y-59463313D01*
X28339532Y-59689998D01*
X18280500Y-59689998D01*
X18280500Y-57149994D01*
X19485057Y-57149994D01*
X19485057Y-57150005D01*
X19504807Y-57463942D01*
X19504808Y-57463949D01*
X19563755Y-57772958D01*
X19660963Y-58072132D01*
X19660965Y-58072137D01*
X19794900Y-58356761D01*
X19794903Y-58356767D01*
X19963457Y-58622367D01*
X19963460Y-58622371D01*
X20054286Y-58732160D01*
X20695748Y-58090698D01*
X20769588Y-58192330D01*
X20947670Y-58370412D01*
X21049300Y-58444250D01*
X20404971Y-59088579D01*
X20404972Y-59088581D01*
X20647772Y-59264985D01*
X20647790Y-59264996D01*
X20923447Y-59416540D01*
X20923455Y-59416544D01*
X21215926Y-59532340D01*
X21520620Y-59610573D01*
X21520629Y-59610575D01*
X21832701Y-59649999D01*
X21832715Y-59650000D01*
X22147285Y-59650000D01*
X22147298Y-59649999D01*
X22459370Y-59610575D01*
X22459379Y-59610573D01*
X22764073Y-59532340D01*
X23056544Y-59416544D01*
X23056552Y-59416540D01*
X23332209Y-59264996D01*
X23332219Y-59264990D01*
X23575026Y-59088579D01*
X23575027Y-59088579D01*
X22930698Y-58444251D01*
X23032330Y-58370412D01*
X23210412Y-58192330D01*
X23284251Y-58090698D01*
X23925712Y-58732160D01*
X24016544Y-58622364D01*
X24185096Y-58356767D01*
X24185099Y-58356761D01*
X24319034Y-58072137D01*
X24319036Y-58072132D01*
X24416244Y-57772958D01*
X24475191Y-57463949D01*
X24475192Y-57463942D01*
X24494943Y-57150005D01*
X24494943Y-57149994D01*
X24475192Y-56836057D01*
X24475191Y-56836050D01*
X24416244Y-56527041D01*
X24319036Y-56227867D01*
X24319034Y-56227862D01*
X24185099Y-55943238D01*
X24185096Y-55943232D01*
X24016542Y-55677632D01*
X24016539Y-55677628D01*
X23925712Y-55567838D01*
X23284250Y-56209300D01*
X23210412Y-56107670D01*
X23032330Y-55929588D01*
X22930698Y-55855748D01*
X23575027Y-55211419D01*
X23575026Y-55211417D01*
X23332227Y-55035014D01*
X23332209Y-55035003D01*
X23056552Y-54883459D01*
X23056544Y-54883455D01*
X22764073Y-54767659D01*
X22459379Y-54689426D01*
X22459370Y-54689424D01*
X22147298Y-54650000D01*
X21832701Y-54650000D01*
X21520629Y-54689424D01*
X21520620Y-54689426D01*
X21215926Y-54767659D01*
X20923455Y-54883455D01*
X20923447Y-54883459D01*
X20647787Y-55035004D01*
X20647782Y-55035007D01*
X20404972Y-55211418D01*
X20404971Y-55211419D01*
X21049301Y-55855748D01*
X20947670Y-55929588D01*
X20769588Y-56107670D01*
X20695748Y-56209300D01*
X20054286Y-55567838D01*
X20054285Y-55567838D01*
X19963459Y-55677629D01*
X19963457Y-55677632D01*
X19794903Y-55943232D01*
X19794900Y-55943238D01*
X19660965Y-56227862D01*
X19660963Y-56227867D01*
X19563755Y-56527041D01*
X19504808Y-56836050D01*
X19504807Y-56836057D01*
X19485057Y-57149994D01*
X18280500Y-57149994D01*
X18280500Y-52860649D01*
X40197500Y-52860649D01*
X40200399Y-52897489D01*
X40200400Y-52897495D01*
X40246216Y-53055193D01*
X40246217Y-53055196D01*
X40329814Y-53196552D01*
X40329821Y-53196561D01*
X40445938Y-53312678D01*
X40445947Y-53312685D01*
X40587301Y-53396281D01*
X40745014Y-53442100D01*
X40745011Y-53442100D01*
X40747498Y-53442295D01*
X40747500Y-53442295D01*
X41247500Y-53442295D01*
X41247501Y-53442295D01*
X41249986Y-53442100D01*
X41407698Y-53396281D01*
X41549052Y-53312685D01*
X41555222Y-53307900D01*
X41557046Y-53310252D01*
X41606095Y-53283445D01*
X41675788Y-53288402D01*
X41708563Y-53309465D01*
X41709778Y-53307900D01*
X41715947Y-53312685D01*
X41857301Y-53396281D01*
X42015014Y-53442100D01*
X42015011Y-53442100D01*
X42017498Y-53442295D01*
X42017500Y-53442295D01*
X42017500Y-52320000D01*
X41247500Y-52320000D01*
X41247500Y-53442295D01*
X40747500Y-53442295D01*
X40747500Y-52320000D01*
X40197500Y-52320000D01*
X40197500Y-52860649D01*
X18280500Y-52860649D01*
X18280500Y-50779986D01*
X37552501Y-50779986D01*
X37562994Y-50882697D01*
X37618141Y-51049119D01*
X37618143Y-51049124D01*
X37710184Y-51198345D01*
X37834154Y-51322315D01*
X37983375Y-51414356D01*
X37983380Y-51414358D01*
X38149802Y-51469505D01*
X38149809Y-51469506D01*
X38252519Y-51479999D01*
X38527499Y-51479999D01*
X39027500Y-51479999D01*
X39302472Y-51479999D01*
X39302486Y-51479998D01*
X39405197Y-51469505D01*
X39571619Y-51414358D01*
X39571624Y-51414356D01*
X39720845Y-51322315D01*
X39763810Y-51279350D01*
X40197500Y-51279350D01*
X40197500Y-51820000D01*
X40747500Y-51820000D01*
X40747500Y-50697703D01*
X41247500Y-50697703D01*
X41247500Y-51820000D01*
X42017500Y-51820000D01*
X42017500Y-50697703D01*
X42015003Y-50697900D01*
X41857306Y-50743716D01*
X41857303Y-50743717D01*
X41715947Y-50827314D01*
X41709778Y-50832100D01*
X41707957Y-50829753D01*
X41658858Y-50856564D01*
X41589166Y-50851580D01*
X41556430Y-50830541D01*
X41555222Y-50832100D01*
X41549052Y-50827314D01*
X41407696Y-50743717D01*
X41407693Y-50743716D01*
X41249994Y-50697900D01*
X41249997Y-50697900D01*
X41247500Y-50697703D01*
X40747500Y-50697703D01*
X40745003Y-50697900D01*
X40587306Y-50743716D01*
X40587303Y-50743717D01*
X40445947Y-50827314D01*
X40445938Y-50827321D01*
X40329821Y-50943438D01*
X40329814Y-50943447D01*
X40246217Y-51084803D01*
X40246216Y-51084806D01*
X40200400Y-51242504D01*
X40200399Y-51242510D01*
X40197500Y-51279350D01*
X39763810Y-51279350D01*
X39844815Y-51198345D01*
X39936856Y-51049124D01*
X39936858Y-51049119D01*
X39992005Y-50882697D01*
X39992006Y-50882690D01*
X40002499Y-50779986D01*
X40002500Y-50779973D01*
X40002500Y-50730000D01*
X39027500Y-50730000D01*
X39027500Y-51479999D01*
X38527499Y-51479999D01*
X38527500Y-51479998D01*
X38527500Y-50730000D01*
X37552501Y-50730000D01*
X37552501Y-50779986D01*
X18280500Y-50779986D01*
X18280500Y-31749994D01*
X19485057Y-31749994D01*
X19485057Y-31750005D01*
X19504807Y-32063942D01*
X19504808Y-32063949D01*
X19563755Y-32372958D01*
X19660963Y-32672132D01*
X19660965Y-32672137D01*
X19794900Y-32956761D01*
X19794903Y-32956767D01*
X19963457Y-33222367D01*
X19963460Y-33222371D01*
X20054286Y-33332160D01*
X20695748Y-32690698D01*
X20769588Y-32792330D01*
X20947670Y-32970412D01*
X21049300Y-33044250D01*
X20404971Y-33688579D01*
X20404972Y-33688581D01*
X20647772Y-33864985D01*
X20647790Y-33864996D01*
X20923447Y-34016540D01*
X20923455Y-34016544D01*
X21215926Y-34132340D01*
X21520620Y-34210573D01*
X21520629Y-34210575D01*
X21832701Y-34249999D01*
X21832715Y-34250000D01*
X22147285Y-34250000D01*
X22147298Y-34249999D01*
X22459370Y-34210575D01*
X22459379Y-34210573D01*
X22764073Y-34132340D01*
X23056544Y-34016544D01*
X23056552Y-34016540D01*
X23332209Y-33864996D01*
X23332219Y-33864990D01*
X23575026Y-33688579D01*
X23575027Y-33688579D01*
X22930698Y-33044251D01*
X23032330Y-32970412D01*
X23210412Y-32792330D01*
X23284251Y-32690698D01*
X23925712Y-33332160D01*
X24016544Y-33222364D01*
X24185096Y-32956767D01*
X24185099Y-32956761D01*
X24319034Y-32672137D01*
X24319036Y-32672132D01*
X24416244Y-32372958D01*
X24475191Y-32063949D01*
X24475192Y-32063942D01*
X24494943Y-31750005D01*
X24494943Y-31749994D01*
X24475192Y-31436057D01*
X24475191Y-31436050D01*
X24416244Y-31127041D01*
X24319036Y-30827867D01*
X24319034Y-30827862D01*
X24185099Y-30543238D01*
X24185096Y-30543232D01*
X24016542Y-30277632D01*
X24016539Y-30277628D01*
X23925712Y-30167838D01*
X23284250Y-30809300D01*
X23210412Y-30707670D01*
X23032330Y-30529588D01*
X22930698Y-30455748D01*
X23575027Y-29811419D01*
X23575026Y-29811417D01*
X23332227Y-29635014D01*
X23332209Y-29635003D01*
X23056552Y-29483459D01*
X23056544Y-29483455D01*
X22764073Y-29367659D01*
X22459379Y-29289426D01*
X22459370Y-29289424D01*
X22147298Y-29250000D01*
X21832701Y-29250000D01*
X21520629Y-29289424D01*
X21520620Y-29289426D01*
X21215926Y-29367659D01*
X20923455Y-29483455D01*
X20923447Y-29483459D01*
X20647787Y-29635004D01*
X20647782Y-29635007D01*
X20404972Y-29811418D01*
X20404971Y-29811419D01*
X21049301Y-30455748D01*
X20947670Y-30529588D01*
X20769588Y-30707670D01*
X20695748Y-30809300D01*
X20054286Y-30167838D01*
X20054285Y-30167838D01*
X19963459Y-30277629D01*
X19963457Y-30277632D01*
X19794903Y-30543232D01*
X19794900Y-30543238D01*
X19660965Y-30827862D01*
X19660963Y-30827867D01*
X19563755Y-31127041D01*
X19504808Y-31436050D01*
X19504807Y-31436057D01*
X19485057Y-31749994D01*
X18280500Y-31749994D01*
X18280500Y-20944500D01*
X18300185Y-20877461D01*
X18352989Y-20831706D01*
X18404500Y-20820500D01*
X50175500Y-20820500D01*
X50242539Y-20840185D01*
G37*
%TD.AperFunction*%
%TA.AperFunction,Conductor*%
G36*
X49145000Y-47060633D02*
G01*
X49358483Y-47003433D01*
X49358492Y-47003429D01*
X49572578Y-46903600D01*
X49766082Y-46768105D01*
X49933105Y-46601082D01*
X50071705Y-46403144D01*
X50072827Y-46403930D01*
X50118669Y-46360212D01*
X50187275Y-46346982D01*
X50252142Y-46372944D01*
X50292676Y-46429854D01*
X50299500Y-46470422D01*
X50299500Y-48402520D01*
X50279815Y-48469559D01*
X50227011Y-48515314D01*
X50157853Y-48525258D01*
X50094297Y-48496233D01*
X50062706Y-48454031D01*
X50029753Y-48381874D01*
X50029746Y-48381861D01*
X49955623Y-48266523D01*
X49954802Y-48265081D01*
X49952011Y-48260901D01*
X49857792Y-48152169D01*
X49857789Y-48152166D01*
X49749135Y-48058018D01*
X49749132Y-48058015D01*
X49722264Y-48040749D01*
X49628094Y-47980230D01*
X49628087Y-47980227D01*
X49628081Y-47980223D01*
X49503356Y-47923263D01*
X49499057Y-47921014D01*
X49359261Y-47879966D01*
X49359251Y-47879963D01*
X49229731Y-47861342D01*
X49216941Y-47859503D01*
X49216940Y-47859503D01*
X49160601Y-47859503D01*
X49160591Y-47859500D01*
X49109236Y-47859500D01*
X48680764Y-47859500D01*
X48629427Y-47859500D01*
X48629399Y-47859503D01*
X48573059Y-47859503D01*
X48439521Y-47878703D01*
X48439519Y-47878703D01*
X48430744Y-47879964D01*
X48292686Y-47920503D01*
X48161918Y-47980223D01*
X48161908Y-47980228D01*
X48161906Y-47980230D01*
X48128253Y-48001857D01*
X48040867Y-48058015D01*
X48040863Y-48058018D01*
X47932226Y-48152152D01*
X47932207Y-48152169D01*
X47932190Y-48152188D01*
X47871957Y-48221702D01*
X47813179Y-48259477D01*
X47778244Y-48264500D01*
X46864097Y-48264500D01*
X46797058Y-48244815D01*
X46751303Y-48192011D01*
X46741359Y-48122853D01*
X46770384Y-48059297D01*
X46776416Y-48052819D01*
X46908734Y-47920501D01*
X47358713Y-47470521D01*
X47358716Y-47470520D01*
X47470520Y-47358716D01*
X47520639Y-47271904D01*
X47549577Y-47221785D01*
X47590500Y-47069058D01*
X47590500Y-46910943D01*
X47590500Y-46613910D01*
X47610185Y-46546871D01*
X47662989Y-46501116D01*
X47732147Y-46491172D01*
X47795703Y-46520197D01*
X47816075Y-46542787D01*
X47856891Y-46601079D01*
X48023917Y-46768105D01*
X48217421Y-46903600D01*
X48431507Y-47003429D01*
X48431516Y-47003433D01*
X48645000Y-47060634D01*
X48645000Y-46163012D01*
X48702007Y-46195925D01*
X48829174Y-46230000D01*
X48960826Y-46230000D01*
X49087993Y-46195925D01*
X49145000Y-46163012D01*
X49145000Y-47060633D01*
G37*
%TD.AperFunction*%
%TD*%
M02*
